<svg xmlns="http://www.w3.org/2000/svg" xmlns:xlink="http://www.w3.org/1999/xlink" width="498" height="328.499" viewBox="0 0 498 328.499">
  <defs>
    <clipPath id="clip-path">
      <rect id="Rectángulo_366583" data-name="Rectángulo 366583" width="476.212" height="302.922" fill="none"/>
    </clipPath>
    <clipPath id="clip-path-2">
      <rect id="Rectángulo_366582" data-name="Rectángulo 366582" width="478.298" height="335.08" fill="#dbdbdb"/>
    </clipPath>
    <clipPath id="clip-path-3">
      <rect id="Rectángulo_366577" data-name="Rectángulo 366577" width="103.635" height="38.701" fill="none"/>
    </clipPath>
    <clipPath id="clip-path-4">
      <rect id="Rectángulo_366578" data-name="Rectángulo 366578" width="106.721" height="57.171" fill="none"/>
    </clipPath>
    <clipPath id="clip-path-5">
      <rect id="Rectángulo_366579" data-name="Rectángulo 366579" width="50.118" height="50.115" fill="none"/>
    </clipPath>
    <clipPath id="clip-path-6">
      <rect id="Rectángulo_366580" data-name="Rectángulo 366580" width="29.789" height="50.063" fill="none"/>
    </clipPath>
    <radialGradient id="radial-gradient" cx="0.5" cy="0.5" r="0.5" gradientUnits="objectBoundingBox">
      <stop offset="0" stop-color="#fff"/>
      <stop offset="1" stop-color="#91b3fa"/>
    </radialGradient>
    <clipPath id="clip-path-7">
      <rect id="Rectángulo_366525" data-name="Rectángulo 366525" width="81.66" height="97.05" fill="none"/>
    </clipPath>
    <clipPath id="clip-path-8">
      <rect id="Rectángulo_366520" data-name="Rectángulo 366520" width="33.409" height="33.41" fill="none"/>
    </clipPath>
    <linearGradient id="linear-gradient" y1="0.5" x2="1" y2="0.5" gradientUnits="objectBoundingBox">
      <stop offset="0" stop-color="#e01650"/>
      <stop offset="1" stop-color="#e01650" stop-opacity="0"/>
    </linearGradient>
    <linearGradient id="linear-gradient-2" x1="1" y1="0.5" x2="0" y2="0.5" gradientUnits="objectBoundingBox">
      <stop offset="0" stop-color="#ffb206"/>
      <stop offset="1" stop-color="#ffb206" stop-opacity="0"/>
    </linearGradient>
  </defs>
  <g id="Grupo_1083996" data-name="Grupo 1083996" transform="translate(-922 -710.5)">
    <path id="Trazado_794171" data-name="Trazado 794171" d="M135,0H371.669V204.181H0V135A135,135,0,0,1,135,0Z" transform="translate(1048.331 834.818)" fill="#8f52f5"/>
    <g id="Grupo_1033900" data-name="Grupo 1033900" transform="translate(922 710.5)">
      <g id="Grupo_1033899" data-name="Grupo 1033899" transform="translate(0 0)" clip-path="url(#clip-path)">
        <g id="Grupo_1033898" data-name="Grupo 1033898" transform="translate(-2.086 -32.158)">
          <g id="Grupo_1033897" data-name="Grupo 1033897" clip-path="url(#clip-path-2)">
            <path id="Trazado_782529" data-name="Trazado 782529" d="M454.155,49.405l-3.239,1.876a2.3,2.3,0,0,0-.833,3.141l.722,1.227c.832,1.444.473,2.1.209,2.336-.722.646-1.388,1.341-2.057,2.042-.2.2-.822.9-2.462-.054l-1.129-.651a2.306,2.306,0,0,0-3.141.826l-1.872,3.235a2.293,2.293,0,0,0,.822,3.135l1.116.652c1.542.892,1.51,1.356,1.312,2.008-.272.9-.558,1.795-.754,2.725-.175.827-.1,1.416-2.189,1.416h-1.29a2.294,2.294,0,0,0-2.288,2.293v3.743a2.294,2.294,0,0,0,2.288,2.293h1.29c2.091,0,2.015.591,2.189,1.417.2.931.482,1.827.754,2.725.2.652.231,1.111-1.312,2.008l-1.116.646a2.294,2.294,0,0,0-.822,3.135l1.872,3.24a2.312,2.312,0,0,0,3.141.832L446.5,95c1.64-.958,2.266-.257,2.462-.055.669.7,1.335,1.4,2.057,2.041.264.235.624.887-.209,2.337l-.722,1.226a2.3,2.3,0,0,0,.833,3.136l3.239,1.882a2.294,2.294,0,0,0,3.131-.833l.711-1.22c.854-1.472,1.7-1.412,2.056-1.3,1.029.33,1.983.542,3.044.821.394.1,1.06.383,1.06,2.134v1.314a2.3,2.3,0,0,0,2.288,2.293h3.744a2.308,2.308,0,0,0,2.3-2.293v-1.314c0-1.751.656-2.036,1.05-2.134,1.062-.279,2.013-.491,3.043-.821.36-.11,1.2-.169,2.057,1.3l.711,1.22a2.293,2.293,0,0,0,3.131.833l3.24-1.882a2.3,2.3,0,0,0,.832-3.136l-.711-1.226c-.856-1.45-.482-2.1-.221-2.337.724-.64,1.392-1.346,2.059-2.041.2-.2.82-.9,2.462.055l1.127.656a2.315,2.315,0,0,0,3.143-.832l1.882-3.24a2.309,2.309,0,0,0-.832-3.135l-1.118-.646c-1.542-.9-1.508-1.356-1.313-2.008.273-.9.559-1.794.755-2.725.177-.826.1-1.417,2.189-1.417h1.293a2.3,2.3,0,0,0,2.288-2.293V75.612a2.3,2.3,0,0,0-2.288-2.293h-1.293c-2.089,0-2.012-.59-2.189-1.416-.2-.931-.482-1.828-.755-2.725-.2-.652-.229-1.117,1.313-2.008l1.118-.652a2.308,2.308,0,0,0,.832-3.135l-1.882-3.235a2.308,2.308,0,0,0-3.143-.826l-1.127.651c-1.642.958-2.264.257-2.462.054-.667-.7-1.335-1.4-2.059-2.042-.26-.235-.635-.892.221-2.336l.711-1.227a2.305,2.305,0,0,0-.832-3.141l-3.24-1.876a2.3,2.3,0,0,0-3.131.827l-.711,1.226c-.854,1.472-1.7,1.412-2.057,1.3-1.03-.329-1.981-.542-3.043-.815-.394-.1-1.05-.384-1.05-2.134V48.491a2.305,2.305,0,0,0-2.3-2.293h-3.744a2.3,2.3,0,0,0-2.288,2.293V49.8c0,1.75-.666,2.03-1.06,2.134-1.061.273-2.015.487-3.044.815-.359.115-1.2.175-2.056-1.3l-.711-1.226a2.3,2.3,0,0,0-3.131-.827m14.164,23.137a4.941,4.941,0,1,1-4.937,4.942,4.946,4.946,0,0,1,4.937-4.942m-15.488,4.942a1.056,1.056,0,0,1,2.112,0,13.378,13.378,0,0,0,13.376,13.374,1.056,1.056,0,1,1,0,2.112,15.5,15.5,0,0,1-15.488-15.486m30.766-2.5a1.053,1.053,0,0,1-2.078.334,13.369,13.369,0,0,0-10.9-11.017,1.054,1.054,0,1,1,.352-2.079A15.49,15.49,0,0,1,483.6,74.988M468.319,59.134a18.349,18.349,0,1,1-18.345,18.35,18.354,18.354,0,0,1,18.345-18.35" transform="translate(-171.255 -13.528)" fill="#dbdbdb" fill-rule="evenodd"/>
            <path id="Trazado_782530" data-name="Trazado 782530" d="M180.4,242.183v-34.6a2.045,2.045,0,0,0-2.036-2.042H78.023c-1.117,0-2.867.92-2.867,2.042v36.458A2.051,2.051,0,0,0,77.2,246.08h98.492c3.731,0,4.706-2.771,4.706-3.9" transform="translate(-65.273 -60.188)" fill="#ce8125" fill-rule="evenodd"/>
            <path id="Trazado_782531" data-name="Trazado 782531" d="M181.068,242.179V207.566a2.044,2.044,0,0,0-2.036-2.042H79.477a2.049,2.049,0,0,0-2.044,2.042v34.613a2.05,2.05,0,0,0,2.044,2.047h99.554a2.049,2.049,0,0,0,2.036-2.047" transform="translate(-65.94 -60.183)" fill="#e2ddd7" fill-rule="evenodd"/>
            <path id="Trazado_782532" data-name="Trazado 782532" d="M180.193,242.8V208.186a.54.54,0,0,0-.537-.542H80.1a.544.544,0,0,0-.537.542V242.8a.539.539,0,0,0,.537.541h99.554a.539.539,0,0,0,.537-.541m-1.512-.958H81.064V209.15h97.617Z" transform="translate(-66.564 -60.804)" fill="#f4a338" fill-rule="evenodd"/>
            <path id="Trazado_782533" data-name="Trazado 782533" d="M180.483,242.123V207.509a2.169,2.169,0,0,0-.634-1.532v0a2.175,2.175,0,0,0-1.533-.64H78.761a1.3,1.3,0,0,0-.209.016h-.579a3.815,3.815,0,0,0-2.068.717,1.878,1.878,0,0,0-.92,1.455v36.458a2.182,2.182,0,0,0,2.167,2.172h98.492a5.06,5.06,0,0,0,3.339-1.067,4.2,4.2,0,0,0,1.5-2.79v-.17Zm-102.8-36.5a2.03,2.03,0,0,0-.449.345v0a2.118,2.118,0,0,0-.645,1.532v34.613a2.192,2.192,0,0,0,2.176,2.177h99.555a2.149,2.149,0,0,0,1.444-.558,3.929,3.929,0,0,1-.942,1.139,4.771,4.771,0,0,1-3.173,1.007H77.152a1.918,1.918,0,0,1-1.914-1.91V207.52a1.655,1.655,0,0,1,.82-1.242,3.731,3.731,0,0,1,1.62-.651m.886-.023h99.751a1.906,1.906,0,0,1,1.346.564,1.883,1.883,0,0,1,.558,1.351v34.705a1.882,1.882,0,0,1-.558,1.254,1.921,1.921,0,0,1-1.346.558H78.761a1.923,1.923,0,0,1-1.914-1.914V207.509a1.9,1.9,0,0,1,.569-1.351,1.88,1.88,0,0,1,1.15-.554" transform="translate(-65.223 -60.127)" fill="#ce8125" fill-rule="evenodd"/>
            <g id="Grupo_1033884" data-name="Grupo 1033884" transform="translate(11.493 145.341)" opacity="0.25">
              <g id="Grupo_1033883" data-name="Grupo 1033883">
                <g id="Grupo_1033882" data-name="Grupo 1033882" clip-path="url(#clip-path-3)">
                  <path id="Trazado_782534" data-name="Trazado 782534" d="M181.068,233.285C167.6,238.2,151.756,238.808,141.776,232c-19.724-13.434-13.561-.613-42.336-5.85C85.836,223.67,83.374,214.2,80,205.524h-.526a2.049,2.049,0,0,0-2.044,2.042v34.613a2.05,2.05,0,0,0,2.044,2.047h99.554a2.049,2.049,0,0,0,2.036-2.047Z" transform="translate(-77.433 -205.524)" fill="#cc9a5e" fill-rule="evenodd"/>
                </g>
              </g>
            </g>
            <path id="Trazado_782535" data-name="Trazado 782535" d="M107.906,217.782h60.755a1.045,1.045,0,0,1,0,2.09H107.906a1.045,1.045,0,0,1,0-2.09" transform="translate(-74.559 -63.773)" fill="#f4a338" fill-rule="evenodd"/>
            <path id="Trazado_782536" data-name="Trazado 782536" d="M91.356,224.608h84.156a1.045,1.045,0,0,1,0,2.09H91.356a1.045,1.045,0,1,1,0-2.09" transform="translate(-69.709 -65.772)" fill="#f4a338" fill-rule="evenodd"/>
            <path id="Trazado_782537" data-name="Trazado 782537" d="M91.356,231.433h84.156a1.045,1.045,0,0,1,0,2.09H91.356a1.045,1.045,0,1,1,0-2.09" transform="translate(-69.709 -67.77)" fill="#f4a338" fill-rule="evenodd"/>
            <path id="Trazado_782538" data-name="Trazado 782538" d="M142.037,82.264,138.7,84.206a2.378,2.378,0,0,0-.864,3.246l.733,1.269c.877,1.5.494,2.178.23,2.419-.754.668-1.431,1.4-2.134,2.112-.2.213-.844.936-2.549-.055l-1.161-.679a2.391,2.391,0,0,0-3.249.865l-1.948,3.345a2.4,2.4,0,0,0,.864,3.245l1.148.668c1.6.931,1.554,1.407,1.358,2.079-.286.931-.571,1.855-.778,2.819-.185.854-.1,1.466-2.266,1.466h-1.335a2.383,2.383,0,0,0-2.375,2.376v3.868a2.383,2.383,0,0,0,2.375,2.375h1.335c2.168,0,2.081.612,2.266,1.466.207.958.492,1.888.778,2.819.2.678.24,1.154-1.358,2.08l-1.148.673a2.387,2.387,0,0,0-.864,3.239l1.948,3.349a2.388,2.388,0,0,0,3.249.861l1.161-.68c1.706-.99,2.353-.262,2.549-.054.7.722,1.38,1.445,2.134,2.112.264.242.647.92-.23,2.419l-.733,1.269a2.375,2.375,0,0,0,.864,3.245l3.339,1.943a2.389,2.389,0,0,0,3.25-.859l.733-1.264c.888-1.521,1.752-1.461,2.125-1.346,1.061.34,2.044.558,3.152.849.4.1,1.095.4,1.095,2.211v1.358a2.368,2.368,0,0,0,2.363,2.368h3.875A2.378,2.378,0,0,0,161,141.311v-1.358c0-1.811.69-2.108,1.095-2.211,1.095-.291,2.08-.508,3.152-.849.373-.115,1.238-.175,2.126,1.346l.732,1.264a2.386,2.386,0,0,0,3.25.859l3.339-1.943a2.384,2.384,0,0,0,.864-3.245l-.745-1.269c-.864-1.5-.492-2.177-.217-2.419.743-.666,1.431-1.39,2.122-2.112.209-.207.856-.936,2.551.054l1.171.68a2.377,2.377,0,0,0,3.24-.861l1.948-3.349a2.374,2.374,0,0,0-.854-3.239l-1.16-.673c-1.6-.926-1.555-1.4-1.357-2.08.284-.931.581-1.861.788-2.819.174-.854.1-1.466,2.266-1.466h1.322a2.376,2.376,0,0,0,2.376-2.375V109.38A2.376,2.376,0,0,0,186.636,107h-1.322c-2.166,0-2.092-.612-2.266-1.466-.207-.964-.5-1.888-.788-2.819-.2-.673-.24-1.148,1.357-2.079l1.16-.668a2.382,2.382,0,0,0,.854-3.245l-1.948-3.345a2.379,2.379,0,0,0-3.24-.865l-1.171.679c-1.7.991-2.342.268-2.551.055-.69-.716-1.378-1.445-2.122-2.112-.274-.241-.647-.919.217-2.419l.745-1.269a2.387,2.387,0,0,0-.864-3.246l-3.339-1.942a2.385,2.385,0,0,0-3.25.859l-.732,1.269c-.888,1.516-1.753,1.455-2.126,1.341-1.071-.339-2.057-.564-3.152-.848-.4-.1-1.095-.394-1.095-2.2V81.317a2.382,2.382,0,0,0-2.374-2.369h-3.875a2.372,2.372,0,0,0-2.363,2.369V82.68c0,1.811-.69,2.1-1.095,2.2-1.107.284-2.091.509-3.152.848-.373.115-1.237.175-2.125-1.341l-.733-1.269a2.388,2.388,0,0,0-3.25-.859M156.693,106.2a5.114,5.114,0,1,1-5.111,5.116,5.111,5.111,0,0,1,5.111-5.116m-16.023,5.116a1.095,1.095,0,0,1,2.189,0,13.833,13.833,0,0,0,13.834,13.834,1.092,1.092,0,1,1,0,2.184,16.017,16.017,0,0,1-16.023-16.018m31.838-2.583a1.082,1.082,0,0,1-.909,1.247,1.094,1.094,0,0,1-1.245-.908,13.833,13.833,0,0,0-11.287-11.388,1.094,1.094,0,0,1,.375-2.156,16.05,16.05,0,0,1,13.067,13.205M156.693,92.328a18.986,18.986,0,1,1-18.979,18.989,18.992,18.992,0,0,1,18.979-18.989" transform="translate(-79.685 -23.118)" fill="#dbdbdb" fill-rule="evenodd"/>
            <path id="Trazado_782539" data-name="Trazado 782539" d="M648.546,342.561V289.6a2.112,2.112,0,0,0-2.1-2.108H543.118c-1.15,0-2.945.947-2.945,2.108v54.86a2.106,2.106,0,0,0,2.1,2.1H643.7c3.842,0,4.847-2.852,4.847-4.006" transform="translate(-201.443 -84.187)" fill="#d38424" fill-rule="evenodd"/>
            <path id="Trazado_782540" data-name="Trazado 782540" d="M649.231,342.559V289.591a2.11,2.11,0,0,0-2.1-2.1H544.612a2.1,2.1,0,0,0-2.1,2.1v52.967a2.106,2.106,0,0,0,2.1,2.1H647.131a2.111,2.111,0,0,0,2.1-2.1" transform="translate(-202.127 -84.185)" fill="#e0e1e2" fill-rule="evenodd"/>
            <path id="Trazado_782541" data-name="Trazado 782541" d="M648.32,343.2V290.231a.559.559,0,0,0-.547-.558H545.254a.552.552,0,0,0-.549.558V343.2a.551.551,0,0,0,.549.552H647.774a.557.557,0,0,0,.547-.552m-1.544-1H546.251V291.225H646.777Z" transform="translate(-202.77 -84.824)" fill="#f4a338" fill-rule="evenodd"/>
            <path id="Trazado_782542" data-name="Trazado 782542" d="M648.619,342.5V289.535a2.241,2.241,0,0,0-2.232-2.239H543.868a1.288,1.288,0,0,0-.209.011h-.6a3.96,3.96,0,0,0-2.126.738,1.958,1.958,0,0,0-.962,1.5v54.861a2.236,2.236,0,0,0,.656,1.582,2.275,2.275,0,0,0,1.588.656H643.64a5.21,5.21,0,0,0,3.437-1.1,4.258,4.258,0,0,0,1.532-2.875.306.306,0,0,0,.011-.1v-.07ZM542.752,287.6a1.967,1.967,0,0,0-.46.356,2.229,2.229,0,0,0-.658,1.583V342.5a2.232,2.232,0,0,0,.658,1.576,2.2,2.2,0,0,0,1.576.656H646.388a2.218,2.218,0,0,0,1.489-.569,4.2,4.2,0,0,1-.965,1.171,5.009,5.009,0,0,1-3.271,1.035H542.216a1.967,1.967,0,0,1-1.39-.575,1.99,1.99,0,0,1-.581-1.391V289.545a1.7,1.7,0,0,1,.843-1.281,3.781,3.781,0,0,1,1.665-.667m.918-.021H646.388a1.974,1.974,0,0,1,1.388.575,2.006,2.006,0,0,1,.581,1.395V342.5l-.011.059v.038a1.967,1.967,0,0,1-1.959,1.872H543.868A1.983,1.983,0,0,1,541.9,342.5V289.535a1.948,1.948,0,0,1,.582-1.391,1.989,1.989,0,0,1,1.192-.569" transform="translate(-201.384 -84.128)" fill="#d38424" fill-rule="evenodd"/>
            <g id="Grupo_1033887" data-name="Grupo 1033887" transform="translate(340.383 203.305)" opacity="0.25">
              <g id="Grupo_1033886" data-name="Grupo 1033886">
                <g id="Grupo_1033885" data-name="Grupo 1033885" clip-path="url(#clip-path-4)">
                  <path id="Trazado_782543" data-name="Trazado 782543" d="M649.231,333.391c-13.887,5.068-30.185,5.686-40.471-1.318-20.3-13.841-13.957-17.95-43.584-23.352-14.02-2.549-16.547-12.3-20.027-21.231h-.537a2.1,2.1,0,0,0-2.1,2.1v52.967a2.106,2.106,0,0,0,2.1,2.1H647.131a2.111,2.111,0,0,0,2.1-2.1Z" transform="translate(-542.51 -287.49)" fill="#fff" fill-rule="evenodd"/>
                </g>
              </g>
            </g>
            <path id="Trazado_782544" data-name="Trazado 782544" d="M573.887,304.784h62.559a1.076,1.076,0,0,1,1.073,1.074v.006a1.078,1.078,0,0,1-1.073,1.071H573.887a1.078,1.078,0,0,1-1.073-1.071v-.006a1.076,1.076,0,0,1,1.073-1.074" transform="translate(-211.001 -89.249)" fill="#f4a338" fill-rule="evenodd"/>
            <path id="Trazado_782545" data-name="Trazado 782545" d="M556.846,313.43h86.66a1.074,1.074,0,0,1,1.074,1.071v.006a1.075,1.075,0,0,1-1.074,1.074h-86.66a1.074,1.074,0,0,1-1.071-1.074V314.5a1.074,1.074,0,0,1,1.071-1.071" transform="translate(-206.012 -91.781)" fill="#f4a338" fill-rule="evenodd"/>
            <path id="Trazado_782546" data-name="Trazado 782546" d="M556.846,322.073h86.66a1.075,1.075,0,0,1,1.074,1.073v0a1.075,1.075,0,0,1-1.074,1.073h-86.66a1.074,1.074,0,0,1-1.071-1.073v0a1.074,1.074,0,0,1,1.071-1.073" transform="translate(-206.012 -94.312)" fill="#f4a338" fill-rule="evenodd"/>
            <path id="Trazado_782547" data-name="Trazado 782547" d="M573.887,330.709h62.559a1.076,1.076,0,0,1,0,2.151H573.887a1.076,1.076,0,0,1,0-2.151" transform="translate(-211.001 -96.841)" fill="#f4a338" fill-rule="evenodd"/>
            <path id="Trazado_782548" data-name="Trazado 782548" d="M556.846,339.352h86.66a1.075,1.075,0,0,1,1.074,1.073v0a1.075,1.075,0,0,1-1.074,1.073h-86.66a1.074,1.074,0,0,1-1.071-1.073v0a1.074,1.074,0,0,1,1.071-1.073" transform="translate(-206.012 -99.372)" fill="#f4a338" fill-rule="evenodd"/>
            <path id="Trazado_782549" data-name="Trazado 782549" d="M556.846,347.995h86.66a1.071,1.071,0,0,1,1.074,1.069v.009a1.075,1.075,0,0,1-1.074,1.073h-86.66a1.074,1.074,0,0,1-1.071-1.073v-.009a1.071,1.071,0,0,1,1.071-1.069" transform="translate(-206.012 -101.903)" fill="#f4a338" fill-rule="evenodd"/>
            <path id="Trazado_782550" data-name="Trazado 782550" d="M474.28,350.235l-285.482.428a10.327,10.327,0,0,1-10.343-10.309L178.172,147.8a10.323,10.323,0,0,1,10.306-10.344l285.486-.426a10.334,10.334,0,0,1,10.342,10.315l.285,192.552a10.318,10.318,0,0,1-10.311,10.337" transform="translate(-95.439 -40.127)" fill="#12263f" fill-rule="evenodd"/>
            <path id="Trazado_782551" data-name="Trazado 782551" d="M468.985,343.64l-266.166.4a9.41,9.41,0,0,1-9.434-9.408l-.264-171.767a9.437,9.437,0,0,1,9.412-9.44l266.166-.394a9.424,9.424,0,0,1,9.434,9.407L478.4,334.2a9.43,9.43,0,0,1-9.41,9.439" transform="translate(-99.816 -44.811)" fill="#eff9fc" fill-rule="evenodd"/>
            <path id="Trazado_782552" data-name="Trazado 782552" d="M477.993,163.061l.01,4.872-285.364.426v-4.876c-.008-5.7,3.918-10.337,10.661-10.349l264.011-.394c7.092-.011,10.67,3.558,10.683,10.321" transform="translate(-99.675 -44.727)" fill="#373f51" fill-rule="evenodd"/>
            <path id="Trazado_782553" data-name="Trazado 782553" d="M546.239,162.341a2.878,2.878,0,1,1-2.877-2.873,2.87,2.87,0,0,1,2.877,2.873m20.664-.033a2.879,2.879,0,1,1-2.88-2.873,2.881,2.881,0,0,1,2.88,2.873m-10.333.017a2.878,2.878,0,1,1-2.877-2.873,2.883,2.883,0,0,1,2.877,2.873" transform="translate(-201.534 -46.687)" fill="#fff" fill-rule="evenodd"/>
            <path id="Trazado_782554" data-name="Trazado 782554" d="M151.24,432.716H293.534a2.248,2.248,0,0,0,2.3,2.151h55.326a2.258,2.258,0,0,0,2.3-2.151H495.737v9.1a9.3,9.3,0,0,1-9.434,9.106H157.62a6.276,6.276,0,0,1-6.38-6.144Z" transform="translate(-87.552 -126.712)" fill="#12263f" fill-rule="evenodd"/>
            <path id="Trazado_782555" data-name="Trazado 782555" d="M217,200.441h78.913a.815.815,0,0,1,.82.82v5.314a.814.814,0,0,1-.82.815H217a.821.821,0,0,1-.82-.815v-5.314a.822.822,0,0,1,.82-.82" transform="translate(-106.569 -58.695)" fill="#b9c9d6" fill-rule="evenodd"/>
            <path id="Trazado_782556" data-name="Trazado 782556" d="M248.372,216.057H305.1a.814.814,0,0,1,.82.815v5.314a.819.819,0,0,1-.82.821H248.372a.827.827,0,0,1-.82-.821v-5.314a.822.822,0,0,1,.82-.815" transform="translate(-115.755 -63.268)" fill="#b9c9d6" fill-rule="evenodd"/>
            <path id="Trazado_782557" data-name="Trazado 782557" d="M239.866,216.057h-6.24a.813.813,0,0,0-.809.815v5.314a.818.818,0,0,0,.809.821h6.24a.816.816,0,0,0,.809-.821v-5.314a.811.811,0,0,0-.809-.815" transform="translate(-111.44 -63.268)" fill="#b9c9d6" fill-rule="evenodd"/>
            <path id="Trazado_782558" data-name="Trazado 782558" d="M248.372,230.512H305.1a.815.815,0,0,1,.82.815v5.315a.815.815,0,0,1-.82.82H248.372a.823.823,0,0,1-.82-.82v-5.315a.823.823,0,0,1,.82-.815" transform="translate(-115.755 -67.5)" fill="#b9c9d6" fill-rule="evenodd"/>
            <path id="Trazado_782559" data-name="Trazado 782559" d="M239.866,230.512h-6.24a.814.814,0,0,0-.809.815v5.315a.814.814,0,0,0,.809.82h6.24a.812.812,0,0,0,.809-.82v-5.315a.812.812,0,0,0-.809-.815" transform="translate(-111.44 -67.5)" fill="#b9c9d6" fill-rule="evenodd"/>
            <path id="Trazado_782560" data-name="Trazado 782560" d="M248.372,244.968H305.1a.813.813,0,0,1,.82.813V251.1a.814.814,0,0,1-.82.82H248.372a.822.822,0,0,1-.82-.82v-5.316a.822.822,0,0,1,.82-.813" transform="translate(-115.755 -71.734)" fill="#b9c9d6" fill-rule="evenodd"/>
            <path id="Trazado_782561" data-name="Trazado 782561" d="M239.866,244.968h-6.24a.812.812,0,0,0-.809.813V251.1a.813.813,0,0,0,.809.82h6.24a.812.812,0,0,0,.809-.82v-5.316a.811.811,0,0,0-.809-.813" transform="translate(-111.44 -71.734)" fill="#b9c9d6" fill-rule="evenodd"/>
            <path id="Trazado_782562" data-name="Trazado 782562" d="M217,264.554h78.913a.813.813,0,0,1,.82.813v5.316a.815.815,0,0,1-.82.82H217a.822.822,0,0,1-.82-.82v-5.316a.821.821,0,0,1,.82-.813" transform="translate(-106.569 -77.469)" fill="#b9c9d6" fill-rule="evenodd"/>
            <path id="Trazado_782563" data-name="Trazado 782563" d="M248.372,280.16H305.1a.816.816,0,0,1,.82.818V286.3a.818.818,0,0,1-.82.82H248.372a.826.826,0,0,1-.82-.82v-5.318a.824.824,0,0,1,.82-.818" transform="translate(-115.755 -82.039)" fill="#b9c9d6" fill-rule="evenodd"/>
            <path id="Trazado_782564" data-name="Trazado 782564" d="M239.866,280.16h-6.24a.815.815,0,0,0-.809.818V286.3a.817.817,0,0,0,.809.82h6.24a.815.815,0,0,0,.809-.82v-5.318a.813.813,0,0,0-.809-.818" transform="translate(-111.44 -82.039)" fill="#b9c9d6" fill-rule="evenodd"/>
            <path id="Trazado_782565" data-name="Trazado 782565" d="M248.372,294.623H305.1a.811.811,0,0,1,.82.815v5.316a.818.818,0,0,1-.82.82H248.372a.827.827,0,0,1-.82-.82v-5.316a.819.819,0,0,1,.82-.815" transform="translate(-115.755 -86.274)" fill="#ffdbe5" fill-rule="evenodd"/>
            <path id="Trazado_782566" data-name="Trazado 782566" d="M239.866,294.623h-6.24a.81.81,0,0,0-.809.815v5.316a.818.818,0,0,0,.809.82h6.24a.816.816,0,0,0,.809-.82v-5.316a.808.808,0,0,0-.809-.815" transform="translate(-111.44 -86.274)" fill="#b9c9d6" fill-rule="evenodd"/>
            <path id="Trazado_782567" data-name="Trazado 782567" d="M248.372,309.072H305.1a.815.815,0,0,1,.82.82v5.316a.813.813,0,0,1-.82.813H248.372a.821.821,0,0,1-.82-.813v-5.316a.823.823,0,0,1,.82-.82" transform="translate(-115.755 -90.505)" fill="#b9c9d6" fill-rule="evenodd"/>
            <path id="Trazado_782568" data-name="Trazado 782568" d="M239.866,309.072h-6.24a.814.814,0,0,0-.809.82v5.316a.812.812,0,0,0,.809.813h6.24a.81.81,0,0,0,.809-.813v-5.316a.812.812,0,0,0-.809-.82" transform="translate(-111.44 -90.505)" fill="#b9c9d6" fill-rule="evenodd"/>
            <path id="Trazado_782569" data-name="Trazado 782569" d="M217,328.659h78.913a.819.819,0,0,1,.82.82v5.315a.816.816,0,0,1-.82.82H217a.824.824,0,0,1-.82-.82v-5.315a.826.826,0,0,1,.82-.82" transform="translate(-106.569 -96.241)" fill="#b9c9d6" fill-rule="evenodd"/>
            <path id="Trazado_782570" data-name="Trazado 782570" d="M248.372,344.273H305.1a.814.814,0,0,1,.82.815v5.32a.814.814,0,0,1-.82.815H248.372a.822.822,0,0,1-.82-.815v-5.32a.822.822,0,0,1,.82-.815" transform="translate(-115.755 -100.813)" fill="#b9c9d6" fill-rule="evenodd"/>
            <path id="Trazado_782571" data-name="Trazado 782571" d="M239.866,344.273h-6.24a.813.813,0,0,0-.809.815v5.32a.813.813,0,0,0,.809.815h6.24a.811.811,0,0,0,.809-.815v-5.32a.811.811,0,0,0-.809-.815" transform="translate(-111.44 -100.813)" fill="#b9c9d6" fill-rule="evenodd"/>
            <path id="Trazado_782572" data-name="Trazado 782572" d="M248.372,358.728H305.1a.814.814,0,0,1,.82.818v5.317a.814.814,0,0,1-.82.816H248.372a.822.822,0,0,1-.82-.816v-5.317a.823.823,0,0,1,.82-.818" transform="translate(-115.755 -105.046)" fill="#b9c9d6" fill-rule="evenodd"/>
            <path id="Trazado_782573" data-name="Trazado 782573" d="M239.866,358.728h-6.24a.814.814,0,0,0-.809.818v5.317a.813.813,0,0,0,.809.816h6.24a.811.811,0,0,0,.809-.816v-5.317a.812.812,0,0,0-.809-.818" transform="translate(-111.44 -105.046)" fill="#b9c9d6" fill-rule="evenodd"/>
            <path id="Trazado_782574" data-name="Trazado 782574" d="M248.372,373.183H305.1a.817.817,0,0,1,.82.822v5.314a.814.814,0,0,1-.82.815H248.372a.822.822,0,0,1-.82-.815V374a.825.825,0,0,1,.82-.822" transform="translate(-115.755 -109.279)" fill="#b9c9d6" fill-rule="evenodd"/>
            <path id="Trazado_782575" data-name="Trazado 782575" d="M239.866,373.183h-6.24a.816.816,0,0,0-.809.822v5.314a.813.813,0,0,0,.809.815h6.24a.811.811,0,0,0,.809-.815V374a.814.814,0,0,0-.809-.822" transform="translate(-111.44 -109.279)" fill="#b9c9d6" fill-rule="evenodd"/>
            <path id="Trazado_782576" data-name="Trazado 782576" d="M383.017,200.441H353.171a.813.813,0,0,0-.81.82v5.314a.812.812,0,0,0,.81.815h29.846a.815.815,0,0,0,.822-.815v-5.314a.817.817,0,0,0-.822-.82" transform="translate(-146.446 -58.695)" fill="#b9c9d6" fill-rule="evenodd"/>
            <path id="Trazado_782577" data-name="Trazado 782577" d="M383.017,214.842H353.171a.813.813,0,0,0-.81.821v5.314a.813.813,0,0,0,.81.815h29.846a.817.817,0,0,0,.822-.815v-5.314a.817.817,0,0,0-.822-.821" transform="translate(-146.446 -62.912)" fill="#b9c9d6" fill-rule="evenodd"/>
            <path id="Trazado_782578" data-name="Trazado 782578" d="M383.017,229.235H353.171a.814.814,0,0,0-.81.821v5.314a.812.812,0,0,0,.81.815h29.846a.816.816,0,0,0,.822-.815v-5.314a.818.818,0,0,0-.822-.821" transform="translate(-146.446 -67.126)" fill="#ffdbe5" fill-rule="evenodd"/>
            <path id="Trazado_782579" data-name="Trazado 782579" d="M383.017,243.628H353.171a.817.817,0,0,0-.81.82v5.315a.816.816,0,0,0,.81.82h29.846a.82.82,0,0,0,.822-.82v-5.315a.821.821,0,0,0-.822-.82" transform="translate(-146.446 -71.341)" fill="#b9c9d6" fill-rule="evenodd"/>
            <path id="Trazado_782580" data-name="Trazado 782580" d="M383.017,258.023H353.171a.817.817,0,0,0-.81.82v5.316a.817.817,0,0,0,.81.82h29.846a.821.821,0,0,0,.822-.82v-5.316a.821.821,0,0,0-.822-.82" transform="translate(-146.446 -75.556)" fill="#b9c9d6" fill-rule="evenodd"/>
            <path id="Trazado_782581" data-name="Trazado 782581" d="M383.017,272.414H353.171a.817.817,0,0,0-.81.822v5.319a.811.811,0,0,0,.81.814h29.846a.815.815,0,0,0,.822-.814v-5.319a.821.821,0,0,0-.822-.822" transform="translate(-146.446 -79.771)" fill="#b9c9d6" fill-rule="evenodd"/>
            <path id="Trazado_782582" data-name="Trazado 782582" d="M383.017,286.815H353.171a.812.812,0,0,0-.81.817v5.318a.812.812,0,0,0,.81.815h29.846a.816.816,0,0,0,.822-.815v-5.318a.816.816,0,0,0-.822-.817" transform="translate(-146.446 -83.988)" fill="#b9c9d6" fill-rule="evenodd"/>
            <path id="Trazado_782583" data-name="Trazado 782583" d="M383.017,301.209H353.171a.813.813,0,0,0-.81.822v5.313a.812.812,0,0,0,.81.816h29.846a.816.816,0,0,0,.822-.816v-5.313a.817.817,0,0,0-.822-.822" transform="translate(-146.446 -88.203)" fill="#ffdbe5" fill-rule="evenodd"/>
            <path id="Trazado_782584" data-name="Trazado 782584" d="M383.017,315.6H353.171a.813.813,0,0,0-.81.82v5.314a.812.812,0,0,0,.81.815h29.846a.816.816,0,0,0,.822-.815v-5.314a.817.817,0,0,0-.822-.82" transform="translate(-146.446 -92.418)" fill="#ffdbe5" fill-rule="evenodd"/>
            <path id="Trazado_782585" data-name="Trazado 782585" d="M383.017,330H353.171a.815.815,0,0,0-.81.822v5.313a.815.815,0,0,0,.81.822h29.846a.818.818,0,0,0,.822-.822v-5.313a.819.819,0,0,0-.822-.822" transform="translate(-146.446 -96.632)" fill="#b9c9d6" fill-rule="evenodd"/>
            <path id="Trazado_782586" data-name="Trazado 782586" d="M383.017,344.4H353.171a.811.811,0,0,0-.81.813v5.316a.813.813,0,0,0,.81.82h29.846a.817.817,0,0,0,.822-.82v-5.316a.815.815,0,0,0-.822-.813" transform="translate(-146.446 -100.85)" fill="#b9c9d6" fill-rule="evenodd"/>
            <path id="Trazado_782587" data-name="Trazado 782587" d="M383.017,358.791H353.171a.813.813,0,0,0-.81.82v5.309a.813.813,0,0,0,.81.82h29.846a.817.817,0,0,0,.822-.82v-5.309a.817.817,0,0,0-.822-.82" transform="translate(-146.446 -105.064)" fill="#ffdbe5" fill-rule="evenodd"/>
            <path id="Trazado_782588" data-name="Trazado 782588" d="M383.017,373.183H353.171a.814.814,0,0,0-.81.822v5.314a.812.812,0,0,0,.81.815h29.846a.816.816,0,0,0,.822-.815V374a.818.818,0,0,0-.822-.822" transform="translate(-146.446 -109.279)" fill="#b9c9d6" fill-rule="evenodd"/>
            <path id="Trazado_782589" data-name="Trazado 782589" d="M406.67,200.441H519.981a.823.823,0,0,1,.82.82v5.314a.822.822,0,0,1-.82.815H406.67a.822.822,0,0,1-.822-.815v-5.314a.823.823,0,0,1,.822-.82" transform="translate(-162.109 -58.695)" fill="#f4a338" fill-rule="evenodd"/>
            <path id="Trazado_782590" data-name="Trazado 782590" d="M406.67,214.842h92.461a.815.815,0,0,1,.811.821v5.314a.814.814,0,0,1-.811.815H406.67a.823.823,0,0,1-.822-.815v-5.314a.824.824,0,0,1,.822-.821" transform="translate(-162.109 -62.912)" fill="#b9c9d6" fill-rule="evenodd"/>
            <path id="Trazado_782591" data-name="Trazado 782591" d="M406.67,229.235h96.139a.829.829,0,0,1,.822.821v5.314a.824.824,0,0,1-.822.815H406.67a.822.822,0,0,1-.822-.815v-5.314a.825.825,0,0,1,.822-.821" transform="translate(-162.109 -67.126)" fill="#b9c9d6" fill-rule="evenodd"/>
            <path id="Trazado_782592" data-name="Trazado 782592" d="M406.67,243.628h78.978a.818.818,0,0,1,.81.82v5.315a.818.818,0,0,1-.81.82H406.67a.827.827,0,0,1-.822-.82v-5.315a.828.828,0,0,1,.822-.82" transform="translate(-162.109 -71.341)" fill="#b9c9d6" fill-rule="evenodd"/>
            <path id="Trazado_782593" data-name="Trazado 782593" d="M406.67,258.023H522.235a.817.817,0,0,1,.809.82v5.316a.817.817,0,0,1-.809.82H406.67a.827.827,0,0,1-.822-.82v-5.316a.827.827,0,0,1,.822-.82" transform="translate(-162.109 -75.556)" fill="#b9c9d6" fill-rule="evenodd"/>
            <path id="Trazado_782594" data-name="Trazado 782594" d="M406.67,272.414h97.572a.819.819,0,0,1,.811.822v5.319a.816.816,0,0,1-.811.814H406.67a.822.822,0,0,1-.822-.814v-5.319a.828.828,0,0,1,.822-.822" transform="translate(-162.109 -79.771)" fill="#f4a338" fill-rule="evenodd"/>
            <path id="Trazado_782595" data-name="Trazado 782595" d="M406.67,286.815H522.235a.812.812,0,0,1,.809.817v5.318a.812.812,0,0,1-.809.815H406.67a.823.823,0,0,1-.822-.815v-5.318a.823.823,0,0,1,.822-.817" transform="translate(-162.109 -83.988)" fill="#b9c9d6" fill-rule="evenodd"/>
            <path id="Trazado_782596" data-name="Trazado 782596" d="M406.67,301.209h78.978a.815.815,0,0,1,.81.822v5.313a.813.813,0,0,1-.81.816H406.67a.823.823,0,0,1-.822-.816v-5.313a.824.824,0,0,1,.822-.822" transform="translate(-162.109 -88.203)" fill="#b9c9d6" fill-rule="evenodd"/>
            <path id="Trazado_782597" data-name="Trazado 782597" d="M406.67,315.6H513.644a.825.825,0,0,1,.822.82v5.314a.824.824,0,0,1-.822.815H406.67a.822.822,0,0,1-.822-.815v-5.314a.823.823,0,0,1,.822-.82" transform="translate(-162.109 -92.418)" fill="#b9c9d6" fill-rule="evenodd"/>
            <path id="Trazado_782598" data-name="Trazado 782598" d="M406.67,330h97.572a.816.816,0,0,1,.811.822v5.313a.82.82,0,0,1-.811.822H406.67a.825.825,0,0,1-.822-.822v-5.313a.825.825,0,0,1,.822-.822" transform="translate(-162.109 -96.632)" fill="#b9c9d6" fill-rule="evenodd"/>
            <path id="Trazado_782599" data-name="Trazado 782599" d="M406.67,344.4H522.235a.811.811,0,0,1,.809.813v5.316a.813.813,0,0,1-.809.82H406.67a.823.823,0,0,1-.822-.82v-5.316a.822.822,0,0,1,.822-.813" transform="translate(-162.109 -100.85)" fill="#b9c9d6" fill-rule="evenodd"/>
            <path id="Trazado_782600" data-name="Trazado 782600" d="M406.67,358.791h78.978a.814.814,0,0,1,.81.82v5.309a.814.814,0,0,1-.81.82H406.67a.823.823,0,0,1-.822-.82v-5.309a.823.823,0,0,1,.822-.82" transform="translate(-162.109 -105.064)" fill="#f4a338" fill-rule="evenodd"/>
            <path id="Trazado_782601" data-name="Trazado 782601" d="M406.67,373.183H522.235a.814.814,0,0,1,.809.822v5.314a.812.812,0,0,1-.809.815H406.67a.822.822,0,0,1-.822-.815V374a.825.825,0,0,1,.822-.822" transform="translate(-162.109 -109.279)" fill="#b9c9d6" fill-rule="evenodd"/>
            <path id="Trazado_782602" data-name="Trazado 782602" d="M60.384,454.193a.411.411,0,0,1-.417-.409l-.088-4.689a.406.406,0,0,1,.407-.421h.009a.41.41,0,0,1,.417.409l.087,4.691a.4.4,0,0,1-.4.419Z" transform="translate(-60.799 -131.384)" fill="#dfedfa"/>
            <path id="Trazado_782603" data-name="Trazado 782603" d="M309.873,191.766a29.122,29.122,0,0,0-33.533,47.4l-.111.191a1.67,1.67,0,0,0,.579,2.266l5.069,3.02a1.672,1.672,0,0,0,2.276-.579l.108-.192a29.12,29.12,0,0,0,25.611-52.1m-2.068,3.5A25.056,25.056,0,1,1,273.462,204a25.058,25.058,0,0,1,34.344-8.734" transform="translate(-121.12 -54.956)" fill="#12263f" fill-rule="evenodd"/>
            <path id="Trazado_782604" data-name="Trazado 782604" d="M278.192,263.958,270.6,276.735l5.077,3.01,7.585-12.767Z" transform="translate(-122.504 -77.294)" fill="#12263f" fill-rule="evenodd"/>
            <path id="Trazado_782605" data-name="Trazado 782605" d="M262.694,276.488l-5.077-3.015a1.655,1.655,0,0,0-2.266.575L248.424,285.7l-.011.017-14.95,25.155-.013.007-4.136,6.966-14.962,25.163a1.657,1.657,0,0,0,.579,2.266l5.079,3.02a1.668,1.668,0,0,0,2.266-.575l6.927-11.651v-.015l14.962-25.164,4.149-6.972,14.95-25.155a1.662,1.662,0,0,0-.571-2.272" transform="translate(-105.966 -80.013)" fill="#f4a338" fill-rule="evenodd"/>
            <g id="Grupo_1033890" data-name="Grupo 1033890" transform="translate(148.818 136.785)" opacity="0.4">
              <g id="Grupo_1033889" data-name="Grupo 1033889">
                <g id="Grupo_1033888" data-name="Grupo 1033888" clip-path="url(#clip-path-5)">
                  <path id="Trazado_782606" data-name="Trazado 782606" d="M275.144,205.68a25.056,25.056,0,1,0,34.344-8.734,25.052,25.052,0,0,0-34.344,8.734" transform="translate(-271.622 -193.426)" fill="#dfedfa" fill-rule="evenodd"/>
                </g>
              </g>
            </g>
            <g id="Grupo_1033893" data-name="Grupo 1033893" transform="translate(160.101 136.838)" opacity="0.4">
              <g id="Grupo_1033892" data-name="Grupo 1033892">
                <g id="Grupo_1033891" data-name="Grupo 1033891" clip-path="url(#clip-path-6)">
                  <path id="Trazado_782607" data-name="Trazado 782607" d="M317.366,237.781l-5.984-42.241c-.69-.3-1.391-.574-2.091-.8l6.293,44.4c.613-.426,1.2-.881,1.782-1.358m-11.623,5.391-7.024-49.585a25.14,25.14,0,0,0-11.142,3.983l6.367,44.874a25,25,0,0,0,11.8.728m8.233-3.022a25.007,25.007,0,0,1-4.061,1.9l-6.885-48.55a24.532,24.532,0,0,1,4.434.7Z" transform="translate(-287.577 -193.5)" fill="#fefefe" fill-rule="evenodd"/>
                </g>
              </g>
            </g>
            <path id="Trazado_782608" data-name="Trazado 782608" d="M607.019,411.6V377a2.05,2.05,0,0,0-2.047-2.042H504.64c-1.127,0-2.866.926-2.866,2.042v36.463a2.05,2.05,0,0,0,2.047,2.04h98.492c3.731,0,4.706-2.769,4.706-3.9" transform="translate(-190.199 -109.798)" fill="#8f52f5" fill-rule="evenodd"/>
            <path id="Trazado_782609" data-name="Trazado 782609" d="M607.686,411.6V376.988a2.051,2.051,0,0,0-2.046-2.047H506.1a2.054,2.054,0,0,0-2.044,2.047V411.6a2.051,2.051,0,0,0,2.044,2.049h99.544a2.052,2.052,0,0,0,2.046-2.049" transform="translate(-190.865 -109.793)" fill="#eff9fc" fill-rule="evenodd"/>
            <path id="Trazado_782610" data-name="Trazado 782610" d="M606.807,412.223V377.611a.549.549,0,0,0-.547-.544H506.716a.543.543,0,0,0-.545.544v34.612a.542.542,0,0,0,.545.542H606.26a.546.546,0,0,0,.547-.542m-1.51-.962H507.681V378.573H605.3Z" transform="translate(-191.486 -110.416)" fill="#12263f" fill-rule="evenodd"/>
            <path id="Trazado_782611" data-name="Trazado 782611" d="M607.1,411.546V376.934a2.178,2.178,0,0,0-2.178-2.179H505.374a1.841,1.841,0,0,0-.206.013h-.581a3.819,3.819,0,0,0-2.066.719,1.9,1.9,0,0,0-.933,1.453V413.4a2.178,2.178,0,0,0,2.178,2.172h98.492a5.081,5.081,0,0,0,3.339-1.07,4.168,4.168,0,0,0,1.486-2.789.242.242,0,0,0,.013-.094v-.076Zm-102.817-36.5a2.651,2.651,0,0,0-.447.351,2.172,2.172,0,0,0-.635,1.537v34.613a2.179,2.179,0,0,0,2.177,2.179h99.544a2.173,2.173,0,0,0,1.454-.559,3.926,3.926,0,0,1-.941,1.139,4.827,4.827,0,0,1-3.173,1.006H503.766a1.912,1.912,0,0,1-1.914-1.908V376.94a1.657,1.657,0,0,1,.82-1.238,3.805,3.805,0,0,1,1.607-.658m.9-.015h99.74a1.916,1.916,0,0,1,1.914,1.91v34.71a1.909,1.909,0,0,1-1.914,1.813H505.374a1.909,1.909,0,0,1-1.914-1.916V376.934a1.877,1.877,0,0,1,.56-1.352,1.9,1.9,0,0,1,1.158-.552" transform="translate(-190.144 -109.739)" fill="#4adbd1" fill-rule="evenodd"/>
            <path id="Trazado_782613" data-name="Trazado 782613" d="M534.522,387.207h60.743a1.045,1.045,0,0,1,0,2.089H534.522a1.045,1.045,0,1,1,0-2.089" transform="translate(-199.481 -113.385)" fill="#8f52f5" fill-rule="evenodd"/>
            <path id="Trazado_782614" data-name="Trazado 782614" d="M517.966,394.034h84.166a1.044,1.044,0,0,1,1.04,1.04v0a1.049,1.049,0,0,1-1.04,1.045H517.966a1.046,1.046,0,0,1-1.039-1.045v0a1.041,1.041,0,0,1,1.039-1.04" transform="translate(-194.636 -115.384)" fill="#8f52f5" fill-rule="evenodd"/>
            <path id="Trazado_782615" data-name="Trazado 782615" d="M517.966,400.858h84.166a1.046,1.046,0,0,1,0,2.091H517.966a1.046,1.046,0,0,1,0-2.091" transform="translate(-194.636 -117.383)" fill="#8f52f5" fill-rule="evenodd"/>
            <path id="Trazado_782616" data-name="Trazado 782616" d="M664.106,208.7c-2.813.634-6.37,8.461-8.111,13.474-2.219,5.27-2.735,19.137-1.444,19.591-2.385,5.988,11.644.219,11,.153s-1.446-33.217-1.446-33.217" transform="translate(-234.732 -61.114)" fill="#f4a338" fill-rule="evenodd"/>
            <path id="Trazado_782617" data-name="Trazado 782617" d="M657.879,217.515c1.84-4.175,4.247-8.357,6.271-8.811,0,0,.077,2.972.185,7.126-.775,9.2-2.09,22.714-2.427,26.126-16.134.081-2.279,1.422-4.029-24.441" transform="translate(-234.776 -61.114)" fill="#e28f2b" fill-rule="evenodd"/>
            <path id="Trazado_782618" data-name="Trazado 782618" d="M676.281,206.259s3.414,1.713,6.4,3.547c1.661,1.028,3.382,4.142,2.9,4.689-.328.378-1.259-.269-1.007-.138,2.091,1.069-3.1,30.279-4.868,31.62s-17.305.23-19.077-1.455,1.356-6.869-.175-17.234,4.672-19.317,5.471-19.3c1.161-.31,6.042-1.773,6-1.729Z" transform="translate(-236.553 -60.398)" fill="#f4a338" fill-rule="evenodd"/>
            <path id="Trazado_782619" data-name="Trazado 782619" d="M679.29,249.388c-1.764,1.339-12.884,1.367-17.623-.1-.526-.17-2.954-1.133-3.022-2.04.581-.111,2.847.161,3.765-.052,3.208-.733,4.971-4.7,4.971-4.7s1.762-.635,5.712-2.3,2.31-6.732,2.409-8.958,2.517-7.8,9.664-13.326l.666,1.32c.515,5.073-4.9,28.926-6.542,30.164" transform="translate(-236.135 -63.809)" fill="#e28f2b" fill-rule="evenodd"/>
            <path id="Trazado_782620" data-name="Trazado 782620" d="M624.061,260.285c-6.753-1.023-9.041-.7-13.168,6.983s-9.619,21.511-12.781,23.3c-4.762,2.685-6.338,9.287-8.287,8.985s-3.218.571-1.084,2.338,5.55,3.271,6.732,2.954,2.08-5.386,5.143-7.032,2.147-3,1.951-4.459,8.953-8.159,15.846-16.5c4.214-5.1,6.391-8.461,6.71-11.515a8.059,8.059,0,0,0-1.063-5.056" transform="translate(-215.34 -76.095)" fill="#e8b592" fill-rule="evenodd"/>
            <path id="Trazado_782621" data-name="Trazado 782621" d="M615.5,288.141c1.565-3.967,3.141-10.529,4.619-16.543,2.1-8.555,4.3-10.584,5.692-11.492,1.685-.428,3.676-.23,6.413.179a8.059,8.059,0,0,1,1.063,5.056c-.32,3.054-2.5,6.415-6.71,11.515A121.383,121.383,0,0,1,615.5,288.141" transform="translate(-223.5 -76.096)" fill="#efad81" fill-rule="evenodd"/>
            <path id="Trazado_782622" data-name="Trazado 782622" d="M636.237,267.044s1.8,13.544,3.459,14.922c1.2.979,2.047,1.046,2.877-2.992s-1.291-19.111-1.291-19.111Z" transform="translate(-229.573 -76.095)" fill="#373f51" fill-rule="evenodd"/>
            <path id="Trazado_782623" data-name="Trazado 782623" d="M636.529,275.371l16.6,2.792-9.379-13.446-7.136-1.457-4.278.986Z" transform="translate(-228.431 -77.09)" fill="#f4a338" fill-rule="evenodd"/>
            <path id="Trazado_782624" data-name="Trazado 782624" d="M669.824,260.984c5.886,10.581,1.861,17.3-5.3,17.983s-18.464-.622-25.053-6.094-12.006-11.275-11.25-12.139,41.6.251,41.6.251" transform="translate(-227.206 -76.255)" fill="#efad81" fill-rule="evenodd"/>
            <path id="Trazado_782625" data-name="Trazado 782625" d="M633.606,269.714c-1.216-3.616-2.6-6.4-5.3-6.446-2.836-.056-4.575,1.416-4.7,6.052-.142,5.515-.33,23.784-.076,31.91.2,6.144-1.6,8.116-1.446,14.524.111,4.826-5.034,2.392-3.054,4.9,1.369,1.721,5.441,1.156,7.935.839,2.234-.285-1.148-6.955,1.938-8.744,2.638-1.533,2.692-4.018,1.018-5.9s-.175-7.449.941-11.35,2.837-8.116,3.974-17.331a22.267,22.267,0,0,0-1.238-8.45" transform="translate(-224.404 -77.092)" fill="#e8b592" fill-rule="evenodd"/>
            <path id="Trazado_782626" data-name="Trazado 782626" d="M620.793,336.669a11.768,11.768,0,0,0,2.824.581c1.849.059,2.406-1.983,2.539-4.758a13.222,13.222,0,0,1,3.667-7.781c.034.045.066.089.1.127,1.674,1.881,1.621,4.366-1.018,5.9-3.086,1.789.3,8.459-1.938,8.744-2.494.318-6.565.882-7.934-.839-1.291-1.629.319-1.755,1.763-1.974" transform="translate(-224.396 -95.085)" fill="#373f51" fill-rule="evenodd"/>
            <path id="Trazado_782627" data-name="Trazado 782627" d="M589.79,313.251a13.047,13.047,0,0,0,2.539,1.872c1.848.952,3.568-.564,5.254-2.928,1.476-2.068,3.085-5.077,5.79-5.558a.773.773,0,0,0,.042.163c.635,2.457,1.5,5.134-2.047,5.193-4.138.066-4.466,7.541-6.885,6.71-2.726-.931-7.179-2.414-7.594-4.58-.4-2.047,1.3-1.386,2.9-.871" transform="translate(-215.105 -89.792)" fill="#373f51" fill-rule="evenodd"/>
            <path id="Trazado_782628" data-name="Trazado 782628" d="M633.753,323.916s2.716,2.828,2.464,4A42.786,42.786,0,0,0,635,334.355c-.143,2.287-.262,4.916-.262,4.916s-.987,0-1.063-.279-.614-9.3-.614-9.3Z" transform="translate(-228.644 -94.852)" fill="#373f51" fill-rule="evenodd"/>
            <path id="Trazado_782629" data-name="Trazado 782629" d="M607.636,306.636s1.158,3.787.251,4.694-1.115,2.988-2.538,4.926-3.045,4.169-3.045,4.169-.984-.47-.908-.75S606,311.232,606,311.232Z" transform="translate(-219.369 -89.792)" fill="#373f51" fill-rule="evenodd"/>
            <path id="Trazado_782630" data-name="Trazado 782630" d="M675.876,259.863s2.739,11.219.438,16.817c-1.158,2.835-2.9,3.162-10.035,2.992-6.93-.168-15.663-.328-18.005-.436-2.922-.164-6.14,3.141-6.14,3.141s2.036-8.276.647-14.957-3.635-7.136-3.635-7.136l2.988-.421Z" transform="translate(-230.425 -76.095)" fill="#373f51" fill-rule="evenodd"/>
            <path id="Trazado_782631" data-name="Trazado 782631" d="M682.813,254.385c-1.486,3.169,1.61,8.646.528,10.222s-7.314.219-11.394-3.058-11.8-4.012-11.8-4.012Z" transform="translate(-236.575 -74.491)" fill="#f4a338" fill-rule="evenodd"/>
            <path id="Trazado_782632" data-name="Trazado 782632" d="M667.088,256.545c-.952.421-5.09.433-6.578.109s-.371-2.406.2-2.995,3.165-.649,3.405-.89-1.554-.192-1.729-.5,1.948-.383,2.988-.673a9.326,9.326,0,0,0,3.829.6,11.754,11.754,0,0,0,.429,3.62c-.58.226-2.145.558-2.538.735" transform="translate(-236.465 -73.674)" fill="#e8b592" fill-rule="evenodd"/>
            <path id="Trazado_782633" data-name="Trazado 782633" d="M686.8,255.237a4.75,4.75,0,0,0-.153,1.061c-.166.021-.5.034-.669.049-.645.076-1.279.153-1.914.223-.352.045-.69.083-1.028.122-4.336.483-8.033.781-8.451.428,3.284-.5,3.416-.613,3.678-.63,3.175-.218,5.867-.931,8.538-1.252" transform="translate(-240.803 -74.741)" fill="#e28f2b" fill-rule="evenodd"/>
            <path id="Trazado_782634" data-name="Trazado 782634" d="M689.162,216.193c2.868,9.188,2.432,8.351,4.27,14.015,1.356,4.138,3.479,10.424.349,11.509-5.592,1.931-19.143,4.63-19.973,3.925-.976-.839-1.117-3.733-.984-4.155s14.04-5.592,14.04-5.592-1.827-3.58-2.527-10.578,4.136-10.02,4.826-9.123" transform="translate(-240.274 -63.263)" fill="#f4a338" fill-rule="evenodd"/>
            <path id="Trazado_782635" data-name="Trazado 782635" d="M614.011,227.006h30.151a1.5,1.5,0,0,1,1.369,1.083l5.365,20.429a.8.8,0,0,1-.8,1.078H619.944a1.492,1.492,0,0,1-1.358-1.078l-5.362-20.429a.8.8,0,0,1,.788-1.083" transform="translate(-222.822 -66.474)" fill-rule="evenodd" fill="url(#radial-gradient)"/>
            <path id="Trazado_782636" data-name="Trazado 782636" d="M649.812,241.26l-3.646-13.866a1.5,1.5,0,0,0-1.368-1.083H614.646c-.59,0-1.653.772-1.478,1.357A.8.8,0,0,1,614,226.8h30.151a1.5,1.5,0,0,1,1.369,1.083l5.365,20.43a.858.858,0,0,1-.209.871c.491-.319.962-.941.851-1.363Z" transform="translate(-222.812 -66.27)" fill="#5573c6" fill-rule="evenodd"/>
            <path id="Trazado_782637" data-name="Trazado 782637" d="M652.757,258.338H622.606a1.251,1.251,0,0,1-.33-.045c.6,1.554,2.234,1.325,2.869,1.32H660.9c1.925-.083,1.883-1.44,1.9-2.754h-8.591a1.747,1.747,0,0,1-.865,1.271.887.887,0,0,1-.592.207" transform="translate(-225.485 -75.216)" fill="#5573c6" fill-rule="evenodd"/>
            <path id="Trazado_782638" data-name="Trazado 782638" d="M647.793,238.885c-3.228,1.636-7.062,2.138-10.989,2.343a2.862,2.862,0,0,1,.1.432,2.582,2.582,0,0,1-2.593,3.068,3.4,3.4,0,0,1-3.273-2.824,2.708,2.708,0,0,1-.044-.5c-4.08.111-8.02.334-11.283,1.61l2.245,8.542H651.12Z" transform="translate(-224.733 -69.952)" fill="#5573c6" fill-rule="evenodd"/>
            <path id="Trazado_782639" data-name="Trazado 782639" d="M638.744,240.216a2.378,2.378,0,0,1,2.266,1.952,1.634,1.634,0,0,1-1.653,1.96,2.383,2.383,0,0,1-2.266-1.96,1.628,1.628,0,0,1,1.653-1.952" transform="translate(-229.816 -70.342)" fill="#5573c6" fill-rule="evenodd"/>
            <path id="Trazado_782640" data-name="Trazado 782640" d="M673.182,202.767a2.743,2.743,0,0,0,.119-.6c0-.827-2.321-9.375-2.321-9.375l5.179-2.293,1.05,3.864a20.03,20.03,0,0,1-4.027,8.4" transform="translate(-239.747 -55.785)" fill="#eaae68" fill-rule="evenodd"/>
            <path id="Trazado_782641" data-name="Trazado 782641" d="M670.225,179.612s7.277-8.263,10.857-2.747c0,0,2.747,1.231,3.622,5.993.886,4.86-2.726,9.8-4.357,8.842-1.048-.607-1.912,1.231-1.912,1.231Z" transform="translate(-239.526 -51.235)" fill="#373f51" fill-rule="evenodd"/>
            <path id="Trazado_782642" data-name="Trazado 782642" d="M684.526,175.284s1.05-3.76,6.576-2.419c0,0-2.649-.41-3.414.591,0,0,2.144-.909,3.435-.06s1.446,3.574,1.216,4.394-1.74,3.251-2.716,3.224a4.424,4.424,0,0,1-2.078-.909Z" transform="translate(-243.713 -50.535)" fill="#373f51" fill-rule="evenodd"/>
            <path id="Trazado_782643" data-name="Trazado 782643" d="M680.085,203.742c.154-.821-.668-2.266-.526-6.845l-.36.059-5.988,1.013s-.141,4.87-.185,6.637c-.032,1.473,7.171.443,7.06-.864" transform="translate(-240.346 -57.657)" fill="#e8b592" fill-rule="evenodd"/>
            <path id="Trazado_782644" data-name="Trazado 782644" d="M673.246,197.994s-.042,1.767-.1,3.535c3.339-.006,5.32-2.885,6.087-4.548Z" transform="translate(-240.382 -57.682)" fill="#eaae68" fill-rule="evenodd"/>
            <path id="Trazado_782645" data-name="Trazado 782645" d="M678.457,190.982a17.457,17.457,0,0,0,2.309-5.062c.349-1.674-.339-7.94-6.632-7.218a8.627,8.627,0,0,0-3.58,1.237c-1.391.886-3.4,2.819-1.357,8.323l.516,1.861Z" transform="translate(-238.969 -52.312)" fill="#373f51" fill-rule="evenodd"/>
            <path id="Trazado_782646" data-name="Trazado 782646" d="M678.483,190.7c.143-4.916,1.259-8.176-3.765-8.608s-6.063,1.412-6.5,3.042c-3.667,14.184,10.014,12.822,10.267,5.566" transform="translate(-238.755 -53.303)" fill="#e8b592" fill-rule="evenodd"/>
            <path id="Trazado_782647" data-name="Trazado 782647" d="M672.592,181.415c1.565,1.762,3.842,8.751,8.877,8.843,1.4.023,1.411-1.483,1.16-1.981a9.368,9.368,0,0,1-2.911-5.625s-5.418-3.935-7.126-1.238" transform="translate(-240.219 -52.847)" fill="#373f51" fill-rule="evenodd"/>
            <path id="Trazado_782648" data-name="Trazado 782648" d="M671.445,181.322a6.938,6.938,0,0,0-2.079,2.485c-.427,1.237-1.206,3.825-1.951,3.715,0,0-1.454-4.443.429-6.611,2.977-4.788,4.226-1.22,3.6.41" transform="translate(-238.546 -52.272)" fill="#373f51" fill-rule="evenodd"/>
            <path id="Trazado_782649" data-name="Trazado 782649" d="M673.522,181.666s1.367,6.075,5.494,8.127c0,0-4.084-3.825-4.323-7.82s-1.171-.307-1.171-.307" transform="translate(-240.491 -52.743)" fill="#373f51" fill-rule="evenodd"/>
            <path id="Trazado_782650" data-name="Trazado 782650" d="M679.766,206.322a3.049,3.049,0,0,1-1.729,1,12.539,12.539,0,0,1-2.375.422,6.7,6.7,0,0,1-2.123-.115c-.46-.126-.778-.328-.831-.624l-.843.262c.108.7.645,1,1.444,1.216a7.412,7.412,0,0,0,2.406.141,13.243,13.243,0,0,0,2.552-.455c1.3-.361,2.189-.776,2.4-1.412Z" transform="translate(-240.006 -60.417)" fill="#e28f2b" fill-rule="evenodd"/>
            <path id="Trazado_782651" data-name="Trazado 782651" d="M672.454,178.865c.722-.158,1.063-.493.994-1.007a3.258,3.258,0,0,0-2.636-.98,4.171,4.171,0,0,1,1.642,1.987" transform="translate(-239.698 -51.79)" fill="#373f51" fill-rule="evenodd"/>
            <path id="Trazado_782652" data-name="Trazado 782652" d="M674.493,179.033c-.666.35-1.137.307-1.423-.131a3.278,3.278,0,0,1,1.4-2.436,4.21,4.21,0,0,0,.021,2.566" transform="translate(-240.359 -51.675)" fill="#373f51" fill-rule="evenodd"/>
            <path id="Trazado_782653" data-name="Trazado 782653" d="M670.832,190.355c-.183.012-.349-.208-.36-.487s.13-.514.318-.525.341.207.349.487-.12.514-.307.525" transform="translate(-239.598 -55.445)" fill="#5573c6" fill-rule="evenodd"/>
            <path id="Trazado_782654" data-name="Trazado 782654" d="M674.82,189.348c1.718-.488,1.5-.421,2.834.492a1.815,1.815,0,0,0-2.168-1.116c-.426.093-.5.071-.667.624" transform="translate(-240.871 -55.248)" fill="#5573c6" fill-rule="evenodd"/>
            <path id="Trazado_782655" data-name="Trazado 782655" d="M676.111,190.623c.175.017.339-.2.36-.476s-.1-.52-.284-.542-.338.2-.36.483.107.514.284.535" transform="translate(-241.166 -55.522)" fill="#5573c6" fill-rule="evenodd"/>
            <path id="Trazado_782656" data-name="Trazado 782656" d="M671.387,189.154c-1.544-.808-1.337-.705-2.726-.054a1.637,1.637,0,0,1,2.2-.69c.381.17.45.165.526.744" transform="translate(-239.068 -55.119)" fill="#5573c6" fill-rule="evenodd"/>
            <path id="Trazado_782657" data-name="Trazado 782657" d="M674.513,197.661a23.283,23.283,0,0,1-2.6.16,2.3,2.3,0,0,0,2.6-.16" transform="translate(-239.995 -57.881)" fill="#fff" fill-rule="evenodd"/>
            <path id="Trazado_782658" data-name="Trazado 782658" d="M670.969,189.352c.032,0,.055.093.042.2s-.032.185-.064.185-.068-.093-.045-.2c0-.1.032-.185.066-.18" transform="translate(-239.722 -55.448)" fill="#a4d0fc" fill-rule="evenodd"/>
            <path id="Trazado_782659" data-name="Trazado 782659" d="M676.133,189.7c.034,0,.055.088.045.192s-.045.192-.076.187-.055-.094-.044-.2.044-.187.076-.181" transform="translate(-241.233 -55.549)" fill="#a4d0fc" fill-rule="evenodd"/>
            <path id="Trazado_782660" data-name="Trazado 782660" d="M542.76,97.982H601a1.675,1.675,0,0,0,0-3.35H542.76a1.675,1.675,0,0,0,0,3.35m83.19-13.861h6.94a1.675,1.675,0,0,0,0-3.35l-6.94,0a1.677,1.677,0,0,0,0,3.354M614.864,97.982H620.4a1.675,1.675,0,1,0,0-3.35h-5.539a1.675,1.675,0,0,0,0,3.35m-61-13.861h61a1.675,1.675,0,1,0-.009-3.35l-61,0a1.677,1.677,0,0,0,0,3.354" transform="translate(-201.71 -23.651)" fill="#dbdbdb" fill-rule="evenodd"/>
            <path id="Trazado_782665" data-name="Trazado 782665" d="M464.982,255.019c.634-.3,4.117-.236,7.586.475a6.752,6.752,0,0,1-.875-2.2c-6.2-.929-5.592-2.462-5.363-3.16,1.246-3.322,2-5.418,1.105-6.415a3.138,3.138,0,0,0-1.806,2.183c-.394-.236-.885-.547-.954-1-.151-1.322-.1-4.093-1.619-4.323-.306,1.216-.568,2.506-.8,3.869-.613.492-2.911,9.243,2.747,10.005Z" transform="translate(-178.34 -70.451)" fill="#e8b592" fill-rule="evenodd"/>
            <path id="Trazado_782666" data-name="Trazado 782666" d="M466.132,247.75c-.23.7.918,2.218,5.483,3.62.677-.1,1.235-.788,1.861-1.071a7.918,7.918,0,0,0,3.633-3.119c3.612-6.048.251-8.942-1.576-10.037-.4-6.266-9.809-1.411-14.108-4.71-1.97,2.353.032,5.614,1.433,5.767,1.521.23,1.467,3,1.619,4.323.068.449.56.76.954,1a2.815,2.815,0,0,1,1.259-1.812c.4-.269.5-.409.722.054.526,1.1-.153,3-1.28,5.989" transform="translate(-178.142 -68.063)" fill="#373f51" fill-rule="evenodd"/>
            <path id="Trazado_782667" data-name="Trazado 782667" d="M481.352,240.411c-.656-.728-.754-1.341-.294-1.844a4.288,4.288,0,0,1,3.567.975,5.546,5.546,0,0,0-3.273.868" transform="translate(-184.049 -69.844)" fill="#373f51" fill-rule="evenodd"/>
            <path id="Trazado_782668" data-name="Trazado 782668" d="M479.89,238.595c.328.647.722.878,1.192.689a3.12,3.12,0,0,0,.275-2.714,4.023,4.023,0,0,1-1.467,2.025" transform="translate(-183.79 -69.274)" fill="#373f51" fill-rule="evenodd"/>
            <path id="Trazado_782669" data-name="Trazado 782669" d="M476.234,234.52a2.7,2.7,0,0,1-2.607,2.977c-3.107-1.067-4.891-2.67-5.329-4.826q1.591,1.355,7.935,1.849" transform="translate(-180.396 -68.133)" fill="#373f51" fill-rule="evenodd"/>
            <path id="Trazado_782670" data-name="Trazado 782670" d="M476.792,254.46c-.294-1.751-1.631-2.632-3.995-2.628-5.265-3.337-4.686,1.352-4.387,4.182,1.192-1.116,3.02-.5,8.382-1.554" transform="translate(-180.375 -73.406)" fill="#373f51" fill-rule="evenodd"/>
            <path id="Trazado_782671" data-name="Trazado 782671" d="M469.937,256.83c.428-.847,1.3-1.12,2.638-.826,3.58-1.065,2.562,1.243,1.915,2.67-.513-.716-1.653-.634-4.553-1.844" transform="translate(-180.876 -74.886)" fill="#373f51" fill-rule="evenodd"/>
            <path id="Trazado_782672" data-name="Trazado 782672" d="M467.948,264.11c-1.721-1.608-6.5-3.369-9.359-4.246a66.854,66.854,0,0,0-9.762-.5q-8.963-.09-19.262.187c-6.777-3.3-8.582-3.585-12.007-5.145-1.018-.46-2.858-1.426-4.336-2.221a5.4,5.4,0,0,0-1.815,3.137c7.2,6.917,11.82,9.658,14.456,11.168a85.126,85.126,0,0,0,13.714,2.485q1.61,10.286,2.431,19.827c-1.127,6.7-1.676,11.267-1.621,13.687q15.713,2.322,25.206.126a58.159,58.159,0,0,0-1.444-6.676c.69-8.591,1.8-14.179,2.385-18.153a42.947,42.947,0,0,0,5.484,8.877,98.479,98.479,0,0,0-3.8,12.767,5.543,5.543,0,0,0,3.162,1.976c1.663-2.889,5.276-9.5,6.229-14.432.666-3.944-7.247-19.765-9.664-22.864" transform="translate(-163.736 -73.847)" fill="#5573c6" fill-rule="evenodd"/>
            <path id="Trazado_782673" data-name="Trazado 782673" d="M473.412,261.189a7.7,7.7,0,0,1,1.007,1.187l-.219-.066a67.31,67.31,0,0,0-9.479-.5,6.261,6.261,0,0,1,1.052-1.1c.646-.3,4.136-.236,7.639.482" transform="translate(-179.348 -76.293)" fill="#6f88c1" fill-rule="evenodd"/>
            <path id="Trazado_782674" data-name="Trazado 782674" d="M408.252,253.089a17.236,17.236,0,0,1-4.169-2.415c-.349-1.133-1.05-1.18-.865-2.172-1.653-1.942-2.036-1.98-2.8-2.342.668-1.088,2.211-.207,4.719,2.223q2.543,1.5,2.166-.641c-1.018-.986-.995-1.817-.7-2.27.143.12.69.788,1.674,1.821a6.421,6.421,0,0,1,1.206,2.7.931.931,0,0,0,.175.492,6.325,6.325,0,0,0-1.4,2.607" transform="translate(-160.518 -71.881)" fill="#e8b592" fill-rule="evenodd"/>
            <path id="Trazado_782675" data-name="Trazado 782675" d="M490.492,319.534c-.722.888-1.6,1.346-2.967,2.66l.011.143-.209.049c-.3.3-.634.645-.984,1.046q1.067.859,2.725-1.182a4.068,4.068,0,0,1-1.182,3.381c-.415.475-.756.844-1.007,1.1q1.182,2.02,4.947-1.6a14.709,14.709,0,0,0,.743-2.726,11.923,11.923,0,0,1,.46-1.363,5.582,5.582,0,0,1-2.539-1.5Z" transform="translate(-185.68 -93.569)" fill="#e8b592" fill-rule="evenodd"/>
            <path id="Trazado_782676" data-name="Trazado 782676" d="M475.886,323.664c1.259,8.483,1.838,21.852,1.751,34.751,1.214,6.122,1.15,15.908-.187,35.76a17.252,17.252,0,0,1-6.116.281c-3.076-18.526-4.247-28.173-3.525-35.358-.941-5.156-2.221-14.624-3.853-22-1.642,7.371-2.935,16.839-3.863,22,.722,7.185-.449,16.832-3.514,35.358a17.31,17.31,0,0,1-6.128-.281c-1.336-19.852-1.4-29.638-.2-35.76-.076-13.014.513-26.509,1.793-34.981q14.663,2.108,23.839.23" transform="translate(-174.861 -94.711)" fill="#373f51" fill-rule="evenodd"/>
            <path id="Trazado_782677" data-name="Trazado 782677" d="M455.034,428.6c.579.46.722,2.573.24,4.187a6.376,6.376,0,0,1-5.626-.256c-.928-.358-2.047-.971-2.015-1.638.034-1.258.069-1.286,2.662-2.632-.045.258-.089.492-.132.711.119.3.339.52.775.24.484-.31.32-1.318,1.665-1.342,1.116-.015,1.127,1.052,1.674,1.408.592.415.724-.206.756-.68" transform="translate(-174.344 -125.292)" fill="#373f51" fill-rule="evenodd"/>
            <path id="Trazado_782678" data-name="Trazado 782678" d="M481.557,428.6c-.579.456-.722,2.573-.251,4.183a6.4,6.4,0,0,0,5.635-.258c.285-.138,1.4-.492,1.491-.8.307-1.084.042-2.53-2.134-3.472.033.258.077.5.12.711-.11.3-.341.52-.767.243-.481-.313-.317-1.315-1.663-1.342-1.116-.017-1.127,1.052-1.676,1.406-.6.417-.733-.2-.754-.673" transform="translate(-184.122 -125.291)" fill="#373f51" fill-rule="evenodd"/>
            <path id="Trazado_782679" data-name="Trazado 782679" d="M456.127,423.911a19.66,19.66,0,0,0-.177,4.049c-.1.213-.284.313-.624.076-.547-.356-.558-1.423-1.674-1.408-1.346.024-1.182,1.031-1.665,1.342-.438.279-.657.055-.776-.241a23.411,23.411,0,0,0,.384-4.1,17.9,17.9,0,0,0,4.532.281" transform="translate(-175.392 -124.051)" fill="#e8b592" fill-rule="evenodd"/>
            <path id="Trazado_782680" data-name="Trazado 782680" d="M481.718,423.91a19.519,19.519,0,0,1,.162,4.041c.111.214.3.313.635.077.549-.354.559-1.423,1.676-1.405,1.346.028,1.182,1.028,1.663,1.342.426.277.656.053.767-.243a24.875,24.875,0,0,1-.373-4.1,18,18,0,0,1-4.529.286" transform="translate(-184.326 -124.049)" fill="#e8b592" fill-rule="evenodd"/>
            <path id="Trazado_782681" data-name="Trazado 782681" d="M445.532,271.714c.767,2.457,5.013,19.482,6.1,20.238q4.533,3.159,6.435,4.717c-2.472-1.395-4.561-2.37-5.952-3.371-4.63-3.327-4.192,5.8-5.768,11.93-.055-2.419.494-6.983,1.62-13.687q-.82-9.549-2.43-19.827m-11.589-10.177a7.348,7.348,0,0,0-2.2,1.614,14.23,14.23,0,0,1,3.777-.86c-.558-.273-1.084-.526-1.576-.754m39.04,15.716a30.2,30.2,0,0,1-.494,3.271c-.591,3.974-1.7,9.562-2.385,18.153a58.131,58.131,0,0,1,1.443,6.676c-.131.032-.262.066-.392.091a35.1,35.1,0,0,0-1.5-4.721c-.7-1.817-1.5-.581-3.917.137,3.076-2.73,2.428-1.873,3.194-5.976q1.9-10.129,4.051-17.63" transform="translate(-169.691 -76.585)" fill="#6f88c1" fill-rule="evenodd"/>
          </g>
        </g>
      </g>
    </g>
    <g id="Grupo_1083737" data-name="Grupo 1083737" transform="translate(983.561 751.47)">
      <path id="Trazado_794159" data-name="Trazado 794159" d="M336.361.218l-21.332,10.7a4.325,4.325,0,0,0-2.63,3.98v9.978a46.319,46.319,0,0,0,7.606,25.549c3.843,5.855,8.939,13.338,17.418,17.616h3.827c9.439-2.879,16.485-10.553,20.793-17.115a46.312,46.312,0,0,0,7.606-25.549V14.9a4.325,4.325,0,0,0-2.63-3.98L342.72.565c-1.083-.462-5.276-.808-6.359-.346" transform="translate(-308.572 0)" fill="#2a448b"/>
      <path id="Trazado_794160" data-name="Trazado 794160" d="M334.081.645,309.782,11a4.324,4.324,0,0,0-2.63,3.979v9.979A46.722,46.722,0,0,0,336,68.122c9.438-2.878,16.485-10.552,20.792-17.115A46.319,46.319,0,0,0,364.4,25.458V14.979A4.325,4.325,0,0,0,361.772,11L337.472.645a4.325,4.325,0,0,0-3.391,0" transform="translate(-307.151 -0.081)" fill="#8f52f5"/>
      <path id="Trazado_794161" data-name="Trazado 794161" d="M338.747,52,324.807,40.921l3.867-4.864,9.347,7.431,13.65-15.275,4.633,4.14Z" transform="translate(-311.931 -7.638)" fill="#fff"/>
    </g>
    <g id="Grupo_1083739" data-name="Grupo 1083739" transform="translate(1050.311 906.743)">
      <g id="Grupo_1083738" data-name="Grupo 1083738" transform="translate(5.46)" opacity="0.3">
        <g id="Grupo_1033768" data-name="Grupo 1033768">
          <g id="Grupo_1033767" data-name="Grupo 1033767" clip-path="url(#clip-path-7)">
            <path id="Trazado_782270" data-name="Trazado 782270" d="M74.97,10.838,44.543,26.1a6.17,6.17,0,0,0-3.751,5.675V46.009A66.062,66.062,0,0,0,51.642,82.45c5.481,8.351,12.749,19.025,24.844,25.127h5.459c13.463-4.106,23.513-15.052,29.657-24.413a66.059,66.059,0,0,0,10.851-36.441V31.775A6.17,6.17,0,0,0,118.7,26.1L84.04,11.331c-1.545-.659-7.525-1.152-9.069-.494" transform="translate(-40.792 -10.527)"/>
          </g>
        </g>
      </g>
      <path id="Trazado_794162" data-name="Trazado 794162" d="M71.717,11.447,37.056,26.215a6.17,6.17,0,0,0-3.751,5.675V46.124a66.641,66.641,0,0,0,41.154,61.569c13.463-4.106,23.513-15.052,29.656-24.413a66.058,66.058,0,0,0,10.85-36.441V31.891a6.169,6.169,0,0,0-3.751-5.675L76.554,11.447a6.167,6.167,0,0,0-4.837,0" transform="translate(-33.305 -10.642)" fill="#f4a338"/>
      <path id="Trazado_794163" data-name="Trazado 794163" d="M99,69.074H95.3V48.956a8.588,8.588,0,0,0-17.176,0V69.074h-3.7V48.956a12.284,12.284,0,1,1,24.569,0Z" transform="translate(-44.438 -17.605)" fill="#f5f5f5"/>
      <path id="Trazado_794164" data-name="Trazado 794164" d="M97.446,88.326H72.812a4.238,4.238,0,0,1-4.238-4.238V66.614a4.238,4.238,0,0,1,4.238-4.237H97.446a4.238,4.238,0,0,1,4.238,4.237V84.088a4.238,4.238,0,0,1-4.238,4.238" transform="translate(-42.853 -24.564)" fill="#fff"/>
      <path id="Trazado_794165" data-name="Trazado 794165" d="M92.445,78.8a3.594,3.594,0,0,0,1.048-2.542,3.641,3.641,0,1,0-4.635,3.487l-.783,3.46h3.466l-.7-3.46a3.686,3.686,0,0,0,1.6-.945" transform="translate(-47.627 -27.335)" fill="#f4a338"/>
    </g>
    <g id="Grupo_1083741" data-name="Grupo 1083741" transform="translate(1215.046 748.158)">
      <path id="Trazado_794166" data-name="Trazado 794166" d="M36.733,154.73,14.362,165.951a4.536,4.536,0,0,0-2.757,4.173v10.464a48.564,48.564,0,0,0,7.977,26.792c4.029,6.14,9.373,13.988,18.266,18.473h4.014c9.9-3.018,17.287-11.065,21.8-17.948a48.57,48.57,0,0,0,7.977-26.792v-10.99a4.537,4.537,0,0,0-2.758-4.173L43.4,155.093c-1.136-.484-5.532-.847-6.669-.363" transform="translate(-7.591 -154.501)" fill="#a83858"/>
      <path id="Trazado_794167" data-name="Trazado 794167" d="M34.342,155.178,8.859,166.036A4.535,4.535,0,0,0,6.1,170.209v10.464A49,49,0,0,0,36.357,225.94c9.9-3.019,17.287-11.066,21.8-17.949A48.564,48.564,0,0,0,66.138,181.2v-10.99a4.536,4.536,0,0,0-2.757-4.173L37.9,155.178a4.534,4.534,0,0,0-3.556,0" transform="translate(-6.101 -154.586)" fill="#e01650"/>
      <g id="Grupo_1083740" data-name="Grupo 1083740" transform="translate(13.314 15.779)" opacity="0.3">
        <g id="Grupo_1033761" data-name="Grupo 1033761">
          <g id="Grupo_1033760" data-name="Grupo 1033760" clip-path="url(#clip-path-8)">
            <path id="Trazado_782248" data-name="Trazado 782248" d="M57.767,192.843a16.7,16.7,0,1,1-16.7-16.7,16.705,16.705,0,0,1,16.7,16.7" transform="translate(-24.357 -176.138)"/>
          </g>
        </g>
      </g>
      <path id="Trazado_794168" data-name="Trazado 794168" d="M51.623,188.224a6.935,6.935,0,1,1-6.935-6.935,6.935,6.935,0,0,1,6.935,6.935" transform="translate(-14.67 -161.753)" fill="#fff"/>
      <path id="Trazado_794169" data-name="Trazado 794169" d="M29.9,211.115a13.558,13.558,0,0,1,12.41-7.7,14.745,14.745,0,0,1,12.921,7.7s-4.1,6.051-13.157,5.817A15.875,15.875,0,0,1,29.9,211.115" transform="translate(-12.543 -167.742)" fill="#fff"/>
    </g>
    <path id="Trazado_794170" data-name="Trazado 794170" d="M435.457,131.368a5.539,5.539,0,0,0,2.534-5.544,5.206,5.206,0,1,0-10.29,1.439,5.53,5.53,0,0,0,4.016,4.646c-7.74,2.336-6.138,10.884-6.138,10.884l18.723-2.618s-.83-8.756-8.845-8.806" transform="translate(702.559 619.569)" fill="#dbdbdb"/>
    <rect id="Rectángulo_380728" data-name="Rectángulo 380728" width="121.401" height="13.228" transform="translate(927.844 958.51)" fill="url(#linear-gradient)"/>
    <rect id="Rectángulo_380729" data-name="Rectángulo 380729" width="101.628" height="18.721" transform="translate(1318.372 874)" fill="url(#linear-gradient-2)"/>
    <g id="Grupo_1083742" data-name="Grupo 1083742">
      <path id="Trazado_777590" data-name="Trazado 777590" d="M416.811,18.485C415.848,8.146,405.317,0,392.458,0c-12.8,0-23.292,8.069-24.339,18.34h-5.139c-9.123,0-16.518,6.635-16.518,14.819s7.4,14.819,16.518,14.819h19.667v-4.7h-3.677a1.874,1.874,0,0,1-1.715-1.054,1.689,1.689,0,0,1,.256-1.819l11-12.911a1.953,1.953,0,0,1,2.918,0l11,12.911a1.687,1.687,0,0,1,.256,1.819,1.875,1.875,0,0,1-1.715,1.054h-3.678v4.7h17.34c9.123,0,16.518-6.635,16.518-14.819,0-7.517-6.244-13.711-14.33-14.674" transform="translate(607.199 880.365)" fill="#a8a8a8"/>
      <path id="Trazado_777591" data-name="Trazado 777591" d="M413.593,18.055C412.674,7.956,402.625,0,390.354,0c-12.213,0-22.227,7.881-23.227,17.913h-4.9c-8.706,0-15.763,6.48-15.763,14.474s7.057,14.474,15.763,14.474h20.422V43.282h-3.678a1.874,1.874,0,0,1-1.714-1.054,1.688,1.688,0,0,1,.256-1.82l11-12.91a1.953,1.953,0,0,1,2.918,0l11,12.911a1.689,1.689,0,0,1,.256,1.82,1.875,1.875,0,0,1-1.715,1.054h-3.677v3.579H411.5c8.706,0,15.763-6.48,15.763-14.474,0-7.342-5.959-13.392-13.674-14.332" transform="translate(607.199 880.365)" fill="#b7b7b7"/>
      <path id="Trazado_777592" data-name="Trazado 777592" d="M367.735,45.707c0-6.838,6.037-12.382,13.484-12.382h4.2C386.27,24.744,394.836,18,405.284,18c7,0,13.16,3.033,16.716,7.617-3.2-5.661-10.061-9.578-18.023-9.578-10.448,0-19.014,6.742-19.869,15.324h-4.2c-7.447,0-13.484,5.543-13.484,12.382a11.681,11.681,0,0,0,2.686,7.416,11.508,11.508,0,0,1-1.378-5.455" transform="translate(593.33 869.223)" fill="#a8a8a8"/>
      <path id="Trazado_777593" data-name="Trazado 777593" d="M558.092,68.945a13.758,13.758,0,0,1,9.024,4.868,13.383,13.383,0,0,0-9.309-6.665,14.163,14.163,0,0,1,.285,1.8" transform="translate(460.402 833.725)" fill="#a8a8a8"/>
      <path id="Trazado_777594" data-name="Trazado 777594" d="M474.339,105.8l-11-12.91a.473.473,0,0,0-.656,0l-11,12.91c-.158.186.027.425.328.425h5.163v13.836h11.665V106.221h5.163c.3,0,.486-.239.328-.425" transform="translate(534.147 815.939)" fill="#f4a338"/>
    </g>
  </g>
</svg>
