<svg xmlns="http://www.w3.org/2000/svg" xmlns:xlink="http://www.w3.org/1999/xlink" width="622" height="183" viewBox="0 0 622 183">
  <defs>
    <filter id="Rectángulo_365019" x="0" y="0" width="205" height="87" filterUnits="userSpaceOnUse">
      <feOffset dy="3" input="SourceAlpha"/>
      <feGaussianBlur stdDeviation="3" result="blur"/>
      <feFlood flood-opacity="0.161"/>
      <feComposite operator="in" in2="blur"/>
      <feComposite in="SourceGraphic"/>
    </filter>
    <filter id="Rectángulo_380726" x="0" y="96" width="205" height="87" filterUnits="userSpaceOnUse">
      <feOffset dy="3" input="SourceAlpha"/>
      <feGaussianBlur stdDeviation="3" result="blur-2"/>
      <feFlood flood-opacity="0.161"/>
      <feComposite operator="in" in2="blur-2"/>
      <feComposite in="SourceGraphic"/>
    </filter>
    <filter id="Rectángulo_380720" x="417" y="0" width="205" height="87" filterUnits="userSpaceOnUse">
      <feOffset dy="3" input="SourceAlpha"/>
      <feGaussianBlur stdDeviation="3" result="blur-3"/>
      <feFlood flood-opacity="0.161"/>
      <feComposite operator="in" in2="blur-3"/>
      <feComposite in="SourceGraphic"/>
    </filter>
    <filter id="Rectángulo_380722" x="417" y="96" width="205" height="87" filterUnits="userSpaceOnUse">
      <feOffset dy="3" input="SourceAlpha"/>
      <feGaussianBlur stdDeviation="3" result="blur-4"/>
      <feFlood flood-opacity="0.161"/>
      <feComposite operator="in" in2="blur-4"/>
      <feComposite in="SourceGraphic"/>
    </filter>
    <filter id="Rectángulo_380718" x="207" y="0" width="205" height="87" filterUnits="userSpaceOnUse">
      <feOffset dy="3" input="SourceAlpha"/>
      <feGaussianBlur stdDeviation="3" result="blur-5"/>
      <feFlood flood-opacity="0.161"/>
      <feComposite operator="in" in2="blur-5"/>
      <feComposite in="SourceGraphic"/>
    </filter>
    <filter id="Rectángulo_380723" x="207" y="96" width="205" height="87" filterUnits="userSpaceOnUse">
      <feOffset dy="3" input="SourceAlpha"/>
      <feGaussianBlur stdDeviation="3" result="blur-6"/>
      <feFlood flood-opacity="0.161"/>
      <feComposite operator="in" in2="blur-6"/>
      <feComposite in="SourceGraphic"/>
    </filter>
  </defs>
  <g id="Grupo_1083997" data-name="Grupo 1083997" transform="translate(-174 -868)">
    <g transform="matrix(1, 0, 0, 1, 174, 868)" filter="url(#Rectángulo_365019)">
      <rect id="Rectángulo_365019-2" data-name="Rectángulo 365019" width="187" height="69" rx="5" transform="translate(9 6)" fill="#fff"/>
    </g>
    <g transform="matrix(1, 0, 0, 1, 174, 868)" filter="url(#Rectángulo_380726)">
      <rect id="Rectángulo_380726-2" data-name="Rectángulo 380726" width="187" height="69" rx="5" transform="translate(9 102)" fill="#fff"/>
    </g>
    <g transform="matrix(1, 0, 0, 1, 174, 868)" filter="url(#Rectángulo_380720)">
      <rect id="Rectángulo_380720-2" data-name="Rectángulo 380720" width="187" height="69" rx="5" transform="translate(426 6)" fill="#fff"/>
    </g>
    <g transform="matrix(1, 0, 0, 1, 174, 868)" filter="url(#Rectángulo_380722)">
      <rect id="Rectángulo_380722-2" data-name="Rectángulo 380722" width="187" height="69" rx="5" transform="translate(426 102)" fill="#fff"/>
    </g>
    <g transform="matrix(1, 0, 0, 1, 174, 868)" filter="url(#Rectángulo_380718)">
      <rect id="Rectángulo_380718-2" data-name="Rectángulo 380718" width="187" height="69" rx="5" transform="translate(216 6)" fill="#fff"/>
    </g>
    <g transform="matrix(1, 0, 0, 1, 174, 868)" filter="url(#Rectángulo_380723)">
      <rect id="Rectángulo_380723-2" data-name="Rectángulo 380723" width="187" height="69" rx="5" transform="translate(216 102)" fill="#fff"/>
    </g>
    <rect id="Rectángulo_365020" data-name="Rectángulo 365020" width="65" height="69" rx="5" transform="translate(183 874)" fill="#ffb206"/>
    <rect id="Rectángulo_380727" data-name="Rectángulo 380727" width="65" height="69" rx="5" transform="translate(183 970)" fill="#9e6ef0"/>
    <rect id="Rectángulo_380721" data-name="Rectángulo 380721" width="65" height="69" rx="5" transform="translate(600 874)" fill="#ffb206"/>
    <rect id="Rectángulo_380724" data-name="Rectángulo 380724" width="65" height="69" rx="5" transform="translate(600 970)" fill="#9e6ef0"/>
    <rect id="Rectángulo_380719" data-name="Rectángulo 380719" width="65" height="69" rx="5" transform="translate(390 874)" fill="#8f52f5"/>
    <rect id="Rectángulo_380725" data-name="Rectángulo 380725" width="65" height="69" rx="5" transform="translate(390 970)" fill="#f8ba31"/>
    <path id="Trazado_838178" data-name="Trazado 838178" d="M5.492-4.6H2.82V0H1.313V-11.375H5.078a4.457,4.457,0,0,1,2.957.875A3.148,3.148,0,0,1,9.07-7.953,3.062,3.062,0,0,1,8.5-6.1a3.428,3.428,0,0,1-1.6,1.18L9.57-.094V0H7.961ZM2.82-5.828h2.3A2.6,2.6,0,0,0,6.9-6.407a1.959,1.959,0,0,0,.66-1.55,2.062,2.062,0,0,0-.629-1.62,2.663,2.663,0,0,0-1.816-.571H2.82ZM16.164,0a3.036,3.036,0,0,1-.2-.891A3.225,3.225,0,0,1,13.555.156,2.984,2.984,0,0,1,11.5-.551a2.287,2.287,0,0,1-.8-1.793,2.39,2.39,0,0,1,1-2.051,4.733,4.733,0,0,1,2.824-.73h1.406v-.664A1.623,1.623,0,0,0,15.484-7a1.821,1.821,0,0,0-1.336-.449,2.107,2.107,0,0,0-1.3.391,1.151,1.151,0,0,0-.523.945H10.875a2,2,0,0,1,.449-1.223,3.066,3.066,0,0,1,1.219-.934,4.1,4.1,0,0,1,1.691-.344,3.342,3.342,0,0,1,2.289.73,2.635,2.635,0,0,1,.859,2.012v3.891a4.757,4.757,0,0,0,.3,1.852V0Zm-2.4-1.1a2.54,2.54,0,0,0,1.289-.352,2.127,2.127,0,0,0,.883-.914V-4.1H14.8q-2.656,0-2.656,1.555A1.316,1.316,0,0,0,12.6-1.484,1.742,1.742,0,0,0,13.766-1.1Zm7.25-7.352.047,1.063a3.08,3.08,0,0,1,2.531-1.219q2.68,0,2.7,3.023V0H24.852V-5.594a1.946,1.946,0,0,0-.418-1.352,1.675,1.675,0,0,0-1.277-.437,2.086,2.086,0,0,0-1.234.375,2.546,2.546,0,0,0-.828.984V0H19.648V-8.453ZM33.4-2.242a1.064,1.064,0,0,0-.441-.91,4.249,4.249,0,0,0-1.539-.559,7.277,7.277,0,0,1-1.742-.562,2.479,2.479,0,0,1-.953-.781,1.869,1.869,0,0,1-.309-1.078,2.193,2.193,0,0,1,.879-1.758,3.432,3.432,0,0,1,2.246-.719,3.532,3.532,0,0,1,2.332.742,2.357,2.357,0,0,1,.895,1.9H33.313a1.3,1.3,0,0,0-.5-1.023,1.888,1.888,0,0,0-1.27-.43,1.976,1.976,0,0,0-1.234.344,1.082,1.082,0,0,0-.445.9.877.877,0,0,0,.414.789,5.1,5.1,0,0,0,1.5.508,7.8,7.8,0,0,1,1.754.578,2.558,2.558,0,0,1,1,.809,1.988,1.988,0,0,1,.324,1.152,2.163,2.163,0,0,1-.906,1.816,3.8,3.8,0,0,1-2.352.684,4.257,4.257,0,0,1-1.8-.359,2.922,2.922,0,0,1-1.223-1A2.42,2.42,0,0,1,28.125-2.6H29.57a1.5,1.5,0,0,0,.582,1.152,2.258,2.258,0,0,0,1.434.426A2.331,2.331,0,0,0,32.9-1.355,1.02,1.02,0,0,0,33.4-2.242ZM36.344-4.3a4.993,4.993,0,0,1,.488-2.234A3.643,3.643,0,0,1,38.191-8.07a3.7,3.7,0,0,1,1.988-.539,3.565,3.565,0,0,1,2.793,1.2,4.6,4.6,0,0,1,1.066,3.18v.1a5.036,5.036,0,0,1-.473,2.215A3.589,3.589,0,0,1,42.215-.391,3.743,3.743,0,0,1,40.2.156a3.556,3.556,0,0,1-2.785-1.2A4.575,4.575,0,0,1,36.344-4.2Zm1.453.172a3.616,3.616,0,0,0,.652,2.258,2.088,2.088,0,0,0,1.746.852,2.075,2.075,0,0,0,1.75-.863A3.955,3.955,0,0,0,42.594-4.3a3.61,3.61,0,0,0-.66-2.254,2.1,2.1,0,0,0-1.754-.863,2.075,2.075,0,0,0-1.727.852A3.925,3.925,0,0,0,37.8-4.133Zm9.414-4.32.039.938a3.122,3.122,0,0,1,2.508-1.094A2.417,2.417,0,0,1,52.172-7.25a3.2,3.2,0,0,1,1.1-.984,3.242,3.242,0,0,1,1.6-.375q2.781,0,2.828,2.945V0H56.25V-5.578a1.941,1.941,0,0,0-.414-1.355,1.823,1.823,0,0,0-1.391-.449,1.917,1.917,0,0,0-1.336.48,1.949,1.949,0,0,0-.617,1.293V0H51.039V-5.539a1.613,1.613,0,0,0-1.8-1.844,1.934,1.934,0,0,0-1.945,1.211V0H45.844V-8.453ZM67.359-1.992l1.625-6.461H70.43L67.969,0H66.8L64.742-6.406,62.742,0H61.57L59.117-8.453h1.438l1.664,6.328,1.969-6.328h1.164ZM77.117,0a3.036,3.036,0,0,1-.2-.891A3.225,3.225,0,0,1,74.508.156a2.984,2.984,0,0,1-2.051-.707,2.288,2.288,0,0,1-.8-1.793,2.39,2.39,0,0,1,1-2.051,4.733,4.733,0,0,1,2.824-.73h1.406v-.664A1.623,1.623,0,0,0,76.438-7,1.821,1.821,0,0,0,75.1-7.445a2.108,2.108,0,0,0-1.3.391,1.151,1.151,0,0,0-.523.945H71.828a2,2,0,0,1,.449-1.223A3.066,3.066,0,0,1,73.5-8.266a4.1,4.1,0,0,1,1.691-.344,3.342,3.342,0,0,1,2.289.73,2.635,2.635,0,0,1,.859,2.012v3.891a4.757,4.757,0,0,0,.3,1.852V0Zm-2.4-1.1a2.54,2.54,0,0,0,1.289-.352,2.127,2.127,0,0,0,.883-.914V-4.1H75.758Q73.1-4.1,73.1-2.547a1.316,1.316,0,0,0,.453,1.063A1.742,1.742,0,0,0,74.719-1.1Zm9.969-6.055a4.331,4.331,0,0,0-.711-.055A1.9,1.9,0,0,0,82.047-6V0H80.6V-8.453h1.406l.023.977a2.251,2.251,0,0,1,2.016-1.133,1.477,1.477,0,0,1,.641.109ZM89.375.156a3.693,3.693,0,0,1-2.8-1.129A4.19,4.19,0,0,1,85.5-3.992v-.266A5.073,5.073,0,0,1,85.98-6.5a3.748,3.748,0,0,1,1.344-1.547A3.378,3.378,0,0,1,89.2-8.609a3.166,3.166,0,0,1,2.563,1.086,4.7,4.7,0,0,1,.914,3.109v.6H86.945a3,3,0,0,0,.73,2.02,2.3,2.3,0,0,0,1.777.77,2.517,2.517,0,0,0,1.3-.312,3.259,3.259,0,0,0,.93-.828l.883.688A3.55,3.55,0,0,1,89.375.156ZM89.2-7.422a1.928,1.928,0,0,0-1.469.637A3.1,3.1,0,0,0,86.992-5h4.234v-.109a2.753,2.753,0,0,0-.594-1.707A1.815,1.815,0,0,0,89.2-7.422Zm5.18,6.664a.905.905,0,0,1,.223-.625.848.848,0,0,1,.668-.25.874.874,0,0,1,.676.25.887.887,0,0,1,.23.625.839.839,0,0,1-.23.6.89.89,0,0,1-.676.242A.863.863,0,0,1,94.6-.156.855.855,0,0,1,94.375-.758Z" transform="translate(259 915)" fill="#12263f"/>
    <path id="Trazado_838181" data-name="Trazado 838181" d="M9.719-1.492A3.465,3.465,0,0,1,8.105-.254,6.517,6.517,0,0,1,5.7.156,4.674,4.674,0,0,1,3.227-.5,4.346,4.346,0,0,1,1.559-2.352,6.408,6.408,0,0,1,.953-5.141v-.992a5.982,5.982,0,0,1,1.2-3.984,4.179,4.179,0,0,1,3.371-1.414,4.316,4.316,0,0,1,2.867.91A3.965,3.965,0,0,1,9.719-8.039h-1.5A2.48,2.48,0,0,0,5.531-10.3a2.655,2.655,0,0,0-2.285,1.06,5.173,5.173,0,0,0-.785,3.069v.93A4.848,4.848,0,0,0,3.336-2.2,2.836,2.836,0,0,0,5.7-1.07,5.228,5.228,0,0,0,7.18-1.257a2.283,2.283,0,0,0,1.047-.631V-4.437H5.594V-5.664H9.719Zm7.492.656a3.07,3.07,0,0,1-2.477.992,2.628,2.628,0,0,1-2.059-.785,3.4,3.4,0,0,1-.715-2.324v-5.5h1.445v5.461q0,1.922,1.563,1.922a2.163,2.163,0,0,0,2.2-1.234V-8.453h1.445V0H17.242Zm8.523-1.406a1.064,1.064,0,0,0-.441-.91,4.249,4.249,0,0,0-1.539-.559,7.277,7.277,0,0,1-1.742-.562,2.479,2.479,0,0,1-.953-.781,1.869,1.869,0,0,1-.309-1.078,2.193,2.193,0,0,1,.879-1.758,3.432,3.432,0,0,1,2.246-.719,3.532,3.532,0,0,1,2.332.742,2.357,2.357,0,0,1,.895,1.9H25.648a1.3,1.3,0,0,0-.5-1.023,1.888,1.888,0,0,0-1.27-.43,1.976,1.976,0,0,0-1.234.344,1.082,1.082,0,0,0-.445.9.877.877,0,0,0,.414.789,5.1,5.1,0,0,0,1.5.508,7.8,7.8,0,0,1,1.754.578,2.558,2.558,0,0,1,1,.809,1.988,1.988,0,0,1,.324,1.152,2.163,2.163,0,0,1-.906,1.816,3.8,3.8,0,0,1-2.352.684,4.257,4.257,0,0,1-1.8-.359,2.922,2.922,0,0,1-1.223-1A2.42,2.42,0,0,1,20.461-2.6h1.445a1.5,1.5,0,0,0,.582,1.152,2.258,2.258,0,0,0,1.434.426,2.331,2.331,0,0,0,1.316-.332A1.02,1.02,0,0,0,25.734-2.242ZM34.281,0a3.036,3.036,0,0,1-.2-.891A3.225,3.225,0,0,1,31.672.156a2.984,2.984,0,0,1-2.051-.707,2.287,2.287,0,0,1-.8-1.793,2.39,2.39,0,0,1,1-2.051,4.733,4.733,0,0,1,2.824-.73h1.406v-.664A1.623,1.623,0,0,0,33.6-7a1.821,1.821,0,0,0-1.336-.449,2.108,2.108,0,0,0-1.3.391,1.151,1.151,0,0,0-.523.945H28.992a2,2,0,0,1,.449-1.223,3.066,3.066,0,0,1,1.219-.934,4.1,4.1,0,0,1,1.691-.344,3.342,3.342,0,0,1,2.289.73A2.635,2.635,0,0,1,35.5-5.867v3.891a4.757,4.757,0,0,0,.3,1.852V0Zm-2.4-1.1a2.54,2.54,0,0,0,1.289-.352,2.127,2.127,0,0,0,.883-.914V-4.1H32.922q-2.656,0-2.656,1.555a1.316,1.316,0,0,0,.453,1.063A1.742,1.742,0,0,0,31.883-1.1Zm7.25-7.352.047,1.063a3.08,3.08,0,0,1,2.531-1.219q2.68,0,2.7,3.023V0H42.969V-5.594a1.946,1.946,0,0,0-.418-1.352,1.675,1.675,0,0,0-1.277-.437,2.086,2.086,0,0,0-1.234.375,2.546,2.546,0,0,0-.828.984V0H37.766V-8.453ZM46.211-4.3A4.993,4.993,0,0,1,46.7-6.539,3.643,3.643,0,0,1,48.059-8.07a3.7,3.7,0,0,1,1.988-.539,3.565,3.565,0,0,1,2.793,1.2,4.6,4.6,0,0,1,1.066,3.18v.1a5.036,5.036,0,0,1-.473,2.215A3.589,3.589,0,0,1,52.082-.391a3.743,3.743,0,0,1-2.02.547,3.556,3.556,0,0,1-2.785-1.2A4.575,4.575,0,0,1,46.211-4.2Zm1.453.172a3.616,3.616,0,0,0,.652,2.258,2.088,2.088,0,0,0,1.746.852,2.075,2.075,0,0,0,1.75-.863A3.955,3.955,0,0,0,52.461-4.3a3.61,3.61,0,0,0-.66-2.254,2.1,2.1,0,0,0-1.754-.863,2.075,2.075,0,0,0-1.727.852A3.925,3.925,0,0,0,47.664-4.133ZM60.641-2.242a1.064,1.064,0,0,0-.441-.91,4.249,4.249,0,0,0-1.539-.559,7.277,7.277,0,0,1-1.742-.562,2.479,2.479,0,0,1-.953-.781,1.869,1.869,0,0,1-.309-1.078,2.193,2.193,0,0,1,.879-1.758,3.432,3.432,0,0,1,2.246-.719,3.532,3.532,0,0,1,2.332.742,2.357,2.357,0,0,1,.895,1.9H60.555a1.3,1.3,0,0,0-.5-1.023,1.888,1.888,0,0,0-1.27-.43,1.976,1.976,0,0,0-1.234.344,1.082,1.082,0,0,0-.445.9.877.877,0,0,0,.414.789,5.1,5.1,0,0,0,1.5.508,7.8,7.8,0,0,1,1.754.578,2.558,2.558,0,0,1,1,.809,1.988,1.988,0,0,1,.324,1.152A2.163,2.163,0,0,1,61.18-.527a3.8,3.8,0,0,1-2.352.684,4.257,4.257,0,0,1-1.8-.359,2.922,2.922,0,0,1-1.223-1A2.42,2.42,0,0,1,55.367-2.6h1.445a1.5,1.5,0,0,0,.582,1.152,2.258,2.258,0,0,0,1.434.426,2.331,2.331,0,0,0,1.316-.332A1.02,1.02,0,0,0,60.641-2.242Zm3.281,4.508L63.1,1.7a3.77,3.77,0,0,0,.766-2.109v-1.3h1.414V-.578A3.559,3.559,0,0,1,64.895,1,3.7,3.7,0,0,1,63.922,2.266Z" transform="translate(259 1011)" fill="#12263f"/>
    <path id="Trazado_838180" data-name="Trazado 838180" d="M7.6-2.977H2.836L1.766,0H.219L4.563-11.375H5.875L10.227,0H8.688ZM3.289-4.2H7.156L5.219-9.523ZM11.18-4.3A4.952,4.952,0,0,1,12.1-7.426a2.915,2.915,0,0,1,2.414-1.184,2.932,2.932,0,0,1,2.352,1.016V-12h1.445V0H16.984l-.07-.906A2.943,2.943,0,0,1,14.5.156a2.887,2.887,0,0,1-2.395-1.2,5.008,5.008,0,0,1-.926-3.141Zm1.445.164a3.749,3.749,0,0,0,.594,2.25,1.92,1.92,0,0,0,1.641.813A2.108,2.108,0,0,0,16.867-2.3V-6.187a2.125,2.125,0,0,0-1.992-1.2,1.929,1.929,0,0,0-1.656.82A4.128,4.128,0,0,0,12.625-4.133ZM28.039-1.992l1.625-6.461h1.445L28.648,0H27.477L25.422-6.406,23.422,0H22.25L19.8-8.453h1.438L22.9-2.125l1.969-6.328h1.164ZM37.8,0a3.036,3.036,0,0,1-.2-.891A3.225,3.225,0,0,1,35.188.156a2.984,2.984,0,0,1-2.051-.707,2.287,2.287,0,0,1-.8-1.793,2.39,2.39,0,0,1,1-2.051,4.733,4.733,0,0,1,2.824-.73H37.57v-.664A1.623,1.623,0,0,0,37.117-7a1.821,1.821,0,0,0-1.336-.449,2.107,2.107,0,0,0-1.3.391,1.151,1.151,0,0,0-.523.945H32.508a2,2,0,0,1,.449-1.223,3.066,3.066,0,0,1,1.219-.934,4.1,4.1,0,0,1,1.691-.344,3.342,3.342,0,0,1,2.289.73,2.635,2.635,0,0,1,.859,2.012v3.891a4.757,4.757,0,0,0,.3,1.852V0ZM35.4-1.1a2.54,2.54,0,0,0,1.289-.352,2.127,2.127,0,0,0,.883-.914V-4.1H36.438q-2.656,0-2.656,1.555a1.316,1.316,0,0,0,.453,1.063A1.742,1.742,0,0,0,35.4-1.1Zm9.969-6.055a4.331,4.331,0,0,0-.711-.055A1.9,1.9,0,0,0,42.727-6V0H41.281V-8.453h1.406l.023.977a2.251,2.251,0,0,1,2.016-1.133,1.477,1.477,0,0,1,.641.109ZM50.055.156a3.693,3.693,0,0,1-2.8-1.129,4.19,4.19,0,0,1-1.078-3.02v-.266A5.073,5.073,0,0,1,46.66-6.5,3.748,3.748,0,0,1,48-8.051a3.378,3.378,0,0,1,1.871-.559,3.166,3.166,0,0,1,2.563,1.086,4.7,4.7,0,0,1,.914,3.109v.6H47.625a3,3,0,0,0,.73,2.02,2.3,2.3,0,0,0,1.777.77,2.517,2.517,0,0,0,1.3-.312,3.259,3.259,0,0,0,.93-.828l.883.688A3.55,3.55,0,0,1,50.055.156Zm-.18-7.578a1.928,1.928,0,0,0-1.469.637A3.1,3.1,0,0,0,47.672-5h4.234v-.109a2.753,2.753,0,0,0-.594-1.707A1.815,1.815,0,0,0,49.875-7.422Zm5.18,6.664a.905.905,0,0,1,.223-.625.848.848,0,0,1,.668-.25.874.874,0,0,1,.676.25.887.887,0,0,1,.23.625.839.839,0,0,1-.23.6.89.89,0,0,1-.676.242.863.863,0,0,1-.668-.242A.855.855,0,0,1,55.055-.758Z" transform="translate(676 915)" fill="#12263f"/>
    <path id="Trazado_838183" data-name="Trazado 838183" d="M5.492-4.6H2.82V0H1.313V-11.375H5.078a4.457,4.457,0,0,1,2.957.875A3.148,3.148,0,0,1,9.07-7.953,3.062,3.062,0,0,1,8.5-6.1a3.428,3.428,0,0,1-1.6,1.18L9.57-.094V0H7.961ZM2.82-5.828h2.3A2.6,2.6,0,0,0,6.9-6.407a1.959,1.959,0,0,0,.66-1.55,2.062,2.062,0,0,0-.629-1.62,2.663,2.663,0,0,0-1.816-.571H2.82ZM10.563-4.3a4.993,4.993,0,0,1,.488-2.234A3.643,3.643,0,0,1,12.41-8.07,3.7,3.7,0,0,1,14.4-8.609a3.565,3.565,0,0,1,2.793,1.2,4.6,4.6,0,0,1,1.066,3.18v.1a5.036,5.036,0,0,1-.473,2.215A3.589,3.589,0,0,1,16.434-.391a3.743,3.743,0,0,1-2.02.547,3.556,3.556,0,0,1-2.785-1.2A4.575,4.575,0,0,1,10.563-4.2Zm1.453.172a3.616,3.616,0,0,0,.652,2.258,2.088,2.088,0,0,0,1.746.852,2.075,2.075,0,0,0,1.75-.863A3.955,3.955,0,0,0,16.813-4.3a3.61,3.61,0,0,0-.66-2.254A2.1,2.1,0,0,0,14.4-7.422a2.075,2.075,0,0,0-1.727.852A3.925,3.925,0,0,0,12.016-4.133Zm15.211,0a5.026,5.026,0,0,1-.891,3.113A2.846,2.846,0,0,1,23.945.156,2.947,2.947,0,0,1,21.469-.977L21.4,0H20.07V-12h1.445v4.477A2.93,2.93,0,0,1,23.93-8.609a2.863,2.863,0,0,1,2.418,1.164,5.177,5.177,0,0,1,.879,3.188ZM25.781-4.3a3.906,3.906,0,0,0-.57-2.281,1.888,1.888,0,0,0-1.641-.8,2.122,2.122,0,0,0-2.055,1.328V-2.4a2.181,2.181,0,0,0,2.07,1.328,1.878,1.878,0,0,0,1.617-.8A4.153,4.153,0,0,0,25.781-4.3ZM28.664-4.3a4.993,4.993,0,0,1,.488-2.234A3.643,3.643,0,0,1,30.512-8.07,3.7,3.7,0,0,1,32.5-8.609a3.565,3.565,0,0,1,2.793,1.2,4.6,4.6,0,0,1,1.066,3.18v.1a5.036,5.036,0,0,1-.473,2.215A3.589,3.589,0,0,1,34.535-.391a3.743,3.743,0,0,1-2.02.547,3.556,3.556,0,0,1-2.785-1.2A4.575,4.575,0,0,1,28.664-4.2Zm1.453.172a3.616,3.616,0,0,0,.652,2.258,2.088,2.088,0,0,0,1.746.852,2.075,2.075,0,0,0,1.75-.863A3.955,3.955,0,0,0,34.914-4.3a3.61,3.61,0,0,0-.66-2.254A2.1,2.1,0,0,0,32.5-7.422a2.075,2.075,0,0,0-1.727.852A3.925,3.925,0,0,0,30.117-4.133ZM40.133-10.5v2.047h1.578v1.117H40.133v5.249a1.173,1.173,0,0,0,.211.763.888.888,0,0,0,.719.254,3.5,3.5,0,0,0,.688-.094V0a4.215,4.215,0,0,1-1.109.155A1.8,1.8,0,0,1,39.18-.43a2.517,2.517,0,0,1-.492-1.664V-7.336H37.148V-8.453h1.539V-10.5ZM48.32-2.242a1.064,1.064,0,0,0-.441-.91,4.249,4.249,0,0,0-1.539-.559A7.277,7.277,0,0,1,44.6-4.273a2.479,2.479,0,0,1-.953-.781,1.869,1.869,0,0,1-.309-1.078,2.193,2.193,0,0,1,.879-1.758,3.432,3.432,0,0,1,2.246-.719,3.532,3.532,0,0,1,2.332.742,2.357,2.357,0,0,1,.895,1.9H48.234a1.3,1.3,0,0,0-.5-1.023,1.888,1.888,0,0,0-1.27-.43,1.976,1.976,0,0,0-1.234.344,1.082,1.082,0,0,0-.445.9.877.877,0,0,0,.414.789,5.1,5.1,0,0,0,1.5.508,7.8,7.8,0,0,1,1.754.578,2.558,2.558,0,0,1,1,.809,1.988,1.988,0,0,1,.324,1.152,2.163,2.163,0,0,1-.906,1.816,3.8,3.8,0,0,1-2.352.684,4.257,4.257,0,0,1-1.8-.359,2.922,2.922,0,0,1-1.223-1A2.42,2.42,0,0,1,43.047-2.6h1.445a1.5,1.5,0,0,0,.582,1.152,2.258,2.258,0,0,0,1.434.426,2.331,2.331,0,0,0,1.316-.332A1.02,1.02,0,0,0,48.32-2.242ZM51.68-.758a.905.905,0,0,1,.223-.625.848.848,0,0,1,.668-.25.874.874,0,0,1,.676.25.887.887,0,0,1,.23.625.839.839,0,0,1-.23.6.89.89,0,0,1-.676.242A.863.863,0,0,1,51.9-.156.855.855,0,0,1,51.68-.758Z" transform="translate(676 1011)" fill="#12263f"/>
    <path id="Trazado_838179" data-name="Trazado 838179" d="M4.672-5.07A7.053,7.053,0,0,1,1.863-6.434a2.6,2.6,0,0,1-.879-2,2.751,2.751,0,0,1,1.074-2.223,4.269,4.269,0,0,1,2.793-.879,4.66,4.66,0,0,1,2.09.453,3.436,3.436,0,0,1,1.422,1.25,3.2,3.2,0,0,1,.5,1.742H7.359A2.08,2.08,0,0,0,6.7-9.713,2.669,2.669,0,0,0,4.852-10.3a2.732,2.732,0,0,0-1.73.489A1.632,1.632,0,0,0,2.5-8.458,1.468,1.468,0,0,0,3.09-7.28,5.785,5.785,0,0,0,5.1-6.4a9.316,9.316,0,0,1,2.219.88A3.367,3.367,0,0,1,8.5-4.4a2.861,2.861,0,0,1,.387,1.508A2.658,2.658,0,0,1,7.813-.676,4.6,4.6,0,0,1,4.93.156,5.347,5.347,0,0,1,2.742-.293a3.681,3.681,0,0,1-1.566-1.23A3,3,0,0,1,.625-3.3H2.133a1.959,1.959,0,0,0,.762,1.629,3.207,3.207,0,0,0,2.035.6,2.948,2.948,0,0,0,1.82-.484,1.573,1.573,0,0,0,.633-1.32A1.545,1.545,0,0,0,6.8-4.168,6.755,6.755,0,0,0,4.672-5.07Zm13.055.938a5.062,5.062,0,0,1-.883,3.109A2.829,2.829,0,0,1,14.453.156,3.1,3.1,0,0,1,12.031-.82V3.25H10.586v-11.7h1.32l.07.938A2.977,2.977,0,0,1,14.43-8.609a2.882,2.882,0,0,1,2.41,1.148,5.117,5.117,0,0,1,.887,3.2ZM16.281-4.3a3.735,3.735,0,0,0-.609-2.258A1.963,1.963,0,0,0,14-7.383a2.125,2.125,0,0,0-1.969,1.164V-2.18a2.129,2.129,0,0,0,1.984,1.156,1.954,1.954,0,0,0,1.652-.824A4.077,4.077,0,0,0,16.281-4.3Zm5.961,2.18,1.969-6.336h1.547L22.359,1.3q-.789,2.109-2.508,2.109l-.273-.023-.539-.1V2.117l.391.031a1.923,1.923,0,0,0,1.145-.3A2.148,2.148,0,0,0,21.25.766l.32-.859L18.555-8.453h1.578Zm12.289.125,1.625-6.461H37.6L35.141,0H33.969L31.914-6.406,29.914,0H28.742L26.289-8.453h1.438l1.664,6.328,1.969-6.328h1.164ZM44.289,0a3.036,3.036,0,0,1-.2-.891A3.225,3.225,0,0,1,41.68.156a2.984,2.984,0,0,1-2.051-.707,2.287,2.287,0,0,1-.8-1.793,2.39,2.39,0,0,1,1-2.051,4.733,4.733,0,0,1,2.824-.73h1.406v-.664A1.623,1.623,0,0,0,43.609-7a1.821,1.821,0,0,0-1.336-.449,2.107,2.107,0,0,0-1.3.391,1.151,1.151,0,0,0-.523.945H39a2,2,0,0,1,.449-1.223,3.066,3.066,0,0,1,1.219-.934,4.1,4.1,0,0,1,1.691-.344,3.342,3.342,0,0,1,2.289.73,2.635,2.635,0,0,1,.859,2.012v3.891a4.757,4.757,0,0,0,.3,1.852V0Zm-2.4-1.1a2.54,2.54,0,0,0,1.289-.352,2.127,2.127,0,0,0,.883-.914V-4.1H42.93q-2.656,0-2.656,1.555a1.316,1.316,0,0,0,.453,1.063A1.742,1.742,0,0,0,41.891-1.1Zm9.969-6.055a4.331,4.331,0,0,0-.711-.055A1.9,1.9,0,0,0,49.219-6V0H47.773V-8.453H49.18l.023.977a2.251,2.251,0,0,1,2.016-1.133,1.477,1.477,0,0,1,.641.109ZM56.547.156a3.693,3.693,0,0,1-2.8-1.129,4.19,4.19,0,0,1-1.078-3.02v-.266a5.073,5.073,0,0,1,.48-2.246A3.748,3.748,0,0,1,54.5-8.051a3.378,3.378,0,0,1,1.871-.559A3.166,3.166,0,0,1,58.93-7.523a4.7,4.7,0,0,1,.914,3.109v.6H54.117a3,3,0,0,0,.73,2.02,2.3,2.3,0,0,0,1.777.77,2.517,2.517,0,0,0,1.3-.312,3.259,3.259,0,0,0,.93-.828l.883.688A3.55,3.55,0,0,1,56.547.156Zm-.18-7.578a1.928,1.928,0,0,0-1.469.637A3.1,3.1,0,0,0,54.164-5H58.4v-.109A2.753,2.753,0,0,0,57.8-6.816,1.815,1.815,0,0,0,56.367-7.422Z" transform="translate(466 915)" fill="#12263f"/>
    <path id="Trazado_838182" data-name="Trazado 838182" d="M9.18-10.148H5.523V0H4.031V-10.148H.383v-1.227h8.8Zm4.961,2.992a4.331,4.331,0,0,0-.711-.055A1.9,1.9,0,0,0,11.5-6V0H10.055V-8.453h1.406l.023.977A2.251,2.251,0,0,1,13.5-8.609a1.477,1.477,0,0,1,.641.109ZM14.93-4.3a4.993,4.993,0,0,1,.488-2.234A3.643,3.643,0,0,1,16.777-8.07a3.7,3.7,0,0,1,1.988-.539,3.565,3.565,0,0,1,2.793,1.2,4.6,4.6,0,0,1,1.066,3.18v.1a5.036,5.036,0,0,1-.473,2.215A3.589,3.589,0,0,1,20.8-.391a3.743,3.743,0,0,1-2.02.547A3.556,3.556,0,0,1,16-1.039,4.575,4.575,0,0,1,14.93-4.2Zm1.453.172a3.616,3.616,0,0,0,.652,2.258,2.088,2.088,0,0,0,1.746.852,2.075,2.075,0,0,0,1.75-.863A3.955,3.955,0,0,0,21.18-4.3a3.61,3.61,0,0,0-.66-2.254,2.1,2.1,0,0,0-1.754-.863,2.075,2.075,0,0,0-1.727.852A3.925,3.925,0,0,0,16.383-4.133Zm10.7,2.016,1.969-6.336H30.6L27.2,1.3Q26.414,3.414,24.7,3.414l-.273-.023-.539-.1V2.117l.391.031a1.923,1.923,0,0,0,1.145-.3A2.148,2.148,0,0,0,26.094.766l.32-.859L23.4-8.453h1.578ZM36.992,0a3.036,3.036,0,0,1-.2-.891A3.225,3.225,0,0,1,34.383.156a2.984,2.984,0,0,1-2.051-.707,2.287,2.287,0,0,1-.8-1.793,2.39,2.39,0,0,1,1-2.051,4.733,4.733,0,0,1,2.824-.73h1.406v-.664A1.623,1.623,0,0,0,36.313-7a1.821,1.821,0,0,0-1.336-.449,2.107,2.107,0,0,0-1.3.391,1.151,1.151,0,0,0-.523.945H31.7a2,2,0,0,1,.449-1.223,3.066,3.066,0,0,1,1.219-.934,4.1,4.1,0,0,1,1.691-.344,3.342,3.342,0,0,1,2.289.73,2.635,2.635,0,0,1,.859,2.012v3.891a4.757,4.757,0,0,0,.3,1.852V0Zm-2.4-1.1a2.54,2.54,0,0,0,1.289-.352,2.127,2.127,0,0,0,.883-.914V-4.1H35.633q-2.656,0-2.656,1.555a1.316,1.316,0,0,0,.453,1.063A1.742,1.742,0,0,0,34.594-1.1Zm7.25-7.352.047,1.063a3.08,3.08,0,0,1,2.531-1.219q2.68,0,2.7,3.023V0H45.68V-5.594a1.946,1.946,0,0,0-.418-1.352,1.675,1.675,0,0,0-1.277-.437,2.086,2.086,0,0,0-1.234.375,2.546,2.546,0,0,0-.828.984V0H40.477V-8.453ZM48.922-4.3a4.993,4.993,0,0,1,.488-2.234A3.643,3.643,0,0,1,50.77-8.07a3.7,3.7,0,0,1,1.988-.539,3.565,3.565,0,0,1,2.793,1.2,4.6,4.6,0,0,1,1.066,3.18v.1a5.036,5.036,0,0,1-.473,2.215A3.589,3.589,0,0,1,54.793-.391a3.743,3.743,0,0,1-2.02.547,3.556,3.556,0,0,1-2.785-1.2A4.575,4.575,0,0,1,48.922-4.2Zm1.453.172a3.616,3.616,0,0,0,.652,2.258,2.088,2.088,0,0,0,1.746.852,2.075,2.075,0,0,0,1.75-.863A3.955,3.955,0,0,0,55.172-4.3a3.61,3.61,0,0,0-.66-2.254,2.1,2.1,0,0,0-1.754-.863,2.075,2.075,0,0,0-1.727.852A3.925,3.925,0,0,0,50.375-4.133ZM63.352-2.242a1.064,1.064,0,0,0-.441-.91,4.249,4.249,0,0,0-1.539-.559,7.277,7.277,0,0,1-1.742-.562,2.479,2.479,0,0,1-.953-.781,1.869,1.869,0,0,1-.309-1.078,2.193,2.193,0,0,1,.879-1.758,3.432,3.432,0,0,1,2.246-.719,3.532,3.532,0,0,1,2.332.742,2.357,2.357,0,0,1,.895,1.9H63.266a1.3,1.3,0,0,0-.5-1.023,1.888,1.888,0,0,0-1.27-.43,1.976,1.976,0,0,0-1.234.344,1.082,1.082,0,0,0-.445.9.877.877,0,0,0,.414.789,5.1,5.1,0,0,0,1.5.508,7.8,7.8,0,0,1,1.754.578,2.558,2.558,0,0,1,1,.809A1.988,1.988,0,0,1,64.8-2.344a2.163,2.163,0,0,1-.906,1.816,3.8,3.8,0,0,1-2.352.684,4.257,4.257,0,0,1-1.8-.359,2.922,2.922,0,0,1-1.223-1A2.42,2.42,0,0,1,58.078-2.6h1.445a1.5,1.5,0,0,0,.582,1.152,2.258,2.258,0,0,0,1.434.426,2.331,2.331,0,0,0,1.316-.332A1.02,1.02,0,0,0,63.352-2.242ZM66.711-.758a.905.905,0,0,1,.223-.625.848.848,0,0,1,.668-.25.874.874,0,0,1,.676.25.887.887,0,0,1,.23.625.839.839,0,0,1-.23.6A.89.89,0,0,1,67.6.086a.863.863,0,0,1-.668-.242A.855.855,0,0,1,66.711-.758Z" transform="translate(466 1011)" fill="#12263f"/>
    <path id="Trazado_772981" data-name="Trazado 772981" d="M174.726,206.736c3.883-3.889,7.6-7.633,11.346-11.35,1.423-1.413,3.455-1.155,4.237.495a2.338,2.338,0,0,1-.431,2.814q-6.643,6.7-13.345,13.346a2.412,2.412,0,0,1-3.623-.067q-3.222-3.136-6.36-6.359a2.521,2.521,0,1,1,3.556-3.571c1.544,1.5,3.021,3.061,4.62,4.691" transform="translate(37.268 704.533)" fill="#12263f"/>
    <path id="Trazado_794158" data-name="Trazado 794158" d="M174.726,206.736c3.883-3.889,7.6-7.633,11.346-11.35,1.423-1.413,3.455-1.155,4.237.495a2.338,2.338,0,0,1-.431,2.814q-6.643,6.7-13.345,13.346a2.412,2.412,0,0,1-3.623-.067q-3.222-3.136-6.36-6.359a2.521,2.521,0,1,1,3.556-3.571c1.544,1.5,3.021,3.061,4.62,4.691" transform="translate(37.268 800.533)" fill="#12263f"/>
    <path id="Trazado_794155" data-name="Trazado 794155" d="M174.726,206.736c3.883-3.889,7.6-7.633,11.346-11.35,1.423-1.413,3.455-1.155,4.237.495a2.338,2.338,0,0,1-.431,2.814q-6.643,6.7-13.345,13.346a2.412,2.412,0,0,1-3.623-.067q-3.222-3.136-6.36-6.359a2.521,2.521,0,1,1,3.556-3.571c1.544,1.5,3.021,3.061,4.62,4.691" transform="translate(454.268 704.533)" fill="#12263f"/>
    <path id="Trazado_794156" data-name="Trazado 794156" d="M174.726,206.736c3.883-3.889,7.6-7.633,11.346-11.35,1.423-1.413,3.455-1.155,4.237.495a2.338,2.338,0,0,1-.431,2.814q-6.643,6.7-13.345,13.346a2.412,2.412,0,0,1-3.623-.067q-3.222-3.136-6.36-6.359a2.521,2.521,0,1,1,3.556-3.571c1.544,1.5,3.021,3.061,4.62,4.691" transform="translate(454.268 800.533)" fill="#12263f"/>
    <path id="Trazado_794154" data-name="Trazado 794154" d="M174.726,206.736c3.883-3.889,7.6-7.633,11.346-11.35,1.423-1.413,3.455-1.155,4.237.495a2.338,2.338,0,0,1-.431,2.814q-6.643,6.7-13.345,13.346a2.412,2.412,0,0,1-3.623-.067q-3.222-3.136-6.36-6.359a2.521,2.521,0,1,1,3.556-3.571c1.544,1.5,3.021,3.061,4.62,4.691" transform="translate(244.268 704.533)" fill="#12263f"/>
    <path id="Trazado_794157" data-name="Trazado 794157" d="M174.726,206.736c3.883-3.889,7.6-7.633,11.346-11.35,1.423-1.413,3.455-1.155,4.237.495a2.338,2.338,0,0,1-.431,2.814q-6.643,6.7-13.345,13.346a2.412,2.412,0,0,1-3.623-.067q-3.222-3.136-6.36-6.359a2.521,2.521,0,1,1,3.556-3.571c1.544,1.5,3.021,3.061,4.62,4.691" transform="translate(244.268 800.533)" fill="#12263f"/>
  </g>
</svg>
