<svg xmlns="http://www.w3.org/2000/svg" xmlns:xlink="http://www.w3.org/1999/xlink" width="316.861" height="349.521" viewBox="0 0 316.861 349.521">
  <defs>
    <clipPath id="clip-path">
      <rect id="Rectángulo_352791" data-name="Rectángulo 352791" width="214.319" height="109.335" fill="#ffb206"/>
    </clipPath>
    <clipPath id="clip-path-2">
      <rect id="Rectángulo_366531" data-name="Rectángulo 366531" width="296.458" height="300.961" fill="none"/>
    </clipPath>
    <clipPath id="clip-path-6">
      <rect id="Rectángulo_366520" data-name="Rectángulo 366520" width="29.887" height="29.887" fill="none"/>
    </clipPath>
    <clipPath id="clip-path-10">
      <rect id="Rectángulo_366527" data-name="Rectángulo 366527" width="13.57" height="14.176" fill="none"/>
    </clipPath>
    <clipPath id="clip-path-11">
      <rect id="Rectángulo_366528" data-name="Rectángulo 366528" width="4.584" height="12.453" fill="none"/>
    </clipPath>
    <clipPath id="clip-path-12">
      <rect id="Rectángulo_366529" data-name="Rectángulo 366529" width="11.524" height="17.06" fill="none"/>
    </clipPath>
  </defs>
  <g id="Grupo_1083993" data-name="Grupo 1083993" transform="translate(-1119.502 -1575)">
    <g id="Grupo_1083906" data-name="Grupo 1083906" transform="translate(1125 1575)">
      <g id="Enmascarar_grupo_1018593" data-name="Enmascarar grupo 1018593" transform="translate(303.363 112.691) rotate(90)" clip-path="url(#clip-path)">
        <path id="Trazado_151731" data-name="Trazado 151731" d="M102.045,161.123a59.078,59.078,0,1,1,59.079-59.078,59.145,59.145,0,0,1-59.079,59.078m0,42.966A102.044,102.044,0,1,0,0,102.044,102.044,102.044,0,0,0,102.045,204.089Z" transform="translate(4.427 7.291)" fill="#ffb206"/>
      </g>
      <g id="Grupo_1018971" data-name="Grupo 1018971" transform="translate(0 0)">
        <path id="Trazado_145969" data-name="Trazado 145969" d="M60.437,0A60.437,60.437,0,1,1,0,60.437,60.437,60.437,0,0,1,60.437,0Z" transform="translate(0 3.067)" fill="#ffca28" opacity="0.444" style="mix-blend-mode: multiply;isolation: isolate"/>
        <rect id="Rectángulo_34812" data-name="Rectángulo 34812" width="311.363" height="179.358" transform="translate(0)" fill="none"/>
        <path id="Trazado_145971" data-name="Trazado 145971" d="M6.9,0A6.9,6.9,0,1,1,0,6.9,6.9,6.9,0,0,1,6.9,0Z" transform="translate(27.251 134.997)" fill="#31313c" opacity="0.444" style="mix-blend-mode: multiply;isolation: isolate"/>
        <g id="Grupo_80270" data-name="Grupo 80270" transform="translate(220.887 191.319) rotate(90)">
          <path id="Trazado_145968" data-name="Trazado 145968" d="M67.846,0A67.846,67.846,0,1,1,0,67.846,67.846,67.846,0,0,1,67.846,0Z" fill="#31313c" opacity="0.444" style="mix-blend-mode: multiply;isolation: isolate"/>
          <g id="Grupo_78276" data-name="Grupo 78276" transform="translate(26.489 28.048)">
            <g id="Grupo_53306" data-name="Grupo 53306">
              <path id="Trazado_99200" data-name="Trazado 99200" d="M1.843.881a.9.9,0,0,1-.922.882A.9.9,0,0,1,0,.881.9.9,0,0,1,.921,0,.9.9,0,0,1,1.843.881Z" fill="#fff"/>
              <path id="Trazado_99201" data-name="Trazado 99201" d="M1.842.881a.9.9,0,0,1-.921.882A.9.9,0,0,1,0,.881.9.9,0,0,1,.922,0,.9.9,0,0,1,1.842.881Z" transform="translate(8.291)" fill="#fff"/>
              <path id="Trazado_99202" data-name="Trazado 99202" d="M1.843.881a.9.9,0,0,1-.921.882A.9.9,0,0,1,0,.881.9.9,0,0,1,.922,0,.9.9,0,0,1,1.843.881Z" transform="translate(16.582)" fill="#fff"/>
              <path id="Trazado_99203" data-name="Trazado 99203" d="M1.842.881a.9.9,0,0,1-.922.882A.9.9,0,0,1,0,.881.9.9,0,0,1,.921,0,.9.9,0,0,1,1.842.881Z" transform="translate(24.874)" fill="#fff"/>
              <path id="Trazado_99204" data-name="Trazado 99204" d="M1.843.881a.9.9,0,0,1-.921.882A.9.9,0,0,1,0,.881.9.9,0,0,1,.922,0,.9.9,0,0,1,1.843.881Z" transform="translate(33.165)" fill="#fff"/>
              <path id="Trazado_99205" data-name="Trazado 99205" d="M1.842.881a.9.9,0,0,1-.921.882A.9.9,0,0,1,0,.881.9.9,0,0,1,.922,0,.9.9,0,0,1,1.842.881Z" transform="translate(41.456)" fill="#fff"/>
              <path id="Trazado_99206" data-name="Trazado 99206" d="M1.843.881a.9.9,0,0,1-.922.882A.9.9,0,0,1,0,.881.9.9,0,0,1,.921,0,.9.9,0,0,1,1.843.881Z" transform="translate(49.749)" fill="#fff"/>
              <path id="Trazado_99207" data-name="Trazado 99207" d="M1.843.881a.9.9,0,0,1-.921.882A.9.9,0,0,1,0,.881.9.9,0,0,1,.922,0,.9.9,0,0,1,1.843.881Z" transform="translate(58.04)" fill="#fff"/>
              <path id="Trazado_99208" data-name="Trazado 99208" d="M1.843.881a.9.9,0,0,1-.921.882A.9.9,0,0,1,0,.881.9.9,0,0,1,.922,0,.9.9,0,0,1,1.843.881Z" transform="translate(66.331)" fill="#fff"/>
              <path id="Trazado_99209" data-name="Trazado 99209" d="M1.843.881a.9.9,0,0,1-.922.882A.9.9,0,0,1,0,.881.9.9,0,0,1,.921,0,.9.9,0,0,1,1.843.881Z" transform="translate(74.623)" fill="#fff"/>
              <path id="Trazado_99210" data-name="Trazado 99210" d="M1.843.881a.9.9,0,0,1-.922.882A.9.9,0,0,1,0,.881.9.9,0,0,1,.921,0,.9.9,0,0,1,1.843.881Z" transform="translate(82.914)" fill="#fff"/>
            </g>
            <g id="Grupo_53307" data-name="Grupo 53307" transform="translate(0 7.048)">
              <path id="Trazado_99211" data-name="Trazado 99211" d="M1.843.881a.9.9,0,0,1-.922.882A.9.9,0,0,1,0,.881.9.9,0,0,1,.921,0,.9.9,0,0,1,1.843.881Z" fill="#fff"/>
              <path id="Trazado_99212" data-name="Trazado 99212" d="M1.842.881a.9.9,0,0,1-.921.882A.9.9,0,0,1,0,.881.9.9,0,0,1,.922,0,.9.9,0,0,1,1.842.881Z" transform="translate(8.291)" fill="#fff"/>
              <path id="Trazado_99213" data-name="Trazado 99213" d="M1.843.881a.9.9,0,0,1-.921.882A.9.9,0,0,1,0,.881.9.9,0,0,1,.922,0,.9.9,0,0,1,1.843.881Z" transform="translate(16.582)" fill="#fff"/>
              <path id="Trazado_99214" data-name="Trazado 99214" d="M1.842.881a.9.9,0,0,1-.922.882A.9.9,0,0,1,0,.881.9.9,0,0,1,.921,0,.9.9,0,0,1,1.842.881Z" transform="translate(24.874)" fill="#fff"/>
              <path id="Trazado_99215" data-name="Trazado 99215" d="M1.843.881a.9.9,0,0,1-.921.882A.9.9,0,0,1,0,.881.9.9,0,0,1,.922,0,.9.9,0,0,1,1.843.881Z" transform="translate(33.165)" fill="#fff"/>
              <path id="Trazado_99216" data-name="Trazado 99216" d="M1.842.881a.9.9,0,0,1-.921.882A.9.9,0,0,1,0,.881.9.9,0,0,1,.922,0,.9.9,0,0,1,1.842.881Z" transform="translate(41.456)" fill="#fff"/>
              <path id="Trazado_99217" data-name="Trazado 99217" d="M1.843.881a.9.9,0,0,1-.922.882A.9.9,0,0,1,0,.881.9.9,0,0,1,.921,0,.9.9,0,0,1,1.843.881Z" transform="translate(49.749)" fill="#fff"/>
              <path id="Trazado_99218" data-name="Trazado 99218" d="M1.843.881a.9.9,0,0,1-.921.882A.9.9,0,0,1,0,.881.9.9,0,0,1,.922,0,.9.9,0,0,1,1.843.881Z" transform="translate(58.04)" fill="#fff"/>
              <path id="Trazado_99219" data-name="Trazado 99219" d="M1.843.881a.9.9,0,0,1-.921.882A.9.9,0,0,1,0,.881.9.9,0,0,1,.922,0,.9.9,0,0,1,1.843.881Z" transform="translate(66.331)" fill="#fff"/>
              <path id="Trazado_99220" data-name="Trazado 99220" d="M1.843.881a.9.9,0,0,1-.922.882A.9.9,0,0,1,0,.881.9.9,0,0,1,.921,0,.9.9,0,0,1,1.843.881Z" transform="translate(74.623)" fill="#fff"/>
              <path id="Trazado_99221" data-name="Trazado 99221" d="M1.843.881a.9.9,0,0,1-.922.882A.9.9,0,0,1,0,.881.9.9,0,0,1,.921,0,.9.9,0,0,1,1.843.881Z" transform="translate(82.914)" fill="#fff"/>
            </g>
            <g id="Grupo_53308" data-name="Grupo 53308" transform="translate(0 14.097)">
              <ellipse id="Elipse_3955" data-name="Elipse 3955" cx="0.921" cy="0.881" rx="0.921" ry="0.881" fill="#fff"/>
              <path id="Trazado_99222" data-name="Trazado 99222" d="M1.842.881a.9.9,0,0,1-.921.882A.9.9,0,0,1,0,.881.9.9,0,0,1,.922,0,.9.9,0,0,1,1.842.881Z" transform="translate(8.291 0)" fill="#fff"/>
              <ellipse id="Elipse_3956" data-name="Elipse 3956" cx="0.921" cy="0.881" rx="0.921" ry="0.881" transform="translate(16.583)" fill="#fff"/>
              <path id="Trazado_99223" data-name="Trazado 99223" d="M1.842.881a.9.9,0,0,1-.922.882A.9.9,0,0,1,0,.881.9.9,0,0,1,.921,0,.9.9,0,0,1,1.842.881Z" transform="translate(24.874 0)" fill="#fff"/>
              <path id="Trazado_99224" data-name="Trazado 99224" d="M1.843.881a.9.9,0,0,1-.921.882A.9.9,0,0,1,0,.881.9.9,0,0,1,.922,0,.9.9,0,0,1,1.843.881Z" transform="translate(33.165 0)" fill="#fff"/>
              <ellipse id="Elipse_3957" data-name="Elipse 3957" cx="0.921" cy="0.881" rx="0.921" ry="0.881" transform="translate(41.457)" fill="#fff"/>
              <path id="Trazado_99225" data-name="Trazado 99225" d="M1.843.881a.9.9,0,0,1-.922.882A.9.9,0,0,1,0,.881.9.9,0,0,1,.921,0,.9.9,0,0,1,1.843.881Z" transform="translate(49.749 0)" fill="#fff"/>
              <ellipse id="Elipse_3958" data-name="Elipse 3958" cx="0.921" cy="0.881" rx="0.921" ry="0.881" transform="translate(58.04)" fill="#fff"/>
              <ellipse id="Elipse_3959" data-name="Elipse 3959" cx="0.921" cy="0.881" rx="0.921" ry="0.881" transform="translate(66.331)" fill="#fff"/>
              <path id="Trazado_99226" data-name="Trazado 99226" d="M1.843.881a.9.9,0,0,1-.922.882A.9.9,0,0,1,0,.881.9.9,0,0,1,.921,0,.9.9,0,0,1,1.843.881Z" transform="translate(74.623 0)" fill="#fff"/>
              <path id="Trazado_99227" data-name="Trazado 99227" d="M1.843.881a.9.9,0,0,1-.922.882A.9.9,0,0,1,0,.881.9.9,0,0,1,.921,0,.9.9,0,0,1,1.843.881Z" transform="translate(82.914 0)" fill="#fff"/>
            </g>
            <g id="Grupo_53309" data-name="Grupo 53309" transform="translate(0 21.144)">
              <ellipse id="Elipse_3960" data-name="Elipse 3960" cx="0.921" cy="0.881" rx="0.921" ry="0.881" transform="translate(0 0)" fill="#fff"/>
              <path id="Trazado_99228" data-name="Trazado 99228" d="M1.842.882a.9.9,0,0,1-.921.881A.9.9,0,0,1,0,.882.9.9,0,0,1,.922,0,.9.9,0,0,1,1.842.882Z" transform="translate(8.291)" fill="#fff"/>
              <ellipse id="Elipse_3961" data-name="Elipse 3961" cx="0.921" cy="0.881" rx="0.921" ry="0.881" transform="translate(16.583 0)" fill="#fff"/>
              <path id="Trazado_99229" data-name="Trazado 99229" d="M1.842.882a.9.9,0,0,1-.922.881A.9.9,0,0,1,0,.882.9.9,0,0,1,.921,0,.9.9,0,0,1,1.842.882Z" transform="translate(24.874)" fill="#fff"/>
              <path id="Trazado_99230" data-name="Trazado 99230" d="M1.843.882a.9.9,0,0,1-.921.881A.9.9,0,0,1,0,.882.9.9,0,0,1,.922,0,.9.9,0,0,1,1.843.882Z" transform="translate(33.165)" fill="#fff"/>
              <ellipse id="Elipse_3962" data-name="Elipse 3962" cx="0.921" cy="0.881" rx="0.921" ry="0.881" transform="translate(41.457 0)" fill="#fff"/>
              <path id="Trazado_99231" data-name="Trazado 99231" d="M1.843.882a.9.9,0,0,1-.922.881A.9.9,0,0,1,0,.882.9.9,0,0,1,.921,0,.9.9,0,0,1,1.843.882Z" transform="translate(49.749)" fill="#fff"/>
              <ellipse id="Elipse_3963" data-name="Elipse 3963" cx="0.921" cy="0.881" rx="0.921" ry="0.881" transform="translate(58.04 0)" fill="#fff"/>
              <ellipse id="Elipse_3964" data-name="Elipse 3964" cx="0.921" cy="0.881" rx="0.921" ry="0.881" transform="translate(66.331 0)" fill="#fff"/>
              <path id="Trazado_99232" data-name="Trazado 99232" d="M1.843.882a.9.9,0,0,1-.922.881A.9.9,0,0,1,0,.882.9.9,0,0,1,.921,0,.9.9,0,0,1,1.843.882Z" transform="translate(74.623)" fill="#fff"/>
              <path id="Trazado_99233" data-name="Trazado 99233" d="M1.843.882a.9.9,0,0,1-.922.881A.9.9,0,0,1,0,.882.9.9,0,0,1,.921,0,.9.9,0,0,1,1.843.882Z" transform="translate(82.914)" fill="#fff"/>
            </g>
            <g id="Grupo_53310" data-name="Grupo 53310" transform="translate(0 28.193)">
              <path id="Trazado_99234" data-name="Trazado 99234" d="M1.843.882a.9.9,0,0,1-.922.881A.9.9,0,0,1,0,.882.9.9,0,0,1,.921,0,.9.9,0,0,1,1.843.882Z" fill="#fff"/>
              <path id="Trazado_99235" data-name="Trazado 99235" d="M1.842.882a.9.9,0,0,1-.921.881A.9.9,0,0,1,0,.882.9.9,0,0,1,.922,0,.9.9,0,0,1,1.842.882Z" transform="translate(8.291)" fill="#fff"/>
              <path id="Trazado_99236" data-name="Trazado 99236" d="M1.843.882a.9.9,0,0,1-.921.881A.9.9,0,0,1,0,.882.9.9,0,0,1,.922,0,.9.9,0,0,1,1.843.882Z" transform="translate(16.582)" fill="#fff"/>
              <path id="Trazado_99237" data-name="Trazado 99237" d="M1.842.882a.9.9,0,0,1-.922.881A.9.9,0,0,1,0,.882.9.9,0,0,1,.921,0,.9.9,0,0,1,1.842.882Z" transform="translate(24.874)" fill="#fff"/>
              <path id="Trazado_99238" data-name="Trazado 99238" d="M1.843.882a.9.9,0,0,1-.921.881A.9.9,0,0,1,0,.882.9.9,0,0,1,.922,0,.9.9,0,0,1,1.843.882Z" transform="translate(33.165)" fill="#fff"/>
              <path id="Trazado_99239" data-name="Trazado 99239" d="M1.842.882a.9.9,0,0,1-.921.881A.9.9,0,0,1,0,.882.9.9,0,0,1,.922,0,.9.9,0,0,1,1.842.882Z" transform="translate(41.456)" fill="#fff"/>
              <path id="Trazado_99240" data-name="Trazado 99240" d="M1.843.882a.9.9,0,0,1-.922.881A.9.9,0,0,1,0,.882.9.9,0,0,1,.921,0,.9.9,0,0,1,1.843.882Z" transform="translate(49.749)" fill="#fff"/>
              <path id="Trazado_99241" data-name="Trazado 99241" d="M1.843.882a.9.9,0,0,1-.921.881A.9.9,0,0,1,0,.882.9.9,0,0,1,.922,0,.9.9,0,0,1,1.843.882Z" transform="translate(58.04)" fill="#fff"/>
              <path id="Trazado_99242" data-name="Trazado 99242" d="M1.843.882a.9.9,0,0,1-.921.881A.9.9,0,0,1,0,.882.9.9,0,0,1,.922,0,.9.9,0,0,1,1.843.882Z" transform="translate(66.331)" fill="#fff"/>
              <path id="Trazado_99243" data-name="Trazado 99243" d="M1.843.882a.9.9,0,0,1-.922.881A.9.9,0,0,1,0,.882.9.9,0,0,1,.921,0,.9.9,0,0,1,1.843.882Z" transform="translate(74.623)" fill="#fff"/>
              <path id="Trazado_99244" data-name="Trazado 99244" d="M1.843.882a.9.9,0,0,1-.922.881A.9.9,0,0,1,0,.882.9.9,0,0,1,.921,0,.9.9,0,0,1,1.843.882Z" transform="translate(82.914)" fill="#fff"/>
            </g>
            <g id="Grupo_53311" data-name="Grupo 53311" transform="translate(0 35.241)">
              <ellipse id="Elipse_3965" data-name="Elipse 3965" cx="0.921" cy="0.881" rx="0.921" ry="0.881" transform="translate(0 0)" fill="#fff"/>
              <path id="Trazado_99245" data-name="Trazado 99245" d="M1.842.882a.9.9,0,0,1-.921.881A.9.9,0,0,1,0,.882.9.9,0,0,1,.922,0,.9.9,0,0,1,1.842.882Z" transform="translate(8.291)" fill="#fff"/>
              <ellipse id="Elipse_3966" data-name="Elipse 3966" cx="0.921" cy="0.881" rx="0.921" ry="0.881" transform="translate(16.583 0)" fill="#fff"/>
              <path id="Trazado_99246" data-name="Trazado 99246" d="M1.842.882a.9.9,0,0,1-.922.881A.9.9,0,0,1,0,.882.9.9,0,0,1,.921,0,.9.9,0,0,1,1.842.882Z" transform="translate(24.874)" fill="#fff"/>
              <path id="Trazado_99247" data-name="Trazado 99247" d="M1.843.882a.9.9,0,0,1-.921.881A.9.9,0,0,1,0,.882.9.9,0,0,1,.922,0,.9.9,0,0,1,1.843.882Z" transform="translate(33.165)" fill="#fff"/>
              <ellipse id="Elipse_3967" data-name="Elipse 3967" cx="0.921" cy="0.881" rx="0.921" ry="0.881" transform="translate(41.457 0)" fill="#fff"/>
              <path id="Trazado_99248" data-name="Trazado 99248" d="M1.843.882a.9.9,0,0,1-.922.881A.9.9,0,0,1,0,.882.9.9,0,0,1,.921,0,.9.9,0,0,1,1.843.882Z" transform="translate(49.749)" fill="#fff"/>
              <ellipse id="Elipse_3968" data-name="Elipse 3968" cx="0.921" cy="0.881" rx="0.921" ry="0.881" transform="translate(58.04 0)" fill="#fff"/>
              <ellipse id="Elipse_3969" data-name="Elipse 3969" cx="0.921" cy="0.881" rx="0.921" ry="0.881" transform="translate(66.331 0)" fill="#fff"/>
              <path id="Trazado_99249" data-name="Trazado 99249" d="M1.843.882a.9.9,0,0,1-.922.881A.9.9,0,0,1,0,.882.9.9,0,0,1,.921,0,.9.9,0,0,1,1.843.882Z" transform="translate(74.623)" fill="#fff"/>
              <path id="Trazado_99250" data-name="Trazado 99250" d="M1.843.882a.9.9,0,0,1-.922.881A.9.9,0,0,1,0,.882.9.9,0,0,1,.921,0,.9.9,0,0,1,1.843.882Z" transform="translate(82.914)" fill="#fff"/>
            </g>
            <g id="Grupo_53312" data-name="Grupo 53312" transform="translate(0 42.289)">
              <ellipse id="Elipse_3970" data-name="Elipse 3970" cx="0.921" cy="0.881" rx="0.921" ry="0.881" fill="#fff"/>
              <path id="Trazado_99251" data-name="Trazado 99251" d="M1.842.881a.9.9,0,0,1-.921.882A.9.9,0,0,1,0,.881.9.9,0,0,1,.922,0,.9.9,0,0,1,1.842.881Z" transform="translate(8.291 0)" fill="#fff"/>
              <ellipse id="Elipse_3971" data-name="Elipse 3971" cx="0.921" cy="0.881" rx="0.921" ry="0.881" transform="translate(16.583)" fill="#fff"/>
              <path id="Trazado_99252" data-name="Trazado 99252" d="M1.842.881a.9.9,0,0,1-.922.882A.9.9,0,0,1,0,.881.9.9,0,0,1,.921,0,.9.9,0,0,1,1.842.881Z" transform="translate(24.874 0)" fill="#fff"/>
              <path id="Trazado_99253" data-name="Trazado 99253" d="M1.843.881a.9.9,0,0,1-.921.882A.9.9,0,0,1,0,.881.9.9,0,0,1,.922,0,.9.9,0,0,1,1.843.881Z" transform="translate(33.165 0)" fill="#fff"/>
              <ellipse id="Elipse_3972" data-name="Elipse 3972" cx="0.921" cy="0.881" rx="0.921" ry="0.881" transform="translate(41.457)" fill="#fff"/>
              <path id="Trazado_99254" data-name="Trazado 99254" d="M1.843.881a.9.9,0,0,1-.922.882A.9.9,0,0,1,0,.881.9.9,0,0,1,.921,0,.9.9,0,0,1,1.843.881Z" transform="translate(49.749 0)" fill="#fff"/>
              <ellipse id="Elipse_3973" data-name="Elipse 3973" cx="0.921" cy="0.881" rx="0.921" ry="0.881" transform="translate(58.04)" fill="#fff"/>
              <ellipse id="Elipse_3974" data-name="Elipse 3974" cx="0.921" cy="0.881" rx="0.921" ry="0.881" transform="translate(66.331)" fill="#fff"/>
              <path id="Trazado_99255" data-name="Trazado 99255" d="M1.843.881a.9.9,0,0,1-.922.882A.9.9,0,0,1,0,.881.9.9,0,0,1,.921,0,.9.9,0,0,1,1.843.881Z" transform="translate(74.623 0)" fill="#fff"/>
              <path id="Trazado_99256" data-name="Trazado 99256" d="M1.843.881a.9.9,0,0,1-.922.882A.9.9,0,0,1,0,.881.9.9,0,0,1,.921,0,.9.9,0,0,1,1.843.881Z" transform="translate(82.914 0)" fill="#fff"/>
            </g>
            <g id="Grupo_53313" data-name="Grupo 53313" transform="translate(0 49.337)">
              <path id="Trazado_99257" data-name="Trazado 99257" d="M1.843.881a.9.9,0,0,1-.922.882A.9.9,0,0,1,0,.881.9.9,0,0,1,.921,0,.9.9,0,0,1,1.843.881Z" fill="#fff"/>
              <path id="Trazado_99258" data-name="Trazado 99258" d="M1.842.881a.9.9,0,0,1-.921.882A.9.9,0,0,1,0,.881.9.9,0,0,1,.922,0,.9.9,0,0,1,1.842.881Z" transform="translate(8.291)" fill="#fff"/>
              <path id="Trazado_99259" data-name="Trazado 99259" d="M1.843.881a.9.9,0,0,1-.921.882A.9.9,0,0,1,0,.881.9.9,0,0,1,.922,0,.9.9,0,0,1,1.843.881Z" transform="translate(16.582)" fill="#fff"/>
              <path id="Trazado_99260" data-name="Trazado 99260" d="M1.842.881a.9.9,0,0,1-.922.882A.9.9,0,0,1,0,.881.9.9,0,0,1,.921,0,.9.9,0,0,1,1.842.881Z" transform="translate(24.874)" fill="#fff"/>
              <path id="Trazado_99261" data-name="Trazado 99261" d="M1.843.881a.9.9,0,0,1-.921.882A.9.9,0,0,1,0,.881.9.9,0,0,1,.922,0,.9.9,0,0,1,1.843.881Z" transform="translate(33.165)" fill="#fff"/>
              <path id="Trazado_99262" data-name="Trazado 99262" d="M1.842.881a.9.9,0,0,1-.921.882A.9.9,0,0,1,0,.881.9.9,0,0,1,.922,0,.9.9,0,0,1,1.842.881Z" transform="translate(41.456)" fill="#fff"/>
              <path id="Trazado_99263" data-name="Trazado 99263" d="M1.843.881a.9.9,0,0,1-.922.882A.9.9,0,0,1,0,.881.9.9,0,0,1,.921,0,.9.9,0,0,1,1.843.881Z" transform="translate(49.749)" fill="#fff"/>
              <path id="Trazado_99264" data-name="Trazado 99264" d="M1.843.881a.9.9,0,0,1-.921.882A.9.9,0,0,1,0,.881.9.9,0,0,1,.922,0,.9.9,0,0,1,1.843.881Z" transform="translate(58.04)" fill="#fff"/>
              <path id="Trazado_99265" data-name="Trazado 99265" d="M1.843.881a.9.9,0,0,1-.921.882A.9.9,0,0,1,0,.881.9.9,0,0,1,.922,0,.9.9,0,0,1,1.843.881Z" transform="translate(66.331)" fill="#fff"/>
              <path id="Trazado_99266" data-name="Trazado 99266" d="M1.843.881a.9.9,0,0,1-.922.882A.9.9,0,0,1,0,.881.9.9,0,0,1,.921,0,.9.9,0,0,1,1.843.881Z" transform="translate(74.623)" fill="#fff"/>
              <path id="Trazado_99267" data-name="Trazado 99267" d="M1.843.881a.9.9,0,0,1-.922.882A.9.9,0,0,1,0,.881.9.9,0,0,1,.921,0,.9.9,0,0,1,1.843.881Z" transform="translate(82.914)" fill="#fff"/>
            </g>
            <g id="Grupo_53314" data-name="Grupo 53314" transform="translate(0 56.386)">
              <ellipse id="Elipse_3975" data-name="Elipse 3975" cx="0.921" cy="0.881" rx="0.921" ry="0.881" fill="#fff"/>
              <path id="Trazado_99268" data-name="Trazado 99268" d="M1.842.881a.9.9,0,0,1-.921.882A.9.9,0,0,1,0,.881.9.9,0,0,1,.922,0,.9.9,0,0,1,1.842.881Z" transform="translate(8.291 0)" fill="#fff"/>
              <ellipse id="Elipse_3976" data-name="Elipse 3976" cx="0.921" cy="0.881" rx="0.921" ry="0.881" transform="translate(16.583)" fill="#fff"/>
              <path id="Trazado_99269" data-name="Trazado 99269" d="M1.842.881a.9.9,0,0,1-.922.882A.9.9,0,0,1,0,.881.9.9,0,0,1,.921,0,.9.9,0,0,1,1.842.881Z" transform="translate(24.874 0)" fill="#fff"/>
              <path id="Trazado_99270" data-name="Trazado 99270" d="M1.843.881a.9.9,0,0,1-.921.882A.9.9,0,0,1,0,.881.9.9,0,0,1,.922,0,.9.9,0,0,1,1.843.881Z" transform="translate(33.165 0)" fill="#fff"/>
              <ellipse id="Elipse_3977" data-name="Elipse 3977" cx="0.921" cy="0.881" rx="0.921" ry="0.881" transform="translate(41.457)" fill="#fff"/>
              <path id="Trazado_99271" data-name="Trazado 99271" d="M1.843.881a.9.9,0,0,1-.922.882A.9.9,0,0,1,0,.881.9.9,0,0,1,.921,0,.9.9,0,0,1,1.843.881Z" transform="translate(49.749 0)" fill="#fff"/>
              <ellipse id="Elipse_3978" data-name="Elipse 3978" cx="0.921" cy="0.881" rx="0.921" ry="0.881" transform="translate(58.04)" fill="#fff"/>
              <ellipse id="Elipse_3979" data-name="Elipse 3979" cx="0.921" cy="0.881" rx="0.921" ry="0.881" transform="translate(66.331)" fill="#fff"/>
              <path id="Trazado_99272" data-name="Trazado 99272" d="M1.843.881a.9.9,0,0,1-.922.882A.9.9,0,0,1,0,.881.9.9,0,0,1,.921,0,.9.9,0,0,1,1.843.881Z" transform="translate(74.623 0)" fill="#fff"/>
              <path id="Trazado_99273" data-name="Trazado 99273" d="M1.843.881a.9.9,0,0,1-.922.882A.9.9,0,0,1,0,.881.9.9,0,0,1,.921,0,.9.9,0,0,1,1.843.881Z" transform="translate(82.914 0)" fill="#fff"/>
            </g>
            <g id="Grupo_53315" data-name="Grupo 53315" transform="translate(0 63.433)">
              <path id="Trazado_99274" data-name="Trazado 99274" d="M1.843.882a.9.9,0,0,1-.922.881A.9.9,0,0,1,0,.882.9.9,0,0,1,.921,0,.9.9,0,0,1,1.843.882Z" fill="#fff"/>
              <path id="Trazado_99275" data-name="Trazado 99275" d="M1.842.882a.9.9,0,0,1-.921.881A.9.9,0,0,1,0,.882.9.9,0,0,1,.922,0,.9.9,0,0,1,1.842.882Z" transform="translate(8.291)" fill="#fff"/>
              <path id="Trazado_99276" data-name="Trazado 99276" d="M1.843.882a.9.9,0,0,1-.921.881A.9.9,0,0,1,0,.882.9.9,0,0,1,.922,0,.9.9,0,0,1,1.843.882Z" transform="translate(16.582)" fill="#fff"/>
              <path id="Trazado_99277" data-name="Trazado 99277" d="M1.842.882a.9.9,0,0,1-.922.881A.9.9,0,0,1,0,.882.9.9,0,0,1,.921,0,.9.9,0,0,1,1.842.882Z" transform="translate(24.874)" fill="#fff"/>
              <path id="Trazado_99278" data-name="Trazado 99278" d="M1.843.882a.9.9,0,0,1-.921.881A.9.9,0,0,1,0,.882.9.9,0,0,1,.922,0,.9.9,0,0,1,1.843.882Z" transform="translate(33.165)" fill="#fff"/>
              <path id="Trazado_99279" data-name="Trazado 99279" d="M1.842.882a.9.9,0,0,1-.921.881A.9.9,0,0,1,0,.882.9.9,0,0,1,.922,0,.9.9,0,0,1,1.842.882Z" transform="translate(41.456)" fill="#fff"/>
              <path id="Trazado_99280" data-name="Trazado 99280" d="M1.843.882a.9.9,0,0,1-.922.881A.9.9,0,0,1,0,.882.9.9,0,0,1,.921,0,.9.9,0,0,1,1.843.882Z" transform="translate(49.749)" fill="#fff"/>
              <path id="Trazado_99281" data-name="Trazado 99281" d="M1.843.882a.9.9,0,0,1-.921.881A.9.9,0,0,1,0,.882.9.9,0,0,1,.922,0,.9.9,0,0,1,1.843.882Z" transform="translate(58.04)" fill="#fff"/>
              <path id="Trazado_99282" data-name="Trazado 99282" d="M1.843.882a.9.9,0,0,1-.921.881A.9.9,0,0,1,0,.882.9.9,0,0,1,.922,0,.9.9,0,0,1,1.843.882Z" transform="translate(66.331)" fill="#fff"/>
              <path id="Trazado_99283" data-name="Trazado 99283" d="M1.843.882a.9.9,0,0,1-.922.881A.9.9,0,0,1,0,.882.9.9,0,0,1,.921,0,.9.9,0,0,1,1.843.882Z" transform="translate(74.623)" fill="#fff"/>
              <path id="Trazado_99284" data-name="Trazado 99284" d="M1.843.882a.9.9,0,0,1-.922.881A.9.9,0,0,1,0,.882.9.9,0,0,1,.921,0,.9.9,0,0,1,1.843.882Z" transform="translate(82.914)" fill="#fff"/>
            </g>
            <g id="Grupo_53316" data-name="Grupo 53316" transform="translate(0 70.482)">
              <ellipse id="Elipse_3980" data-name="Elipse 3980" cx="0.921" cy="0.881" rx="0.921" ry="0.881" transform="translate(0 0)" fill="#fff"/>
              <path id="Trazado_99285" data-name="Trazado 99285" d="M1.842.882a.9.9,0,0,1-.921.881A.9.9,0,0,1,0,.882.9.9,0,0,1,.922,0,.9.9,0,0,1,1.842.882Z" transform="translate(8.291)" fill="#fff"/>
              <ellipse id="Elipse_3981" data-name="Elipse 3981" cx="0.921" cy="0.881" rx="0.921" ry="0.881" transform="translate(16.583 0)" fill="#fff"/>
              <path id="Trazado_99286" data-name="Trazado 99286" d="M1.842.882a.9.9,0,0,1-.922.881A.9.9,0,0,1,0,.882.9.9,0,0,1,.921,0,.9.9,0,0,1,1.842.882Z" transform="translate(24.874)" fill="#fff"/>
              <path id="Trazado_99287" data-name="Trazado 99287" d="M1.843.882a.9.9,0,0,1-.921.881A.9.9,0,0,1,0,.882.9.9,0,0,1,.922,0,.9.9,0,0,1,1.843.882Z" transform="translate(33.165)" fill="#fff"/>
              <ellipse id="Elipse_3982" data-name="Elipse 3982" cx="0.921" cy="0.881" rx="0.921" ry="0.881" transform="translate(41.457 0)" fill="#fff"/>
              <path id="Trazado_99288" data-name="Trazado 99288" d="M1.843.882a.9.9,0,0,1-.922.881A.9.9,0,0,1,0,.882.9.9,0,0,1,.921,0,.9.9,0,0,1,1.843.882Z" transform="translate(49.749)" fill="#fff"/>
              <ellipse id="Elipse_3983" data-name="Elipse 3983" cx="0.921" cy="0.881" rx="0.921" ry="0.881" transform="translate(58.04 0)" fill="#fff"/>
              <ellipse id="Elipse_3984" data-name="Elipse 3984" cx="0.921" cy="0.881" rx="0.921" ry="0.881" transform="translate(66.331 0)" fill="#fff"/>
              <path id="Trazado_99289" data-name="Trazado 99289" d="M1.843.882a.9.9,0,0,1-.922.881A.9.9,0,0,1,0,.882.9.9,0,0,1,.921,0,.9.9,0,0,1,1.843.882Z" transform="translate(74.623)" fill="#fff"/>
              <path id="Trazado_99290" data-name="Trazado 99290" d="M1.843.882a.9.9,0,0,1-.922.881A.9.9,0,0,1,0,.882.9.9,0,0,1,.921,0,.9.9,0,0,1,1.843.882Z" transform="translate(82.914)" fill="#fff"/>
            </g>
            <g id="Grupo_53317" data-name="Grupo 53317" transform="translate(0 77.531)">
              <ellipse id="Elipse_3985" data-name="Elipse 3985" cx="0.921" cy="0.881" rx="0.921" ry="0.881" transform="translate(0 0)" fill="#fff"/>
              <path id="Trazado_99291" data-name="Trazado 99291" d="M1.842.882a.9.9,0,0,1-.921.881A.9.9,0,0,1,0,.882.9.9,0,0,1,.922,0,.9.9,0,0,1,1.842.882Z" transform="translate(8.291)" fill="#fff"/>
              <ellipse id="Elipse_3986" data-name="Elipse 3986" cx="0.921" cy="0.881" rx="0.921" ry="0.881" transform="translate(16.583 0)" fill="#fff"/>
              <path id="Trazado_99292" data-name="Trazado 99292" d="M1.842.882a.9.9,0,0,1-.922.881A.9.9,0,0,1,0,.882.9.9,0,0,1,.921,0,.9.9,0,0,1,1.842.882Z" transform="translate(24.874)" fill="#fff"/>
              <path id="Trazado_99293" data-name="Trazado 99293" d="M1.843.882a.9.9,0,0,1-.921.881A.9.9,0,0,1,0,.882.9.9,0,0,1,.922,0,.9.9,0,0,1,1.843.882Z" transform="translate(33.165)" fill="#fff"/>
              <ellipse id="Elipse_3987" data-name="Elipse 3987" cx="0.921" cy="0.881" rx="0.921" ry="0.881" transform="translate(41.457 0)" fill="#fff"/>
              <path id="Trazado_99294" data-name="Trazado 99294" d="M1.843.882a.9.9,0,0,1-.922.881A.9.9,0,0,1,0,.882.9.9,0,0,1,.921,0,.9.9,0,0,1,1.843.882Z" transform="translate(49.749)" fill="#fff"/>
              <ellipse id="Elipse_3988" data-name="Elipse 3988" cx="0.921" cy="0.881" rx="0.921" ry="0.881" transform="translate(58.04 0)" fill="#fff"/>
              <ellipse id="Elipse_3989" data-name="Elipse 3989" cx="0.921" cy="0.881" rx="0.921" ry="0.881" transform="translate(66.331 0)" fill="#fff"/>
              <path id="Trazado_99295" data-name="Trazado 99295" d="M1.843.882a.9.9,0,0,1-.922.881A.9.9,0,0,1,0,.882.9.9,0,0,1,.921,0,.9.9,0,0,1,1.843.882Z" transform="translate(74.623)" fill="#fff"/>
              <path id="Trazado_99296" data-name="Trazado 99296" d="M1.843.882a.9.9,0,0,1-.922.881A.9.9,0,0,1,0,.882.9.9,0,0,1,.921,0,.9.9,0,0,1,1.843.882Z" transform="translate(82.914)" fill="#fff"/>
            </g>
          </g>
        </g>
        <line id="Línea_138" data-name="Línea 138" y2="128.801" transform="translate(14.797 31.003)" fill="none" stroke="#31313c" stroke-linecap="round" stroke-width="4" stroke-dasharray="8"/>
      </g>
    </g>
    <g id="Grupo_1083907" data-name="Grupo 1083907" transform="translate(1119.502 1623.56)">
      <g id="Grupo_1033783" data-name="Grupo 1033783" clip-path="url(#clip-path-2)">
        <g id="Grupo_1033754" data-name="Grupo 1033754">
          <g id="Grupo_1033753" data-name="Grupo 1033753" clip-path="url(#clip-path-2)">
            <path id="Trazado_782178" data-name="Trazado 782178" d="M333.835.2,314.751,9.767a3.869,3.869,0,0,0-2.353,3.56v8.926a41.435,41.435,0,0,0,6.8,22.855c3.437,5.237,8,11.932,15.582,15.759h3.424c8.444-2.576,14.747-9.44,18.6-15.311a41.43,41.43,0,0,0,6.8-22.855V13.327a3.869,3.869,0,0,0-2.353-3.56L339.523.505c-.969-.413-4.719-.723-5.688-.31" transform="translate(-108.593 0)" fill="#2a448b"/>
            <path id="Trazado_782179" data-name="Trazado 782179" d="M331.242.609,309.5,9.872a3.868,3.868,0,0,0-2.353,3.559v8.927a41.8,41.8,0,0,0,25.81,38.614c8.443-2.575,14.747-9.439,18.6-15.311a41.436,41.436,0,0,0,6.8-22.855V13.431a3.869,3.869,0,0,0-2.353-3.559L334.275.609a3.869,3.869,0,0,0-3.034,0" transform="translate(-106.769 -0.104)" fill="#12263f"/>
            <path id="Trazado_782180" data-name="Trazado 782180" d="M377.048,31.091a1.9,1.9,0,0,1,.042.411c.013.306.031.7.052,1.182.02.513.05,1.143.015,1.873s-.007,1.564-.114,2.479c-.087.916-.149,1.924-.337,2.991-.087.534-.154,1.091-.265,1.656s-.246,1.145-.373,1.74a42.865,42.865,0,0,1-2.507,7.505,44.16,44.16,0,0,1-3.9,6.889c-.725.979-1.393,1.925-2.11,2.738-.352.411-.672.826-1.016,1.192l-.992,1.05c-.616.684-1.249,1.228-1.778,1.732s-1.009.911-1.411,1.232l-.922.742a1.864,1.864,0,0,1-.335.241,1.927,1.927,0,0,1,.292-.294l.879-.789c.388-.335.857-.75,1.367-1.27s1.132-1.068,1.733-1.759l.97-1.059c.337-.369.65-.784.995-1.2.7-.815,1.358-1.761,2.07-2.738a45.62,45.62,0,0,0,3.846-6.848,44.167,44.167,0,0,0,2.512-7.439l.384-1.724c.115-.561.188-1.113.28-1.643.2-1.058.274-2.058.376-2.968.122-.908.108-1.739.163-2.465s.042-1.353.042-1.866c0-.483.008-.875.012-1.181a1.881,1.881,0,0,1,.027-.414" transform="translate(-125.521 -10.807)" fill="#e0e0e0"/>
            <path id="Trazado_782181" data-name="Trazado 782181" d="M337.277,49.5l-12.47-9.914,3.46-4.351,8.362,6.648L348.84,28.214l4.145,3.7Z" transform="translate(-112.906 -9.807)" fill="#fff"/>
            <path id="Trazado_782182" data-name="Trazado 782182" d="M425.839,64.139h-2.359V51.3a5.482,5.482,0,0,0-10.963,0V64.139h-2.359V51.3a7.841,7.841,0,0,1,15.681,0Z" transform="translate(-142.575 -15.106)" fill="#f4a338"/>
            <path id="Trazado_782183" data-name="Trazado 782183" d="M425.1,78.361H407.985a2.008,2.008,0,0,1-2.007-2.007V63.805a2.007,2.007,0,0,1,2.007-2.007H425.1a2.007,2.007,0,0,1,2.007,2.007V76.354a2.008,2.008,0,0,1-2.007,2.007" transform="translate(-141.122 -21.482)" fill="#e6b046"/>
            <path id="Trazado_782184" data-name="Trazado 782184" d="M422.542,73.05a2.294,2.294,0,0,0,.669-1.622,2.325,2.325,0,1,0-2.959,2.225l-.5,2.208h2.212l-.444-2.208a2.338,2.338,0,0,0,1.021-.6" transform="translate(-145.496 -24.021)" fill="#fafafa"/>
            <path id="Trazado_782185" data-name="Trazado 782185" d="M16.3,360.975a19.565,19.565,0,0,0-8.371-2.882,5.581,5.581,0,0,0-3.96.728.815.815,0,0,0-.408.724.884.884,0,0,0,.388.494,11.969,11.969,0,0,0,12.352.936" transform="translate(-1.234 -124.455)" fill="#e0e0e0"/>
            <path id="Trazado_782186" data-name="Trazado 782186" d="M18.019,355.188a40.857,40.857,0,0,1-5.407-4.757,13.676,13.676,0,0,1-3.39-6.27,2.529,2.529,0,0,1,.267-2.1c4.31,3.366,7.7,7.719,8.529,13.124" transform="translate(-3.171 -118.904)" fill="#e0e0e0"/>
            <path id="Trazado_782187" data-name="Trazado 782187" d="M22.875,355.591a19.561,19.561,0,0,1,.1-7.1,9.6,9.6,0,0,1,3.782-5.858,8.378,8.378,0,0,1-.1,5.566,27.023,27.023,0,0,1-3.749,7.895" transform="translate(-7.856 -119.102)" fill="#e0e0e0"/>
            <path id="Trazado_782188" data-name="Trazado 782188" d="M23.874,374.1a12.374,12.374,0,0,0-6.714,3.4,12.705,12.705,0,0,0-3.84,6.592c2.516-.155,4.65-1.929,6.2-3.919s2.621-4.171,4.321-6.032" transform="translate(-4.63 -130.04)" fill="#e0e0e0"/>
            <path id="Trazado_782189" data-name="Trazado 782189" d="M30.289,367.61A16.557,16.557,0,0,1,32.2,351.947a19.941,19.941,0,0,1-1.912,15.663" transform="translate(-10.127 -122.34)" fill="#e0e0e0"/>
            <path id="Trazado_782190" data-name="Trazado 782190" d="M33.268,386.132a11.975,11.975,0,0,0-11.449,6.59c-.142.283-.267.643-.077.9a.852.852,0,0,0,.759.223,9.965,9.965,0,0,0,5.906-3.049,56.453,56.453,0,0,1,4.911-4.669" transform="translate(-7.524 -134.215)" fill="#e0e0e0"/>
            <path id="Trazado_782191" data-name="Trazado 782191" d="M38.677,377.138a21.323,21.323,0,0,1-.213-11.911c.419-1.533,1.124-3.147,2.542-3.866a.5.5,0,0,1,.389-.068.514.514,0,0,1,.246.284,7.175,7.175,0,0,1,.6,3.417,21.39,21.39,0,0,1-.535,3.46c-.447,2.114-.684,4.386-1.844,6.209a12.54,12.54,0,0,0-.737,1.364c-.22.463-.221.626-.423.995" transform="translate(-13.111 -125.582)" fill="#e0e0e0"/>
            <path id="Trazado_782192" data-name="Trazado 782192" d="M61.62,381.973a15.356,15.356,0,0,1,2.692-12.627c.193-.252.449-.521.765-.492.483.045.609.689.587,1.174a22.82,22.82,0,0,1-4.044,11.945" transform="translate(-21.277 -128.216)" fill="#e0e0e0"/>
            <path id="Trazado_782193" data-name="Trazado 782193" d="M63.881,388.034a18.369,18.369,0,0,0,15.072-3.066,12.206,12.206,0,0,0-8.159-1,11.645,11.645,0,0,0-6.913,4.067" transform="translate(-22.206 -133.366)" fill="#e0e0e0"/>
            <path id="Trazado_782194" data-name="Trazado 782194" d="M65.6,381.9a17.419,17.419,0,0,1,13.679-7.91,8.427,8.427,0,0,1-4.474,4.946,24.841,24.841,0,0,1-6.566,1.921A4.629,4.629,0,0,0,65.6,381.9" transform="translate(-22.804 -130.001)" fill="#e0e0e0"/>
            <path id="Trazado_782195" data-name="Trazado 782195" d="M61.223,357a39.739,39.739,0,0,0,1.75-8.011,13.338,13.338,0,0,0-1.6-7.924,17.443,17.443,0,0,0-.234,16.21" transform="translate(-20.599 -118.555)" fill="#e0e0e0"/>
            <path id="Trazado_782196" data-name="Trazado 782196" d="M75.93,352.854c3.1-5.626,9.411-10.119,15.8-10.749-2.465,6.138-9.188,10.881-15.8,10.749" transform="translate(-26.394 -118.919)" fill="#e0e0e0"/>
            <path id="Trazado_782197" data-name="Trazado 782197" d="M72.945,359.779c4.616.7,8.55,3.651,12.863,5.439a5.765,5.765,0,0,0,2.908.557,2.277,2.277,0,0,0,1.425-4.027,6.226,6.226,0,0,0-2.112-1.281,23.472,23.472,0,0,0-14.687-.819" transform="translate(-25.356 -124.741)" fill="#e0e0e0"/>
            <path id="Trazado_782198" data-name="Trazado 782198" d="M68.85,365.115a5.455,5.455,0,0,1,2.23,1.545,24.05,24.05,0,0,0,9.755,5.011c.373.093.861.13,1.046-.207.161-.294-.042-.65-.252-.913a13.43,13.43,0,0,0-5.89-4c-2.251-.838-4.2-1.849-6.889-1.632" transform="translate(-23.933 -126.839)" fill="#e0e0e0"/>
            <path id="Trazado_782199" data-name="Trazado 782199" d="M64.229,334.994a18.462,18.462,0,0,0,14.154,4.815.971.971,0,0,0,.644-.232c.356-.388-.071-.985-.487-1.309a16.3,16.3,0,0,0-14.311-3.275" transform="translate(-22.327 -116.273)" fill="#e0e0e0"/>
            <path id="Trazado_782200" data-name="Trazado 782200" d="M69.708,331.207a19.728,19.728,0,0,1,17.66-2.914,14.021,14.021,0,0,1-8.415,3.7,26.65,26.65,0,0,1-9.245-.781" transform="translate(-24.231 -113.794)" fill="#e0e0e0"/>
            <path id="Trazado_782201" data-name="Trazado 782201" d="M66.26,312.826c-.408-4.153-.144-7.432-.432-11.6-.023-.333-.095-.734-.406-.855-.434-.167-.8.367-.939.81a13.3,13.3,0,0,0,1.771,11.558" transform="translate(-22.203 -104.399)" fill="#e0e0e0"/>
            <path id="Trazado_782202" data-name="Trazado 782202" d="M67.073,313.227a24.421,24.421,0,0,0,6.88-6.686c1.358-1.859,2.5-4.087,2.2-6.369a6.585,6.585,0,0,0-4.963,2.465,13.855,13.855,0,0,0-2.53,5.09c-.551,1.827-.936,3.7-1.583,5.5" transform="translate(-23.315 -104.342)" fill="#e0e0e0"/>
            <path id="Trazado_782203" data-name="Trazado 782203" d="M77.387,311.763a55.479,55.479,0,0,0,16.931-9.984c-2.023-.815-4.338-.328-6.36.489A20.051,20.051,0,0,0,77.3,311.718" transform="translate(-26.87 -104.755)" fill="#e0e0e0"/>
            <path id="Trazado_782204" data-name="Trazado 782204" d="M69.986,321.058a34.4,34.4,0,0,0,9.4.046,39.881,39.881,0,0,0,8.777-2.916,1.029,1.029,0,0,0,.6-.453.685.685,0,0,0-.214-.751,1.812,1.812,0,0,0-.748-.351,16.252,16.252,0,0,0-9.484.567,43.991,43.991,0,0,0-8.328,3.858" transform="translate(-24.328 -109.9)" fill="#e0e0e0"/>
            <path id="Trazado_782205" data-name="Trazado 782205" d="M41.8,328.143a16.63,16.63,0,0,1-.152-13.763,10.509,10.509,0,0,1,1.218,6.843c-.237,2.352-.953,4.772-1,7.135" transform="translate(-13.984 -109.281)" fill="#e0e0e0"/>
            <path id="Trazado_782206" data-name="Trazado 782206" d="M21.972,328.89a19.2,19.2,0,0,0-14.265,6.077,13.334,13.334,0,0,0,7.81-1.448,39.764,39.764,0,0,0,6.694-4.48" transform="translate(-2.679 -114.324)" fill="#e0e0e0"/>
            <path id="Trazado_782207" data-name="Trazado 782207" d="M13.643,325.822c-2.6-.211-5.111-.534-7.615.234a9.134,9.134,0,0,0-5.8,4.922,13.76,13.76,0,0,0,7.139-1.349,41.065,41.065,0,0,0,6.28-3.807" transform="translate(-0.078 -113.171)" fill="#e0e0e0"/>
            <path id="Trazado_782208" data-name="Trazado 782208" d="M25.655,323.96a24.011,24.011,0,0,0-7.477-3.734c-2.728-.636-5.89-.166-7.792,1.89,2.208,1.3,4.888,1.449,7.448,1.447s5.7-.031,8.114.823" transform="translate(-3.61 -111.221)" fill="#e0e0e0"/>
            <path id="Trazado_782209" data-name="Trazado 782209" d="M31.391,317.554c-4.006-3.933-5.524-11-3.912-16.377a24.956,24.956,0,0,1,3.912,16.377" transform="translate(-9.331 -104.692)" fill="#e0e0e0"/>
            <path id="Trazado_782210" data-name="Trazado 782210" d="M50.7,302.31c.755-1.756,1.287-3.6,1.964-5.387a15.466,15.466,0,0,1,2.8-4.966,7.378,7.378,0,0,1,4.961-2.572,19.98,19.98,0,0,1-9.629,12.953" transform="translate(-17.622 -100.593)" fill="#e0e0e0"/>
            <path id="Trazado_782211" data-name="Trazado 782211" d="M42.12,308.995c-1.25-1.721-2.694-4.057-4.39-5.341a7.343,7.343,0,0,0-5.972-1.568,13.91,13.91,0,0,0,10.362,6.909" transform="translate(-11.039 -104.955)" fill="#e0e0e0"/>
            <path id="Trazado_782212" data-name="Trazado 782212" d="M47.122,302.539a29.717,29.717,0,0,1-1.976-6.4,9.982,9.982,0,0,1,1-6.508c2.2,4.157,2.906,8.619,1.086,12.954" transform="translate(-15.643 -100.679)" fill="#e0e0e0"/>
            <path id="Trazado_782213" data-name="Trazado 782213" d="M50.727,284.939c1.245-4.121,5.018-7.154,9.092-8.546a3.393,3.393,0,0,1,1.594-.239,1.382,1.382,0,0,1,1.175.981c.149.7-.43,1.329-.975,1.795a30.954,30.954,0,0,1-10.886,6.01" transform="translate(-17.633 -95.985)" fill="#e0e0e0"/>
            <path id="Trazado_782214" data-name="Trazado 782214" d="M50.761,277.088a29.534,29.534,0,0,1,1.188-7.869,9.949,9.949,0,0,1,4.952-5.98c.412,2.683-.772,5.352-2.2,7.662s-3.148,4.488-4.006,7.063" transform="translate(-17.622 -91.504)" fill="#e0e0e0"/>
            <path id="Trazado_782215" data-name="Trazado 782215" d="M46.579,279.575c-1.029-3-1.136-6.817-2.934-9.434-1.257-1.828-3.27-3.074-4.353-5.011a7.621,7.621,0,0,0,.253,5.689,16.459,16.459,0,0,0,3.327,4.762c1.33,1.421,2.47,2.49,3.707,3.993" transform="translate(-13.506 -92.161)" fill="#e0e0e0"/>
            <path id="Trazado_782216" data-name="Trazado 782216" d="M50.644,375.146c-.08,0-.149-20.032-.155-44.738s.055-44.742.134-44.742.149,20.028.155,44.742-.055,44.738-.134,44.738" transform="translate(-17.551 -99.3)" fill="#e0e0e0"/>
            <path id="Trazado_782217" data-name="Trazado 782217" d="M68.219,330.842a4.328,4.328,0,0,1-.753.283l-2.073.7c-1.748.6-4.149,1.458-6.754,2.525-2.58,1.107-5.014,2.006-6.4,3.207a4.7,4.7,0,0,0-1.286,1.7c-.2.47-.234.758-.26.753a.588.588,0,0,1,.008-.21,3.217,3.217,0,0,1,.147-.583A4.521,4.521,0,0,1,52.1,337.4a11.267,11.267,0,0,1,2.777-1.725c1.11-.518,2.341-1.059,3.649-1.6,2.613-1.071,5.033-1.906,6.8-2.452.883-.275,1.6-.479,2.1-.613a4.347,4.347,0,0,1,.785-.175" transform="translate(-17.619 -115.002)" fill="#e0e0e0"/>
            <path id="Trazado_782218" data-name="Trazado 782218" d="M74.692,309.24a1.239,1.239,0,0,1-.211.225l-.643.6-2.4,2.18-7.987,7.112c-3.118,2.776-5.812,5.427-7.679,7.424-.936,1-1.671,1.823-2.174,2.4l-.581.663a1.238,1.238,0,0,1-.217.22,1.221,1.221,0,0,1,.172-.256c.121-.161.3-.4.539-.7.477-.6,1.191-1.448,2.11-2.466a101.378,101.378,0,0,1,7.637-7.5c3.129-2.769,5.976-5.256,8.045-7.049l2.461-2.111.678-.563a1.269,1.269,0,0,1,.25-.181" transform="translate(-18.354 -107.494)" fill="#e0e0e0"/>
            <path id="Trazado_782219" data-name="Trazado 782219" d="M63.962,325.384c-.082-.037.57-1.54,1.219-3.442s.963-3.507,1.046-3.493a11.762,11.762,0,0,1-.772,3.586,23.392,23.392,0,0,1-.969,2.407,3.764,3.764,0,0,1-.523.942" transform="translate(-22.231 -110.696)" fill="#e0e0e0"/>
            <path id="Trazado_782220" data-name="Trazado 782220" d="M44.568,339.87a3.573,3.573,0,0,1-.481-.558l-1.23-1.578c-1.034-1.337-2.463-3.181-4.065-5.2s-3.075-3.83-4.142-5.14l-1.258-1.557a3.492,3.492,0,0,1-.434-.594,3.633,3.633,0,0,1,.519.521c.321.348.775.86,1.329,1.5,1.108,1.277,2.607,3.07,4.212,5.092s3.009,3.888,4,5.257c.5.684.892,1.243,1.157,1.634a3.552,3.552,0,0,1,.39.624" transform="translate(-11.456 -113.057)" fill="#e0e0e0"/>
            <path id="Trazado_782221" data-name="Trazado 782221" d="M43.811,336.885a7.062,7.062,0,0,1-1.608-3.01,8.608,8.608,0,0,1-.365-3.036l.128.01c-.057.232-.1.354-.122.351s-.024-.133,0-.371l.128.01a13.8,13.8,0,0,0,.513,2.952,22.481,22.481,0,0,0,1.33,3.093" transform="translate(-14.537 -114.999)" fill="#e0e0e0"/>
            <path id="Trazado_782222" data-name="Trazado 782222" d="M32.656,329.9a5.2,5.2,0,0,0-1.123-.652A7.51,7.51,0,0,0,28.416,329a19.226,19.226,0,0,0-3.139.507,9.532,9.532,0,0,1-1.292.31,4.51,4.51,0,0,1,1.236-.507,14.349,14.349,0,0,1,3.173-.6,6.805,6.805,0,0,1,3.216.346,1.99,1.99,0,0,1,1.046.842" transform="translate(-8.338 -114.248)" fill="#e0e0e0"/>
            <path id="Trazado_782223" data-name="Trazado 782223" d="M28.984,327.259c-.022.045-.654-.262-1.72-.626a17.314,17.314,0,0,0-8.668-.661c-1.109.2-1.78.406-1.795.358a1.645,1.645,0,0,1,.456-.194,10.639,10.639,0,0,1,1.3-.365,15.294,15.294,0,0,1,8.778.669,10.707,10.707,0,0,1,1.228.557,1.648,1.648,0,0,1,.421.262" transform="translate(-5.84 -113.118)" fill="#e0e0e0"/>
            <path id="Trazado_782224" data-name="Trazado 782224" d="M49.5,313.767a70.89,70.89,0,0,1-2.228-8.786,35.745,35.745,0,0,1,1.254,4.357,35.625,35.625,0,0,1,.974,4.428" transform="translate(-16.431 -106.014)" fill="#e0e0e0"/>
            <path id="Trazado_782225" data-name="Trazado 782225" d="M48.987,315.93a21.262,21.262,0,0,0-1.39-2.609,11.484,11.484,0,0,0-2.047-2.112,1.911,1.911,0,0,1,.79.408,6.347,6.347,0,0,1,1.493,1.538,5.8,5.8,0,0,1,1.154,2.775" transform="translate(-15.833 -108.178)" fill="#e0e0e0"/>
            <path id="Trazado_782226" data-name="Trazado 782226" d="M40.949,390.875c-.031,0-.09-.482-.316-1.332a19,19,0,0,0-1.339-3.468,48.012,48.012,0,0,0-7.1-10.006c-1.586-1.812-3.124-3.521-4.43-5.157a36.181,36.181,0,0,1-3.168-4.569,22.016,22.016,0,0,1-1.6-3.39c-.147-.418-.254-.744-.314-.969a1.621,1.621,0,0,1-.082-.346c.025-.008.172.458.5,1.275a24.787,24.787,0,0,0,1.67,3.328,38.418,38.418,0,0,0,3.2,4.5c1.311,1.619,2.852,3.319,4.44,5.134a45.508,45.508,0,0,1,7.069,10.108,17.323,17.323,0,0,1,1.263,3.53,9.668,9.668,0,0,1,.177,1.005,1.657,1.657,0,0,1,.029.354" transform="translate(-7.855 -125.708)" fill="#e0e0e0"/>
            <path id="Trazado_782227" data-name="Trazado 782227" d="M66.546,379.065a7.3,7.3,0,0,1-.83.465,18.12,18.12,0,0,0-2.15,1.422,24.778,24.778,0,0,0-2.825,2.576c-.99,1.048-2.011,2.263-3.054,3.567-2.082,2.614-4.031,4.928-5.2,6.774-.592.916-1.023,1.688-1.305,2.23a7.211,7.211,0,0,1-.456.835.783.783,0,0,1,.076-.236c.062-.149.145-.372.279-.649a21.1,21.1,0,0,1,1.234-2.289,74.6,74.6,0,0,1,5.146-6.846c1.044-1.305,2.077-2.524,3.088-3.569a22.88,22.88,0,0,1,2.893-2.555,15.083,15.083,0,0,1,2.221-1.358c.275-.138.5-.223.648-.286a.792.792,0,0,1,.234-.079" transform="translate(-17.633 -131.766)" fill="#e0e0e0"/>
            <path id="Trazado_782228" data-name="Trazado 782228" d="M69.624,387.94a12.054,12.054,0,0,1-1.752.254,23.085,23.085,0,0,0-4.156.819,12.492,12.492,0,0,0-3.721,1.953c-.858.663-1.262,1.211-1.3,1.179a1.361,1.361,0,0,1,.26-.4,6.588,6.588,0,0,1,.913-.934,11.247,11.247,0,0,1,3.762-2.069,18.723,18.723,0,0,1,4.224-.747,9.6,9.6,0,0,1,1.773-.051" transform="translate(-20.401 -134.844)" fill="#e0e0e0"/>
            <path id="Trazado_782229" data-name="Trazado 782229" d="M59.473,390.258c-.091-.052.7-1.258,1.311-2.88.575-1.638.71-3.073.813-3.056a2.78,2.78,0,0,1-.029.94,10.076,10.076,0,0,1-.511,2.215,10.747,10.747,0,0,1-1.016,2.032,2.826,2.826,0,0,1-.567.75" transform="translate(-20.671 -133.593)" fill="#e0e0e0"/>
            <path id="Trazado_782230" data-name="Trazado 782230" d="M71.671,355.212a1.316,1.316,0,0,1-.281.149l-.823.374c-.361.155-.8.351-1.292.611s-1.073.518-1.675.879l-.956.543c-.331.191-.66.417-1.009.635-.7.427-1.41.954-2.164,1.492a37.123,37.123,0,0,0-8.336,8.625c-.511.771-1.013,1.495-1.416,2.214-.207.356-.421.692-.6,1.03l-.51.974c-.341.613-.584,1.2-.822,1.7s-.424.947-.566,1.312l-.346.836a1.355,1.355,0,0,1-.139.286,1.264,1.264,0,0,1,.084-.305c.078-.226.176-.51.3-.857.127-.373.294-.825.523-1.336s.457-1.108.787-1.73l.5-.989c.175-.343.387-.683.59-1.045.4-.729.9-1.463,1.4-2.244a35.774,35.774,0,0,1,8.4-8.688c.763-.536,1.479-1.058,2.195-1.48.354-.215.687-.438,1.024-.625l.971-.53c.611-.352,1.2-.6,1.7-.846s.949-.429,1.317-.569l.846-.325a1.319,1.319,0,0,1,.3-.095" transform="translate(-17.636 -123.474)" fill="#e0e0e0"/>
            <path id="Trazado_782231" data-name="Trazado 782231" d="M63.635,366.957a2.011,2.011,0,0,1,.688-1.025,4.344,4.344,0,0,1,2.774-1.065,7.588,7.588,0,0,1,2.919.57,4.176,4.176,0,0,1,1.1.536,6.754,6.754,0,0,1-1.17-.343,8.819,8.819,0,0,0-2.842-.474,4.517,4.517,0,0,0-2.649.93,8.151,8.151,0,0,0-.822.87" transform="translate(-22.119 -126.83)" fill="#e0e0e0"/>
            <path id="Trazado_782232" data-name="Trazado 782232" d="M60.766,368.239A7.4,7.4,0,0,0,61.376,363a1.689,1.689,0,0,1,.326.746,5.292,5.292,0,0,1-.448,3.839c-.244.443-.46.672-.488.652" transform="translate(-21.121 -126.182)" fill="#e0e0e0"/>
            <path id="Trazado_782233" data-name="Trazado 782233" d="M29.52,410.854c.432,7.656,2.739,15.441,6.287,23.313h15.43a67.028,67.028,0,0,0,5.913-23.313Z" transform="translate(-10.261 -142.816)" fill="#e0e0e0"/>
            <path id="Trazado_782234" data-name="Trazado 782234" d="M55.947,429.765c0,.08-5.081.145-11.346.145s-11.347-.065-11.347-.145,5.08-.145,11.347-.145,11.346.065,11.346.145" transform="translate(-11.559 -149.34)" fill="#fafafa"/>
            <path id="Trazado_782235" data-name="Trazado 782235" d="M56.175,434.016c0,.08-4.763.145-10.637.145S34.9,434.1,34.9,434.016s4.762-.145,10.638-.145,10.637.065,10.637.145" transform="translate(-12.132 -150.817)" fill="#fafafa"/>
            <path id="Trazado_782236" data-name="Trazado 782236" d="M39.461,418.558a43.684,43.684,0,0,1,0,7.108,43.684,43.684,0,0,1,0-7.108" transform="translate(-13.667 -145.494)" fill="#fafafa"/>
            <path id="Trazado_782237" data-name="Trazado 782237" d="M52.134,418.558a46.846,46.846,0,0,1,0,7.362,46.844,46.844,0,0,1,0-7.362" transform="translate(-18.072 -145.494)" fill="#fafafa"/>
            <path id="Trazado_782238" data-name="Trazado 782238" d="M64.03,418.463a48.727,48.727,0,0,1,0,7.508,48.726,48.726,0,0,1,0-7.508" transform="translate(-22.207 -145.461)" fill="#fafafa"/>
            <path id="Trazado_782239" data-name="Trazado 782239" d="M56.94,418.481c0,.08-5.959.145-13.307.145s-13.309-.065-13.309-.145,5.957-.145,13.309-.145,13.307.065,13.307.145" transform="translate(-10.541 -145.417)" fill="#fafafa"/>
            <path id="Trazado_782240" data-name="Trazado 782240" d="M429.391,301.019a7.888,7.888,0,0,0,4.7-7.3,7.414,7.414,0,1,0-14.8-.069,7.876,7.876,0,0,0,4.714,7.366c-11.385,1.715-10.869,14.089-10.869,14.089l26.922.124s.614-12.508-10.672-14.213" transform="translate(-140.613 -94.254)" fill="#ebebeb"/>
            <path id="Trazado_782241" data-name="Trazado 782241" d="M245.9,27.955a5.168,5.168,0,0,0,4.079-3.962,4.856,4.856,0,1,0-9.432-2.232,5.16,5.16,0,0,0,1.919,5.4c-7.519-.589-9.019,7.384-9.019,7.384L250.6,38.6s2.242-7.891-4.708-10.648" transform="translate(-81.147 -6.161)" fill="#ebebeb"/>
            <path id="Trazado_782242" data-name="Trazado 782242" d="M434.4,130.275a4.955,4.955,0,0,0,2.266-4.959,4.657,4.657,0,1,0-9.205,1.287,4.947,4.947,0,0,0,3.593,4.156c-6.924,2.09-5.491,9.736-5.491,9.736l16.749-2.342s-.742-7.833-7.912-7.878" transform="translate(-147.888 -42.064)" fill="#f5f5f5"/>
            <path id="Trazado_782243" data-name="Trazado 782243" d="M22.314,130.61l-9.049-7.194,2.51-3.158,6.068,4.824,8.86-9.915,3.008,2.688Z" transform="translate(-4.611 -40.033)" fill="#f5f5f5"/>
          </g>
        </g>
        <g id="Grupo_1033756" data-name="Grupo 1033756">
          <g id="Grupo_1033755" data-name="Grupo 1033755" clip-path="url(#clip-path-2)">
            <path id="Trazado_782244" data-name="Trazado 782244" d="M291.825,446.855c0,.094-65.332.17-145.905.17-80.6,0-145.92-.076-145.92-.17s65.319-.17,145.92-.17c80.573,0,145.905.076,145.905.17" transform="translate(0 -155.271)" fill="#373f51"/>
          </g>
        </g>
        <g id="Grupo_1033764" data-name="Grupo 1033764">
          <g id="Grupo_1033763" data-name="Grupo 1033763" clip-path="url(#clip-path-2)">
            <path id="Trazado_782245" data-name="Trazado 782245" d="M34.084,154.706,14.072,164.744a4.058,4.058,0,0,0-2.467,3.733v9.361a43.444,43.444,0,0,0,7.136,23.968c3.6,5.493,8.385,12.513,16.34,16.526h3.591c8.854-2.7,15.464-9.9,19.505-16.056a43.449,43.449,0,0,0,7.136-23.968v-9.831a4.059,4.059,0,0,0-2.467-3.733l-22.8-9.713c-1.016-.433-4.949-.758-5.965-.325" transform="translate(-4.034 -53.706)" fill="#b5871e"/>
            <path id="Trazado_782247" data-name="Trazado 782247" d="M31.364,155.14l-22.8,9.713A4.057,4.057,0,0,0,6.1,168.586v9.361a43.83,43.83,0,0,0,27.066,40.494c8.855-2.7,15.464-9.9,19.505-16.057a43.443,43.443,0,0,0,7.136-23.967v-9.831a4.057,4.057,0,0,0-2.467-3.733l-22.8-9.713a4.056,4.056,0,0,0-3.181,0" transform="translate(-2.121 -53.815)" fill="#ffb206"/>
            <g id="Grupo_1033762" data-name="Grupo 1033762" transform="translate(15.89 114.911)" opacity="0.3">
              <g id="Grupo_1033761" data-name="Grupo 1033761">
                <g id="Grupo_1033760" data-name="Grupo 1033760" clip-path="url(#clip-path-6)">
                  <path id="Trazado_782248" data-name="Trazado 782248" d="M54.245,191.082A14.943,14.943,0,1,1,39.3,176.138a14.944,14.944,0,0,1,14.944,14.944" transform="translate(-24.357 -176.138)"/>
                </g>
              </g>
            </g>
            <path id="Trazado_782249" data-name="Trazado 782249" d="M50.161,187.493a6.2,6.2,0,1,1-6.2-6.2,6.2,6.2,0,0,1,6.2,6.2" transform="translate(-13.123 -63.018)" fill="#fff"/>
            <path id="Trazado_782250" data-name="Trazado 782250" d="M29.9,210.3A12.128,12.128,0,0,1,41,203.412,13.19,13.19,0,0,1,52.557,210.3s-3.664,5.413-11.77,5.2A14.2,14.2,0,0,1,29.9,210.3" transform="translate(-10.392 -70.708)" fill="#fff"/>
            <path id="Trazado_782251" data-name="Trazado 782251" d="M54.154,191.013a1.341,1.341,0,0,1-.03-.242c-.012-.176-.031-.41-.053-.709-.01-.157-.022-.331-.034-.521s-.063-.4-.1-.623a10.97,10.97,0,0,0-.317-1.538,14.287,14.287,0,0,0-1.663-3.95,14.807,14.807,0,0,0-17.785-6.305,13.58,13.58,0,0,0-3.74,2.015,13.514,13.514,0,0,0-3.124,3.139A14.3,14.3,0,0,0,25.2,186.35a14.648,14.648,0,0,0,0,9.324,14.318,14.318,0,0,0,2.111,4.072,13.507,13.507,0,0,0,3.124,3.141,13.57,13.57,0,0,0,3.74,2.015,14.844,14.844,0,0,0,17.786-6.307,14.261,14.261,0,0,0,1.662-3.95,10.97,10.97,0,0,0,.317-1.538c.035-.225.076-.432.1-.623s.023-.364.034-.521c.022-.3.04-.532.053-.708a1.341,1.341,0,0,1,.03-.242,1.363,1.363,0,0,1,0,.242c0,.177-.01.413-.019.712-.006.159-.011.333-.018.525s-.053.4-.082.629a10.582,10.582,0,0,1-.289,1.556,14.112,14.112,0,0,1-1.627,4.014A15.047,15.047,0,0,1,42,205.83a15.116,15.116,0,0,1-7.929-.635,13.872,13.872,0,0,1-3.826-2.049,16.891,16.891,0,0,1-1.716-1.454,16.961,16.961,0,0,1-1.484-1.75,14.628,14.628,0,0,1-2.164-4.162,14.952,14.952,0,0,1,0-9.538,14.608,14.608,0,0,1,2.164-4.162,13.835,13.835,0,0,1,3.2-3.2,13.877,13.877,0,0,1,3.826-2.048,15.111,15.111,0,0,1,7.927-.635,15.039,15.039,0,0,1,10.128,7.137,14.14,14.14,0,0,1,1.628,4.015,10.637,10.637,0,0,1,.289,1.556c.029.227.066.436.082.628s.012.367.018.526c.008.3.015.535.019.712a1.363,1.363,0,0,1,0,.242" transform="translate(-8.376 -61.159)" fill="#373f51"/>
            <path id="Trazado_782252" data-name="Trazado 782252" d="M79.4,187.106a2.19,2.19,0,0,1,.041.431c.014.319.031.73.053,1.24.021.539.052,1.2.014,1.964q-.018.577-.036,1.227c0,.434-.032.893-.084,1.373-.093.96-.157,2.017-.355,3.136-.091.56-.162,1.144-.278,1.737s-.258,1.2-.392,1.824a44.906,44.906,0,0,1-2.628,7.869,46.325,46.325,0,0,1-4.088,7.223c-.759,1.027-1.459,2.019-2.211,2.872-.369.431-.7.866-1.065,1.25l-1.041,1.1c-.646.718-1.309,1.288-1.863,1.818s-1.058.955-1.479,1.292l-.966.78a2.083,2.083,0,0,1-.351.253,2.139,2.139,0,0,1,.308-.307l.922-.827c.407-.351.9-.785,1.435-1.33s1.187-1.12,1.82-1.844q.486-.532,1.018-1.11c.353-.386.681-.823,1.043-1.255.738-.855,1.425-1.847,2.172-2.871a47.732,47.732,0,0,0,4.034-7.182,46.275,46.275,0,0,0,2.634-7.8q.207-.928.4-1.809c.121-.588.2-1.167.293-1.723.209-1.11.287-2.159.394-3.113.06-.476.095-.932.108-1.365s.042-.837.062-1.22c.055-.762.044-1.42.043-1.957,0-.51.008-.921.01-1.239a2.03,2.03,0,0,1,.027-.433" transform="translate(-21.786 -65.04)" fill="#373f51"/>
          </g>
        </g>
        <g id="Grupo_1033766" data-name="Grupo 1033766">
          <g id="Grupo_1033765" data-name="Grupo 1033765" clip-path="url(#clip-path-2)">
            <path id="Trazado_782253" data-name="Trazado 782253" d="M245.242,312.975H90.982a7.692,7.692,0,0,1-7.559-7.819V69.359a7.693,7.693,0,0,1,7.559-7.82H245.242a7.693,7.693,0,0,1,7.56,7.82v235.8a7.693,7.693,0,0,1-7.56,7.82" transform="translate(-28.998 -21.391)" fill="#373f51"/>
            <path id="Trazado_782254" data-name="Trazado 782254" d="M210.11,425.654a7.185,7.185,0,1,1-7.183-7.054,7.119,7.119,0,0,1,7.183,7.054" transform="translate(-68.042 -145.509)" fill="#d2e1f1"/>
            <path id="Trazado_782255" data-name="Trazado 782255" d="M220.121,79.247H185.529a2.5,2.5,0,0,1,0-4.991h34.592a2.5,2.5,0,0,1,0,4.991" transform="translate(-63.653 -25.812)" fill="#9aa8ad"/>
            <rect id="Rectángulo_366522" data-name="Rectángulo 366522" width="158.698" height="209.979" transform="translate(59.618 58.086)" fill="#fff"/>
            <rect id="Rectángulo_366523" data-name="Rectángulo 366523" width="6.77" height="209.979" transform="translate(211.546 58.086)" fill="#f5f5f5"/>
            <path id="Trazado_782256" data-name="Trazado 782256" d="M328.327,177.672h0a2.11,2.11,0,0,1-2.11-2.111V129.113a2.11,2.11,0,1,1,4.221,0v46.448a2.111,2.111,0,0,1-2.111,2.111" transform="translate(-113.396 -44.147)" fill="#e0e0e0"/>
            <path id="Trazado_782257" data-name="Trazado 782257" d="M238.776,158.7H121.762a3.366,3.366,0,0,1,0-6.731H238.776a3.366,3.366,0,0,1,0,6.731" transform="translate(-41.156 -52.824)" fill="#e0e0e0"/>
            <path id="Trazado_782258" data-name="Trazado 782258" d="M234.318,121.049H160.709a3.366,3.366,0,0,1,0-6.731h73.609a3.366,3.366,0,0,1,0,6.731" transform="translate(-54.694 -39.738)" fill="#f4a338"/>
            <path id="Trazado_782259" data-name="Trazado 782259" d="M231.015,179.462H147.231a3.366,3.366,0,0,1,0-6.731h83.784a3.366,3.366,0,1,1,0,6.731" transform="translate(-50.009 -60.043)" fill="#e0e0e0"/>
            <path id="Trazado_782260" data-name="Trazado 782260" d="M183.328,269.993H118.866a3.366,3.366,0,0,1,0-6.731h64.462a3.366,3.366,0,1,1,0,6.731" transform="translate(-40.149 -91.512)" fill="#e0e0e0"/>
            <path id="Trazado_782261" data-name="Trazado 782261" d="M235.88,248.387H118.866a3.366,3.366,0,0,1,0-6.731H235.88a3.366,3.366,0,0,1,0,6.731" transform="translate(-40.149 -84.002)" fill="#e0e0e0"/>
            <path id="Trazado_782262" data-name="Trazado 782262" d="M243.655,317.983H141.233a3.366,3.366,0,1,1,0-6.731H243.655a3.366,3.366,0,0,1,0,6.731" transform="translate(-47.924 -108.194)" fill="#e0e0e0"/>
            <path id="Trazado_782263" data-name="Trazado 782263" d="M235.88,340.034H118.866a3.366,3.366,0,0,1,0-6.731H235.88a3.366,3.366,0,1,1,0,6.731" transform="translate(-40.149 -115.859)" fill="#e0e0e0"/>
            <path id="Trazado_782264" data-name="Trazado 782264" d="M235.88,362.429H118.866a3.366,3.366,0,0,1,0-6.731H235.88a3.366,3.366,0,1,1,0,6.731" transform="translate(-40.149 -123.644)" fill="#e0e0e0"/>
            <path id="Trazado_782265" data-name="Trazado 782265" d="M125.006,314.548a3.5,3.5,0,1,1-3.5-3.5,3.5,3.5,0,0,1,3.5,3.5" transform="translate(-41.023 -108.124)" fill="#f4a338"/>
            <path id="Trazado_782266" data-name="Trazado 782266" d="M243.655,228.236H141.233a3.366,3.366,0,1,1,0-6.731H243.655a3.366,3.366,0,0,1,0,6.731" transform="translate(-47.924 -76.997)" fill="#e0e0e0"/>
            <path id="Trazado_782267" data-name="Trazado 782267" d="M125.006,224.8a3.5,3.5,0,1,1-3.5-3.5,3.5,3.5,0,0,1,3.5,3.5" transform="translate(-41.023 -76.928)" fill="#f4a338"/>
            <path id="Trazado_782268" data-name="Trazado 782268" d="M278.161,393.114H251.9a5.364,5.364,0,0,1,0-10.728h26.257a5.364,5.364,0,0,1,0,10.728" transform="translate(-85.7 -132.921)" fill="#f4a338"/>
          </g>
        </g>
        <g id="Grupo_1033771" data-name="Grupo 1033771">
          <g id="Grupo_1033770" data-name="Grupo 1033770" clip-path="url(#clip-path-2)">
            <path id="Trazado_782269" data-name="Trazado 782269" d="M71.367,10.8,44.148,24.458a5.519,5.519,0,0,0-3.356,5.077V42.268a59.1,59.1,0,0,0,9.706,32.6C55.4,82.338,61.9,91.886,72.722,97.345h4.884c12.044-3.673,21.034-13.465,26.53-21.839a59.1,59.1,0,0,0,9.707-32.6V29.535a5.52,5.52,0,0,0-3.357-5.077L79.48,11.246c-1.382-.589-6.731-1.031-8.113-.442" transform="translate(-14.18 -3.659)" fill="#500c75"/>
            <path id="Trazado_782271" data-name="Trazado 782271" d="M67.667,11.395,36.661,24.606a5.519,5.519,0,0,0-3.356,5.077V42.416A59.615,59.615,0,0,0,70.12,97.493C82.164,93.82,91.154,84.029,96.65,75.654a59.094,59.094,0,0,0,9.706-32.6V29.683A5.518,5.518,0,0,0,103,24.606L71.994,11.395a5.517,5.517,0,0,0-4.327,0" transform="translate(-11.577 -3.807)" fill="#8f52f5"/>
            <path id="Trazado_782272" data-name="Trazado 782272" d="M133,54.873a.509.509,0,0,1,.02.149c.007.119.014.262.024.438q.023.622.061,1.686c.025.733.063,1.629.009,2.67q-.025.783-.053,1.668-.015.443-.031.911l-.088.955c-.129,1.3-.218,2.741-.489,4.261-.125.761-.222,1.554-.382,2.36s-.352,1.631-.534,2.478a61.365,61.365,0,0,1-3.576,10.691,63.284,63.284,0,0,1-5.551,9.817c-1.031,1.4-1.981,2.745-3,3.906-.5.587-.956,1.178-1.445,1.7l-1.41,1.5c-.876.977-1.776,1.755-2.526,2.477-.382.353-.727.695-1.065.985l-.939.78-1.305,1.069-.344.271a.521.521,0,0,1-.125.084s.031-.042.1-.111l.324-.3,1.262-1.116.917-.8c.331-.3.668-.645,1.043-1,.735-.733,1.621-1.52,2.482-2.5l1.389-1.508c.481-.525.93-1.118,1.423-1.706,1.006-1.163,1.943-2.512,2.961-3.905a64.715,64.715,0,0,0,5.5-9.776,62.741,62.741,0,0,0,3.582-10.625q.28-1.264.546-2.463c.163-.8.266-1.59.4-2.347.282-1.511.386-2.94.528-4.238q.051-.487.1-.951.022-.466.042-.907.042-.881.08-1.661c.072-1.037.053-1.932.049-2.663q0-1.063,0-1.685c0-.175.007-.32.009-.439a.519.519,0,0,1,.015-.15" transform="translate(-38.326 -19.074)" fill="#373f51"/>
            <path id="Trazado_782273" data-name="Trazado 782273" d="M96.408,65.658H93.1v-18a7.683,7.683,0,1,0-15.365,0v18H74.43v-18a10.989,10.989,0,1,1,21.978,0Z" transform="translate(-25.873 -12.747)" fill="#f5f5f5"/>
            <path id="Trazado_782274" data-name="Trazado 782274" d="M94.4,85.59H72.365A3.791,3.791,0,0,1,68.574,81.8V66.167a3.791,3.791,0,0,1,3.791-3.79H94.4a3.791,3.791,0,0,1,3.791,3.79V81.8A3.791,3.791,0,0,1,94.4,85.59" transform="translate(-23.837 -21.683)" fill="#fff"/>
            <path id="Trazado_782275" data-name="Trazado 782275" d="M94.312,85.5a6.66,6.66,0,0,0,.986-.17,3.759,3.759,0,0,0,2.724-3.652c0-.764-.009-1.593-.014-2.483-.007-1.785-.016-3.813-.025-6.054s-.022-4.695-.035-7.326A3.644,3.644,0,0,0,95.8,62.754a4.365,4.365,0,0,0-2.03-.315l-2.2,0-19.294.013a3.655,3.655,0,0,0-2.257.79,3.616,3.616,0,0,0-1.266,1.992,4.711,4.711,0,0,0-.1,1.2q0,.62,0,1.236,0,1.231,0,2.442c0,3.227-.007,6.34-.01,9.306.062,1.472-.246,2.993.514,4.158a3.672,3.672,0,0,0,3.3,1.78l7.337.021,10.624.054,2.888.032.752.016a1.431,1.431,0,0,1,.256.018,1.43,1.43,0,0,1-.256.018l-.752.016-2.888.032-10.624.054-7.337.021a3.953,3.953,0,0,1-4.124-4.023q0-1.084,0-2.2c0-2.966-.006-6.08-.01-9.306q0-1.211,0-2.442,0-.616,0-1.236a5.054,5.054,0,0,1,.11-1.275,3.951,3.951,0,0,1,1.383-2.18,3.992,3.992,0,0,1,2.469-.865l19.294.014,2.2,0a4.663,4.663,0,0,1,2.152.349,3.931,3.931,0,0,1,2.31,3.313c.022,2.657-.005,5.1-.007,7.347s-.018,4.269-.025,6.054c0,.89-.009,1.719-.014,2.483a3.868,3.868,0,0,1-.573,2.021,3.758,3.758,0,0,1-2.3,1.7,2.992,2.992,0,0,1-1,.1" transform="translate(-23.746 -21.592)" fill="#373f51"/>
            <path id="Trazado_782276" data-name="Trazado 782276" d="M91.787,78.148a3.215,3.215,0,0,0,.937-2.274,3.257,3.257,0,1,0-4.146,3.12l-.7,3.095h3.1l-.624-3.095a3.3,3.3,0,0,0,1.431-.846" transform="translate(-29.967 -25.242)" fill="#8f52f5"/>
          </g>
        </g>
        <g id="Grupo_1033782" data-name="Grupo 1033782">
          <g id="Grupo_1033781" data-name="Grupo 1033781" clip-path="url(#clip-path-2)">
            <path id="Trazado_782277" data-name="Trazado 782277" d="M392.63,109.879v26.438c.057,4.572.729,11.746-6.5,11.507-6.26-.682-7.921-6.607-7.97-10.875-.023-2.024-.046-3.711-.062-3.92,0,0-6.853-.559-7.431-7.327-.279-3.271-.307-10.055-.26-16.192a12.654,12.654,0,0,1,11.736-12.516l.653-.048c7.078-.1,9.932,5.854,9.839,12.932" transform="translate(-128.749 -33.699)" fill="#ffc09d"/>
            <path id="Trazado_782278" data-name="Trazado 782278" d="M382.2,150.524a16.407,16.407,0,0,0,8.63-3.252s-1.791,5.106-8.6,4.989Z" transform="translate(-132.857 -51.193)" fill="#ff9b6c"/>
            <path id="Trazado_782279" data-name="Trazado 782279" d="M388.14,119.819c.134.137.916-.492,2.05-.523,1.133-.048,1.981.526,2.1.38.059-.065-.082-.315-.451-.575a2.841,2.841,0,0,0-1.686-.478,2.745,2.745,0,0,0-1.627.592c-.341.284-.452.543-.386.6" transform="translate(-134.915 -41.234)" fill="#373f51"/>
            <path id="Trazado_782280" data-name="Trazado 782280" d="M388.123,124.9a.917.917,0,0,0,.95.859.877.877,0,0,0,.883-.894.917.917,0,0,0-.949-.859.878.878,0,0,0-.884.894" transform="translate(-134.915 -43.105)" fill="#373f51"/>
            <path id="Trazado_782281" data-name="Trazado 782281" d="M382.351,127.908a6.919,6.919,0,0,0-1.713-.181c-.267-.008-.523-.042-.581-.221a1.36,1.36,0,0,1,.12-.8q.3-.992.639-2.082a34.938,34.938,0,0,0,1.379-5.424,34.991,34.991,0,0,0-1.812,5.3q-.316,1.1-.6,2.092a1.547,1.547,0,0,0-.062,1.054.668.668,0,0,0,.466.356,1.787,1.787,0,0,0,.456.03,6.792,6.792,0,0,0,1.714-.123" transform="translate(-131.967 -41.434)" fill="#373f51"/>
            <path id="Trazado_782282" data-name="Trazado 782282" d="M388.885,112.608c.11.252,1.017.062,2.1.118,1.088.033,1.981.3,2.107.053.055-.115-.113-.347-.483-.572a3.561,3.561,0,0,0-3.208-.13c-.384.193-.568.411-.52.53" transform="translate(-135.178 -38.848)" fill="#373f51"/>
            <path id="Trazado_782283" data-name="Trazado 782283" d="M372.376,115.2c.119.2,1-.023,2.076-.055,1.073-.053,1.962.1,2.076-.11.05-.1-.127-.286-.5-.449a3.745,3.745,0,0,0-1.586-.262,3.869,3.869,0,0,0-1.577.389c-.369.192-.54.39-.488.488" transform="translate(-129.438 -39.737)" fill="#373f51"/>
            <path id="Trazado_782284" data-name="Trazado 782284" d="M356.618,101.265a1.1,1.1,0,0,1,.515-.64,3.372,3.372,0,0,1,1.73-.281,9.777,9.777,0,0,0,5.091-1.547,22.72,22.72,0,0,1,2.369-2.871c2.052-2.116,3.74-3.556,5.486-4.258a15.72,15.72,0,0,1,8.391-.66,6.352,6.352,0,0,1,4.8,4.941,4.887,4.887,0,0,1,4.913-.461l.04-.018c1.791.639,2.809,2.531,3.338,4.358s.754,3.781,1.721,5.418c.2.343.442.753.266,1.109a.757.757,0,0,1-.791.344,2.222,2.222,0,0,1-.834-.378q.3.717.6,1.435a4.24,4.24,0,0,1-1.949-.13,41.571,41.571,0,0,1-1.274,4.817,2.76,2.76,0,0,0-1.9.466c-.628.564-.908,1.626-1.951,1.223-.531-.2-1.015-1.318-1.193-1.859a26.418,26.418,0,0,1-1.144-11.182A8.5,8.5,0,0,0,382.22,99.2l.08.072c-1.891-.657-4.031-1.3-5.826-.416-1.392.689-2.21,2.134-3.251,3.287a10.626,10.626,0,0,1-7.574,3.5c-.1,1.906.06,4.6-.04,6.506l-1.6-3.053v.016c-.132-.224-.24-.449-.345-.675l-.036-.069v-.008a11.845,11.845,0,0,0-.536-1.084l-.018.016a1.191,1.191,0,0,1-1.74-1.592,2.678,2.678,0,0,1,.576-.579,1.882,1.882,0,0,1-1.795.465,1.477,1.477,0,0,1-1.045-1.461,1.257,1.257,0,0,1,.749-1.009,4.242,4.242,0,0,1-2.414-.532c-.477-.272-.945-.72-.783-1.319" transform="translate(-123.952 -31.529)" fill="#373f51"/>
            <path id="Trazado_782285" data-name="Trazado 782285" d="M396.868,99.936a5.836,5.836,0,0,1,.679.621,4.852,4.852,0,0,1,1.039,2.248,8.528,8.528,0,0,1,.173,1.72c0,.624-.047,1.292-.1,2a17.956,17.956,0,0,0-.051,2.22,7.775,7.775,0,0,0,.153,1.172,2.442,2.442,0,0,0,.478,1.136,1.023,1.023,0,0,0,.956.321,1.518,1.518,0,0,0,.859-.486,3.5,3.5,0,0,0,.652-1.722l-.142.018a5.687,5.687,0,0,0,.823,1.418,2.023,2.023,0,0,0,1.317.718,1.3,1.3,0,0,0,.7-.123,1.123,1.123,0,0,0,.474-.467,1.159,1.159,0,0,0,.144-.6.841.841,0,0,0-.218-.526l-.071.064a4.363,4.363,0,0,0,1.454,1.091,3.827,3.827,0,0,0,.451.175.7.7,0,0,0,.161.04.837.837,0,0,0-.153-.065c-.1-.042-.251-.1-.437-.2a4.5,4.5,0,0,1-1.4-1.107l-.072.064a.868.868,0,0,1,.045,1.006,1.01,1.01,0,0,1-.429.414,1.178,1.178,0,0,1-.633.1,1.888,1.888,0,0,1-1.223-.682,5.6,5.6,0,0,1-.793-1.388l-.1-.217-.045.234a3.4,3.4,0,0,1-.621,1.645,1.372,1.372,0,0,1-.769.434.863.863,0,0,1-.812-.273,2.308,2.308,0,0,1-.442-1.063,7.809,7.809,0,0,1-.151-1.148,18.134,18.134,0,0,1,.042-2.2c.044-.7.089-1.375.08-2.006a8.5,8.5,0,0,0-.194-1.743,4.789,4.789,0,0,0-1.1-2.265,2.747,2.747,0,0,0-.725-.58" transform="translate(-137.955 -34.739)" fill="#4adbd1"/>
            <path id="Trazado_782286" data-name="Trazado 782286" d="M364.762,104.5s.017.018.054.046l.169.123a2.289,2.289,0,0,0,.287.184,3.486,3.486,0,0,0,.412.217,6,6,0,0,0,2.9.521,7.668,7.668,0,0,0,4.086-1.509,13.285,13.285,0,0,0,3.51-4.046c.493-.819.894-1.66,1.337-2.437a8.957,8.957,0,0,1,1.513-2.061,4.619,4.619,0,0,1,1.951-1.184,3.309,3.309,0,0,1,1.029-.119,3.628,3.628,0,0,1,.942.181,3.913,3.913,0,0,1,2.176,1.841,4.729,4.729,0,0,1,.35,1.015.247.247,0,0,0-.006-.071c-.008-.056-.019-.124-.032-.207a3.356,3.356,0,0,0-.257-.765,3.854,3.854,0,0,0-.758-1.028,3.966,3.966,0,0,0-1.436-.892,3.742,3.742,0,0,0-.972-.2,3.432,3.432,0,0,0-1.071.114,4.739,4.739,0,0,0-2.017,1.206,9.037,9.037,0,0,0-1.546,2.09c-.448.782-.849,1.62-1.337,2.432a13.291,13.291,0,0,1-3.46,4.009,7.628,7.628,0,0,1-4.008,1.516,6.1,6.1,0,0,1-2.866-.466,9.6,9.6,0,0,1-.947-.514" transform="translate(-126.795 -32.713)" fill="#4adbd1"/>
            <path id="Trazado_782287" data-name="Trazado 782287" d="M363.818,105.473a1.032,1.032,0,0,0,.243.169,5.277,5.277,0,0,0,.719.365,7.018,7.018,0,0,0,1.138.374,7.361,7.361,0,0,0,2.921.093,6.965,6.965,0,0,0,1.16-.3,5.237,5.237,0,0,0,.741-.318,1.071,1.071,0,0,0,.253-.153c-.013-.027-.388.166-1.029.365a8.037,8.037,0,0,1-1.148.263,7.921,7.921,0,0,1-2.867-.092,8,8,0,0,1-1.129-.335c-.628-.241-.988-.457-1-.431" transform="translate(-126.466 -36.663)" fill="#4adbd1"/>
            <path id="Trazado_782288" data-name="Trazado 782288" d="M372.293,119.819c.134.137.916-.492,2.051-.523,1.132-.048,1.981.526,2.1.38.059-.065-.081-.315-.451-.575a2.841,2.841,0,0,0-1.686-.478,2.741,2.741,0,0,0-1.627.592c-.341.284-.452.542-.386.6" transform="translate(-129.406 -41.234)" fill="#373f51"/>
            <path id="Trazado_782289" data-name="Trazado 782289" d="M374.075,124.9a.917.917,0,0,0,.95.859.877.877,0,0,0,.883-.894.918.918,0,0,0-.949-.859.878.878,0,0,0-.884.894" transform="translate(-130.032 -43.105)" fill="#373f51"/>
            <path id="Trazado_782290" data-name="Trazado 782290" d="M404.211,124.345c.112-.059,4.549-1.714,4.739,2.922s-4.5,3.871-4.518,3.739-.221-6.661-.221-6.661" transform="translate(-140.508 -43.107)" fill="#ffc09d"/>
            <path id="Trazado_782291" data-name="Trazado 782291" d="M406.609,129.976c.02-.016.083.053.222.11a.808.808,0,0,0,.6-.012,2,2,0,0,0,.851-1.831,2.674,2.674,0,0,0-.273-1.147.934.934,0,0,0-.633-.595.41.41,0,0,0-.467.241c-.057.132-.024.224-.048.232s-.1-.073-.073-.266a.516.516,0,0,1,.17-.3.612.612,0,0,1,.442-.136,1.135,1.135,0,0,1,.873.684,2.75,2.75,0,0,1,.333,1.281,2.1,2.1,0,0,1-1.1,2.051.865.865,0,0,1-.744-.093c-.148-.109-.177-.211-.161-.221" transform="translate(-141.34 -43.893)" fill="#ff9b6c"/>
            <path id="Trazado_782292" data-name="Trazado 782292" d="M387.044,134.023c.039.007.039.273-.121.665a2.8,2.8,0,0,1-1.067,1.237,2.586,2.586,0,0,1-1.58.425c-.427-.038-.657-.179-.643-.215.016-.052.262,0,.645-.025a2.968,2.968,0,0,0,1.4-.471,3.333,3.333,0,0,0,1.036-1.06c.2-.331.282-.568.335-.555" transform="translate(-133.354 -46.587)" fill="#373f51"/>
            <path id="Trazado_782293" data-name="Trazado 782293" d="M418.232,415.187l1.386,15.681,4.9,12.106a1.592,1.592,0,0,1-1.1,2.115,1.792,1.792,0,0,1-1.545-.264c-2.8-2.037-12.888-9.523-13-10.5-.145-1.262-2.717-16.681-2.717-16.681Z" transform="translate(-141.182 -144.322)" fill="#809299"/>
            <path id="Trazado_782294" data-name="Trazado 782294" d="M424.714,454.337l-14.822-12.548.145,1.162c.1.635.111.98.556,1.377a141.766,141.766,0,0,0,12.42,10.011,2.014,2.014,0,0,0,1.7,0" transform="translate(-142.482 -153.57)" fill="#373f51"/>
            <path id="Trazado_782295" data-name="Trazado 782295" d="M413.6,434.236a.947.947,0,0,1,.425,1.239,1.029,1.029,0,0,1-1.3.407,1,1,0,0,1-.444-1.314,1.077,1.077,0,0,1,1.4-.283" transform="translate(-143.273 -150.906)" fill="#fff"/>
            <path id="Trazado_782296" data-name="Trazado 782296" d="M425.584,450.031c.1.034.382-.823,1.322-1.363a5.488,5.488,0,0,1,1.877-.536c.01-.04-.214-.14-.609-.153a2.8,2.8,0,0,0-1.464.4,2.572,2.572,0,0,0-1.011,1.072c-.158.341-.157.575-.115.583" transform="translate(-147.929 -155.721)" fill="#373f51"/>
            <path id="Trazado_782297" data-name="Trazado 782297" d="M427.77,453.442a14.153,14.153,0,0,1,1.4-.82,14.62,14.62,0,0,1,1.6-.359,2.005,2.005,0,0,0-1.745.04c-.949.367-1.348,1.105-1.257,1.138" transform="translate(-148.693 -157.154)" fill="#373f51"/>
            <path id="Trazado_782298" data-name="Trazado 782298" d="M421.746,446.147a17.1,17.1,0,0,1,2.067-1.4,17.937,17.937,0,0,1,2.408-.787,4.01,4.01,0,0,0-2.577.481,3.673,3.673,0,0,0-1.9,1.709" transform="translate(-146.6 -154.302)" fill="#373f51"/>
            <path id="Trazado_782299" data-name="Trazado 782299" d="M420.452,439.6c.055.089.934-.363,2.126-.524s2.17.016,2.2-.085a3.5,3.5,0,0,0-2.25-.257,3.4,3.4,0,0,0-2.071.866" transform="translate(-146.152 -152.49)" fill="#373f51"/>
            <path id="Trazado_782300" data-name="Trazado 782300" d="M419.639,432.541a5.763,5.763,0,0,1,4.464-.3c.023-.036-.181-.214-.588-.384a3.9,3.9,0,0,0-1.7-.262,3.856,3.856,0,0,0-1.647.487c-.378.223-.553.427-.524.459" transform="translate(-145.87 -150.023)" fill="#373f51"/>
            <path id="Trazado_782301" data-name="Trazado 782301" d="M421.429,429.241a1.271,1.271,0,0,0-.044-.594,4,4,0,0,0-.675-1.5,1.909,1.909,0,0,0-.93-.787.715.715,0,0,0-.756.221,1.006,1.006,0,0,0-.183.733,2.383,2.383,0,0,0,2.349,1.886,2.814,2.814,0,0,0,2.591-1.649.866.866,0,0,0-.04-.763.7.7,0,0,0-.741-.264,2.407,2.407,0,0,0-1.036.645,4.6,4.6,0,0,0-1,1.329,1.348,1.348,0,0,0-.2.566,7.37,7.37,0,0,1,1.373-1.718,2.261,2.261,0,0,1,.917-.542.371.371,0,0,1,.405.142.592.592,0,0,1-.005.5,2.515,2.515,0,0,1-2.264,1.405,2.072,2.072,0,0,1-2.019-1.574.725.725,0,0,1,.105-.516.387.387,0,0,1,.416-.128,1.735,1.735,0,0,1,.8.654,5.907,5.907,0,0,1,.932,1.953" transform="translate(-145.591 -148.195)" fill="#373f51"/>
            <path id="Trazado_782302" data-name="Trazado 782302" d="M356.829,416.355l.618,13.279s-14.152,5.05-14.292,7.514l27.434-.2-.059-20.728Z" transform="translate(-119.284 -144.682)" fill="#809299"/>
            <path id="Trazado_782303" data-name="Trazado 782303" d="M377.34,434.952a1.051,1.051,0,0,1,.785,1.2,1.081,1.081,0,0,1-1.255.741,1.108,1.108,0,0,1-.824-1.271,1.139,1.139,0,0,1,1.4-.635" transform="translate(-130.704 -151.178)" fill="#e0e0e0"/>
            <path id="Trazado_782304" data-name="Trazado 782304" d="M370.582,446.88l-.093-2.089-26.268.973s-1.217.509-1.073,1.317Z" transform="translate(-119.278 -154.613)" fill="#373f51"/>
            <path id="Trazado_782305" data-name="Trazado 782305" d="M364.378,436.522c.005.126.676.178,1.338.578.674.384,1.018.927,1.141.876.123-.025-.083-.777-.894-1.248s-1.615-.322-1.585-.206" transform="translate(-126.661 -151.697)" fill="#373f51"/>
            <path id="Trazado_782306" data-name="Trazado 782306" d="M359.981,438.305c-.029.122.553.332,1.012.861.476.517.6,1.091.729,1.086.126.019.213-.72-.372-1.367s-1.367-.7-1.369-.579" transform="translate(-125.133 -152.341)" fill="#373f51"/>
            <path id="Trazado_782307" data-name="Trazado 782307" d="M356.937,442.16c.122.026.3-.6-.046-1.292s-.979-.957-1.035-.851c-.074.1.335.471.613,1.039s.335,1.092.468,1.1" transform="translate(-123.696 -152.946)" fill="#373f51"/>
            <path id="Trazado_782308" data-name="Trazado 782308" d="M364.707,431.679c.057.114.67-.064,1.427-.021.759.028,1.35.263,1.419.154.077-.091-.5-.553-1.4-.592s-1.517.36-1.451.459" transform="translate(-126.774 -149.895)" fill="#373f51"/>
            <path id="Trazado_782309" data-name="Trazado 782309" d="M356.8,268.468c.016.769,3.187,106.894,3.187,106.894h16.957l3.435-90.783s4.011,47.467,4.011,48.492,3.539,42.8,3.539,42.8l15.721-1.206-1.031-95.581-1.921-14.014Z" transform="translate(-124.025 -92.142)" fill="#373f51"/>
            <path id="Trazado_782310" data-name="Trazado 782310" d="M393.869,283.745a3.246,3.246,0,0,1-.688.272c-.45.155-1.105.369-1.915.626l-.155.049-.011-.15c-.094-1.277-.2-2.984-.3-4.855-.108-2.028-.187-3.865-.227-5.2-.02-.665-.031-1.2-.031-1.576a1.919,1.919,0,0,1,.035-.58,1.946,1.946,0,0,1,.1.574c.04.371.087.908.137,1.572.1,1.328.217,3.163.326,5.192.1,1.872.174,3.58.216,4.859l-.165-.1c.819-.231,1.486-.412,1.95-.532a3.352,3.352,0,0,1,.733-.153" transform="translate(-135.756 -94.666)" fill="#4adbd1"/>
            <path id="Trazado_782311" data-name="Trazado 782311" d="M393.264,272.754c-.011-.014.055-.085.225-.139a1.1,1.1,0,0,1,.749.061.878.878,0,0,1,.568.872,1.1,1.1,0,0,1-.9.939,1.268,1.268,0,0,1-1.25-.532.9.9,0,0,1,.014-1.008,1.114,1.114,0,0,1,.56-.441c.166-.055.267-.046.27-.029.025.044-.382.121-.62.568a.715.715,0,0,0,.04.767.978.978,0,0,0,.92.381.831.831,0,0,0,.66-.672.654.654,0,0,0-.374-.66,1.412,1.412,0,0,0-.86-.108" transform="translate(-136.438 -94.711)" fill="#4adbd1"/>
            <path id="Trazado_782312" data-name="Trazado 782312" d="M405.426,273.465c-.092.008-.221-.451-.287-1.028s-.045-1.05.047-1.058.221.452.287,1.028.045,1.05-.047,1.058" transform="translate(-140.817 -94.334)" fill="#4adbd1"/>
            <path id="Trazado_782313" data-name="Trazado 782313" d="M407.309,273.246c-.093,0-.17-.49-.174-1.095s.069-1.1.162-1.1.17.49.174,1.095-.069,1.1-.162,1.1" transform="translate(-141.524 -94.221)" fill="#4adbd1"/>
            <path id="Trazado_782314" data-name="Trazado 782314" d="M375.868,274.2c-.092.009-.236-.543-.32-1.232s-.079-1.256.014-1.264.235.542.32,1.232.078,1.255-.014,1.264" transform="translate(-130.523 -94.448)" fill="#4adbd1"/>
            <path id="Trazado_782315" data-name="Trazado 782315" d="M378.032,274.3a1.856,1.856,0,0,1-.414-1.291,1.826,1.826,0,0,1,.295-1.316c.095.02,0,.6.04,1.3s.171,1.277.079,1.3" transform="translate(-131.262 -94.443)" fill="#4adbd1"/>
            <path id="Trazado_782316" data-name="Trazado 782316" d="M366.043,273.518a1.427,1.427,0,0,1-.057.468,8.737,8.737,0,0,1-.341,1.244,12.91,12.91,0,0,1-2.1,3.782,14.361,14.361,0,0,1-3.312,3.013,10.831,10.831,0,0,1-1.2.7,1.915,1.915,0,0,1-.476.2c-.027-.041.615-.381,1.55-1.048a16.217,16.217,0,0,0,3.2-3.017,14.762,14.762,0,0,0,2.143-3.686c.4-1.008.548-1.662.6-1.652" transform="translate(-124.636 -95.077)" fill="#4adbd1"/>
            <path id="Trazado_782317" data-name="Trazado 782317" d="M421.069,281.075a1.745,1.745,0,0,1-.514.076,8.5,8.5,0,0,1-1.42-.025,9.691,9.691,0,0,1-4.344-1.51,8.262,8.262,0,0,1-2.895-3.264,6.348,6.348,0,0,1-.444-1.205,1.265,1.265,0,0,1-.07-.461c.054-.012.2.639.708,1.587a8.791,8.791,0,0,0,2.88,3.127,10.212,10.212,0,0,0,4.192,1.538c1.164.157,1.9.088,1.906.138" transform="translate(-142.998 -95.483)" fill="#4adbd1"/>
            <path id="Trazado_782318" data-name="Trazado 782318" d="M377.241,365.269c-.022.072-2.832-.536-6.277-1.357s-6.221-1.546-6.2-1.617,2.831.536,6.277,1.357,6.221,1.546,6.2,1.617" transform="translate(-126.796 -125.935)" fill="#4adbd1"/>
            <path id="Trazado_782319" data-name="Trazado 782319" d="M419.87,360.936c.04.065-2.405,1.343-5.462,2.853s-5.569,2.683-5.609,2.617,2.4-1.342,5.462-2.853,5.568-2.683,5.609-2.617" transform="translate(-142.102 -125.463)" fill="#4adbd1"/>
            <path id="Trazado_782320" data-name="Trazado 782320" d="M339.573,213.588l2.319,2.9V211.5h7.3s.811,11.421.637,13.856a19.724,19.724,0,0,1-.894,3.726,4.287,4.287,0,0,1-7.08,1.773,24.658,24.658,0,0,1-2.287-2.542c-3.246-4.174-8.639-14.34-8.639-14.34l5.625-3.4Z" transform="translate(-115.036 -73.197)" fill="#ffc09d"/>
            <path id="Trazado_782321" data-name="Trazado 782321" d="M343.467,214.372a8.269,8.269,0,0,0,.954,1.274c.615.764,1.469,1.816,2.445,2.955s1.9,2.14,2.613,2.82a5.252,5.252,0,0,0,1.241,1.005,12.165,12.165,0,0,0-1.067-1.176c-.665-.716-1.551-1.739-2.526-2.873a35.9,35.9,0,0,0-3.66-4.005" transform="translate(-119.391 -74.517)" fill="#ff9b6c"/>
            <path id="Trazado_782322" data-name="Trazado 782322" d="M369.717,159.359l7.7-3.021,14.189-.8,6.669,2.536-9.139,5.075-7.88-.29Z" transform="translate(-128.517 -54.065)" fill="#ffc09d"/>
            <path id="Trazado_782323" data-name="Trazado 782323" d="M351.54,231.843c.7.12,47.187,2.095,47.187,2.095l-1.633-41.8-.134-8.207-2.641-24.863s-6.949-2.39-10.494-3.531c0,0-3.732,3.89-10.827,3.785-6.936-.1-8.385-1.667-8.385-1.667l-9.7,3.718s-6.9,2.473-8.082,5.524c-1.155,2.97-3.271,19.932-3.271,19.932h10.052l-.19,29.964Z" transform="translate(-119.425 -54.065)" fill="#9aa8ad"/>
            <g id="Grupo_1033774" data-name="Grupo 1033774" transform="translate(261.345 121.464)" opacity="0.2">
              <g id="Grupo_1033773" data-name="Grupo 1033773">
                <g id="Grupo_1033772" data-name="Grupo 1033772" clip-path="url(#clip-path-10)">
                  <path id="Trazado_782324" data-name="Trazado 782324" d="M400.6,186.707l1.442,10.538,6.973,3.115,5.155-4.393v-9.783Z" transform="translate(-400.596 -186.183)"/>
                </g>
              </g>
            </g>
            <path id="Trazado_782325" data-name="Trazado 782325" d="M414.218,191.484c0,.087-2.9.159-6.472.159s-6.474-.071-6.474-.159,2.9-.159,6.474-.159,6.472.071,6.472.159" transform="translate(-139.486 -66.506)" fill="#373f51"/>
            <path id="Trazado_782326" data-name="Trazado 782326" d="M350.989,179.622a1.341,1.341,0,0,1,.074.277l.185.808a26.674,26.674,0,0,0,.926,2.966c.463,1.249,1.118,2.713,1.917,4.359.757,1.677,1.442,3.606,2.157,5.7l.008.022v.023c-.016,2.5-.035,5.245-.054,8.109-.067,6.392-.129,12.178-.173,16.4-.037,2.075-.066,3.765-.087,4.969q-.024.846-.038,1.35a2.735,2.735,0,0,1-.035.47,2.841,2.841,0,0,1-.027-.472q-.006-.5-.018-1.352c0-1.2-.005-2.9-.008-4.971.022-4.223.052-10.008.085-16.4.026-2.863.05-5.6.073-8.106l.007.045c-.7-2.086-1.375-4.023-2.106-5.686a46.778,46.778,0,0,1-1.863-4.4,22.691,22.691,0,0,1-.853-3c-.069-.357-.119-.632-.142-.819a1.358,1.358,0,0,1-.027-.286" transform="translate(-122.006 -62.438)" fill="#373f51"/>
            <path id="Trazado_782327" data-name="Trazado 782327" d="M425.987,172.126a5.359,5.359,0,0,1-.008.892c-.023.628-.054,1.444-.091,2.426-.083,2.1-.194,4.907-.316,8.007-.14,3.1-.268,5.9-.362,8.007-.057.982-.1,1.8-.14,2.426a5.1,5.1,0,0,1-.092.888,5.058,5.058,0,0,1-.025-.892c.011-.628.026-1.445.044-2.429.051-2.051.144-4.883.274-8.011s.272-5.958.4-8.006c.067-1.024.131-1.851.187-2.423a4.857,4.857,0,0,1,.126-.885" transform="translate(-147.717 -59.832)" fill="#373f51"/>
            <g id="Grupo_1033777" data-name="Grupo 1033777" transform="translate(228.988 118.703)" opacity="0.3">
              <g id="Grupo_1033776" data-name="Grupo 1033776">
                <g id="Grupo_1033775" data-name="Grupo 1033775" clip-path="url(#clip-path-11)">
                  <path id="Trazado_782328" data-name="Trazado 782328" d="M351.019,181.95a17.47,17.47,0,0,0,4.565,12.453c-.946-4.312-3.308-8.326-4.565-12.453" transform="translate(-350.999 -181.95)"/>
                </g>
              </g>
            </g>
            <g id="Grupo_1033780" data-name="Grupo 1033780" transform="translate(249.427 143.026)" opacity="0.3">
              <g id="Grupo_1033779" data-name="Grupo 1033779">
                <g id="Grupo_1033778" data-name="Grupo 1033778" clip-path="url(#clip-path-12)">
                  <path id="Trazado_782329" data-name="Trazado 782329" d="M382.328,236.293a8.7,8.7,0,0,0,5.579-3.1,26.4,26.4,0,0,0,3.747-5.425,21.388,21.388,0,0,0,2.2-8.531,40.222,40.222,0,0,1-11.524,17.061" transform="translate(-382.328 -219.233)"/>
                </g>
              </g>
            </g>
            <path id="Trazado_782330" data-name="Trazado 782330" d="M393.619,214.379a.9.9,0,0,1-.038.267c-.046.207-.1.456-.168.755-.07.329-.172.727-.313,1.183s-.28.982-.488,1.546a36,36,0,0,1-1.6,3.9,41.279,41.279,0,0,1-2.558,4.493,40.331,40.331,0,0,1-3.154,4.1,33.733,33.733,0,0,1-3,2.974c-.442.408-.876.737-1.249,1.035s-.7.545-.981.732l-.639.435a.92.92,0,0,1-.235.135c-.006-.008.063-.072.2-.185l.6-.48c.267-.2.587-.455.945-.769s.782-.647,1.213-1.062a37.483,37.483,0,0,0,2.931-3,43.413,43.413,0,0,0,3.111-4.083,44.422,44.422,0,0,0,2.559-4.448,40.1,40.1,0,0,0,1.653-3.854c.221-.556.378-1.073.528-1.524s.273-.841.361-1.164l.222-.739a.924.924,0,0,1,.1-.253" transform="translate(-131.812 -74.52)" fill="#373f51"/>
            <path id="Trazado_782331" data-name="Trazado 782331" d="M387.759,194.326a2.244,2.244,0,0,1-.054.427l-.214,1.213c-.09.528-.214,1.172-.4,1.909s-.36,1.587-.649,2.5l-.426,1.442c-.151.5-.345,1.01-.526,1.543-.35,1.073-.818,2.182-1.292,3.357a55.813,55.813,0,0,1-8.578,14.017c-.831.957-1.606,1.88-2.4,2.679-.393.4-.757.808-1.135,1.17l-1.091,1.035c-.682.673-1.358,1.217-1.932,1.716s-1.087.907-1.516,1.227l-.983.742a2.343,2.343,0,0,1-.356.243,2.353,2.353,0,0,1,.318-.291l.947-.786c.417-.333.921-.749,1.479-1.263s1.225-1.063,1.9-1.743l1.073-1.045c.372-.365.731-.772,1.118-1.178.784-.8,1.548-1.728,2.369-2.685a57.84,57.84,0,0,0,8.537-13.949c.478-1.166.954-2.267,1.312-3.33.185-.53.384-1.034.54-1.531l.442-1.431c.3-.907.492-1.75.69-2.482s.344-1.369.452-1.892l.269-1.2a2.265,2.265,0,0,1,.114-.416" transform="translate(-127.295 -67.549)" fill="#373f51"/>
            <path id="Trazado_782332" data-name="Trazado 782332" d="M330.214,172.991c2.866,4.355,14.468,22,17.9,27.215a.806.806,0,0,1-.777,1.242l-20.612-2.593a.807.807,0,0,1-.55-.324l-19.688-26.89a.807.807,0,0,1,.71-1.281l21.208,1.569a2.372,2.372,0,0,1,1.81,1.062" transform="translate(-106.482 -59.218)" fill="#e0e0e0"/>
            <path id="Trazado_782333" data-name="Trazado 782333" d="M330.14,172.918a1.393,1.393,0,0,0-.164-.247,2.309,2.309,0,0,0-.667-.562,2.9,2.9,0,0,0-1.373-.333l-1.918-.158-12.226-.959-4.052-.311-2.155-.164c-.19-.01-.351-.035-.569-.035a.918.918,0,0,0-.593.247.947.947,0,0,0-.157,1.211l5.731,7.86,13.146,17.977c.3.4.566.784.89,1.2a.975.975,0,0,0,.366.248,1.608,1.608,0,0,0,.4.079l.727.091,2.884.362,5.639.707,10.659,1.331c.221.023.4.059.654.072a.944.944,0,0,0,.683-.284.975.975,0,0,0,.283-.677,1.139,1.139,0,0,0-.248-.661l-1.36-2.059-2.6-3.938-4.671-7.064-6.784-10.216-1.859-2.767-.491-.715a1.853,1.853,0,0,0-.177-.237,1.831,1.831,0,0,0,.147.256l.463.734,1.805,2.8,6.692,10.276,4.637,7.087,2.585,3.947,1.352,2.064a.809.809,0,0,1,.2.49.665.665,0,0,1-.193.458.631.631,0,0,1-.459.19c-.175-.01-.412-.049-.617-.072l-10.657-1.35-5.638-.712-2.884-.363-.727-.092a1.355,1.355,0,0,1-.319-.059.644.644,0,0,1-.238-.161l-.864-1.173-13.169-17.962-5.747-7.828a.662.662,0,0,1,.108-.85.636.636,0,0,1,.415-.174c.153,0,.36.022.536.032l2.156.154,4.053.289,12.234.85,1.921.127a2.867,2.867,0,0,1,1.347.292,2.734,2.734,0,0,1,.864.748" transform="translate(-106.408 -59.145)" fill="#373f51"/>
            <path id="Trazado_782334" data-name="Trazado 782334" d="M306.569,172.321a2.4,2.4,0,0,0,.432.065l1.251.126,4.658.414,15.84,1.293-.126-.073c.991,1.473,2.015,3,3.041,4.582,4.18,6.425,7.831,12.332,10.589,16.534,1.371,2.107,2.511,3.791,3.3,4.951l.93,1.324a3.448,3.448,0,0,0,.344.448,3.506,3.506,0,0,0-.286-.487l-.876-1.36-3.212-5.008c-2.7-4.233-6.322-10.158-10.505-16.59-1.028-1.581-2.054-3.112-3.05-4.584l-.046-.067-.081-.006-15.849-1.176-4.666-.313-1.255-.069a2.338,2.338,0,0,0-.437,0" transform="translate(-106.566 -59.898)" fill="#373f51"/>
            <path id="Trazado_782335" data-name="Trazado 782335" d="M326.154,178.218h0l-.008,0Z" transform="translate(-113.371 -61.949)" fill="#fff"/>
            <path id="Trazado_782336" data-name="Trazado 782336" d="M325.37,178.521a.416.416,0,0,1,.51-.307,1.1,1.1,0,0,1,.553.311.552.552,0,0,1,.1.707c-.206.254-.629.16-.877-.053a.722.722,0,0,1-.286-.657" transform="translate(-113.098 -61.946)" fill="#fff"/>
            <path id="Trazado_782337" data-name="Trazado 782337" d="M333.653,200.844s.814-1.94-1.251-2.189a71.392,71.392,0,0,0-7.484,0s-2.963.313-2.337,2.44c0,0-1.752,1.564-.814,3.253s1.314,1.189,1.314,1.189-.25,2.064,1.314,2.377c0,0,1.7,2,3.256,1.877s8.192-3.316,8.63-3.942,1.064-.981.688-1.679c0,0,.814-1.831-.938-2.109,0,0-.125-1.529-2.377-1.217" transform="translate(-111.753 -69.015)" fill="#ffc09d"/>
            <path id="Trazado_782338" data-name="Trazado 782338" d="M325.716,202.693a5.661,5.661,0,0,0,1.395.1c.861.018,2.05.02,3.363,0a19.955,19.955,0,0,0,3.378-.2c.891-.206,1.24-.729,1.2-.74a3.548,3.548,0,0,1-1.248.5c-.819.137-2.022.053-3.333.1-1.313.02-2.5.057-3.362.1a5.667,5.667,0,0,0-1.391.143" transform="translate(-113.222 -70.164)" fill="#ff9b6c"/>
            <path id="Trazado_782339" data-name="Trazado 782339" d="M327.982,206.245a1.038,1.038,0,0,0,.449.155,4.791,4.791,0,0,0,1.29.08,9.114,9.114,0,0,0,1.882-.341c.692-.191,1.429-.457,2.206-.7a9.859,9.859,0,0,1,2.22-.458,3.412,3.412,0,0,0,1.891-.382,1.082,1.082,0,0,0,.451-.644.893.893,0,0,0-.078-.586c-.163-.3-.385-.316-.379-.3-.018.027.16.089.257.353a.808.808,0,0,1-.388.975,3.39,3.39,0,0,1-1.772.267,9.235,9.235,0,0,0-2.3.446l-2.195.72a10.446,10.446,0,0,1-1.814.4,11.807,11.807,0,0,1-1.717.007" transform="translate(-114.01 -70.589)" fill="#ff9b6c"/>
            <path id="Trazado_782340" data-name="Trazado 782340" d="M331.38,210.389a5.563,5.563,0,0,0,1.393-.269c.847-.214,2.009-.546,3.278-.96s2.4-.835,3.211-1.164a5.606,5.606,0,0,0,1.283-.606c-.035-.091-2.073.618-4.6,1.443s-4.589,1.462-4.563,1.557" transform="translate(-115.191 -72.088)" fill="#ff9b6c"/>
            <path id="Trazado_782341" data-name="Trazado 782341" d="M330.565,214.2a3.044,3.044,0,0,0,1.155-.133,13.833,13.833,0,0,0,2.642-.93c.994-.452,1.861-.915,2.49-1.247a4.184,4.184,0,0,0,.99-.6,21.712,21.712,0,0,0-3.621,1.533c-1.952.936-3.668,1.287-3.655,1.376" transform="translate(-114.908 -73.443)" fill="#ff9b6c"/>
            <path id="Trazado_782342" data-name="Trazado 782342" d="M413.985,180.922s-4.214,16.885-9.48,23.117c-5.1,6.035-13.092,3.261-15.86-4.548s-7.7-25.646-7.7-25.646L387,169.215l10.463,20.278,4.715-13.824Z" transform="translate(-132.42 -58.821)" fill="#ffc09d"/>
            <path id="Trazado_782343" data-name="Trazado 782343" d="M377.159,166.257l-4.441-6.437a11.592,11.592,0,0,1-1.892-.586c-.5-.295-1-2.852-.988-3.35s-.861-1.666-.508-1.994,1.544-.353,1.48-.832c-.014-.1-.883-1.169-.194-1.952a3.679,3.679,0,0,1,1.252-.532l-.072-2.456s1.327-2.9,2.682-1.85c0,0,5.111,3.926,5.626,4.554s2.482,8.8,2.831,10.338" transform="translate(-128.353 -50.764)" fill="#ffc09d"/>
            <path id="Trazado_782344" data-name="Trazado 782344" d="M382.855,161.081a2.28,2.28,0,0,0-.068-.433c-.067-.311-.153-.719-.263-1.23-.239-1.066-.6-2.607-1.081-4.506-.245-.949-.515-1.988-.855-3.1-.09-.276-.177-.557-.3-.842a1.891,1.891,0,0,0-.6-.741c-.465-.41-.955-.812-1.461-1.221-1.011-.819-2.085-1.664-3.2-2.534a3.739,3.739,0,0,0-.935-.617,1.283,1.283,0,0,0-1.153.274,5.263,5.263,0,0,0-1.362,1.84l-.016.031v.039c.007.237.014.494.022.752.017.575.034,1.144.05,1.7l.119-.157a5.989,5.989,0,0,0-.9.3,1.309,1.309,0,0,0-.436.284,1.229,1.229,0,0,0-.247.454,1.526,1.526,0,0,0,.078.977,2.89,2.89,0,0,0,.2.422l.113.193.023.04c-.006-.007,0-.025,0-.009a.069.069,0,0,1-.007.042c-.013.055-.132.131-.253.179s-.26.092-.4.134-.278.083-.42.139a.825.825,0,0,0-.426.3.7.7,0,0,0-.011.523,3.225,3.225,0,0,0,.15.412c.111.26.235.506.326.75a1.043,1.043,0,0,1,.078.344,3.438,3.438,0,0,0,.04.419c.039.269.088.53.142.787a10.455,10.455,0,0,0,.417,1.484,1.883,1.883,0,0,0,.39.684,2.278,2.278,0,0,0,.693.3c.45.14.888.25,1.315.349l-.071-.048,3.289,4.674.912,1.266a3.3,3.3,0,0,0,.338.429,3.262,3.262,0,0,0-.281-.468l-.859-1.3-3.2-4.734-.025-.037-.046-.012c-.419-.1-.855-.217-1.291-.358a2.24,2.24,0,0,1-.6-.259,1.733,1.733,0,0,1-.312-.583,10.261,10.261,0,0,1-.393-1.446c-.05-.252-.1-.509-.133-.768a3.486,3.486,0,0,1-.035-.38,1.324,1.324,0,0,0-.092-.444c-.1-.267-.222-.515-.328-.766a2.936,2.936,0,0,1-.134-.374.456.456,0,0,1-.014-.3.664.664,0,0,1,.273-.163c.124-.048.26-.087.4-.129s.281-.083.426-.143a.715.715,0,0,0,.419-.345.371.371,0,0,0,.029-.172.241.241,0,0,0-.029-.115l-.031-.055-.11-.189a2.649,2.649,0,0,1-.18-.38,1.215,1.215,0,0,1-.068-.781.916.916,0,0,1,.184-.337,1.073,1.073,0,0,1,.329-.2,5.647,5.647,0,0,1,.848-.283l.123-.033,0-.125c-.016-.56-.033-1.13-.049-1.7-.007-.258-.015-.514-.022-.752l-.014.07a5.009,5.009,0,0,1,1.262-1.72.975.975,0,0,1,.876-.228,3.694,3.694,0,0,1,.838.564c1.121.866,2.2,1.7,3.212,2.515.507.405,1,.8,1.46,1.2a1.639,1.639,0,0,1,.54.641c.113.266.2.545.294.815.348,1.094.631,2.13.889,3.073.491,1.868.89,3.389,1.176,4.478l.319,1.215a2.372,2.372,0,0,0,.129.419" transform="translate(-128.274 -50.686)" fill="#ff9b6c"/>
            <path id="Trazado_782345" data-name="Trazado 782345" d="M373.265,152.919c0,.054.519.013,1.325.091a9.5,9.5,0,0,1,1.4.32,6.436,6.436,0,0,0,1.808.015,3.412,3.412,0,0,1,2.847.924,3.668,3.668,0,0,1,.687,1.093,1.687,1.687,0,0,0-.524-1.245,3.314,3.314,0,0,0-1.223-.859,3.722,3.722,0,0,0-1.809-.227,6.935,6.935,0,0,1-1.729.014,7.663,7.663,0,0,0-1.438-.257,3.513,3.513,0,0,0-1.342.131" transform="translate(-129.75 -53.109)" fill="#ff9b6c"/>
            <path id="Trazado_782346" data-name="Trazado 782346" d="M375.978,152.071c.076.038.281-.26.254-.684s-.265-.7-.335-.65,0,.326.021.668-.023.632.059.666" transform="translate(-130.654 -52.396)" fill="#ff9b6c"/>
            <path id="Trazado_782347" data-name="Trazado 782347" d="M371.4,156.512a11.162,11.162,0,0,0,3.85-.3,3.815,3.815,0,0,1,1.415-.179,1.537,1.537,0,0,1,.917.6,9.121,9.121,0,0,1,.506.977,1.719,1.719,0,0,0-.323-1.1,1.7,1.7,0,0,0-1.041-.762,3.7,3.7,0,0,0-1.54.156c-2.063.45-3.786.516-3.783.609" transform="translate(-129.102 -54.126)" fill="#ff9b6c"/>
            <path id="Trazado_782348" data-name="Trazado 782348" d="M370.359,160.047a2.069,2.069,0,0,0,.947,0c.581-.065,1.362-.265,2.213-.432a5.005,5.005,0,0,1,1.191-.119,1.433,1.433,0,0,1,.858.311,1.368,1.368,0,0,1,.418.75c.018,0,.062-.085.053-.26a1.075,1.075,0,0,0-.319-.653,1.568,1.568,0,0,0-.985-.436,4.536,4.536,0,0,0-1.274.1c-.876.172-1.634.4-2.193.523a4.562,4.562,0,0,0-.908.215" transform="translate(-128.74 -55.338)" fill="#ff9b6c"/>
            <path id="Trazado_782349" data-name="Trazado 782349" d="M372.691,163.319c-.054.04.38.495,1.177.493l-.157-.136c.016.14.031.273.047.411a4.473,4.473,0,0,0,.365,1.623,4.494,4.494,0,0,0-.052-1.659c-.019-.136-.038-.269-.057-.408l-.02-.144-.138.008a5.365,5.365,0,0,1-1.165-.187" transform="translate(-129.549 -56.767)" fill="#ff9b6c"/>
            <path id="Trazado_782350" data-name="Trazado 782350" d="M416.086,160.947s8.632,2.092,8.614,13.538c-.018,11.4-2.607,17.1-2.607,17.1l-15.913-8.66,3.551-8.914Z" transform="translate(-141.192 -55.947)" fill="#9aa8ad"/>
            <path id="Trazado_782351" data-name="Trazado 782351" d="M421.982,192.866a1.528,1.528,0,0,1-.331-.144l-.923-.469-3.391-1.788-11.346-6.113-.129-.069.052-.136c.273-.713.562-1.467.854-2.231,1.018-2.642,1.985-5.157,2.868-7.45.444-1.142.865-2.229,1.261-3.248a19.664,19.664,0,0,1,1.259-2.779,8.622,8.622,0,0,1,2.872-3.323,3.49,3.49,0,0,1,1.119-.449,2.121,2.121,0,0,1,.311-.04c.07,0,.107,0,.107,0a4.244,4.244,0,0,0-1.468.6,8.791,8.791,0,0,0-2.732,3.326,20.017,20.017,0,0,0-1.207,2.762c-.387,1.023-.8,2.112-1.232,3.259l-2.844,7.459c-.292.764-.582,1.517-.856,2.23l-.076-.2,11.295,6.209,3.342,1.877.9.521a1.632,1.632,0,0,1,.3.2" transform="translate(-141.081 -57.226)" fill="#373f51"/>
          </g>
        </g>
      </g>
    </g>
  </g>
</svg>
