<svg xmlns="http://www.w3.org/2000/svg" xmlns:xlink="http://www.w3.org/1999/xlink" width="144.918" height="170.333" viewBox="0 0 144.918 170.333">
  <defs>
    <clipPath id="clip-path">
      <rect id="Rectángulo_373478" data-name="Rectángulo 373478" width="130.221" height="115.991" fill="none"/>
    </clipPath>
    <clipPath id="clip-path-3">
      <rect id="Rectángulo_373444" data-name="Rectángulo 373444" width="66.333" height="76.977" fill="none"/>
    </clipPath>
    <clipPath id="clip-path-4">
      <rect id="Rectángulo_373474" data-name="Rectángulo 373474" width="22.846" height="7.286" fill="none"/>
    </clipPath>
  </defs>
  <g id="Grupo_1083993" data-name="Grupo 1083993" transform="translate(-1157.082 -2160.126)">
    <rect id="Rectángulo_364982" data-name="Rectángulo 364982" width="4.246" height="170.333" transform="translate(1157.082 2160.126)" fill="#8f52f5"/>
    <g id="Grupo_1064171" data-name="Grupo 1064171" transform="translate(1171.779 2193.845)" clip-path="url(#clip-path)">
      <g id="Grupo_1064170" data-name="Grupo 1064170">
        <g id="Grupo_1064169" data-name="Grupo 1064169" clip-path="url(#clip-path)">
          <path id="Trazado_777266" data-name="Trazado 777266" d="M73.823,114.645h-.046q-.676,0-1.348-.016l.011-.461q.666.016,1.337.016Zm1.393-.018-.012-.461q.693-.017,1.382-.052l.023.46q-.694.035-1.393.053m-4.18-.048q-.7-.034-1.391-.084l.034-.46q.688.05,1.38.084Zm6.963-.09-.034-.46q.691-.052,1.377-.12l.046.458c-.461.047-.924.086-1.389.122m-9.742-.113q-.7-.068-1.386-.153l.057-.457q.684.084,1.374.152Zm12.516-.165-.058-.457q.688-.086,1.369-.188l.069.455q-.687.1-1.381.19m-15.283-.176q-.691-.1-1.376-.222l.079-.454q.68.118,1.364.22ZM83.53,113.8l-.08-.454q.682-.12,1.359-.256l.091.452q-.682.138-1.369.259m-20.784-.24q-.684-.137-1.363-.291l.1-.449q.672.152,1.351.288Zm23.517-.311-.1-.449q.675-.155,1.344-.325l.113.446q-.673.171-1.354.327m-26.235-.3q-.676-.171-1.346-.358l.124-.444q.664.185,1.336.355Zm28.936-.383-.125-.444q.667-.187,1.326-.391l.136.44q-.665.205-1.337.395m-31.62-.368q-.67-.205-1.332-.427l.147-.437q.657.221,1.321.424Zm34.283-.455-.148-.437q.657-.222,1.3-.458l.159.433q-.653.239-1.315.461M54.691,111.3q-.658-.239-1.308-.494l.168-.429q.645.253,1.3.49Zm39.554-.522-.169-.429q.643-.253,1.276-.521l.179.425q-.638.27-1.286.525m-42.157-.5q-.644-.272-1.281-.559l.19-.42q.631.286,1.27.555ZM96.8,109.7l-.19-.419q.629-.286,1.248-.584l.2.415q-.626.3-1.259.589m-47.262-.566q-.63-.3-1.251-.622l.211-.41q.615.315,1.24.617Zm49.765-.643-.211-.41q.613-.315,1.218-.645l.221.4q-.609.333-1.228.651m-52.25-.631q-.613-.335-1.218-.685l.231-.4q.6.347,1.207.678Zm54.691-.7-.231-.4q.6-.346,1.185-.706l.241.393q-.593.363-1.194.711m-57.108-.7q-.6-.365-1.181-.743l.25-.387q.581.375,1.172.737Zm59.479-.756-.25-.387q.58-.375,1.149-.764l.26.381q-.575.392-1.159.771M42.3,104.946q-.576-.393-1.142-.8l.269-.374q.561.4,1.133.794Zm64.121-.811-.27-.374q.56-.4,1.111-.821l.278.367q-.554.42-1.119.827m-66.385-.82q-.556-.422-1.1-.856l.288-.36q.541.431,1.092.85Zm68.6-.864-.287-.36q.539-.431,1.068-.875l.3.353q-.533.448-1.078.882m-70.782-.876q-.534-.448-1.057-.91l.305-.346q.519.458,1.048.9Zm72.915-.915-.305-.346q.518-.457,1.025-.927l.313.337q-.51.474-1.033.935m-75.006-.93q-.511-.474-1.01-.961l.322-.33q.5.483,1,.953Zm77.048-.966-.323-.33q.494-.482.978-.977l.329.323q-.486.5-.985.985m-79.044-.98q-.486-.5-.961-1.009l.338-.313q.47.508.953,1Zm80.99-1.015-.337-.313q.47-.506.928-1.025l.346.305q-.462.523-.936,1.033M31.869,95.744q-.46-.522-.909-1.056l.353-.3q.445.529.9,1.046ZM116.6,94.681l-.353-.3q.444-.528.876-1.069l.36.287q-.436.546-.884,1.079M30.078,93.613q-.435-.545-.856-1.1l.367-.279q.418.55.849,1.09Zm88.264-1.11-.367-.278q.417-.552.823-1.113l.373.269q-.407.566-.829,1.121M28.394,91.394q-.407-.564-.8-1.139l.38-.26q.39.57.793,1.13Zm91.579-1.155-.381-.26q.39-.571.766-1.152l.387.25q-.378.586-.772,1.162M26.823,89.1q-.378-.584-.742-1.177l.393-.241q.361.588.736,1.168Zm94.665-1.2-.394-.241q.362-.59.708-1.19l.4.231q-.35.6-.714,1.2m-96.12-1.17q-.348-.6-.682-1.212l.4-.221q.33.606.677,1.2Zm97.518-1.246-.4-.221q.332-.608.648-1.224l.41.211q-.319.622-.654,1.234M24.035,84.286q-.317-.617-.62-1.244l.415-.2q.3.621.615,1.233Zm100.128-1.292-.415-.2q.3-.624.586-1.256l.42.19q-.288.637-.591,1.266M22.826,81.784q-.286-.632-.557-1.273l.425-.179q.269.635.553,1.262Zm102.488-1.335-.425-.179q.269-.638.523-1.284l.429.168q-.256.651-.527,1.295M21.743,79.226q-.255-.648-.495-1.3l.433-.158q.237.651.49,1.292Zm104.591-1.38-.433-.158q.237-.651.458-1.309l.437.146q-.222.664-.461,1.321M20.787,76.607q-.223-.659-.429-1.326l.44-.136q.2.661.425,1.315Zm106.437-1.414-.441-.135q.2-.66.39-1.327l.444.125q-.189.671-.393,1.337M19.963,73.945q-.189-.669-.361-1.346l.447-.114q.171.671.359,1.335ZM127.976,72.51l-.447-.113q.169-.669.323-1.344l.449.1q-.155.681-.325,1.355m-108.7-1.266q-.155-.678-.294-1.363l.452-.092q.137.679.29,1.351Zm109.318-1.452-.452-.091q.136-.676.255-1.358l.454.079q-.12.688-.257,1.37M18.722,68.512q-.121-.685-.225-1.375l.456-.069q.1.685.223,1.364Zm110.35-1.466-.455-.068q.1-.682.186-1.369l.457.056q-.085.693-.188,1.381M18.307,65.756q-.086-.689-.156-1.385l.459-.046q.069.689.155,1.374ZM129.414,64.28l-.459-.046q.068-.686.118-1.377l.46.034q-.051.7-.12,1.389m-111.385-1.3q-.053-.693-.087-1.391l.46-.023q.035.691.086,1.38ZM129.618,61.5l-.46-.023q.033-.689.05-1.381l.461.012q-.017.7-.051,1.393M17.888,60.2q-.017-.695-.018-1.394h.461q0,.693.018,1.382Zm111.336-1.484q0-.693-.018-1.383l.461-.012q.017.695.018,1.394ZM18.346,57.423l-.461-.011q.017-.7.05-1.393l.46.022q-.033.689-.049,1.381m110.81-1.472q-.035-.692-.086-1.38l.46-.034q.051.693.086,1.391ZM18.478,54.662l-.46-.034q.05-.7.118-1.388l.459.045q-.067.687-.117,1.377m110.473-1.468q-.068-.69-.154-1.374l.457-.057q.086.69.155,1.385Zm-110.2-1.284-.457-.056q.085-.693.187-1.381l.456.068q-.1.682-.186,1.369m109.862-1.459q-.1-.685-.222-1.364l.454-.08q.12.685.224,1.375ZM19.152,49.177,18.7,49.1q.12-.688.256-1.37l.452.09q-.135.677-.254,1.359m108.979-1.448q-.136-.679-.29-1.351l.449-.1q.154.679.292,1.363ZM19.693,46.466l-.45-.1q.154-.681.325-1.356l.447.112q-.169.669-.321,1.345m107.825-1.433q-.17-.671-.358-1.335l.444-.125q.189.67.36,1.346ZM20.37,43.787l-.444-.124q.187-.672.392-1.337l.441.135q-.2.66-.389,1.327m106.4-1.413q-.2-.662-.424-1.316l.437-.147q.222.66.428,1.326ZM21.182,41.139l-.437-.146q.223-.664.46-1.321l.433.157q-.236.651-.457,1.31m104.707-1.386q-.237-.65-.49-1.292l.429-.169q.255.648.494,1.3ZM22.128,38.532l-.429-.168q.255-.652.526-1.3l.425.178q-.269.639-.522,1.285M124.88,37.185q-.268-.635-.551-1.262l.419-.19q.286.632.557,1.273ZM23.2,35.977l-.42-.19q.287-.637.59-1.266l.416.2q-.3.624-.585,1.257m100.542-1.3q-.3-.622-.614-1.234l.41-.211q.317.618.62,1.244ZM24.4,33.48l-.41-.21q.319-.622.653-1.234l.4.22q-.331.608-.647,1.224m98.082-1.258q-.331-.606-.676-1.2l.4-.231q.348.6.681,1.213ZM25.729,31.048l-.4-.23q.349-.6.713-1.2l.393.24q-.361.59-.707,1.19M121.1,29.834q-.362-.588-.736-1.168l.387-.25q.377.584.741,1.177ZM27.173,28.687l-.387-.25q.38-.586.772-1.162l.381.26q-.389.571-.766,1.153m92.434-1.169q-.39-.57-.793-1.131l.375-.269q.405.565.8,1.14ZM28.732,26.4l-.374-.269q.407-.566.828-1.122l.367.278q-.418.552-.822,1.113m89.262-1.123q-.418-.551-.848-1.091l.36-.287q.434.543.855,1.1ZM30.4,24.2l-.36-.288q.435-.545.883-1.079l.354.3q-.445.53-.876,1.071m85.869-1.078q-.444-.53-.9-1.047l.346-.3q.46.522.909,1.056ZM32.18,22.077l-.346-.3q.461-.523.935-1.034l.338.313q-.47.507-.927,1.026m82.264-1.031q-.47-.506-.953-1l.331-.322q.486.5.96,1.009Zm-80.385-1-.33-.322q.486-.5.985-.986l.323.33q-.5.483-.977.978m78.455-.983q-.5-.483-1-.954l.314-.337q.51.474,1.009.962Zm-76.478-.949-.314-.338q.51-.474,1.032-.935l.305.345q-.517.457-1.023.928m74.453-.933q-.518-.458-1.047-.9l.3-.353q.533.449,1.056.911Zm-72.383-.9-.3-.353q.532-.448,1.077-.883l.288.36q-.539.431-1.068.876m70.267-.883q-.541-.432-1.091-.85l.279-.367q.555.422,1.1.857Zm-68.11-.842-.279-.367q.554-.421,1.119-.828l.27.374q-.56.4-1.109.821m65.907-.831q-.561-.4-1.133-.8l.26-.38q.576.394,1.141.8ZM42.5,12.948l-.26-.381q.574-.393,1.158-.772l.251.387q-.579.375-1.149.766m61.383-.778q-.58-.376-1.171-.738l.241-.393q.6.364,1.181.744Zm-59.068-.724-.241-.393q.593-.363,1.194-.713l.231.4q-.6.346-1.185.707m56.708-.723q-.6-.347-1.207-.679l.222-.4q.612.335,1.216.685ZM47.2,10.062l-.221-.4q.609-.334,1.228-.652l.211.41q-.613.316-1.218.647M99.1,9.4q-.616-.317-1.24-.619l.2-.415q.629.3,1.25.623ZM49.654,8.8l-.2-.415q.625-.3,1.258-.59l.191.42q-.628.284-1.248.584M96.6,8.191q-.631-.285-1.27-.555l.179-.425q.644.272,1.281.56ZM52.163,7.662l-.179-.425q.638-.27,1.285-.526l.169.429q-.641.253-1.275.521m41.884-.549q-.645-.253-1.3-.491l.158-.433q.658.239,1.308.5ZM54.73,6.649l-.159-.433q.654-.239,1.315-.462l.148.437q-.655.221-1.3.459M91.44,6.164q-.657-.221-1.321-.425l.136-.441q.669.207,1.332.429Zm-34.092-.4-.136-.441q.664-.205,1.336-.4l.125.443q-.666.188-1.325.393m31.445-.417q-.664-.187-1.335-.357l.113-.447q.676.172,1.346.36ZM60.008,5.013l-.114-.447q.674-.172,1.355-.328l.1.449q-.675.155-1.344.325m26.107-.345q-.673-.153-1.352-.289l.091-.452q.684.138,1.363.292ZM62.7,4.4l-.092-.452q.682-.138,1.369-.26l.08.454q-.682.121-1.358.258m20.7-.273Q82.726,4,82.04,3.9l.068-.456q.691.1,1.376.223Zm-17.98-.208-.069-.456q.688-.1,1.381-.191l.058.457q-.688.086-1.369.189m15.246-.2q-.684-.085-1.373-.153l.045-.459q.7.068,1.385.154Zm-12.5-.144-.046-.459q.691-.07,1.388-.122l.035.46q-.691.052-1.377.121m9.753-.128q-.687-.05-1.379-.084l.023-.46q.7.035,1.391.085Zm-7-.08L70.9,2.9q.694-.035,1.393-.053l.012.461q-.693.017-1.381.053m4.236-.055q-.689-.017-1.382-.017h-.09V2.83h.089q.7,0,1.4.017Z" transform="translate(-9.633 -1.526)" fill="#263238"/>
          <path id="Trazado_777267" data-name="Trazado 777267" d="M132.954,46.634s-18.876-2.461-44.518-28.85V17.42l-.18.18-.175-.18v.364c-25.624,26.389-44.5,28.85-44.5,28.85-6.725,55.276,39.987,74.212,44.513,75.926v.129l.175-.065.18.065v-.129c4.526-1.715,51.238-20.673,44.509-75.926" transform="translate(-23.134 -9.39)" fill="#263238"/>
          <path id="Trazado_777268" data-name="Trazado 777268" d="M133.622,53.224S116.23,50.96,92.6,26.636V26.3l-.166.171-.161-.171v.336C68.633,50.974,51.247,53.224,51.247,53.224c-6.2,50.971,36.875,68.445,41.024,70.017v.12l.161-.06.166.06v-.12c4.172-1.572,47.242-19.046,41.024-70.017" transform="translate(-27.296 -14.177)" fill="#500c75"/>
          <g id="Grupo_1064165" data-name="Grupo 1064165" transform="translate(31.966 22.167)" opacity="0.5" style="isolation: isolate">
            <g id="Grupo_1064164" data-name="Grupo 1064164">
              <g id="Grupo_1064163" data-name="Grupo 1064163" clip-path="url(#clip-path-3)">
                <path id="Trazado_777269" data-name="Trazado 777269" d="M135.2,69.441s-13.828-1.784-32.556-21.088V48.09c-.041.041-.083.088-.129.129l-.129-.129v.263c-18.747,19.3-32.552,21.088-32.552,21.088-4.923,40.425,29.242,54.285,32.552,55.53v.1l.129-.051.129.051v-.1c3.314-1.245,37.475-15.105,32.556-55.53" transform="translate(-69.35 -48.09)" fill="#fff"/>
              </g>
            </g>
          </g>
          <path id="Trazado_777270" data-name="Trazado 777270" d="M58.449,8.09A9.449,9.449,0,1,1,49,17.539,9.449,9.449,0,0,1,58.449,8.09" transform="translate(-26.414 -4.361)" fill="#fff"/>
          <path id="Trazado_777271" data-name="Trazado 777271" d="M57.91,26.911A9.91,9.91,0,1,1,67.821,17a9.922,9.922,0,0,1-9.91,9.91m0-18.9A8.988,8.988,0,1,0,66.9,17,9,9,0,0,0,57.91,8.012" transform="translate(-25.875 -3.822)" fill="#263238"/>
          <path id="Trazado_777272" data-name="Trazado 777272" d="M68.658,18.767H66.28V16.149a1.189,1.189,0,1,1,2.378,0Z" transform="translate(-35.729 -8.064)" fill="#263238"/>
          <path id="Trazado_777273" data-name="Trazado 777273" d="M65.454,15.479a.243.243,0,0,1-.111-.028l-2.019-1.074a.221.221,0,0,1-.124-.2V12.63a.23.23,0,1,1,.461,0v1.406l1.9,1a.236.236,0,1,1-.106.461Z" transform="translate(-34.068 -6.684)" fill="#263238"/>
          <path id="Trazado_777274" data-name="Trazado 777274" d="M69.328,15.479a.237.237,0,1,1-.111-.461l1.9-1V12.63a.23.23,0,1,1,.461,0v1.544a.226.226,0,0,1-.12.2l-2.024,1.074a.213.213,0,0,1-.106.028" transform="translate(-37.214 -6.684)" fill="#263238"/>
          <path id="Trazado_777275" data-name="Trazado 777275" d="M63.277,19.6a5,5,0,1,1-5,5,5,5,0,0,1,5-5" transform="translate(-31.416 -10.566)" fill="#ffb206"/>
          <path id="Trazado_777276" data-name="Trazado 777276" d="M63.007,29.554a5.227,5.227,0,1,1,5.227-5.227,5.233,5.233,0,0,1-5.227,5.227m0-9.993a4.766,4.766,0,1,0,4.766,4.766,4.772,4.772,0,0,0-4.766-4.766" transform="translate(-31.147 -10.296)" fill="#263238"/>
          <path id="Trazado_777277" data-name="Trazado 777277" d="M50.018,25.224a.233.233,0,0,1-.166-.4l1.784-1.784a.236.236,0,0,1,.23-.055L54.3,23.7a.239.239,0,0,1-.129.461l-2.3-.678-1.673,1.669a.231.231,0,0,1-.175.069" transform="translate(-26.838 -12.387)" fill="#263238"/>
          <path id="Trazado_777278" data-name="Trazado 777278" d="M50.793,31.95a.23.23,0,0,1-.175-.378l1.309-1.549a.226.226,0,0,1,.175-.083h2.019a.23.23,0,0,1,0,.461H52.208l-1.24,1.466a.226.226,0,0,1-.175.083" transform="translate(-27.257 -16.139)" fill="#263238"/>
          <path id="Trazado_777279" data-name="Trazado 777279" d="M53.889,37.219h-.032a.235.235,0,0,1-.2-.258l.24-1.9a.235.235,0,0,1,.092-.161l1.871-1.314a.235.235,0,0,1,.323.055.231.231,0,0,1-.053.321h0l-1.788,1.258-.226,1.8a.23.23,0,0,1-.226.2" transform="translate(-28.924 -18.08)" fill="#263238"/>
          <path id="Trazado_777280" data-name="Trazado 777280" d="M82.739,25.2a.234.234,0,0,1-.166-.069l-1.687-1.687-2.3.7a.24.24,0,1,1-.134-.461l2.443-.738a.226.226,0,0,1,.23.055L82.9,24.786a.235.235,0,0,1,0,.327.229.229,0,0,1-.166.088" transform="translate(-42.194 -12.364)" fill="#263238"/>
          <path id="Trazado_777281" data-name="Trazado 777281" d="M83.018,31.95a.226.226,0,0,1-.175-.083L81.6,30.4H79.69a.23.23,0,0,1,0-.461h2.019a.244.244,0,0,1,.18.083l1.3,1.549a.226.226,0,0,1-.023.319l0,0a.215.215,0,0,1-.147.055" transform="translate(-42.834 -16.139)" fill="#263238"/>
          <path id="Trazado_777282" data-name="Trazado 777282" d="M81.344,37.18a.23.23,0,0,1-.226-.2l-.226-1.8L79.118,33.9a.23.23,0,0,1,.235-.4.218.218,0,0,1,.032.023l1.844,1.337a.236.236,0,0,1,.1.157l.235,1.9a.231.231,0,0,1-.2.258Z" transform="translate(-42.588 -18.042)" fill="#263238"/>
          <path id="Trazado_777283" data-name="Trazado 777283" d="M69.081,32.019H68.62V25.2l1.521-1.1.272.373-1.332.963Z" transform="translate(-36.99 -12.991)" fill="#263238"/>
          <path id="Trazado_777284" data-name="Trazado 777284" d="M69.363,29.951l-.2-.41L71.644,28.3V26.06h.461v2.521Z" transform="translate(-37.281 -14.048)" fill="#263238"/>
          <path id="Trazado_777285" data-name="Trazado 777285" d="M66.5,27.027,64.49,25.768V23.74h.461v1.775l1.8,1.12Z" transform="translate(-34.764 -12.797)" fill="#263238"/>
          <path id="Trazado_777286" data-name="Trazado 777286" d="M65.664,34.226,62.94,32.493V30.7H63.4v1.54l2.512,1.595Z" transform="translate(-33.928 -16.549)" fill="#263238"/>
          <path id="Trazado_777287" data-name="Trazado 777287" d="M64.37,22.76a.47.47,0,1,1-.47.47.47.47,0,0,1,.47-.47" transform="translate(-34.446 -12.269)" fill="#263238"/>
          <path id="Trazado_777288" data-name="Trazado 777288" d="M71.86,23.42a.47.47,0,1,1-.47.47.47.47,0,0,1,.47-.47" transform="translate(-38.483 -12.625)" fill="#263238"/>
          <path id="Trazado_777289" data-name="Trazado 777289" d="M74.9,25.421a.461.461,0,1,1-.461-.461.461.461,0,0,1,.461.461" transform="translate(-39.88 -13.455)" fill="#263238"/>
          <path id="Trazado_777290" data-name="Trazado 777290" d="M63.392,30.021a.461.461,0,1,1-.461-.461.461.461,0,0,1,.461.461" transform="translate(-33.675 -15.935)" fill="#263238"/>
          <path id="Trazado_777291" data-name="Trazado 777291" d="M78.237,8a3.535,3.535,0,1,1,2.018,4.574A3.535,3.535,0,0,1,78.237,8" transform="translate(-42.045 -3.097)" fill="#fff"/>
          <path id="Trazado_777292" data-name="Trazado 777292" d="M80.994,12.741a4.006,4.006,0,1,1,1.612-.342,4,4,0,0,1-1.612.342m-2.868-5.11h0A3.074,3.074,0,1,0,82.1,5.876a3.053,3.053,0,0,0-3.978,1.755" transform="translate(-41.504 -2.559)" fill="#263238"/>
          <rect id="Rectángulo_373445" data-name="Rectángulo 373445" width="6.772" height="0.922" transform="matrix(0.772, -0.636, 0.636, 0.772, 36.582, 7.982)" fill="#263238"/>
          <path id="Trazado_777293" data-name="Trazado 777293" d="M201.639,8.09a9.449,9.449,0,1,1-9.449,9.449,9.449,9.449,0,0,1,9.449-9.449" transform="translate(-103.602 -4.361)" fill="#bac3c6"/>
          <rect id="Rectángulo_373446" data-name="Rectángulo 373446" width="0.081" height="0.461" transform="translate(103.114 20.891) rotate(-31.053)" fill="#fff"/>
          <path id="Trazado_777294" data-name="Trazado 777294" d="M206.6,47.345a9.62,9.62,0,0,1-5.285-1.577l.253-.386a9.154,9.154,0,0,0,5.032,1.5Z" transform="translate(-108.52 -24.464)" fill="#fff"/>
          <path id="Trazado_777295" data-name="Trazado 777295" d="M228.222,16.194a9.228,9.228,0,0,0-2.2-2.923l.306-.345a9.693,9.693,0,0,1,2.313,3.068Z" transform="translate(-121.837 -6.968)" fill="#fff"/>
          <path id="Trazado_777296" data-name="Trazado 777296" d="M212.78,47.345v-.461a9.139,9.139,0,0,0,5.027-1.5l.253.385a9.6,9.6,0,0,1-5.28,1.577" transform="translate(-114.701 -24.464)" fill="#fff"/>
          <path id="Trazado_777297" data-name="Trazado 777297" d="M224.089,42.256l-.256-.383A9.306,9.306,0,0,0,226.6,38.99l.394.24a9.776,9.776,0,0,1-2.9,3.026" transform="translate(-120.659 -21.018)" fill="#fff"/>
          <path id="Trazado_777298" data-name="Trazado 777298" d="M230.226,35.813l-.393-.242A9.032,9.032,0,0,0,231,32.649l.451.094a9.5,9.5,0,0,1-1.223,3.07" transform="translate(-123.893 -17.6)" fill="#fff"/>
          <path id="Trazado_777299" data-name="Trazado 777299" d="M197.837,42.349a9.776,9.776,0,0,1-2.974-3.069l.393-.24a9.319,9.319,0,0,0,2.833,2.923Z" transform="translate(-105.042 -21.045)" fill="#fff"/>
          <path id="Trazado_777300" data-name="Trazado 777300" d="M199.174,10.371l-.306-.344a9.633,9.633,0,0,1,6.407-2.437h.006v.461h-.006a9.174,9.174,0,0,0-6.1,2.32" transform="translate(-107.201 -4.091)" fill="#fff"/>
          <path id="Trazado_777301" data-name="Trazado 777301" d="M218.882,10.371a9.172,9.172,0,0,0-6.1-2.32h0V7.59h0a9.631,9.631,0,0,1,6.407,2.437Z" transform="translate(-114.701 -4.091)" fill="#fff"/>
          <path id="Trazado_777302" data-name="Trazado 777302" d="M232.811,29.311l-.451-.094a9.179,9.179,0,0,0,.194-1.871,8.973,8.973,0,0,0-.067-1.05l.457-.056a9.384,9.384,0,0,1,.071,1.105,9.655,9.655,0,0,1-.2,1.966" transform="translate(-125.256 -14.144)" fill="#fff"/>
          <path id="Trazado_777303" data-name="Trazado 777303" d="M231.645,22.7a9.036,9.036,0,0,0-.845-2.922l.415-.2a9.491,9.491,0,0,1,.888,3.07Z" transform="translate(-124.415 -10.556)" fill="#fff"/>
          <path id="Trazado_777304" data-name="Trazado 777304" d="M191.949,29.311a9.631,9.631,0,0,1-.2-1.965,9.454,9.454,0,0,1,.066-1.105l.457.054a9.167,9.167,0,0,0,.126,2.922Z" transform="translate(-103.364 -14.145)" fill="#fff"/>
          <path id="Trazado_777305" data-name="Trazado 777305" d="M194.265,16.145l-.416-.2a9.681,9.681,0,0,1,2.313-3.068l.306.345a9.211,9.211,0,0,0-2.2,2.923" transform="translate(-104.496 -6.941)" fill="#fff"/>
          <path id="Trazado_777306" data-name="Trazado 777306" d="M192.381,22.706l-.458-.053a9.607,9.607,0,0,1,.888-3.069l.415.2a9.164,9.164,0,0,0-.845,2.923" transform="translate(-103.458 -10.557)" fill="#fff"/>
          <path id="Trazado_777307" data-name="Trazado 777307" d="M193.4,35.861a9.6,9.6,0,0,1-1.223-3.07l.451-.094A9.142,9.142,0,0,0,193.8,35.62Z" transform="translate(-103.597 -17.626)" fill="#fff"/>
          <rect id="Rectángulo_373447" data-name="Rectángulo 373447" width="6.255" height="0.461" transform="translate(98.08 5.877)" fill="#fff"/>
          <rect id="Rectángulo_373448" data-name="Rectángulo 373448" width="6.26" height="0.461" transform="translate(91.82 5.877)" fill="#fff"/>
          <rect id="Rectángulo_373449" data-name="Rectángulo 373449" width="17.032" height="0.461" transform="translate(89.561 8.873)" fill="#fff"/>
          <rect id="Rectángulo_373450" data-name="Rectángulo 373450" width="18.765" height="0.461" transform="translate(88.694 11.869)" fill="#fff"/>
          <rect id="Rectángulo_373451" data-name="Rectángulo 373451" width="4.028" height="0.461" transform="translate(103.302 14.865)" fill="#fff"/>
          <rect id="Rectángulo_373452" data-name="Rectángulo 373452" width="4.222" height="0.461" transform="translate(88.824 14.865)" fill="#fff"/>
          <rect id="Rectángulo_373453" data-name="Rectángulo 373453" width="10.256" height="0.461" transform="translate(93.046 14.865)" fill="#fff"/>
          <rect id="Rectángulo_373454" data-name="Rectángulo 373454" width="16.119" height="0.461" transform="translate(90.017 17.861)" fill="#fff"/>
          <rect id="Rectángulo_373455" data-name="Rectángulo 373455" width="0.069" height="0.461" transform="translate(103.233 20.858)" fill="#fff"/>
          <rect id="Rectángulo_373456" data-name="Rectángulo 373456" width="5.153" height="0.461" transform="translate(98.079 20.858)" fill="#fff"/>
          <rect id="Rectángulo_373457" data-name="Rectángulo 373457" width="0.125" height="0.461" transform="translate(92.921 20.858)" fill="#fff"/>
          <rect id="Rectángulo_373458" data-name="Rectángulo 373458" width="5.033" height="0.461" transform="translate(93.046 20.858)" fill="#fff"/>
          <rect id="Rectángulo_373459" data-name="Rectángulo 373459" width="0.461" height="2.378" transform="translate(97.849 3.729)" fill="#fff"/>
          <rect id="Rectángulo_373460" data-name="Rectángulo 373460" width="0.461" height="2.766" transform="translate(103.071 6.338)" fill="#fff"/>
          <rect id="Rectángulo_373461" data-name="Rectángulo 373461" width="0.461" height="2.766" transform="translate(92.815 6.338)" fill="#fff"/>
          <rect id="Rectángulo_373462" data-name="Rectángulo 373462" width="0.461" height="2.849" transform="translate(97.849 9.219)" fill="#fff"/>
          <rect id="Rectángulo_373463" data-name="Rectángulo 373463" width="0.461" height="2.752" transform="translate(103.071 12.344)" fill="#fff"/>
          <rect id="Rectángulo_373464" data-name="Rectángulo 373464" width="0.461" height="2.752" transform="translate(92.815 12.344)" fill="#fff"/>
          <rect id="Rectángulo_373465" data-name="Rectángulo 373465" width="0.461" height="2.849" transform="translate(97.849 15.211)" fill="#fff"/>
          <rect id="Rectángulo_373466" data-name="Rectángulo 373466" width="0.461" height="1.54" transform="translate(97.849 21.088)" fill="#fff"/>
          <rect id="Rectángulo_373467" data-name="Rectángulo 373467" width="0.461" height="2.71" transform="translate(103.071 18.336)" fill="#fff"/>
          <path id="Trazado_777308" data-name="Trazado 777308" d="M224.071,45.7h-.461l.461-.041Z" transform="translate(-120.539 -24.614)" fill="#fff"/>
          <rect id="Rectángulo_373468" data-name="Rectángulo 373468" width="0.461" height="2.752" transform="translate(92.815 18.336)" fill="#fff"/>
          <path id="Trazado_777309" data-name="Trazado 777309" d="M201.1,26.911a9.91,9.91,0,1,1,9.91-9.91,9.922,9.922,0,0,1-9.91,9.91m0-18.9A8.988,8.988,0,1,0,210.088,17,9,9,0,0,0,201.1,8.012" transform="translate(-103.062 -3.822)" fill="#263238"/>
          <path id="Trazado_777310" data-name="Trazado 777310" d="M230.678,12.353a5.551,5.551,0,0,1-6.066,1.1c-1.581-.774-2.853-2.079-2.577-4s1.991-2.982,2.71-4.715A15.863,15.863,0,0,0,225.566,0a7.407,7.407,0,0,1,1.484,2.434,11.25,11.25,0,0,1,.157,1.692l1-2.669c.221.922.4,1.89.682,2.8.507,1.59,1.941,2.392,2.66,3.784a3.844,3.844,0,0,1-.871,4.314" transform="translate(-119.67)" fill="#263238"/>
          <path id="Trazado_777311" data-name="Trazado 777311" d="M231.2,23.463a3.021,3.021,0,0,1-1.217-2.669c.29-1.553,1.263-1.844,1.263-1.844a2.945,2.945,0,0,1,.973,2.332,3.152,3.152,0,0,1-1.019,2.18" transform="translate(-123.956 -10.215)" fill="#f8f8f8"/>
          <path id="Trazado_777312" data-name="Trazado 777312" d="M230.933,23.423a.232.232,0,0,1-.137-.045,3.22,3.22,0,0,1-1.306-2.9,2.393,2.393,0,0,1,1.423-2.022.228.228,0,0,1,.22.049,3.163,3.163,0,0,1,1.049,2.515,3.359,3.359,0,0,1-1.093,2.339.231.231,0,0,1-.156.061m0-4.472a2.142,2.142,0,0,0-.988,1.614,2.661,2.661,0,0,0,.979,2.316,2.9,2.9,0,0,0,.8-1.88,2.7,2.7,0,0,0-.791-2.05" transform="translate(-123.686 -9.945)" fill="#263238"/>
          <path id="Trazado_777313" data-name="Trazado 777313" d="M10.449,121.59A9.449,9.449,0,1,1,1,131.039a9.449,9.449,0,0,1,9.449-9.449" transform="translate(-0.539 -65.544)" fill="#b2bdc1"/>
          <path id="Trazado_777314" data-name="Trazado 777314" d="M12.7,140.45c-4.15,0-7.527-4.342-7.527-9.68s3.377-9.68,7.527-9.68,7.527,4.342,7.527,9.68-3.377,9.68-7.527,9.68m0-18.9c-3.9,0-7.066,4.136-7.066,9.219s3.17,9.219,7.066,9.219,7.066-4.136,7.066-9.219-3.17-9.219-7.066-9.219" transform="translate(-2.787 -65.275)" fill="#fff"/>
          <path id="Trazado_777315" data-name="Trazado 777315" d="M17.188,140.45c-2.068,0-3.688-4.252-3.688-9.68s1.62-9.68,3.688-9.68,3.688,4.252,3.688,9.68-1.62,9.68-3.688,9.68m0-18.9c-1.749,0-3.227,4.222-3.227,9.219s1.478,9.219,3.227,9.219,3.227-4.222,3.227-9.219-1.478-9.219-3.227-9.219" transform="translate(-7.277 -65.275)" fill="#fff"/>
          <rect id="Rectángulo_373469" data-name="Rectángulo 373469" width="9.694" height="0.461" transform="translate(4.987 57.198)" fill="#fff"/>
          <rect id="Rectángulo_373470" data-name="Rectángulo 373470" width="17.774" height="0.461" transform="translate(0.95 62.011)" fill="#fff"/>
          <rect id="Rectángulo_373471" data-name="Rectángulo 373471" width="18.747" height="0.461" transform="translate(0.461 66.823)" fill="#fff"/>
          <rect id="Rectángulo_373472" data-name="Rectángulo 373472" width="14.865" height="0.461" transform="translate(2.402 71.64)" fill="#fff"/>
          <path id="Trazado_777316" data-name="Trazado 777316" d="M9.91,140.41a9.91,9.91,0,1,1,9.91-9.91,9.922,9.922,0,0,1-9.91,9.91m0-18.9A8.988,8.988,0,1,0,18.9,130.5a9,9,0,0,0-8.988-8.988" transform="translate(0 -65.005)" fill="#263238"/>
          <path id="Trazado_777317" data-name="Trazado 777317" d="M31.392,139a3.347,3.347,0,0,0-3.342,3.342v7.629h6.684v-7.606A3.346,3.346,0,0,0,31.406,139h-.014m-2.42,4.264v-.922a2.42,2.42,0,1,1,4.84,0v.922Z" transform="translate(-15.121 -74.929)" fill="#263238"/>
          <path id="Trazado_777318" data-name="Trazado 777318" d="M35.094,152.733a.922.922,0,1,0-1.3.848l-.244,2.024h1.24l-.244-2.024a.922.922,0,0,0,.553-.848" transform="translate(-17.924 -81.84)" fill="#fff"/>
          <path id="Trazado_777319" data-name="Trazado 777319" d="M249.959,121.59a9.449,9.449,0,1,1-9.449,9.449,9.449,9.449,0,0,1,9.449-9.449" transform="translate(-129.649 -65.544)" fill="#fff"/>
          <path id="Trazado_777320" data-name="Trazado 777320" d="M249.42,140.41a9.91,9.91,0,1,1,9.91-9.91,9.922,9.922,0,0,1-9.91,9.91m0-18.9a8.988,8.988,0,1,0,8.988,8.988,9,9,0,0,0-8.988-8.988" transform="translate(-129.11 -65.005)" fill="#263238"/>
          <path id="Trazado_777321" data-name="Trazado 777321" d="M256.66,131.929H245.39V127.37h9.754Z" transform="translate(-132.279 -68.66)" fill="#ffb206"/>
          <path id="Trazado_777322" data-name="Trazado 777322" d="M256.71,131.89H244.89v-5.02h10.15Zm-11.359-.461h10.72l-1.363-4.1h-9.357Z" transform="translate(-132.01 -68.39)" fill="#263238"/>
          <rect id="Rectángulo_373473" data-name="Rectángulo 373473" width="14.437" height="9.878" transform="translate(113.111 61.37)" fill="#ffb206"/>
          <path id="Trazado_777323" data-name="Trazado 777323" d="M259.788,142.979h-14.9V132.64h14.9Zm-14.437-.461h13.976V133.1H245.351Z" transform="translate(-132.01 -71.501)" fill="#263238"/>
          <path id="Trazado_777324" data-name="Trazado 777324" d="M269.322,139.5a3.347,3.347,0,0,0-3.342,3.342v7.606h6.684v-7.583a3.346,3.346,0,0,0-3.328-3.365h-.014m-2.42,4.287v-.922a2.42,2.42,0,0,1,4.84,0v.922Z" transform="translate(-143.379 -75.199)" fill="#263238"/>
          <path id="Trazado_777325" data-name="Trazado 777325" d="M273.024,153.2a.922.922,0,1,0-1.3.848l-.244,2.024h1.235l-.244-2.024a.922.922,0,0,0,.553-.848" transform="translate(-146.182 -82.091)" fill="#fff"/>
          <path id="Trazado_777326" data-name="Trazado 777326" d="M113.26,136.139s-15.981,8.449-16.29,9.371,2.3,18.286,3.227,24.43a121.048,121.048,0,0,1,1.079,14v2.614h42.407s3.07-45.02,2-45.481-19.821-6.605-19.821-6.605Z" transform="translate(-52.259 -72.487)" fill="#fff"/>
          <path id="Trazado_777327" data-name="Trazado 777327" d="M143.419,186.517H101.012a.231.231,0,0,1-.23-.23v-2.614A121.238,121.238,0,0,0,99.705,169.7l-.049-.328c-2.445-16.3-3.393-23.534-3.168-24.206.314-.937,12.633-7.51,16.4-9.5a.215.215,0,0,1,.077-.024l12.6-1.669a.222.222,0,0,1,.1.01c.766.251,18.769,6.153,19.84,6.613.307.131.82.352-.456,23.138-.626,11.185-1.393,22.458-1.4,22.57a.231.231,0,0,1-.23.215m-42.176-.23h0Zm0-.23H143.2c1.186-17.429,2.7-43.508,2.069-45.06-1.459-.578-18.637-6.212-19.7-6.56l-12.5,1.656c-6.041,3.195-15.737,8.51-16.147,9.234-.266.936,2.336,18.28,3.192,23.979l.05.331a121.671,121.671,0,0,1,1.081,14.033Z" transform="translate(-51.996 -72.217)" fill="#263238"/>
          <path id="Trazado_777328" data-name="Trazado 777328" d="M159.09,176.427s-1.7-.217-4.01-2.6v0c-2.3,2.378-4.01,2.6-4.01,2.6a6.336,6.336,0,0,0,4.01,6.845,6.341,6.341,0,0,0,4.01-6.845" transform="translate(-81.403 -93.688)" fill="#8f52f5"/>
          <path id="Trazado_777329" data-name="Trazado 777329" d="M154.477,183.2a.279.279,0,0,1-.088,0,.46.46,0,0,1-.157-.051,6.771,6.771,0,0,1-4.25-7.311.461.461,0,0,1,.4-.4s1.572-.249,3.688-2.415a.485.485,0,0,1,.336-.226.423.423,0,0,1,.24.028.483.483,0,0,1,.235.2c2.107,2.139,3.655,2.388,3.688,2.388a.461.461,0,0,1,.392.4,6.772,6.772,0,0,1-4.236,7.306.492.492,0,0,1-.249.078m-3.609-6.942a5.836,5.836,0,0,0,3.6,5.992,5.845,5.845,0,0,0,3.6-5.992,9.079,9.079,0,0,1-3.6-2.332A9.074,9.074,0,0,1,150.868,176.254Z" transform="translate(-80.81 -93.142)" fill="#263238"/>
          <path id="Trazado_777330" data-name="Trazado 777330" d="M135.474,199.178a.23.23,0,0,1-.229-.211c-.01-.109-.931-11-1.232-18.6s0-22.492,0-22.641a.239.239,0,0,1,.235-.226.231.231,0,0,1,.226.235c0,.15-.3,15.025,0,22.614s1.221,18.471,1.23,18.58a.231.231,0,0,1-.21.249h-.02" transform="translate(-72.168 -84.902)" fill="#263238"/>
          <path id="Trazado_777331" data-name="Trazado 777331" d="M136.684,169.607a.844.844,0,1,1,.844-.844.845.845,0,0,1-.844.844m0-1.226a.383.383,0,1,0,.383.383.383.383,0,0,0-.383-.383" transform="translate(-73.226 -90.519)" fill="#263238"/>
          <path id="Trazado_777332" data-name="Trazado 777332" d="M136.953,199.42a.613.613,0,1,1-.613.613.613.613,0,0,1,.613-.613" transform="translate(-73.495 -107.499)" fill="#fff"/>
          <path id="Trazado_777333" data-name="Trazado 777333" d="M136.684,200.607a.844.844,0,1,1,.844-.844.845.845,0,0,1-.844.844m0-1.226a.383.383,0,1,0,.383.383.383.383,0,0,0-.383-.383" transform="translate(-73.226 -107.229)" fill="#263238"/>
          <path id="Trazado_777334" data-name="Trazado 777334" d="M139.225,224.368a.618.618,0,1,1-.618-.618h0a.618.618,0,0,1,.613.618" transform="translate(-74.385 -120.614)" fill="#fff"/>
          <path id="Trazado_777335" data-name="Trazado 777335" d="M138.338,224.946a.848.848,0,1,1,.848-.848.849.849,0,0,1-.848.848m0-1.235a.387.387,0,1,0,.384.387.388.388,0,0,0-.384-.387" transform="translate(-74.115 -120.345)" fill="#263238"/>
          <path id="Trazado_777336" data-name="Trazado 777336" d="M147.119,232.246l-4.766,2.457s-5.992-3.84-7.988-4-4.457.157-5.84,1.383-2.148,2.153-3.688,2.153-3.379.152-2.457,1.383,4.148,1.231,5.379.77,3.07-.922,3.07-.922a5,5,0,0,0,2.614,1.844,14.567,14.567,0,0,0,3.379.461s2.922,1.844,4.766,1.687a11.02,11.02,0,0,0,3.227-.765l5.683-1.692s-1.535-3.688-3.379-4.762" transform="translate(-65.837 -124.344)" fill="#ababab"/>
          <path id="Trazado_777337" data-name="Trazado 777337" d="M141.088,239.437c-1.767,0-4.2-1.447-4.6-1.7a14.822,14.822,0,0,1-3.369-.467,5.258,5.258,0,0,1-2.647-1.805c-.46.119-1.894.5-2.9.876-1.341.5-4.644.489-5.645-.847a.966.966,0,0,1-.222-1.026c.254-.508,1.111-.726,2.863-.726,1.236,0,1.932-.636,2.986-1.6.173-.158.355-.324.548-.5,1.838-1.63,5.066-1.515,6.011-1.44,1.9.149,7.123,3.416,7.982,3.96l4.648-2.4a.228.228,0,0,1,.222.006c1.888,1.1,3.411,4.719,3.476,4.872a.232.232,0,0,1-.147.31l-5.684,1.691a11.149,11.149,0,0,1-3.273.774c-.081.007-.164.011-.248.011m-10.529-4.462a.23.23,0,0,1,.186.094,4.79,4.79,0,0,0,2.493,1.759,14.336,14.336,0,0,0,3.317.451.231.231,0,0,1,.119.035c.028.018,2.876,1.8,4.624,1.652a10.76,10.76,0,0,0,3.159-.75l5.454-1.624c-.361-.8-1.624-3.418-3.073-4.351l-4.65,2.4a.232.232,0,0,1-.23-.011c-.059-.038-5.966-3.811-7.882-3.961-1.851-.143-4.316.126-5.669,1.326-.192.17-.372.334-.543.491-1.093,1-1.882,1.719-3.3,1.719-1.831,0-2.343.256-2.451.471-.075.151.056.379.179.543.835,1.115,3.9,1.147,5.114.692,1.229-.46,3.02-.911,3.1-.93a.23.23,0,0,1,.056-.007" transform="translate(-65.567 -124.077)" fill="#263238"/>
          <path id="Trazado_777338" data-name="Trazado 777338" d="M141.288,227.529s-1.844-1.079-2.766,0-1.231,6.605-.77,7.218.77-.765,1.383-1.226,2.153-5.992,2.153-5.992" transform="translate(-74.143 -122.393)" fill="#ababab"/>
          <path id="Trazado_777339" data-name="Trazado 777339" d="M137.715,234.861a.525.525,0,0,1-.416-.246c-.573-.761-.136-6.437.779-7.507,1.035-1.21,2.975-.1,3.057-.049a.23.23,0,0,1,.105.261c-.26.936-1.593,5.631-2.236,6.115a2.667,2.667,0,0,0-.544.715c-.226.374-.422.7-.725.711h-.021m1.667-7.851a1.2,1.2,0,0,0-.954.4c-.834.975-1.151,6.411-.761,6.93a.21.21,0,0,0,.064.065,2.857,2.857,0,0,0,.336-.492,2.961,2.961,0,0,1,.661-.844c.337-.254,1.28-3.059,2.019-5.691a3.369,3.369,0,0,0-1.364-.366" transform="translate(-73.874 -122.121)" fill="#263238"/>
          <path id="Trazado_777340" data-name="Trazado 777340" d="M146.288,228.43s-2.3-1.383-3.227-.613-2.614,6.914-2.153,7.527,1.844,0,2-.77a39.884,39.884,0,0,1,2.766-4.762Z" transform="translate(-75.916 -122.681)" fill="#ababab"/>
          <path id="Trazado_777341" data-name="Trazado 777341" d="M141.235,235.555a.907.907,0,0,1-.755-.342c-.545-.726,1.214-7.029,2.189-7.843,1.019-.851,3.243.443,3.493.592a.231.231,0,0,1,.092.291l-.613,1.383a35.311,35.311,0,0,0-2.75,4.714,1.753,1.753,0,0,1-1.324,1.165,1.5,1.5,0,0,1-.332.039m2.344-8.013a.939.939,0,0,0-.614.182c-.873.729-2.425,6.676-2.114,7.215.154.206.482.158.615.127a1.3,1.3,0,0,0,.973-.808,36.932,36.932,0,0,1,2.8-4.842l.512-1.16a5.366,5.366,0,0,0-2.17-.715" transform="translate(-75.672 -122.411)" fill="#263238"/>
          <path id="Trazado_777342" data-name="Trazado 777342" d="M151.484,231.9s-2.918-2.766-3.688-2.457-5.07,6.762-4,7.527,4.766-3.84,4.766-3.84l1.383,1.074" transform="translate(-77.424 -123.67)" fill="#ababab"/>
          <path id="Trazado_777343" data-name="Trazado 777343" d="M143.805,237.016a.684.684,0,0,1-.408-.123.832.832,0,0,1-.254-.836c.219-1.844,3.466-6.759,4.3-7.093s3.222,1.831,3.932,2.5a.231.231,0,0,1-.317.335c-1.357-1.286-3.064-2.558-3.443-2.41-.558.224-3.8,4.966-4.013,6.72-.025.211,0,.359.065.406.554.393,2.743-1.664,4.453-3.8a.23.23,0,0,1,.321-.038l1.383,1.074a.23.23,0,1,1-.283.364l-1.2-.936c-.928,1.14-3.255,3.83-4.529,3.83" transform="translate(-77.155 -123.406)" fill="#263238"/>
          <path id="Trazado_777344" data-name="Trazado 777344" d="M157.837,237.207s-2.766-4.457-3.688-4.457S148,237.516,148,237.516s1.54,1.226,2,.922,3.07-2,3.07-2,.461,2.461,2.153,2.922" transform="translate(-79.781 -125.466)" fill="#ababab"/>
          <path id="Trazado_777345" data-name="Trazado 777345" d="M154.953,239.321a.233.233,0,0,1-.061-.008c-1.44-.392-2.043-2.055-2.24-2.773-.682.443-2.426,1.578-2.8,1.821-.542.36-1.769-.534-2.271-.934a.23.23,0,0,1-.012-.35c.884-.806,5.342-4.827,6.3-4.827s3.219,3.495,3.883,4.566a.231.231,0,0,1-.392.243c-1.3-2.091-3-4.349-3.492-4.349-.507,0-3.3,2.266-5.79,4.521.668.493,1.367.843,1.515.744.461-.3,3.071-2,3.071-2a.23.23,0,0,1,.352.15c0,.024.456,2.325,1.987,2.743a.23.23,0,0,1-.061.453" transform="translate(-79.511 -125.196)" fill="#263238"/>
          <path id="Trazado_777346" data-name="Trazado 777346" d="M186.02,147.8s3.531,0,3.84,1.54.613,4.914.613,4.914S204,185.906,203.536,187.289s-21.051,8.145-21.664,8.145-5.531-7.836-5.531-7.836l9.984-6.3-5.222-14" transform="translate(-95.057 -79.673)" fill="#fff"/>
          <path id="Trazado_777347" data-name="Trazado 777347" d="M181.6,195.395c-.612,0-3.452-4.32-5.727-7.944a.231.231,0,0,1,.072-.318l9.826-6.2L180.616,167.1a.231.231,0,0,1,.432-.161l5.222,14a.231.231,0,0,1-.093.276l-9.79,6.178c2.2,3.49,4.723,7.229,5.237,7.53,1.546-.217,20.877-6.769,21.423-7.986.222-1.172-7.686-20.3-13.057-32.87a.238.238,0,0,1-.018-.07c0-.034-.307-3.379-.609-4.889-.223-1.109-2.684-1.354-3.614-1.354a.23.23,0,0,1,0-.461c.152,0,3.723.02,4.066,1.725.294,1.466.578,4.514.614,4.9,2.3,5.376,13.519,31.774,13.056,33.166-.554,1.66-21.692,8.3-21.883,8.3" transform="translate(-94.788 -79.403)" fill="#263238"/>
          <path id="Trazado_777348" data-name="Trazado 777348" d="M182.4,177.809h-.014a.23.23,0,0,1-.216-.244c.312-4.958,4.656-8.759,4.841-8.918a.23.23,0,1,1,.3.348c-.043.038-4.383,3.836-4.682,8.6a.231.231,0,0,1-.23.216" transform="translate(-98.2 -90.88)" fill="#263238"/>
          <path id="Trazado_777349" data-name="Trazado 777349" d="M179.4,177.192a.231.231,0,0,1-.23-.23,17.451,17.451,0,0,1,2.493-8.556.231.231,0,0,1,.388.249,17.309,17.309,0,0,0-2.42,8.306.231.231,0,0,1-.23.23" transform="translate(-96.583 -90.724)" fill="#263238"/>
          <path id="Trazado_777350" data-name="Trazado 777350" d="M206.488,217.938a.229.229,0,0,1-.224-.178c-.567-2.411-3.116-3.049-4.385-3.049-.933,0-3.2,1.844-3.995,2.555a.23.23,0,0,1-.307-.344c.306-.273,3.025-2.672,4.3-2.672,1.395,0,4.2.712,4.833,3.4a.229.229,0,0,1-.171.277.208.208,0,0,1-.053.006" transform="translate(-106.464 -115.493)" fill="#263238"/>
          <path id="Trazado_777351" data-name="Trazado 777351" d="M209.75,213.65a.23.23,0,0,1-.211-.138,8,8,0,0,0-2.088-2.836c-1.022-.8-4.146.745-5.263,1.407a.23.23,0,1,1-.235-.4c.438-.26,4.325-2.508,5.79-1.367a8.455,8.455,0,0,1,2.218,3.008.23.23,0,0,1-.119.3.233.233,0,0,1-.092.019" transform="translate(-108.803 -113.201)" fill="#263238"/>
          <path id="Trazado_777352" data-name="Trazado 777352" d="M87.364,158.42l-4.609,29.5s-5.07,3.688-3.227,9.219c.728,2.185,2.766,3.227,12.141,2.3a98.715,98.715,0,0,0,0-16.746c-.77-9.813-4.305-24.278-4.305-24.278" transform="translate(-42.653 -85.398)" fill="#fff"/>
          <path id="Trazado_777353" data-name="Trazado 777353" d="M85.662,199.743c-4.672,0-6.025-1.022-6.618-2.8-1.747-5.242,2.589-8.911,3.232-9.418l4.6-29.409a.231.231,0,0,1,.218-.2.228.228,0,0,1,.234.176c.035.145,3.549,14.595,4.311,24.315a99.157,99.157,0,0,1,0,16.783.231.231,0,0,1-.207.21c-2.339.23-4.231.34-5.764.34m1.483-40.4-4.428,28.341a.23.23,0,0,1-.092.151c-.049.036-4.911,3.657-3.144,8.96.69,2.069,2.767,3.03,11.709,2.167a98.7,98.7,0,0,0-.016-16.516c-.635-8.094-3.187-19.493-4.029-23.1M82.489,187.65h0Z" transform="translate(-42.387 -85.127)" fill="#263238"/>
          <path id="Trazado_777354" data-name="Trazado 777354" d="M75.793,228.407s3.157.074,3.379.438.221,5.287-.512,5.8-1.249.733-1.544,0-.807-2.277-.807-2.277-1.982,2.2-3.895,1.761-2.13-1.318-2.715-1.54-1.383.074-2.72-.461a8.883,8.883,0,0,1-2.789-2.494s-3.526,3.084-4.259,2.715.074-1.54,1.249-2.789,1.982-2.5,3.157-2.793,5.872-.88,7.343-.438a8.628,8.628,0,0,1,2.862,1.318,5.988,5.988,0,0,0,1.249.756" transform="translate(-32.156 -121.92)" fill="#ababab"/>
          <path id="Trazado_777355" data-name="Trazado 777355" d="M77.39,235.084a.711.711,0,0,1-.2-.029.893.893,0,0,1-.552-.587c-.21-.521-.522-1.431-.692-1.933-.626.6-2.233,1.926-3.848,1.556a4.338,4.338,0,0,1-2.288-1.2,1.553,1.553,0,0,0-.457-.346,2.313,2.313,0,0,0-.728-.088,5.282,5.282,0,0,1-2-.375,8.341,8.341,0,0,1-2.736-2.373c-1.182,1.02-3.583,2.962-4.33,2.586a.7.7,0,0,1-.395-.511c-.1-.553.4-1.392,1.579-2.641.275-.291.529-.583.772-.863a5.436,5.436,0,0,1,2.5-2c1.175-.294,5.942-.894,7.465-.435a9.158,9.158,0,0,1,2.959,1.374,5.739,5.739,0,0,0,1.139.691c2.149.052,3.334.236,3.523.548.265.435.278,5.509-.576,6.111a2.2,2.2,0,0,1-1.134.514m-1.35-3.21a.243.243,0,0,1,.047.006.231.231,0,0,1,.171.153c.005.015.513,1.545.8,2.263.073.182.159.289.255.317.218.065.617-.191.942-.42.53-.372.678-4.951.443-5.5a13.88,13.88,0,0,0-3.182-.318.247.247,0,0,1-.089-.02,6.181,6.181,0,0,1-1.3-.785.233.233,0,0,1-.05-.054,9.156,9.156,0,0,0-2.736-1.225c-1.425-.429-6.11.162-7.221.441a5.149,5.149,0,0,0-2.262,1.853c-.247.283-.505.579-.784.875-1.361,1.446-1.5,2.027-1.462,2.245a.235.235,0,0,0,.148.18c.315.153,2.187-1.095,4-2.684a.231.231,0,0,1,.337.036,8.7,8.7,0,0,0,2.689,2.418,4.892,4.892,0,0,0,1.838.341,2.653,2.653,0,0,1,.878.118,1.88,1.88,0,0,1,.61.443,3.936,3.936,0,0,0,2.076,1.088c1.755.407,3.653-1.669,3.671-1.69a.231.231,0,0,1,.171-.077" transform="translate(-31.887 -121.654)" fill="#263238"/>
          <path id="Trazado_777356" data-name="Trazado 777356" d="M71.182,225.385s-1.982-.369-2.2.954.295,6.453.807,6.914a1.277,1.277,0,0,0,1.913-.664,39.039,39.039,0,0,0,.217-5.5s.221-1.258-.733-1.7" transform="translate(-37.155 -121.47)" fill="#ababab"/>
          <path id="Trazado_777357" data-name="Trazado 777357" d="M70.218,233.424a1.5,1.5,0,0,1-.825-.248c-.637-.571-1.124-5.846-.907-7.145a1.262,1.262,0,0,1,.532-.858,2.962,2.962,0,0,1,1.941-.285.23.23,0,0,1,.055.018,1.835,1.835,0,0,1,.863,1.95,36.916,36.916,0,0,1-.225,5.535,1.512,1.512,0,0,1-.171.353,1.5,1.5,0,0,1-.954.649,1.56,1.56,0,0,1-.308.032m.1-8.126a1.87,1.87,0,0,0-1.04.254.8.8,0,0,0-.341.555c-.225,1.348.317,6.3.734,6.705a1.052,1.052,0,0,0,1.421-.321,1.047,1.047,0,0,0,.119-.245,36.257,36.257,0,0,0,.2-5.427c.011-.087.176-1.11-.572-1.483a3.6,3.6,0,0,0-.525-.039" transform="translate(-36.889 -121.2)" fill="#263238"/>
          <path id="Trazado_777358" data-name="Trazado 777358" d="M77.123,225.876s-2.941-1.844-3.688-.807.074,7.269.461,8.08,1.761,1.1,2.056.217.364-4.55.461-4.771" transform="translate(-39.423 -121.155)" fill="#ababab"/>
          <path id="Trazado_777359" data-name="Trazado 777359" d="M74.881,233.875a1.673,1.673,0,0,1-1.455-.89c-.373-.782-1.267-7.166-.44-8.314.85-1.177,3.677.546,4,.746a.231.231,0,0,1-.245.391c-1.066-.667-2.927-1.495-3.378-.867-.641.891.078,7,.482,7.847a1.213,1.213,0,0,0,1.1.625.555.555,0,0,0,.533-.383,21.968,21.968,0,0,0,.341-3.368,7.251,7.251,0,0,1,.128-1.422.23.23,0,0,1,.422.185c-.021.086-.056.685-.089,1.264a20.755,20.755,0,0,1-.364,3.487,1,1,0,0,1-.941.7l-.086,0" transform="translate(-39.161 -120.89)" fill="#263238"/>
          <path id="Trazado_777360" data-name="Trazado 777360" d="M81.93,226.792c-.074.221,0,6.684-.88,7.126s-2.13.438-2.13-2.5.147-6.536.954-6.831,3.084.959,3.895,1.692" transform="translate(-42.542 -121.042)" fill="#ababab"/>
          <path id="Trazado_777361" data-name="Trazado 777361" d="M79.994,234.1a1.234,1.234,0,0,1-.659-.183c-.607-.374-.915-1.3-.915-2.76,0-5.888.59-6.859,1.1-7.048.962-.348,3.37,1.051,4.129,1.737a.23.23,0,1,1-.309.342c-.843-.761-3.013-1.883-3.661-1.646-.188.069-.8.749-.8,6.615,0,1.6.378,2.172.7,2.368a1.156,1.156,0,0,0,1.1-.075c.258-.13.591-1.279.715-6.017a5.75,5.75,0,0,1,.05-.977.23.23,0,0,1,.442.13c-.012.077-.022.457-.032.859-.1,3.709-.293,6.077-.968,6.416a2,2,0,0,1-.89.238" transform="translate(-42.273 -120.777)" fill="#263238"/>
          <path id="Trazado_777362" data-name="Trazado 777362" d="M94.765,236.148a.229.229,0,0,1-.224-.179l-.664-2.936a.23.23,0,0,1,.449-.1l.664,2.936a.23.23,0,0,1-.174.276.241.241,0,0,1-.051.006" transform="translate(-50.602 -125.466)" fill="#263238"/>
          <path id="Trazado_777363" data-name="Trazado 777363" d="M123.6,137.98v8.375l4.25-3.038Z" transform="translate(-66.628 -74.379)" fill="#bababa"/>
          <path id="Trazado_777364" data-name="Trazado 777364" d="M123.33,146.316a.23.23,0,0,1-.23-.23V137.71a.23.23,0,0,1,.411-.143l4.25,5.337a.232.232,0,0,1-.047.331l-4.25,3.038a.23.23,0,0,1-.134.043m.23-7.946v7.268L127.249,143Z" transform="translate(-66.358 -74.11)" fill="#263238"/>
          <path id="Trazado_777365" data-name="Trazado 777365" d="M128.7,143.08l-5.1-9.223,4.978-3.526Z" transform="translate(-66.628 -70.256)" fill="#fff"/>
          <path id="Trazado_777366" data-name="Trazado 777366" d="M128.429,143.041a.231.231,0,0,1-.2-.119l-5.1-9.223a.231.231,0,0,1,.068-.3l4.978-3.526a.232.232,0,0,1,.238-.017.229.229,0,0,1,.125.2l.12,12.75a.23.23,0,0,1-.23.233m-4.8-9.385,4.558,8.246-.107-11.4Z" transform="translate(-66.358 -69.986)" fill="#263238"/>
          <path id="Trazado_777367" data-name="Trazado 777367" d="M131.23,117.2s.973,8.375,1.217,10.8.364,4.01.364,4.01,7.527-8.758,8.984-10.689,1.821-2.549,1.821-2.549l.369-8.984Z" transform="translate(-70.741 -59.183)" fill="#ababab"/>
          <path id="Trazado_777368" data-name="Trazado 777368" d="M132.542,131.973a.231.231,0,0,1-.23-.213c0-.016-.122-1.607-.363-4s-1.207-10.717-1.216-10.8a.231.231,0,0,1,.113-.226l12.755-7.407a.231.231,0,0,1,.346.209l-.369,8.983a.233.233,0,0,1-.032.108c-.016.025-.388.651-1.835,2.57s-8.918,10.614-8.993,10.7a.228.228,0,0,1-.174.08m-1.335-14.922c.132,1.141.976,8.434,1.2,10.658.158,1.572.265,2.8.32,3.464,1.517-1.769,7.362-8.6,8.614-10.259,1.21-1.6,1.665-2.3,1.777-2.48l.349-8.5Z" transform="translate(-70.471 -58.914)" fill="#263238"/>
          <path id="Trazado_777369" data-name="Trazado 777369" d="M131.433,118.954a5.628,5.628,0,0,0,5.195.857c3.227-1.185,4.148-3.227,4.854-3.932.461-.461,1.429-1.1,2.328-1.844l.175-4.245L131.23,117.2s.083.7.2,1.756" transform="translate(-70.741 -59.183)" fill="#263238"/>
          <path id="Trazado_777370" data-name="Trazado 777370" d="M134.568,120.063a5.846,5.846,0,0,1-3.544-1.2.229.229,0,0,1-.089-.158c-.12-1.055-.2-1.754-.2-1.755a.231.231,0,0,1,.113-.227l12.755-7.407a.23.23,0,0,1,.346.209l-.176,4.245a.23.23,0,0,1-.083.168c-.4.333-.82.648-1.191.926a11.865,11.865,0,0,0-1.121.9,6.069,6.069,0,0,0-.479.587,9.152,9.152,0,0,1-4.459,3.4,5.876,5.876,0,0,1-1.869.306m-3.187-1.5a5.389,5.389,0,0,0,4.9.764,8.618,8.618,0,0,0,4.244-3.242,6.392,6.392,0,0,1,.52-.634,12.047,12.047,0,0,1,1.17-.946c.342-.256.726-.544,1.094-.847l.154-3.723-12.261,7.121c.029.248.092.79.174,1.508" transform="translate(-70.471 -58.914)" fill="#263238"/>
          <path id="Trazado_777371" data-name="Trazado 777371" d="M138.062,141.14l-3.4,7.767,5.951-3.886Z" transform="translate(-72.59 -76.083)" fill="#bababa"/>
          <path id="Trazado_777372" data-name="Trazado 777372" d="M134.39,148.868a.23.23,0,0,1-.211-.323l3.4-7.767a.231.231,0,0,1,.4-.034l2.549,3.881a.228.228,0,0,1,.033.173.231.231,0,0,1-.1.146l-5.951,3.886a.233.233,0,0,1-.126.037m3.442-7.516-2.921,6.67,5.11-3.337Z" transform="translate(-72.32 -75.813)" fill="#263238"/>
          <path id="Trazado_777373" data-name="Trazado 777373" d="M142.04,131.626l2.789,7.527,8.26-10.685-2.429-4.978Z" transform="translate(-76.568 -66.568)" fill="#fff"/>
          <path id="Trazado_777374" data-name="Trazado 777374" d="M144.559,139.114l-.035,0a.23.23,0,0,1-.182-.148l-2.789-7.527a.231.231,0,0,1,.058-.248l8.62-8.136a.23.23,0,0,1,.365.066l2.429,4.978a.23.23,0,0,1-.025.242l-8.26,10.685a.229.229,0,0,1-.182.089m-2.52-7.695,2.591,6.994,7.919-10.242-2.229-4.568Z" transform="translate(-76.298 -66.299)" fill="#263238"/>
          <path id="Trazado_777375" data-name="Trazado 777375" d="M117.364,53.851a12.905,12.905,0,0,0-4.844,7.181c-1.12,4.7,1.249,9.8,1.424,11.371s-.5,3.614.244,5.554,4.024,5.015,4.549,6.453,3.466,4.029,6.665,2.858,4.2-3.227,4.932-3.936,2.766-1.9,3.752-3.227,1.609-2.277,1.609-2.277a42.231,42.231,0,0,0,2.812-12.04c.221-5.674-3.144-12.109-9.5-13.879a14.932,14.932,0,0,0-11.643,1.941" transform="translate(-60.493 -27.725)" fill="#ababab"/>
          <path id="Trazado_777376" data-name="Trazado 777376" d="M123.478,87.535a5.694,5.694,0,0,1-2.791-.779,5.547,5.547,0,0,1-2.433-2.529,13.437,13.437,0,0,0-1.964-2.738,16.522,16.522,0,0,1-2.584-3.712,8.473,8.473,0,0,1-.3-3.769,10.193,10.193,0,0,0,.038-1.843,12.982,12.982,0,0,0-.457-1.776c-.678-2.285-1.812-6.11-.962-9.675a13.176,13.176,0,0,1,4.932-7.313l0,0c.054-.037,5.451-3.753,11.837-1.974,6.636,1.848,9.887,8.5,9.669,14.11a42.8,42.8,0,0,1-2.829,12.118c-.027.049-.658,1.01-1.637,2.328a13.117,13.117,0,0,1-2.662,2.372,12.454,12.454,0,0,0-1.115.881,6.732,6.732,0,0,0-.5.6,9.554,9.554,0,0,1-4.51,3.393,5.021,5.021,0,0,1-1.737.313m-6.247-33.76a12.711,12.711,0,0,0-4.755,7.051c-.821,3.44.292,7.191.957,9.433a13.059,13.059,0,0,1,.473,1.856,10.555,10.555,0,0,1-.037,1.929,7.994,7.994,0,0,0,.267,3.569,16.638,16.638,0,0,0,2.51,3.583,13.472,13.472,0,0,1,2.041,2.873,5.143,5.143,0,0,0,2.227,2.286,4.87,4.87,0,0,0,4.142.435,9.019,9.019,0,0,0,4.306-3.245,7.043,7.043,0,0,1,.544-.64,12.527,12.527,0,0,1,1.162-.922,12.792,12.792,0,0,0,2.567-2.277c.97-1.306,1.595-2.256,1.6-2.266a42.551,42.551,0,0,0,2.773-11.922c.212-5.432-2.926-11.864-9.331-13.648a14.8,14.8,0,0,0-11.447,1.906" transform="translate(-60.227 -27.461)" fill="#263238"/>
          <g id="Grupo_1064168" data-name="Grupo 1064168" transform="translate(51.524 39.608)" opacity="0.5" style="isolation: isolate">
            <g id="Grupo_1064167" data-name="Grupo 1064167">
              <g id="Grupo_1064166" data-name="Grupo 1064166" clip-path="url(#clip-path-4)">
                <path id="Trazado_777377" data-name="Trazado 777377" d="M111.964,87.713s.088,3.743,1.447,4.725,4.291.922,5.476.429,1.871-2.992,2.369-3.711,2.116-.336,2.116-.336,1.157,3.273,2.074,3.646,3.817,1.014,5.845-.046,2.425-5.167,2.425-5.167,1.18-.226.853-.834-9.325-.6-10.39-.249-1.2.83-1.784.82-1.383-.618-1.964-.627-8.652.134-8.652.134Z" transform="translate(-111.78 -85.928)" fill="#fff"/>
              </g>
            </g>
          </g>
          <path id="Trazado_777378" data-name="Trazado 777378" d="M129.932,51.977a14.991,14.991,0,0,0-11.643,1.908,13.122,13.122,0,0,0-4.379,5.706c.254-.6,1.3-2.812,3.227-3.3,2.245-.576,2.277,1.475,5.112.784s7.241-2.927,9.187-1.816,3.485,3.425,2.692,5.831-.871,4.213-.074,4.826a6.62,6.62,0,0,1,1.844,3.766c.06,1,1.383,1.673,2.789,1.493a30.26,30.26,0,0,0,.751-5.315c.207-5.67-3.162-12.109-9.5-13.879" transform="translate(-61.404 -27.759)" fill="#263238"/>
          <path id="Trazado_777379" data-name="Trazado 777379" d="M137.969,71.166A3.133,3.133,0,0,1,136,70.535a1.556,1.556,0,0,1-.6-1.108,6.385,6.385,0,0,0-1.754-3.6c-.864-.664-.866-2.468-.005-5.081.778-2.36-.8-4.536-2.587-5.558-1.3-.742-3.939.171-6.27.975-.99.342-1.925.664-2.748.865a3.617,3.617,0,0,1-3.048-.429,2.4,2.4,0,0,0-2.061-.355c-1.8.46-2.807,2.543-3.072,3.171a.23.23,0,0,1-.426-.175,13.344,13.344,0,0,1,4.456-5.806,15.354,15.354,0,0,1,11.842-1.945h0c6.621,1.848,9.878,8.5,9.673,14.109a30.632,30.632,0,0,1-.757,5.358.231.231,0,0,1-.2.176,3.751,3.751,0,0,1-.476.03m-8.183-16.712a2.985,2.985,0,0,1,1.493.336c1.949,1.113,3.656,3.5,2.8,6.1-.772,2.343-.828,4.051-.152,4.571a6.861,6.861,0,0,1,1.933,3.934,1.126,1.126,0,0,0,.439.782,2.76,2.76,0,0,0,1.932.514,30.148,30.148,0,0,0,.709-5.114c.2-5.429-2.945-11.861-9.337-13.645a14.85,14.85,0,0,0-11.45,1.876,12.858,12.858,0,0,0-2.619,2.605,3.722,3.722,0,0,1,1.278-.616,2.845,2.845,0,0,1,2.4.4,3.189,3.189,0,0,0,2.715.384c.8-.2,1.726-.515,2.706-.853a17.972,17.972,0,0,1,5.156-1.276" transform="translate(-61.134 -27.495)" fill="#263238"/>
          <path id="Trazado_777380" data-name="Trazado 777380" d="M128.373,104.422a1.224,1.224,0,0,1-.885-.38c-.651-.466-.283-1.393.041-1.863a.231.231,0,0,1,.379.262c-.006.009-.61.9-.119,1.254a.781.781,0,0,0,1.016.13.23.23,0,1,1,.26.38,1.222,1.222,0,0,1-.692.215" transform="translate(-68.529 -55.027)" fill="#263238"/>
          <path id="Trazado_777381" data-name="Trazado 777381" d="M131.85,105.736a1.7,1.7,0,0,1-.216-.013,3.927,3.927,0,0,1-1.966-.922.23.23,0,0,1,.3-.347,3.456,3.456,0,0,0,1.729.812,2.968,2.968,0,0,0,1.942-.86.23.23,0,1,1,.32.331,3.61,3.61,0,0,1-2.112,1" transform="translate(-69.857 -56.246)" fill="#263238"/>
          <path id="Trazado_777382" data-name="Trazado 777382" d="M138.1,103.72a.779.779,0,0,1-.649-.291.231.231,0,0,1,.378-.265c.016.021.258.283.983-.163a.239.239,0,0,1,.061-.026.927.927,0,0,0,.549-.46,1.2,1.2,0,0,0-.155-1.018.231.231,0,0,1,.409-.213,1.621,1.621,0,0,1,.166,1.42,1.373,1.373,0,0,1-.814.705,1.822,1.822,0,0,1-.928.311" transform="translate(-74.072 -54.531)" fill="#263238"/>
          <path id="Trazado_777383" data-name="Trazado 777383" d="M131.085,111.17a8.637,8.637,0,0,1-2.878-.483.231.231,0,0,1,.166-.43,7.82,7.82,0,0,0,6.48-.619.231.231,0,0,1,.251.387,7.307,7.307,0,0,1-4.02,1.145" transform="translate(-69.032 -59.081)" fill="#263238"/>
          <path id="Trazado_777384" data-name="Trazado 777384" d="M145.769,92.167c-.023.631-.332,1.143-.687,1.139s-.622-.525-.595-1.157.332-1.143.687-1.139.622.521.595,1.157" transform="translate(-77.886 -49.06)" fill="#263238"/>
          <path id="Trazado_777385" data-name="Trazado 777385" d="M125.989,92.312c0,.636-.332,1.143-.687,1.139s-.622-.521-.595-1.152.332-1.143.687-1.139.622.521.595,1.152" transform="translate(-67.224 -49.141)" fill="#263238"/>
          <path id="Trazado_777386" data-name="Trazado 777386" d="M116.359,93.176a6.082,6.082,0,0,1-3.352-.819c-1.4-1.015-1.534-4.591-1.542-4.892l-.182-1.2a.229.229,0,0,1,.052-.183.232.232,0,0,1,.172-.082c.33-.006,8.081-.144,8.66-.134a2.985,2.985,0,0,1,1.072.334,2.721,2.721,0,0,0,.891.294,1.028,1.028,0,0,0,.593-.247,4.12,4.12,0,0,1,1.115-.563c.9-.295,10.209-.487,10.664.359a.6.6,0,0,1,.029.56,1.368,1.368,0,0,1-.874.571c-.1.8-.628,4.19-2.528,5.184-2.042,1.068-4.951.5-6.039.055-.91-.37-1.917-2.993-2.16-3.66-.477-.09-1.448-.172-1.753.269a7.247,7.247,0,0,0-.489.994c-.477,1.078-1.069,2.419-1.982,2.8a6.617,6.617,0,0,1-2.348.365m-4.581-6.722.145.957c0,.009,0,.019,0,.029,0,.036.1,3.64,1.351,4.543s4.077.892,5.252.4c.743-.309,1.317-1.61,1.737-2.559a7.368,7.368,0,0,1,.531-1.07c.571-.825,2.177-.472,2.358-.43a.232.232,0,0,1,.165.148c.434,1.227,1.345,3.266,1.943,3.51.982.4,3.771.946,5.652-.037s2.3-4.945,2.3-4.985a.232.232,0,0,1,.186-.2c.241-.047.634-.192.711-.355.009-.019.028-.058-.018-.144-.586-.454-9.139-.46-10.114-.139a3.661,3.661,0,0,0-1,.507,1.471,1.471,0,0,1-.859.325,2.982,2.982,0,0,1-1.072-.334,2.727,2.727,0,0,0-.891-.294c-.514-.008-6.986.1-8.381.129" transform="translate(-59.986 -46.052)" fill="#263238"/>
          <path id="Trazado_777387" data-name="Trazado 777387" d="M160.223,87.01l3.784,1.858-.258.6-4.379-1.623Z" transform="translate(-85.91 -46.904)" fill="#263238"/>
          <path id="Trazado_777388" data-name="Trazado 777388" d="M163.48,89.427a.234.234,0,0,1-.08-.014l-4.379-1.623a.231.231,0,0,1-.081-.381l.853-.834a.23.23,0,0,1,.263-.042l3.784,1.858a.23.23,0,0,1,.11.3l-.258.6a.231.231,0,0,1-.212.139m-3.958-1.943,3.832,1.42.085-.2L160,87.019Z" transform="translate(-85.64 -46.634)" fill="#263238"/>
          <path id="Trazado_777389" data-name="Trazado 777389" d="M124.169,86.189c-1.065.346-1.2.83-1.784.82s-1.383-.618-1.964-.627-8.652.134-8.652.134l.111.719,8.458-.129s1.235-.1,1.074.857c-.23,1.337-.166,1.208-.166,1.208.493-.719,2.116-.336,2.116-.336l.115.309c-.078-.608-.143-1.558.18-1.876.489-.461,2.7-.327,4.692-.424a34.912,34.912,0,0,1,5.356.429l.811-.876c-.719-.567-9.306-.549-10.348-.207" transform="translate(-60.251 -46.331)" fill="#263238"/>
          <path id="Trazado_777390" data-name="Trazado 777390" d="M120.971,89.143a.216.216,0,0,1-.07-.012c-.219-.072-.219-.113.014-1.469a.436.436,0,0,0-.079-.388,1.066,1.066,0,0,0-.749-.2l-8.473.13a.211.211,0,0,1-.231-.2l-.111-.719a.231.231,0,0,1,.224-.266c.33-.006,8.086-.138,8.66-.134a2.976,2.976,0,0,1,1.072.334,2.711,2.711,0,0,0,.891.293.912.912,0,0,0,.59-.246,4.071,4.071,0,0,1,1.12-.564c1-.328,9.742-.4,10.562.246a.231.231,0,0,1,.026.337l-.811.876a.231.231,0,0,1-.206.071,34.746,34.746,0,0,0-5.321-.426c-.535.026-1.1.035-1.637.045a7.653,7.653,0,0,0-2.9.317c-.065.064-.275.385-.109,1.679a.231.231,0,0,1-.445.11l-.071-.19c-.478-.091-1.452-.173-1.754.267a.239.239,0,0,1-.2.1m-.79-2.533a1.39,1.39,0,0,1,.994.352.881.881,0,0,1,.195.778c-.05.29-.086.508-.111.671a3.125,3.125,0,0,1,1.663-.106,1.938,1.938,0,0,1,.3-1.463c.4-.381,1.483-.417,3.21-.446.535-.009,1.092-.018,1.634-.045a35.256,35.256,0,0,1,5.282.413l.507-.548a45.684,45.684,0,0,0-9.887-.07h0a3.587,3.587,0,0,0-1,.507,1.394,1.394,0,0,1-.856.325,2.975,2.975,0,0,1-1.072-.333,2.713,2.713,0,0,0-.891-.294c-.516,0-6.984.1-8.38.129l.04.26,8.257-.126c.013,0,.055,0,.116,0m3.718-.683h0Z" transform="translate(-59.981 -46.069)" fill="#263238"/>
          <path id="Trazado_777391" data-name="Trazado 777391" d="M161.67,92.3s2.839-3.83,4.208-2.968.277,4.835-.613,6.638-3.01,2.254-3.42.8" transform="translate(-87.15 -48.087)" fill="#ababab"/>
          <path id="Trazado_777392" data-name="Trazado 777392" d="M162.712,97.6c-.05,0-.1,0-.147-.007a1.341,1.341,0,0,1-1.212-1.025.231.231,0,0,1,.444-.125.879.879,0,0,0,.809.691,2.453,2.453,0,0,0,2.182-1.533c1.016-2.059,1.813-5.638.7-6.34-.862-.547-2.851,1.5-3.9,2.91a.23.23,0,1,1-.37-.275c.3-.409,3.012-3.974,4.516-3.026,1.541.97.4,5.062-.53,6.934a3,3,0,0,1-2.49,1.794" transform="translate(-86.88 -47.82)" fill="#263238"/>
          <path id="Trazado_777393" data-name="Trazado 777393" d="M76.6,218.159H40.96L36.48,193.42H72.125Z" transform="translate(-19.665 -104.265)" fill="#263238"/>
          <path id="Trazado_777394" data-name="Trazado 777394" d="M76.335,218.12H40.691a.231.231,0,0,1-.227-.189l-4.48-24.739a.231.231,0,0,1,.227-.271H71.855a.23.23,0,0,1,.227.189l4.48,24.739a.231.231,0,0,1-.227.271m-35.452-.461H76.059l-4.4-24.278H36.486Z" transform="translate(-19.395 -103.995)" fill="#263238"/>
          <path id="Trazado_777395" data-name="Trazado 777395" d="M73.6,218.159H37.96L33.48,193.42H69.125Z" transform="translate(-18.048 -104.265)" fill="#8f52f5"/>
          <path id="Trazado_777396" data-name="Trazado 777396" d="M73.335,218.12H37.691a.231.231,0,0,1-.227-.189l-4.48-24.739a.231.231,0,0,1,.227-.271H68.855a.23.23,0,0,1,.227.189l4.48,24.739a.231.231,0,0,1-.227.271m-35.452-.461H73.059l-4.4-24.278H33.486Z" transform="translate(-17.778 -103.995)" fill="#263238"/>
          <path id="Trazado_777397" data-name="Trazado 777397" d="M46.2,225.781H80.462l-3.3-18.221Z" transform="translate(-24.904 -111.887)" fill="#263238"/>
          <path id="Trazado_777398" data-name="Trazado 777398" d="M80.192,225.741H45.93a.23.23,0,0,1-.117-.429l30.962-18.221a.226.226,0,0,1,.213-.011.229.229,0,0,1,.131.168l3.3,18.221a.231.231,0,0,1-.227.271m-33.416-.461h33.14l-3.192-17.624Z" transform="translate(-24.635 -111.617)" fill="#263238"/>
          <rect id="Rectángulo_373475" data-name="Rectángulo 373475" width="56.041" height="1.498" transform="translate(19.913 113.894)" fill="#afafaf"/>
          <path id="Trazado_777399" data-name="Trazado 777399" d="M98.972,248.549H42.93a.23.23,0,0,1-.23-.23v-1.5a.23.23,0,0,1,.23-.23H98.972a.23.23,0,0,1,.23.23v1.5a.23.23,0,0,1-.23.23m-55.811-.461H98.742v-1.037H43.161Z" transform="translate(-23.018 -132.926)" fill="#263238"/>
          <rect id="Rectángulo_373476" data-name="Rectángulo 373476" width="19.917" height="1.498" transform="translate(56.037 113.894)" fill="#263238"/>
          <path id="Trazado_777400" data-name="Trazado 777400" d="M141.218,248.549H121.3a.23.23,0,0,1-.23-.23v-1.5a.23.23,0,0,1,.23-.23h19.917a.23.23,0,0,1,.23.23v1.5a.23.23,0,0,1-.23.23m-19.687-.461h19.456v-1.037H121.531Z" transform="translate(-65.264 -132.926)" fill="#263238"/>
        </g>
      </g>
    </g>
  </g>
</svg>
