<svg xmlns="http://www.w3.org/2000/svg" width="21.777" height="14.619" viewBox="0 0 21.777 14.619">
  <path id="Trazado_838186" data-name="Trazado 838186" d="M11.66,13.189a6.789,6.789,0,0,1-1.294,4.443A4.471,4.471,0,0,1,6.719,19.2a4.5,4.5,0,0,1-3.672-1.572,6.779,6.779,0,0,1-1.3-4.434v-2.6A6.789,6.789,0,0,1,3.042,6.148,4.483,4.483,0,0,1,6.7,4.586a4.484,4.484,0,0,1,3.662,1.572,6.8,6.8,0,0,1,1.3,4.443ZM8.369,10.172a5.071,5.071,0,0,0-.4-2.29A1.338,1.338,0,0,0,6.7,7.125a1.307,1.307,0,0,0-1.235.7,4.777,4.777,0,0,0-.415,2.129V13.59a5.109,5.109,0,0,0,.4,2.329,1.343,1.343,0,0,0,1.27.737,1.325,1.325,0,0,0,1.24-.718,4.878,4.878,0,0,0,.41-2.251Zm12.949-5.6V7.164h-.146a4.941,4.941,0,0,0-3.032.884A3.732,3.732,0,0,0,16.68,10.5,3.848,3.848,0,0,1,19.492,9.41a3.59,3.59,0,0,1,2.939,1.348,5.436,5.436,0,0,1,1.094,3.535,4.977,4.977,0,0,1-.64,2.49A4.564,4.564,0,0,1,21.1,18.556a5.135,5.135,0,0,1-2.544.64,5.307,5.307,0,0,1-2.705-.688,4.733,4.733,0,0,1-1.855-1.968,6.48,6.48,0,0,1-.684-2.949V12.271a8.208,8.208,0,0,1,.942-3.95,6.832,6.832,0,0,1,2.69-2.749,7.692,7.692,0,0,1,3.877-1ZM18.35,11.949a1.889,1.889,0,0,0-1.094.3,1.917,1.917,0,0,0-.654.739v.982q0,2.684,1.865,2.684a1.515,1.515,0,0,0,1.255-.671,2.727,2.727,0,0,0,.5-1.682,2.677,2.677,0,0,0-.513-1.7A1.642,1.642,0,0,0,18.35,11.949Z" transform="translate(-1.748 -4.576)" fill="#12263f" opacity="0.134"/>
</svg>
