<svg id="Grupo_1083488" data-name="Grupo 1083488" xmlns="http://www.w3.org/2000/svg" xmlns:xlink="http://www.w3.org/1999/xlink" width="1030" height="370.822" viewBox="0 0 1030 370.822">
  <defs>
    <clipPath id="clip-path">
      <rect id="Rectángulo_380525" data-name="Rectángulo 380525" width="1030" height="370.822" fill="none"/>
    </clipPath>
  </defs>
  <g id="Grupo_1083481" data-name="Grupo 1083481">
    <g id="Grupo_1083480" data-name="Grupo 1083480" clip-path="url(#clip-path)">
      <path id="Trazado_779087" data-name="Trazado 779087" d="M40.136,216.361a40.152,40.152,0,1,1,40.175-40.046,40.137,40.137,0,0,1-40.175,40.046M4.21,176.5A35.947,35.947,0,1,0,40.355,140.26,35.944,35.944,0,0,0,4.21,176.5" transform="translate(0 11.661)" fill="#232323"/>
      <path id="Trazado_779088" data-name="Trazado 779088" d="M55.935,208.391a48.151,48.151,0,0,0,9.291-7.112,47.8,47.8,0,0,0,7.107-9.295c.427.416.809.781,1.182,1.154q5.9,5.9,11.8,11.8,4.614,4.617,9.22,9.239c1.052,1.054,2.112,2.1,3.145,3.175a11.193,11.193,0,0,1,3.2,8,11.636,11.636,0,0,1-20.124,7.9q-7.029-7.05-14.076-14.086-5.073-5.075-10.148-10.15c-.182-.181-.356-.371-.6-.625m6.487.734c.451.384.839.673,1.178,1.012q4.435,4.426,8.854,8.867c3.811,3.811,7.643,7.6,11.438,11.43a7.412,7.412,0,0,0,10.753-10.206c-2.167-2.313-4.47-4.5-6.713-6.738q-5.446-5.438-10.892-10.873c-1.32-1.32-2.63-2.652-4-4.036a47.232,47.232,0,0,1-10.618,10.543" transform="translate(4.794 16.454)" fill="#232323"/>
      <path id="Trazado_779089" data-name="Trazado 779089" d="M20.177,193.648a4.913,4.913,0,0,1-.063-.56c0-2.151-.03-4.3,0-6.451a14.77,14.77,0,0,1,4.507-10.626A17.048,17.048,0,0,1,31.748,172a2.609,2.609,0,0,1,3.138.684,5.094,5.094,0,0,0,2.7,1.674,5.033,5.033,0,0,0,4.636-1.189c.586-.515,1.182-1.019,1.789-1.508a.57.57,0,0,1,.453-.119,31.984,31.984,0,0,1,5.52,2.255,13.976,13.976,0,0,1,6.857,9.63c.569,2.7.342,5.421.388,8.136.023,1.4.005,2.8.007,4.207v.634h-.718q-7.907-.011-15.814-.022c-5.722,0-11.444.015-17.166.016a4.1,4.1,0,0,1-.695-.118q-1.331-1.316-2.663-2.631m3.571-.775H53.068c.087,0,.175-.008.261,0,.3.033.388-.116.383-.4-.037-2.232.008-4.468-.114-6.7a10.881,10.881,0,0,0-2.284-6.3,12.464,12.464,0,0,0-5.659-3.811,1.059,1.059,0,0,0-1.238.229,8.289,8.289,0,0,1-7.351,1.949A8.583,8.583,0,0,1,33.04,175.8a.888.888,0,0,0-.67-.232,11.275,11.275,0,0,0-8.4,8.555c-.688,2.839-.257,5.763-.3,8.65,0,.014.02.028.076.1" transform="translate(1.723 14.701)" fill="#232323"/>
      <path id="Trazado_779090" data-name="Trazado 779090" d="M38.215,173.752a12.257,12.257,0,1,1,12.209-12.326,12.306,12.306,0,0,1-12.209,12.326m-.079-3.53a8.727,8.727,0,1,0-8.669-8.711,8.723,8.723,0,0,0,8.669,8.711" transform="translate(2.22 12.79)" fill="#232323"/>
      <path id="Trazado_779091" data-name="Trazado 779091" d="M67.577,184.534H56.4L55.585,181h8.53c.008-1.672.186-3.307-.561-4.837a4.678,4.678,0,0,0-2.733-2.34.593.593,0,0,0-.455.094,5.34,5.34,0,0,1-6.322,0,.707.707,0,0,0-.595-.059c-.588.281-1.149.62-1.738.949l-2.7-2.127a8.644,8.644,0,0,1,3.6-2.283,6.575,6.575,0,0,0,1.089-.337,1.238,1.238,0,0,1,1.709.366,4.126,4.126,0,0,0,.749.642,1.75,1.75,0,0,0,2.212-.075c.418-.338.807-.711,1.23-1.041a.64.64,0,0,1,.5-.15,15.736,15.736,0,0,1,4.356,2.039,7.858,7.858,0,0,1,3.09,5.785c.153,2.227.076,4.47.1,6.706a.945.945,0,0,1-.063.205" transform="translate(4.201 14.551)" fill="#232323"/>
      <path id="Trazado_779092" data-name="Trazado 779092" d="M57.085,155.951a7.228,7.228,0,1,1-7.248,7.217,7.174,7.174,0,0,1,7.248-7.217m3.672,7.246a3.7,3.7,0,0,0-7.394-.054,3.7,3.7,0,1,0,7.394.054" transform="translate(4.271 13.366)" fill="#232323"/>
      <path id="Trazado_779093" data-name="Trazado 779093" d="M25,163.16a7.223,7.223,0,1,1-7.218-7.218A7.3,7.3,0,0,1,25,163.16m-3.533-.01a3.692,3.692,0,1,0-7.383.1,3.692,3.692,0,0,0,7.383-.1" transform="translate(0.905 13.365)" fill="#232323"/>
      <path id="Trazado_779094" data-name="Trazado 779094" d="M7.619,180.16a10.078,10.078,0,0,1,.4-4.407,7.952,7.952,0,0,1,4.673-5.063c.745-.326,1.515-.6,2.285-.853a.745.745,0,0,1,.584.111c.446.327.849.713,1.282,1.06a1.68,1.68,0,0,0,2.157.051,14.368,14.368,0,0,0,1.236-1.033.593.593,0,0,1,.689-.16c.748.269,1.52.476,2.263.758a8.418,8.418,0,0,1,2.977,2.049l-2.707,2.137c-.525-.3-1.06-.616-1.6-.922a.672.672,0,0,0-.8.052,5.291,5.291,0,0,1-6.228-.007.753.753,0,0,0-.595-.06,4.662,4.662,0,0,0-3.137,4.314c-.072.91-.012,1.829-.012,2.8h8.505c-.279,1.191-.544,2.326-.828,3.545H16.45c-1.388,0-2.775,0-4.162,0a1.706,1.706,0,0,1-.346-.076L7.619,180.16" transform="translate(0.645 14.554)" fill="#232323"/>
      <path id="Trazado_779095" data-name="Trazado 779095" d="M7.618,179.343l4.323,4.293a5.746,5.746,0,0,1-.649.077c-1.226.007-2.452,0-3.744,0,0-1.151-.005-2.253,0-3.356,0-.339.043-.679.066-1.017" transform="translate(0.647 15.37)" fill="#232323"/>
      <path id="Trazado_779096" data-name="Trazado 779096" d="M20.171,191.9l2.664,2.631a3.906,3.906,0,0,1-.631.118c-.674.015-1.348.005-2.034.005V191.9" transform="translate(1.729 16.447)" fill="#232323"/>
      <path id="Trazado_779097" data-name="Trazado 779097" d="M222.126,216.361A40.152,40.152,0,1,1,262.3,176.315a40.139,40.139,0,0,1-40.174,40.046M186.2,176.5a35.947,35.947,0,1,0,36.145-36.238A35.944,35.944,0,0,0,186.2,176.5" transform="translate(15.597 11.661)" fill="#232323"/>
      <path id="Trazado_779098" data-name="Trazado 779098" d="M237.924,208.391a44.34,44.34,0,0,0,16.4-16.407c.427.416.809.781,1.182,1.154q5.9,5.9,11.8,11.8,4.614,4.617,9.22,9.239c1.052,1.054,2.112,2.1,3.145,3.175a11.187,11.187,0,0,1,3.2,8,11.635,11.635,0,0,1-20.122,7.9q-7.029-7.05-14.076-14.086-5.073-5.075-10.148-10.15c-.182-.181-.356-.371-.6-.625m6.487.734c.451.384.839.673,1.178,1.012q4.435,4.426,8.854,8.867c3.811,3.811,7.643,7.6,11.438,11.43a7.412,7.412,0,0,0,10.753-10.206c-2.167-2.313-4.47-4.5-6.713-6.738q-5.446-5.438-10.892-10.873c-1.32-1.32-2.63-2.652-4-4.036a47.231,47.231,0,0,1-10.618,10.543" transform="translate(20.391 16.454)" fill="#232323"/>
      <path id="Trazado_779099" data-name="Trazado 779099" d="M202.166,193.648a4.913,4.913,0,0,1-.063-.56c0-2.151-.03-4.3,0-6.451a14.77,14.77,0,0,1,4.507-10.626A17.048,17.048,0,0,1,213.737,172a2.609,2.609,0,0,1,3.138.684,5.094,5.094,0,0,0,2.7,1.674,5.033,5.033,0,0,0,4.636-1.189c.586-.515,1.182-1.019,1.789-1.508a.57.57,0,0,1,.453-.119,31.983,31.983,0,0,1,5.52,2.255,13.975,13.975,0,0,1,6.857,9.63c.569,2.7.342,5.421.388,8.136.023,1.4.005,2.8.007,4.207v.634H238.5q-7.907-.011-15.814-.022c-5.722,0-11.444.015-17.166.016a4.1,4.1,0,0,1-.695-.118q-1.331-1.316-2.663-2.631m3.571-.775h29.321c.087,0,.175-.008.261,0,.3.033.388-.116.383-.4-.037-2.232.008-4.468-.114-6.7a10.881,10.881,0,0,0-2.284-6.3,12.464,12.464,0,0,0-5.659-3.811,1.059,1.059,0,0,0-1.238.229,8.29,8.29,0,0,1-7.352,1.949,8.585,8.585,0,0,1-4.025-2.051.888.888,0,0,0-.67-.232,11.275,11.275,0,0,0-8.4,8.555c-.688,2.839-.257,5.763-.3,8.65,0,.014.02.028.076.1" transform="translate(17.32 14.701)" fill="#232323"/>
      <path id="Trazado_779100" data-name="Trazado 779100" d="M220.2,173.752a12.257,12.257,0,1,1,12.209-12.326A12.306,12.306,0,0,1,220.2,173.752m-.079-3.53a8.727,8.727,0,1,0-8.669-8.711,8.723,8.723,0,0,0,8.669,8.711" transform="translate(17.817 12.79)" fill="#232323"/>
      <path id="Trazado_779101" data-name="Trazado 779101" d="M249.566,184.534H238.388L237.574,181h8.53c.008-1.672.186-3.307-.561-4.837a4.678,4.678,0,0,0-2.733-2.34.593.593,0,0,0-.455.094,5.34,5.34,0,0,1-6.322,0,.707.707,0,0,0-.595-.059c-.588.281-1.149.62-1.738.949l-2.7-2.127a8.644,8.644,0,0,1,3.6-2.283,6.575,6.575,0,0,0,1.089-.337,1.238,1.238,0,0,1,1.709.366,4.126,4.126,0,0,0,.749.642,1.75,1.75,0,0,0,2.212-.075c.418-.338.807-.711,1.23-1.041a.64.64,0,0,1,.5-.15,15.736,15.736,0,0,1,4.356,2.039,7.858,7.858,0,0,1,3.09,5.785c.153,2.227.076,4.47.1,6.706a.944.944,0,0,1-.063.205" transform="translate(19.798 14.551)" fill="#232323"/>
      <path id="Trazado_779102" data-name="Trazado 779102" d="M239.074,155.951a7.228,7.228,0,1,1-7.248,7.217,7.174,7.174,0,0,1,7.248-7.217m3.672,7.246a3.7,3.7,0,0,0-7.394-.054,3.7,3.7,0,1,0,7.394.054" transform="translate(19.868 13.366)" fill="#232323"/>
      <path id="Trazado_779103" data-name="Trazado 779103" d="M206.992,163.16a7.223,7.223,0,1,1-7.218-7.218,7.3,7.3,0,0,1,7.218,7.218m-3.533-.01a3.692,3.692,0,1,0-7.383.1,3.692,3.692,0,0,0,7.383-.1" transform="translate(16.502 13.365)" fill="#232323"/>
      <path id="Trazado_779104" data-name="Trazado 779104" d="M189.608,180.16a10.078,10.078,0,0,1,.4-4.407,7.952,7.952,0,0,1,4.673-5.063c.745-.326,1.515-.6,2.285-.853a.745.745,0,0,1,.584.111c.446.327.849.713,1.282,1.06a1.68,1.68,0,0,0,2.157.051,14.369,14.369,0,0,0,1.236-1.033.593.593,0,0,1,.689-.16c.748.269,1.52.476,2.263.758a8.418,8.418,0,0,1,2.977,2.049l-2.707,2.137c-.525-.3-1.06-.616-1.6-.922a.672.672,0,0,0-.8.052,5.291,5.291,0,0,1-6.228-.007.753.753,0,0,0-.595-.06,4.662,4.662,0,0,0-3.137,4.314c-.072.91-.012,1.829-.012,2.8h8.505c-.279,1.191-.544,2.326-.828,3.545h-2.315c-1.388,0-2.775,0-4.162,0a1.706,1.706,0,0,1-.346-.076l-4.323-4.293" transform="translate(16.243 14.554)" fill="#232323"/>
      <path id="Trazado_779105" data-name="Trazado 779105" d="M189.607,179.343l4.323,4.293a5.745,5.745,0,0,1-.649.077c-1.226.007-2.452,0-3.743,0,0-1.151-.005-2.253,0-3.356,0-.339.043-.679.066-1.017" transform="translate(16.244 15.37)" fill="#232323"/>
      <path id="Trazado_779106" data-name="Trazado 779106" d="M202.16,191.9l2.664,2.631a3.906,3.906,0,0,1-.631.118c-.674.015-1.348.005-2.034.005Z" transform="translate(17.326 16.447)" fill="#232323"/>
      <path id="Trazado_779107" data-name="Trazado 779107" d="M8.918,108.113a7.417,7.417,0,0,1-.094-.841c-.007-3.223-.046-6.447,0-9.669a22.147,22.147,0,0,1,6.755-15.926,25.57,25.57,0,0,1,10.678-6.014c1.93-.6,3.319-.512,4.7,1.025A7.633,7.633,0,0,0,35.009,79.2a7.543,7.543,0,0,0,6.95-1.782q1.316-1.158,2.681-2.26a.852.852,0,0,1,.679-.179,47.747,47.747,0,0,1,8.273,3.381A20.935,20.935,0,0,1,63.869,92.79c.852,4.045.514,8.124.581,12.195.035,2.1.009,4.2.01,6.307v.95H63.384q-11.851-.018-23.7-.034c-8.577,0-17.153.024-25.73.025a6.093,6.093,0,0,1-1.04-.177l-3.993-3.942m5.353-1.163H58.218a3.587,3.587,0,0,1,.39,0c.454.048.582-.174.575-.6-.054-3.346.011-6.7-.17-10.037a16.307,16.307,0,0,0-3.425-9.44,18.675,18.675,0,0,0-8.479-5.713,1.59,1.59,0,0,0-1.857.343,12.424,12.424,0,0,1-11.019,2.922A12.866,12.866,0,0,1,28.2,81.355a1.336,1.336,0,0,0-1-.35C20.608,82.923,16.229,87.114,14.6,93.829c-1.031,4.256-.385,8.639-.444,12.965,0,.021.029.042.114.156" transform="translate(0.754 6.424)" fill="#232323"/>
      <path id="Trazado_779108" data-name="Trazado 779108" d="M35.954,78.289a18.37,18.37,0,1,1,18.3-18.474,18.444,18.444,0,0,1-18.3,18.474M35.835,73A13.08,13.08,0,1,0,22.842,59.943,13.074,13.074,0,0,0,35.835,73" transform="translate(1.5 3.561)" fill="#232323"/>
      <path id="Trazado_779109" data-name="Trazado 779109" d="M58.66,281.387c-.163.452-.263.807-.417,1.137-.707,1.507-1.442,3-2.142,4.51a4.324,4.324,0,0,0,2.554,6.208c1.592.6,3.183,1.2,4.806,1.713a1.7,1.7,0,0,1,1.373,1.758c.013,2.069.009,4.139,0,6.208a1.707,1.707,0,0,1-1.382,1.754c-1.585.506-3.142,1.1-4.7,1.674A4.322,4.322,0,0,0,56.11,312.6c.691,1.513,1.4,3.019,2.146,4.508a1.845,1.845,0,0,1-.264,2.341c-1.427,1.448-2.859,2.89-4.311,4.315a1.777,1.777,0,0,1-2.239.29c-1.521-.761-3.064-1.482-4.609-2.2a4.321,4.321,0,0,0-6.208,2.543c-.6,1.593-1.171,3.2-1.7,4.813a1.746,1.746,0,0,1-1.765,1.391q-3.106.021-6.21,0a1.741,1.741,0,0,1-1.759-1.4c-.5-1.547-1.067-3.075-1.621-4.6-1.061-2.929-3.59-3.992-6.4-2.689-1.478.685-2.96,1.357-4.408,2.1a1.828,1.828,0,0,1-2.336-.258q-2.142-2.093-4.244-4.224a1.962,1.962,0,0,1-.277-2.533c.73-1.413,1.386-2.862,2.06-4.3,1.291-2.759.271-5.257-2.606-6.342-1.557-.587-3.118-1.17-4.7-1.676A1.685,1.685,0,0,1,3.3,302.912c0-2.105,0-4.209.011-6.314a1.578,1.578,0,0,1,1.254-1.607c1.614-.534,3.209-1.13,4.806-1.715a4.323,4.323,0,0,0,2.639-6.253c-.668-1.483-1.358-2.959-2.106-4.4a1.954,1.954,0,0,1,.293-2.527c1.379-1.392,2.759-2.783,4.156-4.156a1.889,1.889,0,0,1,2.428-.321c1.444.747,2.932,1.413,4.406,2.1a4.353,4.353,0,0,0,6.354-2.6c.579-1.559,1.142-3.127,1.658-4.709a1.743,1.743,0,0,1,1.769-1.385q3.1-.02,6.21,0a1.677,1.677,0,0,1,1.713,1.3c.521,1.581,1.091,3.145,1.663,4.708,1.1,2.981,3.615,4,6.5,2.643,1.473-.693,2.953-1.368,4.409-2.1a1.706,1.706,0,0,1,2.145.234c1.5,1.473,2.993,2.964,4.452,4.482a4.679,4.679,0,0,1,.606,1.1M22.981,318.415a6.708,6.708,0,0,1,5.7,2.4,17,17,0,0,1,2.054,4c1.268,3.291,1.22,3.329,4.814,2.924a1.465,1.465,0,0,0,.989-.752c.547-1.293.94-2.649,1.46-3.954a7.026,7.026,0,0,1,7.913-4.487,14.1,14.1,0,0,1,3.321,1.191c3.232,1.488,3.2,1.5,5.6-1.16a1.079,1.079,0,0,0,.17-1.444c-.608-1.185-1.181-2.389-1.708-3.611a7.232,7.232,0,0,1,4.141-9.838c1.209-.461,2.424-.919,3.661-1.3.672-.206.981-.521.939-1.247a22.488,22.488,0,0,1,0-2.664c.042-.727-.27-1.044-.939-1.252-1.272-.394-2.525-.851-3.767-1.328a6.842,6.842,0,0,1-4.61-6.78,14.075,14.075,0,0,1,1.3-4.521c1.407-3.266,1.472-3.239-1.239-5.583-.028-.024-.05-.068-.08-.073-.387-.053-.836-.251-1.149-.122-1.23.5-2.409,1.135-3.625,1.681a7.171,7.171,0,0,1-9.011-2.279,15.4,15.4,0,0,1-1.556-3.412c-1.229-3.317-1.232-3.359-4.8-2.941a1.47,1.47,0,0,0-.986.758c-.559,1.327-.965,2.719-1.5,4.055a6.862,6.862,0,0,1-7.754,4.372,31.865,31.865,0,0,1-5.638-2.232c-.543-.233-.924-.3-1.359.184-.671.739-1.379,1.447-2.114,2.123a.9.9,0,0,0-.156,1.254c.617,1.221,1.215,2.456,1.761,3.71a7.139,7.139,0,0,1-2.3,8.826,14.254,14.254,0,0,1-3.3,1.524c-3.266,1.207-3.254,1.182-3.144,4.7a1.149,1.149,0,0,0,.952,1.247c1.2.368,2.379.818,3.557,1.254a6.839,6.839,0,0,1,4.786,7.3,19.948,19.948,0,0,1-1.788,5.186c-.808,1.928-.873,1.9.633,3.406,1.655,1.652,1.645,1.632,3.772.62,1.7-.808,3.344-1.8,5.006-1.749" transform="translate(0.282 23.055)" fill="#232323"/>
      <path id="Trazado_779110" data-name="Trazado 779110" d="M70.946,291.687a32.506,32.506,0,0,1,3.9,1.622c1.205.651,1.623-.187,2.281-.759A1.467,1.467,0,0,0,77.6,290.5a14.827,14.827,0,0,1-1.549-4.562,5.559,5.559,0,0,1,3.778-5.794c.928-.368,1.9-.637,2.8-1.052a1.342,1.342,0,0,0,.684-.908c.2-2.318.159-2.288-2.01-3.109a12.621,12.621,0,0,1-3.081-1.469,5.9,5.9,0,0,1-1.75-7.1c.371-.887.786-1.76,1.238-2.608a1,1,0,0,0-.17-1.358c-1.55-1.643-1.519-1.638-3.578-.695a12.956,12.956,0,0,1-2.893,1.072,5.847,5.847,0,0,1-6.6-3.689c-.3-.755-.524-1.544-.845-2.291-.189-.441-.445-1.13-.763-1.187a10.29,10.29,0,0,0-2.639.029c-.14.012-.274.406-.362.642-.321.866-.607,1.747-.935,2.611a6,6,0,0,1-8.182,3.468c-.714-.3-1.4-.676-2.115-.977-.426-.179-1.071-.535-1.293-.371a12.188,12.188,0,0,0-1.935,1.959c-.09.1.089.477.192.7.413.91.882,1.795,1.262,2.718a6,6,0,0,1-3.4,8.044,10.68,10.68,0,0,1-1.791.582,1.284,1.284,0,0,1-1.648-.937,1.386,1.386,0,0,1,.833-1.823c.477-.2.983-.334,1.459-.534a3.064,3.064,0,0,0,1.757-4.354c-.522-1.184-1.067-2.361-1.665-3.509a1.874,1.874,0,0,1,.312-2.427c1.069-1.076,2.137-2.154,3.221-3.214a1.824,1.824,0,0,1,2.334-.3c1.148.6,2.322,1.145,3.5,1.674a3.074,3.074,0,0,0,4.421-1.794c.5-1.275.929-2.575,1.371-3.871a1.624,1.624,0,0,1,1.643-1.237c1.664-.009,3.328-.014,4.992.009a1.556,1.556,0,0,1,1.55,1.192c.411,1.228.847,2.447,1.3,3.662.825,2.239,2.537,2.957,4.68,1.965,1.141-.529,2.279-1.067,3.4-1.632a1.754,1.754,0,0,1,2.232.313q1.686,1.686,3.36,3.382a1.72,1.72,0,0,1,.256,2.146c-.567,1.165-1.124,2.334-1.659,3.513a3.1,3.1,0,0,0,1.887,4.549c1.249.466,2.55.807,3.748,1.374a2.16,2.16,0,0,1,1.145,1.4c.147,1.725.086,3.469.062,5.206a1.556,1.556,0,0,1-1.217,1.53c-1.264.42-2.521.863-3.764,1.34a3.079,3.079,0,0,0-1.849,4.56c.524,1.144,1.061,2.283,1.62,3.41a1.854,1.854,0,0,1-.309,2.34c-1.092,1.105-2.186,2.209-3.3,3.294a1.726,1.726,0,0,1-2.143.3c-1.162-.57-2.334-1.12-3.51-1.664a3.1,3.1,0,0,0-4.581,1.815c-.109.275-.205.555-.312.831a1.4,1.4,0,0,1-1.859.949A1.377,1.377,0,0,1,64,296.846c.519-3.006,3.073-5.171,6.949-5.159" transform="translate(3.422 21.668)" fill="#232323"/>
      <path id="Trazado_779111" data-name="Trazado 779111" d="M74.037,276.466a13.109,13.109,0,0,1-17.064,12.526,2.417,2.417,0,0,1-1.367-.821,2.007,2.007,0,0,1,.024-1.63c.366-.718,1.117-.723,1.857-.466a10.071,10.071,0,0,0,6.539.1,10.214,10.214,0,1,0-12.185-14.412c-.778,1.506-1.456,1.918-2.383,1.455-.907-.454-.975-1.447-.2-2.916a13.218,13.218,0,0,1,14.985-6.582,13.083,13.083,0,0,1,9.8,12.749" transform="translate(4.176 22.566)" fill="#232323"/>
      <path id="Trazado_779112" data-name="Trazado 779112" d="M16.617,298.729A16.3,16.3,0,1,1,32.835,315a16.27,16.27,0,0,1-16.218-16.271m29.691-.071a13.388,13.388,0,1,0-13.435,13.411,13.453,13.453,0,0,0,13.435-13.411" transform="translate(1.424 24.197)" fill="#232323"/>
      <line id="Línea_290" data-name="Línea 290" y2="348.242" transform="translate(154.49 22.181)" fill="none" stroke="#e01650" stroke-miterlimit="10" stroke-width="4" stroke-dasharray="12 12"/>
      <line id="Línea_291" data-name="Línea 291" y2="348.242" transform="translate(326.772 22.181)" fill="none" stroke="#e01650" stroke-miterlimit="10" stroke-width="4" stroke-dasharray="12 12"/>
      <path id="Trazado_779113" data-name="Trazado 779113" d="M380.808,216.361a40.152,40.152,0,1,1,40.174-40.046,40.138,40.138,0,0,1-40.174,40.046M344.881,176.5a35.947,35.947,0,1,0,36.145-36.238A35.944,35.944,0,0,0,344.881,176.5" transform="translate(29.197 11.661)" fill="#232323"/>
      <path id="Trazado_779114" data-name="Trazado 779114" d="M396.606,208.391A44.34,44.34,0,0,0,413,191.984c.427.416.809.781,1.182,1.154q5.9,5.9,11.8,11.8,4.614,4.617,9.22,9.239c1.052,1.054,2.112,2.1,3.145,3.175a11.193,11.193,0,0,1,3.2,8,11.636,11.636,0,0,1-20.124,7.9q-7.029-7.05-14.076-14.086-5.073-5.075-10.148-10.15c-.182-.181-.356-.371-.6-.625m6.487.734c.451.384.839.673,1.178,1.012q4.435,4.426,8.854,8.867c3.811,3.811,7.643,7.6,11.438,11.43a7.412,7.412,0,0,0,10.753-10.206c-2.167-2.313-4.47-4.5-6.713-6.738q-5.446-5.438-10.892-10.873c-1.32-1.32-2.63-2.652-4-4.036a47.231,47.231,0,0,1-10.618,10.543" transform="translate(33.991 16.454)" fill="#232323"/>
      <path id="Trazado_779115" data-name="Trazado 779115" d="M360.848,193.648a4.9,4.9,0,0,1-.063-.56c0-2.151-.03-4.3,0-6.451a14.77,14.77,0,0,1,4.507-10.626A17.048,17.048,0,0,1,372.419,172a2.609,2.609,0,0,1,3.138.684,5.094,5.094,0,0,0,2.7,1.674,5.033,5.033,0,0,0,4.636-1.189c.586-.515,1.182-1.019,1.789-1.508a.57.57,0,0,1,.453-.119,31.949,31.949,0,0,1,5.52,2.255,13.975,13.975,0,0,1,6.857,9.63c.569,2.7.342,5.421.388,8.136.023,1.4.005,2.8.007,4.207v.634h-.718q-7.907-.011-15.814-.022c-5.722,0-11.444.015-17.166.016a4.1,4.1,0,0,1-.695-.118q-1.331-1.316-2.663-2.631m3.571-.775h29.321c.087,0,.175-.008.261,0,.3.033.388-.116.383-.4-.037-2.232.008-4.468-.114-6.7a10.881,10.881,0,0,0-2.284-6.3,12.464,12.464,0,0,0-5.659-3.811,1.059,1.059,0,0,0-1.238.229,8.289,8.289,0,0,1-7.351,1.949,8.583,8.583,0,0,1-4.026-2.051.888.888,0,0,0-.67-.232,11.276,11.276,0,0,0-8.4,8.555c-.688,2.839-.257,5.763-.3,8.65,0,.014.02.028.076.1" transform="translate(30.92 14.701)" fill="#232323"/>
      <path id="Trazado_779116" data-name="Trazado 779116" d="M378.886,173.752a12.257,12.257,0,1,1,12.209-12.326,12.306,12.306,0,0,1-12.209,12.326m-.079-3.53a8.727,8.727,0,1,0-8.669-8.711,8.723,8.723,0,0,0,8.669,8.711" transform="translate(31.417 12.79)" fill="#232323"/>
      <path id="Trazado_779117" data-name="Trazado 779117" d="M408.248,184.534H397.07L396.256,181h8.53c.008-1.672.186-3.307-.561-4.837a4.677,4.677,0,0,0-2.733-2.34.593.593,0,0,0-.455.094,5.34,5.34,0,0,1-6.322,0,.707.707,0,0,0-.595-.059c-.588.281-1.149.62-1.738.949l-2.7-2.127a8.644,8.644,0,0,1,3.6-2.283,6.575,6.575,0,0,0,1.089-.337,1.238,1.238,0,0,1,1.709.366,4.125,4.125,0,0,0,.749.642,1.75,1.75,0,0,0,2.212-.075c.418-.338.807-.711,1.23-1.041a.64.64,0,0,1,.5-.15,15.736,15.736,0,0,1,4.356,2.039,7.858,7.858,0,0,1,3.09,5.785c.153,2.227.076,4.47.1,6.706a.944.944,0,0,1-.063.205" transform="translate(33.398 14.551)" fill="#232323"/>
      <path id="Trazado_779118" data-name="Trazado 779118" d="M397.756,155.951a7.228,7.228,0,0,1-.008,14.456,7.228,7.228,0,1,1,.008-14.456m3.672,7.246a3.7,3.7,0,0,0-7.394-.054,3.7,3.7,0,1,0,7.394.054" transform="translate(33.468 13.366)" fill="#232323"/>
      <path id="Trazado_779119" data-name="Trazado 779119" d="M365.674,163.16a7.223,7.223,0,1,1-7.218-7.218,7.3,7.3,0,0,1,7.218,7.218m-3.533-.01a3.692,3.692,0,1,0-7.383.1,3.692,3.692,0,0,0,7.383-.1" transform="translate(30.102 13.365)" fill="#232323"/>
      <path id="Trazado_779120" data-name="Trazado 779120" d="M348.29,180.16a10.079,10.079,0,0,1,.4-4.407,7.952,7.952,0,0,1,4.673-5.063c.745-.326,1.515-.6,2.285-.853a.745.745,0,0,1,.584.111c.446.327.849.713,1.282,1.06a1.68,1.68,0,0,0,2.157.051,14.369,14.369,0,0,0,1.236-1.033.593.593,0,0,1,.689-.16c.748.269,1.52.476,2.263.758a8.419,8.419,0,0,1,2.977,2.049l-2.707,2.137c-.525-.3-1.06-.616-1.6-.922a.672.672,0,0,0-.8.052,5.291,5.291,0,0,1-6.228-.007.753.753,0,0,0-.595-.06,4.662,4.662,0,0,0-3.137,4.314c-.072.91-.012,1.829-.012,2.8h8.505c-.279,1.191-.544,2.326-.828,3.545h-2.315c-1.388,0-2.775,0-4.161,0a1.706,1.706,0,0,1-.346-.076l-4.323-4.293" transform="translate(29.842 14.554)" fill="#232323"/>
      <path id="Trazado_779121" data-name="Trazado 779121" d="M348.289,179.343l4.323,4.293a5.745,5.745,0,0,1-.649.077c-1.226.007-2.452,0-3.743,0,0-1.151-.005-2.253,0-3.356,0-.339.043-.679.066-1.017" transform="translate(29.844 15.37)" fill="#232323"/>
      <path id="Trazado_779122" data-name="Trazado 779122" d="M360.842,191.9l2.664,2.631a3.906,3.906,0,0,1-.631.118c-.674.015-1.348.005-2.034.005Z" transform="translate(30.926 16.447)" fill="#232323"/>
      <line id="Línea_292" data-name="Línea 292" y2="348.242" transform="translate(499.054 22.181)" fill="none" stroke="#e01650" stroke-miterlimit="10" stroke-width="4" stroke-dasharray="12 12"/>
      <line id="Línea_293" data-name="Línea 293" y2="348.242" transform="translate(805.104 22.181)" fill="none" stroke="#e01650" stroke-miterlimit="10" stroke-width="4" stroke-dasharray="12 12"/>
      <line id="Línea_294" data-name="Línea 294" y2="348.242" transform="translate(662.171 22.181)" fill="none" stroke="#e01650" stroke-miterlimit="10" stroke-width="4" stroke-dasharray="12 12"/>
      <path id="Trazado_779123" data-name="Trazado 779123" d="M92.95,65.324h30.418V314.77H87.707" transform="translate(7.517 5.599)" fill="none" stroke="#232323" stroke-miterlimit="10" stroke-width="4"/>
      <path id="Trazado_779124" data-name="Trazado 779124" d="M656.483,314.77H626.064V65.324h35.662" transform="translate(53.656 5.599)" fill="none" stroke="#232323" stroke-miterlimit="10" stroke-width="4"/>
      <line id="Línea_295" data-name="Línea 295" x2="73.954" transform="translate(105.673 196.901)" fill="none" stroke="#232323" stroke-miterlimit="10" stroke-width="4"/>
      <line id="Línea_296" data-name="Línea 296" x2="25.598" transform="translate(654.123 196.901)" fill="none" stroke="#232323" stroke-miterlimit="10" stroke-width="4"/>
      <path id="Trazado_779125" data-name="Trazado 779125" d="M160.942,190.752l8.759-8.759-8.759-8.759Z" transform="translate(13.793 14.847)" fill="#232323"/>
      <line id="Línea_297" data-name="Línea 297" x2="73.954" transform="translate(287.861 196.901)" fill="none" stroke="#232323" stroke-miterlimit="10" stroke-width="4"/>
      <path id="Trazado_779126" data-name="Trazado 779126" d="M328.748,190.752l8.759-8.759-8.759-8.759Z" transform="translate(28.175 14.847)" fill="#232323"/>
      <line id="Línea_298" data-name="Línea 298" x2="36.977" transform="translate(806.445 321.537)" fill="none" stroke="#232323" stroke-miterlimit="10" stroke-width="4"/>
      <path id="Trazado_779127" data-name="Trazado 779127" d="M772.337,305.55l8.759-8.759-8.759-8.759Z" transform="translate(66.193 24.685)" fill="#232323"/>
      <line id="Línea_299" data-name="Línea 299" x2="36.977" transform="translate(806.445 75.76)" fill="none" stroke="#232323" stroke-miterlimit="10" stroke-width="4"/>
      <path id="Trazado_779128" data-name="Trazado 779128" d="M772.337,79.175l8.759-8.759-8.759-8.759Z" transform="translate(66.193 5.284)" fill="#232323"/>
      <line id="Línea_300" data-name="Línea 300" x2="36.977" transform="translate(913.79 75.76)" fill="none" stroke="#232323" stroke-miterlimit="10" stroke-width="4"/>
      <path id="Trazado_779129" data-name="Trazado 779129" d="M871.209,79.175l8.759-8.759-8.759-8.759Z" transform="translate(74.666 5.284)" fill="#232323"/>
      <path id="Trazado_779130" data-name="Trazado 779130" d="M505.708,220.658c-.116-.071-.226-.191-.349-.206-.912-.114-1.836-.16-2.739-.319a26.218,26.218,0,0,1-2.7-.659,32.527,32.527,0,0,1-3.569-1.146,29.9,29.9,0,0,1-3.79-1.931c-1.383-.831-2.683-1.8-4.023-2.7a21.744,21.744,0,0,1-5.013-4.825c-1.181-1.531-2.138-3.233-3.259-4.814a19.928,19.928,0,0,1-2.663-6.132c-.415-1.426-.713-2.886-1.025-4.338a25.846,25.846,0,0,1-.416-7.58,36.738,36.738,0,0,1,.937-5.458,37.526,37.526,0,0,1,1.566-5.034,33.479,33.479,0,0,1,4.1-6.81,23.775,23.775,0,0,1,4.844-5.158,54.061,54.061,0,0,1,4.628-3.2,29.359,29.359,0,0,1,3.829-1.991,27.957,27.957,0,0,1,3.6-1.211,22.586,22.586,0,0,1,4.045-.933c2.425-.212,4.869-.264,7.306-.257a16.873,16.873,0,0,1,3.531.469,42.1,42.1,0,0,1,4.282,1.187,23.525,23.525,0,0,1,3.914,1.569,52.133,52.133,0,0,1,5.209,3.3,28.059,28.059,0,0,1,3.865,3.26,34.5,34.5,0,0,1,4.9,6.711c.294.506.595,1.009.911,1.5a.447.447,0,0,0,.3.151,5.33,5.33,0,0,0,.632.012q29.294,0,58.588,0a3.8,3.8,0,0,1,3.429,1.709q1.951,2.982,3.851,6c.873,1.385,1.665,2.823,2.564,4.191a4.05,4.05,0,0,1-.1,4.751c-1.667,2.66-3.3,5.344-4.99,7.986a20.7,20.7,0,0,1-2.133,2.821,3.055,3.055,0,0,1-2.306.854c-4.323.01-8.647,0-12.97.007a6.028,6.028,0,0,1-2.972-1.11,28.383,28.383,0,0,1-3.16-1.889,2.068,2.068,0,0,0-2.369-.1c-.687.308-1.369.628-2.055.936-1.323.6-2.638,1.218-3.979,1.772a13.1,13.1,0,0,1-2.615.866,4.443,4.443,0,0,1-3.284-1.133c-.928-.635-1.854-1.276-2.805-1.876s-1.936-1.179-2.928-1.723a.8.8,0,0,0-.689.065c-1.432.981-2.845,1.991-4.258,3a6.292,6.292,0,0,1-3.909,1.211c-3.711-.064-7.423-.01-11.135-.036a.938.938,0,0,0-.914.52c-1.1,1.712-2.238,3.4-3.343,5.1a21.167,21.167,0,0,1-4.917,5.166,49.146,49.146,0,0,1-4.411,3,31.438,31.438,0,0,1-3.822,1.991,26.8,26.8,0,0,1-3.538,1.2c-1.333.373-2.69.667-4.047.95-.469.1-.967.04-1.448.093a2.657,2.657,0,0,0-.6.22Zm84.625-25.947c1.519,0,3.037-.016,4.556.011a.8.8,0,0,0,.777-.464q.739-1.251,1.491-2.5c.642-1.06,1.3-2.108,1.923-3.18a.733.733,0,0,0-.015-.623c-1.092-1.824-2.245-3.611-3.3-5.457a1.17,1.17,0,0,0-1.208-.686q-19.17.023-38.342.011-10.564,0-21.131,0a3.612,3.612,0,0,1-3.451-2.283,30.163,30.163,0,0,0-3.166-5.79,32.988,32.988,0,0,0-6.18-6.018,24.181,24.181,0,0,0-3.6-1.911,21.845,21.845,0,0,0-8.265-2.161,38.833,38.833,0,0,0-4.773.154,14.586,14.586,0,0,0-4.9,1.046,48.862,48.862,0,0,0-4.948,2.224,22.646,22.646,0,0,0-3.012,2.2,26.737,26.737,0,0,0-4.869,5.248,25.916,25.916,0,0,0-1.9,3.6,21.106,21.106,0,0,0-2.138,8.009,38.923,38.923,0,0,0,.141,4.96,14.587,14.587,0,0,0,1.042,4.9,49.293,49.293,0,0,0,2.176,4.915,17.812,17.812,0,0,0,2.177,2.935,24.224,24.224,0,0,0,6.941,5.911,20.592,20.592,0,0,0,5.307,2.2,40.974,40.974,0,0,0,5,.936,19.54,19.54,0,0,0,6.5-.43c1.236-.3,2.479-.6,3.681-1.009a21.755,21.755,0,0,0,6.05-3.145,29.354,29.354,0,0,0,6.08-6.178,22.839,22.839,0,0,0,2.389-4.6,4.181,4.181,0,0,1,3.989-2.834c4.281.065,8.563,0,12.844.037a2.939,2.939,0,0,0,1.956-.688c.883-.694,1.8-1.346,2.724-1.98s1.888-1.188,2.8-1.829a3.691,3.691,0,0,1,4.245-.136c1.237.709,2.4,1.551,3.6,2.317,1.18.75,2.371,1.481,3.564,2.208a.534.534,0,0,0,.405.066c.7-.275,1.389-.571,2.076-.872q2.006-.879,4.006-1.771c.686-.305,1.355-.655,2.055-.922a4.065,4.065,0,0,1,3.336-.072c1.06.523,2.055,1.176,3.081,1.766.651.376,1.307.744,1.962,1.113a4.589,4.589,0,0,0,2.713.8c1.194-.1,2.4-.023,3.6-.023" transform="translate(40.8 13.366)" fill="#232323"/>
      <path id="Trazado_779131" data-name="Trazado 779131" d="M512.784,186.638c.264,6.2-5.509,11.454-11.451,11.262-6.45-.208-11.271-5-11.223-11.38a11.2,11.2,0,0,1,11.4-11.2c5.894-.1,11.557,5.185,11.271,11.323m-7.724-.052a3.486,3.486,0,0,0-3.665-3.544,3.566,3.566,0,1,0,.047,7.132,3.473,3.473,0,0,0,3.619-3.588" transform="translate(42.004 15.025)" fill="#232323"/>
      <path id="Trazado_779132" data-name="Trazado 779132" d="M704.982,101.97c-6.135,0-12.272.013-18.407,0-3.953-.012-5.6-1.647-5.607-5.605q-.024-14.774.005-29.546c.007-4,1.511-5.592,5.515-5.67,1.419-.027,1.834-.5,1.821-1.877A97.153,97.153,0,0,1,688.492,49a15.522,15.522,0,0,1,10.4-13.724,16.53,16.53,0,0,1,22.557,15.08c.051,2.925.075,5.853-.01,8.777-.042,1.447.371,2,1.911,2.016,3.956.051,5.406,1.595,5.409,5.49q.013,14.88,0,29.759c0,3.99-1.568,5.554-5.587,5.57-6.064.022-12.128.005-18.193,0m-.034-36.28c-5.279,0-10.558-.013-15.837.005-2.764.01-3.536.783-3.544,3.6q-.029,12.31,0,24.621c.008,2.63.87,3.533,3.437,3.538q15.838.034,31.675,0c2.758-.007,3.481-.806,3.485-3.645q.018-12.309.005-24.619c0-2.786-.733-3.487-3.6-3.493q-7.812-.016-15.624,0m-.227-4.576c3.285,0,6.576-.114,9.853.043,1.962.093,2.453-.625,2.349-2.456-.143-2.563-.018-5.142-.039-7.713-.054-6.846-5.121-12.146-11.709-12.264a11.994,11.994,0,0,0-12.283,11.928c-.1,2.854.045,5.717-.059,8.571-.056,1.57.612,1.942,2.032,1.911,3.283-.072,6.57-.023,9.855-.02" transform="translate(58.361 2.917)" fill="#232323"/>
      <path id="Trazado_779133" data-name="Trazado 779133" d="M701.139,82.067a4.515,4.515,0,0,0-1.548-4.183c-1.866-1.8-1.536-4.943.319-6.743a5.024,5.024,0,0,1,6.8-.178c1.96,1.72,2.511,4.9.668,6.693-1.622,1.58-1.744,3.25-1.648,5.179.024.5,0,1,0,1.5-.012,1.614-.533,2.887-2.4,2.839-1.746-.045-2.213-1.276-2.193-2.8.008-.641,0-1.282,0-2.3" transform="translate(59.851 5.976)" fill="#232323"/>
      <path id="Trazado_779134" data-name="Trazado 779134" d="M681.022,299.993c0-5-.01-10,0-15,.01-3.875,1.538-5.527,5.383-5.575,1.5-.018,1.954-.49,1.948-1.977a83.362,83.362,0,0,1,.291-11.118A16.212,16.212,0,0,1,703.6,252.441c8.206-.461,15.232,4.431,17.3,12.1a5.439,5.439,0,0,1,.167,2.711,2.247,2.247,0,0,1-1.593,1.385,4.51,4.51,0,0,1-2.366-.983c-.327-.224-.368-.9-.5-1.376a11.966,11.966,0,0,0-23.6,1.8c-.25,3.267-.051,6.567-.105,9.852-.028,1.761,1.217,1.432,2.232,1.433q13.818.02,27.637.01c4.57,0,6.046,1.446,6.055,5.994q.028,14.678,0,29.359c0,3.941-1.692,5.474-5.68,5.485-4.691.012-9.383.228-14.073.219-7.056-.014-14.113-.232-21.169-.181-2.367.017-4.607.115-6.054-2.115a5.109,5.109,0,0,1-.89-2.52c-.08-5.207-.04-10.417-.04-15.625h.106m24.056-16.034c-5.354,0-10.707-.013-16.061.005-2.536.009-3.4.814-3.4,3.294q-.039,12.532,0,25.063c.006,2.483.89,3.388,3.355,3.394q15.924.034,31.846,0c2.609-.007,3.417-.87,3.42-3.522q.016-12.318,0-24.635c-.005-2.9-.738-3.591-3.732-3.6q-7.71-.013-15.419,0" transform="translate(58.357 21.633)" fill="#232323"/>
      <path id="Trazado_779135" data-name="Trazado 779135" d="M708.457,293.647c-.2.48-.329,1.821-1.052,2.349-2,1.464-1.63,3.431-1.683,5.385-.047,1.721.427,3.826-2.236,4.061-1.707.15-2.3-.943-2.3-3.954,0-2.03.19-3.93-1.744-5.576-1.637-1.393-1.346-4.12-.022-5.906a4.99,4.99,0,0,1,5.526-1.764c2.129.689,3.539,2.625,3.514,5.406" transform="translate(59.848 24.683)" fill="#232323"/>
    </g>
  </g>
  <path id="Trazado_838163" data-name="Trazado 838163" d="M1.016,0V-11.375H5a5.232,5.232,0,0,1,3.141.793,2.712,2.712,0,0,1,1.07,2.324,2.57,2.57,0,0,1-.43,1.473,2.482,2.482,0,0,1-1.2.934,2.4,2.4,0,0,1,1.379.883,2.61,2.61,0,0,1,.5,1.625A3,3,0,0,1,8.422-.859,4.713,4.713,0,0,1,5.438,0ZM3.359-4.953v3.07H5.367A1.938,1.938,0,0,0,6.66-2.277a1.353,1.353,0,0,0,.465-1.09A1.428,1.428,0,0,0,5.508-4.953Zm0-1.656H5.094q1.773-.031,1.773-1.414a1.307,1.307,0,0,0-.449-1.113A2.363,2.363,0,0,0,5-9.477H3.359ZM13.461,0H11.2V-12h2.266Zm1.508-4.3a5.013,5.013,0,0,1,.484-2.242A3.546,3.546,0,0,1,16.848-8.07a4.069,4.069,0,0,1,2.113-.539,3.849,3.849,0,0,1,2.793,1.047,4.2,4.2,0,0,1,1.207,2.844l.016.578A4.418,4.418,0,0,1,21.891-1.02,3.775,3.775,0,0,1,18.977.156a3.793,3.793,0,0,1-2.918-1.172A4.5,4.5,0,0,1,14.969-4.2Zm2.258.16A3.16,3.16,0,0,0,17.68-2.3a1.5,1.5,0,0,0,1.3.638,1.5,1.5,0,0,0,1.281-.63,3.457,3.457,0,0,0,.461-2.015,3.128,3.128,0,0,0-.461-1.831,1.5,1.5,0,0,0-1.3-.649,1.474,1.474,0,0,0-1.281.646A3.516,3.516,0,0,0,17.227-4.144Zm6.789-.16A5.053,5.053,0,0,1,24.9-7.453a2.9,2.9,0,0,1,2.434-1.156A2.6,2.6,0,0,1,29.5-7.57l.148-.883h1.984V3.25H29.367V-.727A2.6,2.6,0,0,1,27.32.156a2.878,2.878,0,0,1-2.406-1.172A5.3,5.3,0,0,1,24.016-4.3Zm2.258.16A3.315,3.315,0,0,0,26.7-2.3a1.363,1.363,0,0,0,1.2.634,1.518,1.518,0,0,0,1.469-.829v-3.5a1.506,1.506,0,0,0-1.453-.8,1.38,1.38,0,0,0-1.211.634A3.661,3.661,0,0,0,26.273-4.144Zm12.2,3.285A2.831,2.831,0,0,1,36.156.156a2.67,2.67,0,0,1-2.074-.781,3.335,3.335,0,0,1-.73-2.289V-8.453h2.258v5.467q0,1.322,1.2,1.322a1.63,1.63,0,0,0,1.578-.8V-8.453h2.266V0H38.531ZM46.25.156A4.15,4.15,0,0,1,43.223-.984a4.054,4.054,0,0,1-1.168-3.039v-.219a5.106,5.106,0,0,1,.492-2.277,3.612,3.612,0,0,1,1.395-1.547A3.914,3.914,0,0,1,46-8.609a3.508,3.508,0,0,1,2.73,1.094,4.444,4.444,0,0,1,1,3.1v.922H44.344A2.1,2.1,0,0,0,45-2.164a2,2,0,0,0,1.395.5,2.437,2.437,0,0,0,2.039-.945l1.109,1.242A3.389,3.389,0,0,1,48.172-.246,4.511,4.511,0,0,1,46.25.156Zm-.258-6.945a1.411,1.411,0,0,0-1.09.455,2.357,2.357,0,0,0-.535,1.3h3.141v-.181A1.681,1.681,0,0,0,47.1-6.377,1.456,1.456,0,0,0,45.992-6.789ZM55.906,0a2.507,2.507,0,0,1-.227-.758,2.732,2.732,0,0,1-2.133.914,3,3,0,0,1-2.059-.719,2.312,2.312,0,0,1-.816-1.812,2.389,2.389,0,0,1,1-2.062,4.915,4.915,0,0,1,2.879-.727h1.039v-.484a1.393,1.393,0,0,0-.3-.937,1.183,1.183,0,0,0-.949-.352,1.345,1.345,0,0,0-.895.273.929.929,0,0,0-.324.75H50.859a2.268,2.268,0,0,1,.453-1.359,3,3,0,0,1,1.281-.98,4.669,4.669,0,0,1,1.859-.355,3.689,3.689,0,0,1,2.48.785,2.747,2.747,0,0,1,.918,2.207v3.664a4.041,4.041,0,0,0,.336,1.82V0ZM54.039-1.57a1.945,1.945,0,0,0,.922-.223,1.462,1.462,0,0,0,.625-.6V-3.844h-.844q-1.7,0-1.8,1.172l-.008.133a.9.9,0,0,0,.3.7A1.153,1.153,0,0,0,54.039-1.57Z" transform="translate(733.041 125.294)"/>
  <g id="Grupo_1083483" data-name="Grupo 1083483">
    <g id="Grupo_1083482" data-name="Grupo 1083482" clip-path="url(#clip-path)">
      <text id="Identificación" transform="translate(371.598 18.381)" font-size="16" font-family="Roboto-Bold, Roboto" font-weight="700"><tspan x="0" y="0">Identificación</tspan></text>
      <text id="Autenticación" transform="translate(543.444 18.381)" font-size="16" font-family="Roboto-Bold, Roboto" font-weight="700"><tspan x="0" y="0" letter-spacing="-0.005em">A</tspan><tspan y="0">utenticación</tspan></text>
      <text id="Autorización" transform="translate(697.557 18.381)" font-size="16" font-family="Roboto-Bold, Roboto" font-weight="700"><tspan x="0" y="0" letter-spacing="-0.005em">A</tspan><tspan y="0">u</tspan><tspan y="0" letter-spacing="-0.014em">t</tspan><tspan y="0">orización</tspan></text>
    </g>
  </g>
  <path id="Trazado_838164" data-name="Trazado 838164" d="M7.438-2.344H3.328L2.547,0H.055L4.289-11.375H6.461L10.719,0H8.227Zm-3.477-1.9H6.8L5.375-8.5ZM16.615-.859A2.831,2.831,0,0,1,14.3.156a2.67,2.67,0,0,1-2.074-.781,3.335,3.335,0,0,1-.73-2.289V-8.453h2.258v5.467q0,1.322,1.2,1.322a1.63,1.63,0,0,0,1.578-.8V-8.453H18.8V0H16.678Zm6.594-9.672v2.078h1.445V-6.8H23.209v4.219a1.007,1.007,0,0,0,.18.672.9.9,0,0,0,.688.2,3.6,3.6,0,0,0,.664-.055V-.047a4.648,4.648,0,0,1-1.367.2,2.156,2.156,0,0,1-2.422-2.4V-6.8H19.717V-8.453h1.234v-2.078ZM25.086-4.3a5.013,5.013,0,0,1,.484-2.242A3.546,3.546,0,0,1,26.965-8.07a4.069,4.069,0,0,1,2.113-.539,3.849,3.849,0,0,1,2.793,1.047,4.2,4.2,0,0,1,1.207,2.844l.016.578A4.418,4.418,0,0,1,32.008-1.02,3.775,3.775,0,0,1,29.094.156a3.793,3.793,0,0,1-2.918-1.172A4.5,4.5,0,0,1,25.086-4.2Zm2.258.16A3.16,3.16,0,0,0,27.8-2.3a1.5,1.5,0,0,0,1.3.638,1.5,1.5,0,0,0,1.281-.63,3.457,3.457,0,0,0,.461-2.015,3.128,3.128,0,0,0-.461-1.831,1.5,1.5,0,0,0-1.3-.649,1.474,1.474,0,0,0-1.281.646A3.516,3.516,0,0,0,27.344-4.144ZM39.235-6.336a6.134,6.134,0,0,0-.812-.062,1.654,1.654,0,0,0-1.68.867V0H34.485V-8.453h2.133l.063,1.008a2.092,2.092,0,0,1,1.883-1.164,2.366,2.366,0,0,1,.7.1ZM42.7,0H40.438V-8.453H42.7Zm-2.4-10.641a1.112,1.112,0,0,1,.34-.836,1.277,1.277,0,0,1,.926-.328,1.28,1.28,0,0,1,.922.328,1.105,1.105,0,0,1,.344.836,1.108,1.108,0,0,1-.348.844,1.283,1.283,0,0,1-.918.328,1.283,1.283,0,0,1-.918-.328A1.108,1.108,0,0,1,40.305-10.641Zm6.852,8.82h4.133V0H44.274V-1.375L48.25-6.633H44.391v-1.82h6.773v1.33ZM57.6,0a2.507,2.507,0,0,1-.227-.758,2.732,2.732,0,0,1-2.133.914,3,3,0,0,1-2.059-.719,2.312,2.312,0,0,1-.816-1.812,2.389,2.389,0,0,1,1-2.062,4.915,4.915,0,0,1,2.879-.727h1.039v-.484a1.393,1.393,0,0,0-.3-.937,1.183,1.183,0,0,0-.949-.352,1.345,1.345,0,0,0-.895.273.929.929,0,0,0-.324.75H52.555a2.268,2.268,0,0,1,.453-1.359,3,3,0,0,1,1.281-.98,4.669,4.669,0,0,1,1.859-.355,3.689,3.689,0,0,1,2.48.785,2.747,2.747,0,0,1,.918,2.207v3.664a4.041,4.041,0,0,0,.336,1.82V0ZM55.735-1.57a1.945,1.945,0,0,0,.922-.223,1.462,1.462,0,0,0,.625-.6V-3.844h-.844q-1.7,0-1.8,1.172l-.008.133a.9.9,0,0,0,.3.7A1.153,1.153,0,0,0,55.735-1.57Z" transform="translate(733.041 364.048)"/>
  <g id="Grupo_1083485" data-name="Grupo 1083485">
    <g id="Grupo_1083484" data-name="Grupo 1083484" clip-path="url(#clip-path)">
      <path id="Trazado_838165" data-name="Trazado 838165" d="M5.227-4.164H3.359V0H1.016V-11.375H5.242a4.778,4.778,0,0,1,3.109.9A3.1,3.1,0,0,1,9.445-7.937,3.5,3.5,0,0,1,8.941-6,3.437,3.437,0,0,1,7.414-4.758L9.875-.109V0H7.359Zm-1.867-1.9H5.25a1.936,1.936,0,0,0,1.367-.449A1.606,1.606,0,0,0,7.1-7.75a1.719,1.719,0,0,0-.457-1.266,1.9,1.9,0,0,0-1.4-.461H3.359ZM14.969.156A4.15,4.15,0,0,1,11.941-.984a4.054,4.054,0,0,1-1.168-3.039v-.219a5.106,5.106,0,0,1,.492-2.277A3.612,3.612,0,0,1,12.66-8.066a3.914,3.914,0,0,1,2.059-.543,3.508,3.508,0,0,1,2.73,1.094,4.444,4.444,0,0,1,1,3.1v.922H13.063a2.1,2.1,0,0,0,.66,1.328,2,2,0,0,0,1.395.5,2.437,2.437,0,0,0,2.039-.945l1.109,1.242A3.389,3.389,0,0,1,16.891-.246,4.511,4.511,0,0,1,14.969.156Zm-.258-6.945a1.411,1.411,0,0,0-1.09.455,2.357,2.357,0,0,0-.535,1.3h3.141v-.181a1.681,1.681,0,0,0-.406-1.165A1.456,1.456,0,0,0,14.711-6.789Zm8.531,5.125a1.481,1.481,0,0,0,1.016-.344,1.2,1.2,0,0,0,.406-.914h2.117a2.9,2.9,0,0,1-.469,1.574A3.093,3.093,0,0,1,25.051-.238a3.949,3.949,0,0,1-1.77.395A3.67,3.67,0,0,1,20.422-1,4.56,4.56,0,0,1,19.375-4.18v-.148a4.508,4.508,0,0,1,1.039-3.117,3.627,3.627,0,0,1,2.852-1.164,3.555,3.555,0,0,1,2.543.9,3.2,3.2,0,0,1,.973,2.4H24.664a1.551,1.551,0,0,0-.406-1.072,1.354,1.354,0,0,0-1.031-.412,1.36,1.36,0,0,0-1.191.575,3.333,3.333,0,0,0-.4,1.866v.235a3.375,3.375,0,0,0,.4,1.878A1.377,1.377,0,0,0,23.242-1.664Zm9.891.8A2.831,2.831,0,0,1,30.82.156a2.67,2.67,0,0,1-2.074-.781,3.335,3.335,0,0,1-.73-2.289V-8.453h2.258v5.467q0,1.322,1.2,1.322a1.63,1.63,0,0,0,1.578-.8V-8.453H35.32V0H33.2Zm8.641-5.477a6.134,6.134,0,0,0-.812-.062,1.654,1.654,0,0,0-1.68.867V0H37.023V-8.453h2.133l.063,1.008A2.092,2.092,0,0,1,41.1-8.609a2.366,2.366,0,0,1,.7.1Zm5.664,4a.727.727,0,0,0-.41-.652,4.659,4.659,0,0,0-1.316-.426Q42.7-4.047,42.7-5.977a2.323,2.323,0,0,1,.934-1.879,3.766,3.766,0,0,1,2.441-.754,4.053,4.053,0,0,1,2.574.758,2.388,2.388,0,0,1,.965,1.969H47.352a1.092,1.092,0,0,0-.312-.8A1.322,1.322,0,0,0,46.063-7a1.351,1.351,0,0,0-.883.258.814.814,0,0,0-.312.656.7.7,0,0,0,.355.605,3.657,3.657,0,0,0,1.2.4,9.8,9.8,0,0,1,1.422.379A2.336,2.336,0,0,1,49.633-2.43a2.2,2.2,0,0,1-.992,1.871,4.28,4.28,0,0,1-2.562.715,4.47,4.47,0,0,1-1.887-.379A3.166,3.166,0,0,1,42.9-1.262a2.414,2.414,0,0,1-.469-1.426H44.57a1.179,1.179,0,0,0,.445.922,1.766,1.766,0,0,0,1.109.32,1.635,1.635,0,0,0,.98-.246A.766.766,0,0,0,47.438-2.336Zm3.3-1.969a5.013,5.013,0,0,1,.484-2.242A3.546,3.546,0,0,1,52.613-8.07a4.069,4.069,0,0,1,2.113-.539A3.849,3.849,0,0,1,57.52-7.562a4.2,4.2,0,0,1,1.207,2.844l.016.578A4.418,4.418,0,0,1,57.656-1.02,3.775,3.775,0,0,1,54.742.156a3.793,3.793,0,0,1-2.918-1.172A4.5,4.5,0,0,1,50.734-4.2Zm2.258.16A3.16,3.16,0,0,0,53.445-2.3a1.5,1.5,0,0,0,1.3.638,1.5,1.5,0,0,0,1.281-.63,3.457,3.457,0,0,0,.461-2.015,3.128,3.128,0,0,0-.461-1.831,1.5,1.5,0,0,0-1.3-.649,1.474,1.474,0,0,0-1.281.646A3.516,3.516,0,0,0,52.992-4.144ZM64.711-2.336a.727.727,0,0,0-.41-.652,4.659,4.659,0,0,0-1.316-.426q-3.016-.633-3.016-2.562A2.323,2.323,0,0,1,60.9-7.855a3.766,3.766,0,0,1,2.441-.754,4.053,4.053,0,0,1,2.574.758,2.388,2.388,0,0,1,.965,1.969H64.625a1.092,1.092,0,0,0-.312-.8A1.322,1.322,0,0,0,63.336-7a1.351,1.351,0,0,0-.883.258.814.814,0,0,0-.312.656.7.7,0,0,0,.355.605,3.657,3.657,0,0,0,1.2.4,9.8,9.8,0,0,1,1.422.379A2.336,2.336,0,0,1,66.906-2.43a2.2,2.2,0,0,1-.992,1.871,4.28,4.28,0,0,1-2.562.715,4.47,4.47,0,0,1-1.887-.379,3.166,3.166,0,0,1-1.293-1.039A2.414,2.414,0,0,1,59.7-2.687h2.141a1.179,1.179,0,0,0,.445.922,1.766,1.766,0,0,0,1.109.32,1.635,1.635,0,0,0,.98-.246A.766.766,0,0,0,64.711-2.336Z" transform="translate(882.728 366.177)"/>
    </g>
  </g>
  <path id="Trazado_838162" data-name="Trazado 838162" d="M7.438-2.344H3.328L2.547,0H.055L4.289-11.375H6.461L10.719,0H8.227Zm-3.477-1.9H6.8L5.375-8.5ZM14.016,0H11.75V-12h2.266Zm5.75.156A4.15,4.15,0,0,1,16.738-.984,4.054,4.054,0,0,1,15.57-4.023v-.219a5.106,5.106,0,0,1,.492-2.277,3.612,3.612,0,0,1,1.395-1.547,3.914,3.914,0,0,1,2.059-.543,3.508,3.508,0,0,1,2.73,1.094,4.444,4.444,0,0,1,1,3.1v.922H17.859a2.1,2.1,0,0,0,.66,1.328,2,2,0,0,0,1.395.5,2.437,2.437,0,0,0,2.039-.945l1.109,1.242A3.389,3.389,0,0,1,21.688-.246,4.511,4.511,0,0,1,19.766.156Zm-.258-6.945a1.411,1.411,0,0,0-1.09.455,2.357,2.357,0,0,0-.535,1.3h3.141v-.181a1.681,1.681,0,0,0-.406-1.165A1.456,1.456,0,0,0,19.508-6.789Zm9.766.453a6.134,6.134,0,0,0-.812-.062,1.654,1.654,0,0,0-1.68.867V0H24.523V-8.453h2.133l.063,1.008A2.092,2.092,0,0,1,28.6-8.609a2.366,2.366,0,0,1,.7.1Zm4.548-4.2v2.078h1.445V-6.8H33.821v4.219a1.007,1.007,0,0,0,.18.672.9.9,0,0,0,.688.2,3.6,3.6,0,0,0,.664-.055V-.047a4.648,4.648,0,0,1-1.367.2,2.156,2.156,0,0,1-2.422-2.4V-6.8H30.329V-8.453h1.234v-2.078ZM41.423,0A2.507,2.507,0,0,1,41.2-.758a2.732,2.732,0,0,1-2.133.914A3,3,0,0,1,37-.562a2.312,2.312,0,0,1-.816-1.812,2.389,2.389,0,0,1,1-2.062,4.915,4.915,0,0,1,2.879-.727H41.1v-.484a1.393,1.393,0,0,0-.3-.937,1.183,1.183,0,0,0-.949-.352,1.345,1.345,0,0,0-.895.273.929.929,0,0,0-.324.75H36.376a2.268,2.268,0,0,1,.453-1.359,3,3,0,0,1,1.281-.98,4.669,4.669,0,0,1,1.859-.355,3.689,3.689,0,0,1,2.48.785,2.747,2.747,0,0,1,.918,2.207v3.664A4.041,4.041,0,0,0,43.7-.133V0ZM39.556-1.57a1.945,1.945,0,0,0,.922-.223,1.462,1.462,0,0,0,.625-.6V-3.844h-.844q-1.7,0-1.8,1.172l-.008.133a.9.9,0,0,0,.3.7A1.153,1.153,0,0,0,39.556-1.57ZM52.243-3.2l1.563-5.258h2.422l-3.4,9.766-.187.445a2.577,2.577,0,0,1-2.5,1.656,3.552,3.552,0,0,1-1-.148V1.555l.344.008a1.857,1.857,0,0,0,.957-.2,1.283,1.283,0,0,0,.5-.648l.266-.7L48.243-8.453h2.43ZM65.852-6.336A6.134,6.134,0,0,0,65.04-6.4a1.654,1.654,0,0,0-1.68.867V0H61.1V-8.453h2.133L63.3-7.445A2.092,2.092,0,0,1,65.18-8.609a2.366,2.366,0,0,1,.7.1ZM70.68.156A4.15,4.15,0,0,1,67.653-.984a4.054,4.054,0,0,1-1.168-3.039v-.219a5.106,5.106,0,0,1,.492-2.277,3.612,3.612,0,0,1,1.395-1.547,3.914,3.914,0,0,1,2.059-.543,3.508,3.508,0,0,1,2.73,1.094,4.444,4.444,0,0,1,1,3.1v.922H68.774a2.1,2.1,0,0,0,.66,1.328,2,2,0,0,0,1.395.5,2.437,2.437,0,0,0,2.039-.945l1.109,1.242A3.389,3.389,0,0,1,72.6-.246,4.511,4.511,0,0,1,70.68.156Zm-.258-6.945a1.411,1.411,0,0,0-1.09.455,2.357,2.357,0,0,0-.535,1.3h3.141v-.181a1.681,1.681,0,0,0-.406-1.165A1.456,1.456,0,0,0,70.423-6.789ZM83.048-4.148a5.07,5.07,0,0,1-.887,3.129A2.843,2.843,0,0,1,79.766.156,2.633,2.633,0,0,1,77.7-.734V3.25H75.438v-11.7h2.094l.078.828a2.654,2.654,0,0,1,2.141-.984,2.862,2.862,0,0,1,2.43,1.156,5.207,5.207,0,0,1,.867,3.188ZM80.79-4.321a3.345,3.345,0,0,0-.418-1.826,1.36,1.36,0,0,0-1.215-.643,1.478,1.478,0,0,0-1.461.815V-2.5a1.5,1.5,0,0,0,1.477.839Q80.79-1.664,80.79-4.321Zm3.3.016a5.013,5.013,0,0,1,.484-2.242A3.546,3.546,0,0,1,85.973-8.07a4.069,4.069,0,0,1,2.113-.539A3.849,3.849,0,0,1,90.88-7.562a4.2,4.2,0,0,1,1.207,2.844l.016.578A4.418,4.418,0,0,1,91.016-1.02,3.775,3.775,0,0,1,88.1.156a3.793,3.793,0,0,1-2.918-1.172A4.5,4.5,0,0,1,84.095-4.2Zm2.258.16A3.16,3.16,0,0,0,86.805-2.3a1.5,1.5,0,0,0,1.3.638,1.5,1.5,0,0,0,1.281-.63,3.457,3.457,0,0,0,.461-2.015,3.128,3.128,0,0,0-.461-1.831,1.5,1.5,0,0,0-1.3-.649,1.474,1.474,0,0,0-1.281.646A3.516,3.516,0,0,0,86.352-4.144ZM98.243-6.336A6.134,6.134,0,0,0,97.43-6.4a1.654,1.654,0,0,0-1.68.867V0H93.493V-8.453h2.133l.063,1.008a2.092,2.092,0,0,1,1.883-1.164,2.366,2.366,0,0,1,.7.1Zm4.564-4.2v2.078h1.445V-6.8h-1.445v4.219a1.007,1.007,0,0,0,.18.672.9.9,0,0,0,.688.2,3.6,3.6,0,0,0,.664-.055V-.047a4.648,4.648,0,0,1-1.367.2,2.156,2.156,0,0,1-2.422-2.4V-6.8H99.314V-8.453h1.234v-2.078ZM109.4.156a4.15,4.15,0,0,1-3.027-1.141,4.054,4.054,0,0,1-1.168-3.039v-.219A5.106,5.106,0,0,1,105.7-6.52a3.612,3.612,0,0,1,1.395-1.547,3.914,3.914,0,0,1,2.059-.543,3.508,3.508,0,0,1,2.73,1.094,4.444,4.444,0,0,1,1,3.1v.922h-5.383a2.1,2.1,0,0,0,.66,1.328,2,2,0,0,0,1.395.5,2.437,2.437,0,0,0,2.039-.945L112.7-1.367a3.389,3.389,0,0,1-1.375,1.121A4.511,4.511,0,0,1,109.4.156Zm-.258-6.945a1.411,1.411,0,0,0-1.09.455,2.357,2.357,0,0,0-.535,1.3h3.141v-.181a1.681,1.681,0,0,0-.406-1.165A1.456,1.456,0,0,0,109.143-6.789Z" transform="translate(892.585 127.939)"/>
  <g id="Grupo_1083487" data-name="Grupo 1083487">
    <g id="Grupo_1083486" data-name="Grupo 1083486" clip-path="url(#clip-path)">
      <path id="Trazado_779136" data-name="Trazado 779136" d="M794.579,323.143V264.755l.116.1a1.875,1.875,0,0,1,2.122-1.545c.986,0,1.972.011,2.956.013q9.379.015,18.758.033a1.361,1.361,0,0,0,.781-.274,13.253,13.253,0,0,1,1.833-1.07,25.349,25.349,0,0,1,5.449-1.525,57.01,57.01,0,0,1,7.457-.9c2.785-.178,5.574-.347,8.363-.39,3.612-.055,7.226,0,10.839.042,3.712.048,7.418.237,11.109.651a47.82,47.82,0,0,1,6.59,1.128,15.437,15.437,0,0,1,4.133,1.535,3.439,3.439,0,0,1,2.019,3.488c0,.033,0,.066,0,.1q0,12.395,0,24.791,0,15.794.006,31.587a3,3,0,0,1-1.385,2.7,12.976,12.976,0,0,1-2.55,1.321,35.909,35.909,0,0,1-8.265,1.714q-3.163.357-6.344.535-3.72.207-7.449.253c-3.175.039-6.351.059-9.525-.015a119.282,119.282,0,0,1-11.984-.819,42.012,42.012,0,0,1-6.8-1.392,9.9,9.9,0,0,1-3.364-1.581,1.751,1.751,0,0,0-1.175-.37c-1.314.007-2.627,0-3.942,0l-17.739.027a1.837,1.837,0,0,1-1.891-1.527.992.992,0,0,0-.116-.227m23.5-14.4c-.149-.008-.256-.018-.364-.018l-14.356,0c-.186,0-.372-.007-.557-.025a1.819,1.819,0,0,1-1.695-1.778,1.787,1.787,0,0,1,1.353-1.791,3.916,3.916,0,0,1,.945-.085q7.177-.008,14.356,0c.252,0,.341-.06.34-.327q-.015-5.04,0-10.081c0-.293-.089-.366-.372-.366q-7.162.013-14.324.005a5.962,5.962,0,0,1-.623-.027,1.819,1.819,0,0,1-.3-3.576,3.99,3.99,0,0,1,.912-.077q7.162-.007,14.324,0c.3,0,.389-.073.385-.382-.016-1.728-.01-3.458-.01-5.188,0-.427,0-.427-.435-.428q-4.138,0-8.278-.008-3.153,0-6.307.01a1.752,1.752,0,0,1-1.712-.943,2.66,2.66,0,0,1-.251-1.132c-.02-2.6-.01-5.209-.007-7.815a4.559,4.559,0,0,1,.039-.556,1.778,1.778,0,0,1,1.475-1.511,6.307,6.307,0,0,1,.884-.052q6.964,0,13.928,0h.628a.917.917,0,0,0,.038-.155c0-1.73-.005-3.459,0-5.189,0-.271-.152-.261-.338-.261H798.574c-.093,0-.186.016-.278.025v54.21h19.783Zm3.67-11.258c-.008.113-.015.165-.014.217q0,5.073.006,10.145c0,.219.058.359.264.428a20.959,20.959,0,0,0,2.052.671c1.3.291,2.611.548,3.928.744,1.827.273,3.659.541,5.5.693q3.894.321,7.8.46,8.407.306,16.809-.188a94.579,94.579,0,0,0,9.819-1.043,25.74,25.74,0,0,0,5.073-1.29.573.573,0,0,0,.419-.635c-.012-3.152-.006-6.3-.006-9.454v-.713c-.173.04-.33.071-.484.115-.556.161-1.106.346-1.668.486a49.923,49.923,0,0,1-8.28,1.33c-2.63.2-5.261.411-7.9.489-3.5.1-7.006.117-10.509.1-2.375-.01-4.751-.106-7.123-.21-1.519-.067-3.033-.232-4.551-.327a54.848,54.848,0,0,1-6.955-.915c-1.293-.249-2.555-.668-3.83-1.01l-.354-.1m0-14.446v.637q.006,4.433.014,8.866c0,1.141,0,1.149,1.1,1.508a36.3,36.3,0,0,0,6.841,1.356c2.365.3,4.744.535,7.123.655q5.444.275,10.9.338c4.029.04,8.055-.143,12.077-.43a93.4,93.4,0,0,0,9.278-1.137,16.8,16.8,0,0,0,4.008-1.09.443.443,0,0,0,.32-.464c-.013-2.44-.014-4.88-.016-7.321,0-.949,0-1.9,0-2.879a3.063,3.063,0,0,0-.346.06c-.461.135-.917.288-1.382.411a52.359,52.359,0,0,1-9.606,1.547c-2.958.221-5.922.387-8.886.451-3.568.078-7.139.049-10.708.016-1.937-.017-3.876-.087-5.809-.224-2.509-.178-5.014-.427-7.517-.684a32.807,32.807,0,0,1-6.721-1.429c-.212-.068-.429-.121-.672-.188M873.395,268.6c-.186.047-.356.079-.52.132a35.281,35.281,0,0,1-5.133,1.207,90.21,90.21,0,0,1-10.875,1.036c-3.15.125-6.3.153-9.455.194-1.456.02-2.913-.022-4.368-.054-1.74-.04-3.482-.074-5.219-.162-1.639-.084-3.277-.216-4.911-.364-1.514-.137-3.031-.27-4.533-.5A33.864,33.864,0,0,1,822,268.619c-.223-.079-.275,0-.27.206.013.5.024,1.006.025,1.51.005,2.812.013,5.625.005,8.437a.449.449,0,0,0,.323.492,11.46,11.46,0,0,0,1.414.516c1.482.328,2.964.684,4.465.889,2.458.336,4.929.595,7.4.822,1.7.156,3.407.246,5.114.29,3.1.08,6.2.179,9.291.13,3.358-.053,6.716-.242,10.071-.42,1.6-.086,3.206-.255,4.8-.436,1.226-.139,2.447-.339,3.664-.543a19.6,19.6,0,0,0,4.776-1.25.469.469,0,0,0,.32-.5c-.012-2.155-.011-4.31-.012-6.466,0-1.212,0-2.424,0-3.7m-51.639,43.435c-.012.1-.024.153-.024.205q0,5.057.022,10.112a.466.466,0,0,0,.215.345,6,6,0,0,0,.973.384,37.836,37.836,0,0,0,6.356,1.288c2.608.306,5.224.565,7.844.719,2.95.174,5.907.251,8.862.293,4.271.061,8.54-.022,12.8-.341,1.43-.107,2.86-.22,4.284-.377q2.4-.262,4.783-.615a23.97,23.97,0,0,0,5.171-1.3.5.5,0,0,0,.364-.541q-.011-4.677-.006-9.355v-.819c-.186.053-.35.1-.515.148-1.043.283-2.076.613-3.131.839a64.642,64.642,0,0,1-8.218,1.129c-3.471.286-6.95.425-10.431.451-.756.005-1.511.011-2.267.01-2.222,0-4.447.058-6.666-.031-3.291-.132-6.577-.36-9.865-.568a46.824,46.824,0,0,1-8.439-1.355c-.7-.175-1.379-.406-2.112-.623m50.351-46.823,0-.09a2.266,2.266,0,0,0-.292-.1c-1.4-.292-2.791-.642-4.2-.856q-3.29-.5-6.6-.835c-1.729-.175-3.471-.254-5.209-.332-4.628-.211-9.26-.249-13.889-.075-3.061.114-6.12.309-9.174.543a54.286,54.286,0,0,0-7.848,1.158c-.61.138-1.214.306-1.821.46,0,.034,0,.066,0,.1.5.141.989.326,1.5.418,1.721.311,3.437.666,5.172.862,2.814.319,5.638.583,8.464.767,3.639.236,7.285.282,10.932.243,4.271-.046,8.535-.19,12.789-.6a71.6,71.6,0,0,0,8.4-1.2c.6-.131,1.193-.3,1.788-.457M811.42,280.924v-.005c2.124,0,4.246-.005,6.369.008.258,0,.313-.075.31-.312q-.014-2.034,0-4.069c0-.233-.088-.267-.29-.267q-6.337,0-12.673-.008c-.281,0-.377.058-.373.357q.021,1.985,0,3.97c0,.258.06.333.327.332,2.112-.012,4.224-.007,6.336-.007" transform="translate(68.099 22.212)" fill="#232323"/>
      <path id="Trazado_779137" data-name="Trazado 779137" d="M794.58,323.163a1.047,1.047,0,0,1,.116.227,1.834,1.834,0,0,0,1.891,1.527l17.739-.027c1.314,0,2.628.005,3.942,0a1.751,1.751,0,0,1,1.174.37,9.909,9.909,0,0,0,3.365,1.581,41.984,41.984,0,0,0,6.8,1.392,119.266,119.266,0,0,0,11.984.819c3.174.075,6.35.054,9.525.015q3.725-.046,7.449-.253,3.177-.176,6.343-.535a35.843,35.843,0,0,0,8.265-1.714,13.036,13.036,0,0,0,2.551-1.32,3.005,3.005,0,0,0,1.385-2.7q-.02-15.794-.008-31.589,0-12.395,0-24.791a.966.966,0,0,1,0-.1,3.442,3.442,0,0,0-2.019-3.49,15.425,15.425,0,0,0-4.134-1.534,47.6,47.6,0,0,0-6.589-1.128c-3.691-.416-7.4-.6-11.109-.653-3.613-.047-7.228-.1-10.839-.042-2.79.043-5.579.212-8.364.39a57.021,57.021,0,0,0-7.456.9,25.273,25.273,0,0,0-5.449,1.526,12.979,12.979,0,0,0-1.833,1.07,1.365,1.365,0,0,1-.781.273q-9.379-.021-18.758-.033c-.986,0-1.972-.008-2.956-.012a1.874,1.874,0,0,0-2.121,1.545l-.116-.1v-5.845h82.786V329.59H794.58Z" transform="translate(68.099 22.192)" fill="#fff"/>
      <path id="Trazado_779138" data-name="Trazado 779138" d="M806.714,311.729q-2.086,0-4.171,0a1.826,1.826,0,0,1-1.956-1.816,1.852,1.852,0,0,1,1.9-1.854q4.189-.026,8.376,0a1.842,1.842,0,0,1,1.865,1.644,1.785,1.785,0,0,1-1.388,1.982,1.714,1.714,0,0,1-.421.042q-2.1,0-4.205,0" transform="translate(68.614 26.401)" fill="#232323"/>
      <path id="Trazado_779139" data-name="Trazado 779139" d="M806.689,298.421h-4.106a1.816,1.816,0,0,1-2-1.8,1.882,1.882,0,0,1,1.922-1.874c.514-.021,1.029-.005,1.544-.007q3.317,0,6.636,0a1.891,1.891,0,0,1,2,1.454,1.79,1.79,0,0,1-1.733,2.222q-2.137,0-4.271,0" transform="translate(68.614 25.26)" fill="#232323"/>
      <path id="Trazado_779140" data-name="Trazado 779140" d="M786.143,97a6.442,6.442,0,0,1,1.492-.8c6.49-1.506,12.99-2.969,19.488-4.447,2.747-.625,4.012-2.209,4.012-5.021,0-1.727.01-3.455-.01-5.182a1.186,1.186,0,0,0-.233-.76,14.322,14.322,0,0,1-4.12-8.071c-.011-.069-.036-.137-.076-.283-.328,0-.675,0-1.023,0-.823-.013-1.181-.278-1.356-1.057Q803.2,66.4,802.1,61.417a3.625,3.625,0,0,1-.048-.776c0-2.082-.014-4.165.007-6.247a1.149,1.149,0,0,0-.5-1.065,16.275,16.275,0,0,1-5.045-6.477,1.2,1.2,0,0,1,.213-1.378,26.724,26.724,0,0,1,13.75-8.944c3.44-.94,6.915-1.751,10.377-2.609a1.8,1.8,0,0,1,.833-.053c3.982,1.01,8,1.9,11.928,3.1a25.836,25.836,0,0,1,12.355,8.458,1.322,1.322,0,0,1,.189,1.568,17.01,17.01,0,0,1-5.088,6.456,1.15,1.15,0,0,0-.376.747,12.817,12.817,0,0,0-.012,1.915,32.437,32.437,0,0,1-1.2,10.512c-.385,1.461-.658,2.951-.991,4.426-.269,1.193-.518,1.385-1.738,1.389h-.721c-.17.748-.3,1.468-.5,2.165a13.65,13.65,0,0,1-3.482,5.929,1.485,1.485,0,0,0-.474,1.178c.028,1.75.009,3.5.012,5.253a4.517,4.517,0,0,0,3.749,4.735q9.812,2.243,19.632,4.455c1.471.333,1.611.5,1.611,1.99v6.1H854.3v-2.389c-.333-.058-.588-.112-.846-.145q-6.571-.873-13.143-1.741a3.422,3.422,0,0,1-3.049-3.441c-.01-.683,0-1.366,0-2.053a9.4,9.4,0,0,1-1.081-.28c-.621-.242-.956,0-1.308.524-1.455,2.184-2.955,4.337-4.446,6.5-.643.93-1.25,1-2.115.261-.66-.563-1.318-1.13-2.044-1.753-.607.637-1.145,1.234-1.718,1.8-1.965,1.928-1.11,1.53-3.865,1.6a1.992,1.992,0,0,1-1.623-.686c-.85-.909-1.74-1.781-2.63-2.684l-1.974,1.68c-.948.8-1.512.739-2.207-.268q-1.972-2.861-3.939-5.727c-1.013-1.474-1.012-1.474-2.731-.974-.038.011-.065.056-.129.117,0,.63.008,1.291,0,1.951a3.4,3.4,0,0,1-2.978,3.429c-2.9.408-5.81.776-8.715,1.163-1.772.236-3.543.474-5.345.717v2.409h-2.271Zm50.211-26.838,1.807-8.155c-.954-.165-1.832-.337-2.715-.455a.775.775,0,0,0-.522.264,8.936,8.936,0,0,1-6.651,2.671q-6.885-.031-13.771,0a9.007,9.007,0,0,1-6.719-2.684.763.763,0,0,0-.527-.251c-.881.119-1.755.29-2.7.455.612,2.754,1.209,5.439,1.813,8.153.3,0,.535,0,.769,0,1.36,0,1.609.168,1.782,1.535a11.981,11.981,0,0,0,2.788,6.629,12.365,12.365,0,0,0,11.639,4.14,11.47,11.47,0,0,0,9.471-7.108,22.361,22.361,0,0,0,1.021-4.033c.179-.811.5-1.144,1.335-1.162.376-.008.751,0,1.181,0M822.013,49.612c2.32.21,4.66.332,6.972.651,3.183.438,6.347,1.017,9.515,1.554a1.565,1.565,0,0,0,1.37-.332,14.782,14.782,0,0,0,3.745-4.494.725.725,0,0,0-.149-.98,22.858,22.858,0,0,0-10.1-6.724c-3.872-1.212-7.847-2.089-11.783-3.09a1.966,1.966,0,0,0-.893.093c-2.774.686-5.539,1.41-8.319,2.073a25.232,25.232,0,0,0-13,7.516.911.911,0,0,0-.18,1.272,16.207,16.207,0,0,0,3.033,3.814,2.3,2.3,0,0,0,2.525.759,7.121,7.121,0,0,1,1.326-.226c3.411-.515,6.818-1.062,10.237-1.523,1.457-.2,2.939-.212,4.522-.316-.227-.09-.35-.143-.476-.189a6.535,6.535,0,0,1-4.593-5.6A30.935,30.935,0,0,1,815.7,39.4a1.006,1.006,0,0,1,1.063-1.029q4.578-.036,9.157,0a1.009,1.009,0,0,1,1.09,1,29.924,29.924,0,0,1-.066,4.534,6.649,6.649,0,0,1-4.932,5.706m16.354,10.107V54.081c-5.654-.886-11.246-2.1-17.008-2.106s-11.351,1.237-17.006,2.108v5.645c5.663-.881,11.239-2.073,16.972-2.075,5.756,0,11.358,1.176,17.042,2.066M813.407,82.778c0,1.15.027,2.212-.013,3.27a1.035,1.035,0,0,0,.516.989c.718.5,1.406,1.042,2.107,1.567l5.347,4c2.593-1.944,5.147-3.856,7.694-5.778a.6.6,0,0,0,.24-.4c.018-1.192.011-2.385.011-3.644a15.8,15.8,0,0,1-15.9-.008m-.322,6.469a7.107,7.107,0,0,1-3.46,4.086c1.364,1.98,2.67,3.879,4.005,5.82l5.914-5.071c-2.176-1.627-4.27-3.2-6.459-4.835m16.008,9.907,4.011-5.839a7.078,7.078,0,0,1-3.481-4.058l-6.443,4.827,5.913,5.07m-18.632-38.1a5.48,5.48,0,0,0,3.306,1.142q7.586.044,15.172,0a5.561,5.561,0,0,0,3.336-1.15,54.758,54.758,0,0,0-21.814.007m7.492-20.395c0,.854-.033,1.655.006,2.45a4.374,4.374,0,0,0,2.853,4.1,1.577,1.577,0,0,0,1.066.012A4.075,4.075,0,0,0,824.6,44.11a26.8,26.8,0,0,0,.227-3.453Zm3.408,54.862-3.24,2.775a21.153,21.153,0,0,0,2.388,2.278,1.8,1.8,0,0,0,1.651.053,21.592,21.592,0,0,0,2.454-2.311l-3.253-2.795m-32.89,2.805v1.209l5.592-.749V97.059l-5.592,1.266m60.175.458,5.611.747V98.322l-5.611-1.262Zm-9.054-3.791c-.247,2.348.2,2.909,2.166,2.8v-2.3l-2.166-.494m-38.648,2.817c2.061.023,2.465-.5,2.177-2.805l-2.177.5Zm-2.3.368V96.025c-.635.139-1.277.259-1.9.433a.586.586,0,0,0-.357.4c-.043.508-.017,1.023-.017,1.613l2.278-.291m47.628.281c.287-1.884.28-1.9-1.4-2.276-.244-.054-.493-.088-.761-.136v2.131l2.163.28" transform="translate(67.376 2.9)" fill="#232323"/>
      <path id="Trazado_779141" data-name="Trazado 779141" d="M895.988,102.573a16.045,16.045,0,0,1-2.638-1.372,4.36,4.36,0,0,1-1.622-3.569c-.015-2.13-.021-4.261,0-6.392a5,5,0,0,1,4.969-5.006c.593-.013,1.186,0,1.847,0,.159-1.421.315-2.8.466-4.181q.8-7.3,1.6-14.61c.327-2.98.606-5.968,1.006-8.939A5.984,5.984,0,0,1,907.5,53.26q10.89-.075,21.781,0c3.256.027,5.636,2.5,6,5.927.759,7.1,1.546,14.2,2.319,21.3.206,1.885.4,3.771.616,5.74.6,0,1.165-.005,1.73,0a5,5,0,0,1,5.109,5.146c.012,1.993.008,3.986,0,5.979a4.972,4.972,0,0,1-4.015,5.107,1.625,1.625,0,0,0-.25.109ZM934.066,86.2c-.343-3.178-.675-6.294-1.015-9.409q-.938-8.6-1.876-17.2a2.167,2.167,0,0,0-2.416-2.227q-10.374,0-20.748,0a2.157,2.157,0,0,0-2.409,2.228c-.415,3.939-.849,7.875-1.28,11.811q-.788,7.2-1.582,14.4a2.21,2.21,0,0,0,.015.371H916.33V76.027c0-.091.037-.211-.008-.269a1.71,1.71,0,0,0-.489-.534,6.075,6.075,0,0,1-3.6-5.221A6.178,6.178,0,1,1,921,75.172a.835.835,0,0,0-.556.924c.014,3.138.006,6.275.009,9.414,0,.221.02.444.03.692ZM918.391,98.448q10.646,0,21.293,0c.991,0,1.252-.265,1.253-1.262q0-2.817,0-5.634c0-.9-.288-1.2-1.185-1.2q-21.362,0-42.722,0c-.9,0-1.181.293-1.183,1.2q-.007,2.747,0,5.5c0,1.186.212,1.4,1.391,1.4h21.155m2.06-28.829a2.06,2.06,0,1,0-2.076,2.024,2.091,2.091,0,0,0,2.076-2.024" transform="translate(76.424 4.561)" fill="#232323"/>
      <path id="Trazado_779142" data-name="Trazado 779142" d="M949.543,66.975a2.508,2.508,0,0,1-2.683,1.547c-1.943-.067-3.891-.012-5.837-.021a2.068,2.068,0,1,1,0-4.119c1.968-.007,3.939.036,5.906-.015a2.389,2.389,0,0,1,2.611,1.646Z" transform="translate(80.457 5.516)" fill="#232323"/>
      <path id="Trazado_779143" data-name="Trazado 779143" d="M897.965,54.1a1.994,1.994,0,0,1-2.9,1.891c-2.039-1.085-4.039-2.246-6.023-3.428a2.044,2.044,0,0,1,2.045-3.534c2,1.1,3.979,2.257,5.955,3.41a1.843,1.843,0,0,1,.927,1.66" transform="translate(76.113 4.181)" fill="#232323"/>
      <path id="Trazado_779144" data-name="Trazado 779144" d="M889.252,68.011c-1.076,0-2.152.015-3.228,0a2.056,2.056,0,1,1-.037-4.108q3.3-.041,6.592,0a2.053,2.053,0,1,1-.03,4.105c-1.1.022-2.2,0-3.3.005" transform="translate(75.752 5.475)" fill="#232323"/>
      <path id="Trazado_779145" data-name="Trazado 779145" d="M937.87,56.614a2.1,2.1,0,0,1-2.155-1.422,1.975,1.975,0,0,1,.8-2.3c2-1.192,4.024-2.36,6.071-3.474a2.038,2.038,0,0,1,2.024,3.525c-2,1.2-4.033,2.34-6.065,3.484a2.242,2.242,0,0,1-.676.183" transform="translate(80.186 4.217)" fill="#232323"/>
      <path id="Trazado_779146" data-name="Trazado 779146" d="M904.67,47.642a2.046,2.046,0,0,1-1.7-1.021c-1.12-1.91-2.247-3.817-3.337-5.746a2.044,2.044,0,0,1,.735-2.805,2.021,2.021,0,0,1,2.8.733c1.139,1.9,2.262,3.811,3.339,5.746a2.061,2.061,0,0,1-1.837,3.093" transform="translate(77.078 3.238)" fill="#232323"/>
      <path id="Trazado_779147" data-name="Trazado 779147" d="M914.636,39.246c0-1.076-.009-2.151,0-3.227A2.06,2.06,0,1,1,918.753,36q.024,3.226,0,6.453a2.06,2.06,0,1,1-4.115-.047c-.01-1.053,0-2.105,0-3.158" transform="translate(78.388 2.901)" fill="#232323"/>
      <path id="Trazado_779148" data-name="Trazado 779148" d="M934.3,40.16a8.4,8.4,0,0,1-.446,1.126q-1.542,2.708-3.127,5.394a2.067,2.067,0,1,1-3.568-2.055q1.588-2.762,3.2-5.507a2,2,0,0,1,2.4-.99A2.185,2.185,0,0,1,934.3,40.16" transform="translate(79.431 3.26)" fill="#232323"/>
    </g>
  </g>
</svg>
