<svg xmlns="http://www.w3.org/2000/svg" xmlns:xlink="http://www.w3.org/1999/xlink" width="80" height="80" viewBox="0 0 80 80">
  <defs>
    <clipPath id="clip-path">
      <rect id="Rectángulo_380534" data-name="Rectángulo 380534" width="80" height="80" transform="translate(205 2054)" fill="#fff"/>
    </clipPath>
  </defs>
  <g id="Enmascarar_grupo_1018860" data-name="Enmascarar grupo 1018860" transform="translate(-205 -2054)" clip-path="url(#clip-path)">
    <g id="palabras-clave" transform="translate(205 2054)">
      <path id="Trazado_779168" data-name="Trazado 779168" d="M38.256,19.769a18.683,18.683,0,0,0-18.6-18.6A18.4,18.4,0,0,0,1.172,19.651a18.694,18.694,0,0,0,13.36,17.829V71.995l5.407,6.833,5.217-6.8-.1-7.03-.849-.632-2.085-1.552L24.2,61.276l.845-.627-.006-1.828-.849-.632-2.085-1.552L24.18,55.1l.845-.627-.017-16.959A18.4,18.4,0,0,0,38.256,19.769ZM19.7,16.3a4.294,4.294,0,0,1-4.275-4.274,4.228,4.228,0,0,1,4.248-4.247,4.294,4.294,0,0,1,4.275,4.274A4.228,4.228,0,0,1,19.7,16.3Z" fill="#e3d3c6"/>
      <path id="Trazado_779169" data-name="Trazado 779169" d="M38.256,19.769A18.663,18.663,0,0,0,16.328,1.46,18.692,18.692,0,0,1,31.719,19.769,18.393,18.393,0,0,1,21.7,36.231a5.934,5.934,0,0,0-3.21,5.315V72.028l-1.824,2.547,3.274,4.253,5.217-6.8-.1-7.03-.849-.632-2.085-1.552L24.2,61.276l.845-.627-.006-1.828-.849-.632-2.085-1.552L24.181,55.1l.845-.627-.017-16.959A18.4,18.4,0,0,0,38.256,19.769Z" fill="#d4c6bb"/>
      <path id="Trazado_779170" data-name="Trazado 779170" d="M78.828,31.875V13.961A5.018,5.018,0,0,0,73.8,8.948H56.322A5.018,5.018,0,0,0,51.3,13.961v3.184H45l6.3,7.633v7.1a5.018,5.018,0,0,0,5.024,5.013H73.8A5.019,5.019,0,0,0,78.828,31.875Z" fill="#72e4a0"/>
      <path id="Trazado_779171" data-name="Trazado 779171" d="M73.8,8.948H67.242a5.018,5.018,0,0,1,5.024,5.013V31.875a5.018,5.018,0,0,1-5.024,5.013H73.8a5.018,5.018,0,0,0,5.024-5.013V13.961A5.018,5.018,0,0,0,73.8,8.948Z" fill="#24d3b5"/>
      <path id="Trazado_779172" data-name="Trazado 779172" d="M69.8,78.693H37.528a5.834,5.834,0,0,1-5.828-5.84V51.983a5.834,5.834,0,0,1,5.828-5.84h3.7v-10.5l8.874,10.5H69.8a5.834,5.834,0,0,1,5.828,5.84V72.853A5.834,5.834,0,0,1,69.8,78.693Z" fill="#fa9084"/>
      <path id="Trazado_779173" data-name="Trazado 779173" d="M69.8,46.143H63.234a5.834,5.834,0,0,1,5.828,5.84V72.853a5.834,5.834,0,0,1-5.828,5.84H69.8a5.834,5.834,0,0,0,5.828-5.84V51.983a5.834,5.834,0,0,0-5.828-5.84Z" fill="#ff6cb5"/>
      <path id="Trazado_779174" data-name="Trazado 779174" d="M19.7,17.473h.018a5.4,5.4,0,0,0,5.406-5.423A5.473,5.473,0,0,0,19.68,6.609a5.4,5.4,0,0,0-5.423,5.423A5.473,5.473,0,0,0,19.7,17.473Zm-2.2-7.625a3.043,3.043,0,0,1,2.167-.9h.01a3.124,3.124,0,0,1,3.107,3.106,3.056,3.056,0,0,1-3.062,3.071h-.01A3.124,3.124,0,0,1,16.6,12.024a3.042,3.042,0,0,1,.895-2.176Z"/>
      <path id="Trazado_779175" data-name="Trazado 779175" d="M25.759,64.059,24.09,62.816l1.653-1.226a1.172,1.172,0,0,0,.474-.945l-.006-1.828a1.172,1.172,0,0,0-.472-.936l-1.669-1.242,1.653-1.226a1.172,1.172,0,0,0,.474-.942l-.016-16.1a19.726,19.726,0,0,0,9.275-6.7,19.428,19.428,0,0,0,3.971-11.9A19.878,19.878,0,0,0,19.658,0h-.064A19.569,19.569,0,0,0,0,19.654a19.817,19.817,0,0,0,2.389,9.364A1.172,1.172,0,0,0,4.449,27.9a17.467,17.467,0,0,1-2.105-8.253,17.226,17.226,0,0,1,17.307-17.3A17.529,17.529,0,0,1,37.084,19.773a17.1,17.1,0,0,1-3.494,10.479,17.344,17.344,0,0,1-8.908,6.136,1.172,1.172,0,0,0-.844,1.126l.016,16.369L21.408,55.7a1.172,1.172,0,0,0,0,1.881l2.463,1.834,0,.65-2.444,1.813a1.172,1.172,0,0,0,0,1.881l2.47,1.839.083,6.044-4.053,5.284L15.7,71.587V37.479a1.172,1.172,0,0,0-.838-1.123A17.607,17.607,0,0,1,8.275,32.7a1.173,1.173,0,0,0-1.551,1.758,20,20,0,0,0,6.636,3.875V71.995a1.172,1.172,0,0,0,.253.727l5.407,6.833a1.173,1.173,0,0,0,.919.445h.009a1.173,1.173,0,0,0,.921-.459l5.217-6.8a1.173,1.173,0,0,0,.242-.729l-.1-7.03a1.172,1.172,0,0,0-.472-.924Z"/>
      <path id="Trazado_779176" data-name="Trazado 779176" d="M73.8,7.776h-.523a1.173,1.173,0,0,0,0,2.344H73.8a3.851,3.851,0,0,1,3.852,3.841V31.875A3.851,3.851,0,0,1,73.8,35.716H56.322a3.851,3.851,0,0,1-3.852-3.841v-7.1a1.171,1.171,0,0,0-.268-.746l-4.716-5.715H51.3a1.172,1.172,0,0,0,1.172-1.172V13.961a3.851,3.851,0,0,1,3.852-3.841H67.188a1.173,1.173,0,0,0,0-2.344H56.322a6.2,6.2,0,0,0-6.2,6.185v2.013H45a1.186,1.186,0,0,0-.9,1.918L50.127,25.2v6.675a6.2,6.2,0,0,0,6.2,6.185H73.8A6.2,6.2,0,0,0,80,31.875V13.961A6.2,6.2,0,0,0,73.8,7.776Z"/>
      <path id="Trazado_779177" data-name="Trazado 779177" d="M58.75,18.621h3.281a1.173,1.173,0,0,0,0-2.344H58.75A1.173,1.173,0,0,0,58.75,18.621Z"/>
      <path id="Trazado_779178" data-name="Trazado 779178" d="M72.266,22.918a1.172,1.172,0,0,0-1.172-1.172H58.75a1.173,1.173,0,0,0,0,2.344H71.094A1.172,1.172,0,0,0,72.266,22.918Z"/>
      <path id="Trazado_779179" data-name="Trazado 779179" d="M58.75,27.215a1.173,1.173,0,0,0,0,2.344h3.281a1.173,1.173,0,0,0,0-2.344Z"/>
      <path id="Trazado_779180" data-name="Trazado 779180" d="M65.547,17.449a1.172,1.172,0,0,0,1.172,1.172h4.375a1.173,1.173,0,0,0,0-2.344H66.719A1.172,1.172,0,0,0,65.547,17.449Z"/>
      <path id="Trazado_779181" data-name="Trazado 779181" d="M69.8,44.971H50.648L42.125,34.89a1.185,1.185,0,0,0-2.067.757v9.325h-2.53a7.014,7.014,0,0,0-7,7.012V72.853a7.014,7.014,0,0,0,7,7.012H50.781a1.172,1.172,0,1,0,0-2.344H37.528a4.668,4.668,0,0,1-4.656-4.668V51.983a4.668,4.668,0,0,1,4.656-4.668h3.7A1.172,1.172,0,0,0,42.4,46.143v-7.3L49.209,46.9a1.172,1.172,0,0,0,.9.415H69.8a4.668,4.668,0,0,1,4.656,4.668V72.853A4.668,4.668,0,0,1,69.8,77.521H56.719a1.172,1.172,0,1,0,0,2.344H69.8a7.014,7.014,0,0,0,7-7.012V51.983a7.014,7.014,0,0,0-7-7.012Z"/>
      <path id="Trazado_779182" data-name="Trazado 779182" d="M67.058,54.724H49.53a1.173,1.173,0,0,0,0,2.344H67.058A1.173,1.173,0,0,0,67.058,54.724Z"/>
      <path id="Trazado_779183" data-name="Trazado 779183" d="M40.266,63.426h8.389a1.173,1.173,0,0,0,0-2.344H40.266A1.173,1.173,0,0,0,40.266,63.426Z"/>
      <path id="Trazado_779184" data-name="Trazado 779184" d="M67.058,61.082H54.65a1.173,1.173,0,0,0,0,2.344H67.058A1.173,1.173,0,0,0,67.058,61.082Z"/>
      <path id="Trazado_779185" data-name="Trazado 779185" d="M40.266,69.783H67.058a1.173,1.173,0,0,0,0-2.344H40.266A1.173,1.173,0,0,0,40.266,69.783Z"/>
      <path id="Trazado_779186" data-name="Trazado 779186" d="M40.266,57.068h3.815a1.173,1.173,0,0,0,0-2.344H40.266A1.173,1.173,0,0,0,40.266,57.068Z"/>
    </g>
  </g>
</svg>
