<svg xmlns="http://www.w3.org/2000/svg" xmlns:xlink="http://www.w3.org/1999/xlink" width="70" height="70" viewBox="0 0 70 70">
  <defs>
    <clipPath id="clip-path">
      <rect id="Rectángulo_373527" data-name="Rectángulo 373527" width="70" height="70" transform="translate(270 3517)" fill="#8f52f5"/>
    </clipPath>
  </defs>
  <g id="Enmascarar_grupo_23" data-name="Enmascarar grupo 23" transform="translate(-270 -3517)" clip-path="url(#clip-path)">
    <g id="folder_setting" transform="translate(268.872 3515.872)">
      <g id="Grupo_1064250" data-name="Grupo 1064250">
        <path id="Trazado_777781" data-name="Trazado 777781" d="M65.88,52.032h-.423a13.2,13.2,0,0,0-.741-1.786l.3-.3a2.234,2.234,0,0,0,0-3.155L63.8,45.572V32.788a2.842,2.842,0,0,0-2.841-2.837H58.8l1.7-18.923a2.189,2.189,0,0,0-.589-1.922L55.851,4.9a1.626,1.626,0,0,0-1.266-.582L53,4.178H53L19.18,1.143a3.179,3.179,0,0,0-3.451,2.882L13.463,29.254H6.791A2.7,2.7,0,0,0,4.864,30a2.4,2.4,0,0,0-.7,1.745L4.142,61.09c0,2.224,1.083,4.853,6.093,5.013a1.117,1.117,0,0,0,.409.083H41.93l1.845,1.845a2.289,2.289,0,0,0,3.154,0l.3-.3a13.08,13.08,0,0,0,1.786.741V68.9a2.235,2.235,0,0,0,2.234,2.23h3.685a2.233,2.233,0,0,0,2.231-2.23V68.47a12.914,12.914,0,0,0,1.786-.74l.3.305a2.239,2.239,0,0,0,3.154,0l2.607-2.606a2.233,2.233,0,0,0,0-3.152l-.3-.307a13.2,13.2,0,0,0,.741-1.787h.423a2.236,2.236,0,0,0,2.235-2.23V54.262a2.236,2.236,0,0,0-2.235-2.231ZM61.546,32.788V43.654a2.244,2.244,0,0,0-2.293.526l-.3.3a12.928,12.928,0,0,0-1.786-.74v-.427a2.234,2.234,0,0,0-2.231-2.232H51.25a2.235,2.235,0,0,0-2.234,2.232v.427a13.059,13.059,0,0,0-1.786.741l-.3-.3a2.235,2.235,0,0,0-3.154,0l-2.608,2.608a2.233,2.233,0,0,0,0,3.154l.3.3a13.083,13.083,0,0,0-.74,1.788H40.3a2.233,2.233,0,0,0-2.23,2.23v3.686a2.233,2.233,0,0,0,2.23,2.23h.427a13,13,0,0,0,.741,1.788l-.3.3a2.217,2.217,0,0,0-.644,1.658H11.774V40.354a.153.153,0,0,1,.15-.151H36.465a1.131,1.131,0,0,0,.985-.576l3.531-6.287.207-.384c.135-.256.362-.686.516-.747H60.963A.589.589,0,0,1,61.546,32.788ZM58.26,10.656c0,.052-.009.109-.015.172l0,.019-4.674-.423.353-3.9.393.035ZM17.978,4.224a.913.913,0,0,1,.327-.623.9.9,0,0,1,.67-.21l32.7,2.935-.366,4.051a2.109,2.109,0,0,0,1.911,2.282l4.825.437L56.53,29.951H41.7A2.873,2.873,0,0,0,39.191,31.9L35.8,37.944H14.95ZM6.4,61.09l.024-29.348a.242.242,0,0,1,.034-.145.685.685,0,0,1,.343-.085h6.46l-.578,6.433h-.759a2.411,2.411,0,0,0-2.409,2.409V63.8C6.41,63.479,6.4,61.9,6.4,61.09Zm58.213-3.17a1.128,1.128,0,0,0-1.093.848,10.9,10.9,0,0,1-1.171,2.823,1.128,1.128,0,0,0,.172,1.369l.9.867L60.85,66.435l-.9-.9a1.13,1.13,0,0,0-1.376-.172,10.713,10.713,0,0,1-2.819,1.169,1.13,1.13,0,0,0-.847,1.094l.027,1.245-3.662.028V67.625a1.128,1.128,0,0,0-.847-1.093,10.847,10.847,0,0,1-2.821-1.171,1.13,1.13,0,0,0-1.374.173l-.861.9-2.115-2.087a1.1,1.1,0,0,0-.155-.153l-.335-.33.9-.9a1.128,1.128,0,0,0,.17-1.373,10.716,10.716,0,0,1-1.168-2.819,1.13,1.13,0,0,0-1.094-.848l-1.245.028L40.3,54.29h1.272a1.129,1.129,0,0,0,1.094-.848,10.812,10.812,0,0,1,1.169-2.824,1.129,1.129,0,0,0-.173-1.374l-.9-.861,2.568-2.608.9.9a1.13,1.13,0,0,0,1.374.173,10.847,10.847,0,0,1,2.821-1.171,1.128,1.128,0,0,0,.847-1.093L51.25,43.34l3.658-.026v1.271a1.13,1.13,0,0,0,.847,1.094,10.711,10.711,0,0,1,2.819,1.169,1.132,1.132,0,0,0,1.376-.172l.863-.9L61.847,46.8c.024.026.049.05.075.074l1.5,1.477-.9.9a1.129,1.129,0,0,0-.173,1.371,10.925,10.925,0,0,1,1.171,2.823,1.129,1.129,0,0,0,1.093.848l1.245-.028.023,3.658H64.612Z" fill="#8f52f5"/>
        <path id="Trazado_777782" data-name="Trazado 777782" d="M53.093,48.767a7.339,7.339,0,1,0,7.339,7.339A7.347,7.347,0,0,0,53.093,48.767Zm0,12.419a5.081,5.081,0,1,1,5.081-5.081A5.086,5.086,0,0,1,53.093,61.186Z" fill="#8f52f5"/>
        <path id="Trazado_777783" data-name="Trazado 777783" d="M24.559,16.7l24.2,2.172c.034,0,.068,0,.1,0a1.129,1.129,0,0,0,.1-2.254l-24.2-2.172a1.129,1.129,0,0,0-.2,2.249Z" fill="#8f52f5"/>
        <path id="Trazado_777784" data-name="Trazado 777784" d="M23.981,23.122l24.2,2.171c.034,0,.068,0,.1,0a1.129,1.129,0,0,0,.1-2.254l-24.2-2.171a1.129,1.129,0,0,0-.2,2.249Z" fill="#8f52f5"/>
      </g>
    </g>
  </g>
</svg>
