<svg xmlns="http://www.w3.org/2000/svg" xmlns:xlink="http://www.w3.org/1999/xlink" width="70" height="70" viewBox="0 0 70 70">
  <defs>
    <clipPath id="clip-path">
      <rect id="Rectángulo_373528" data-name="Rectángulo 373528" width="70" height="70" transform="translate(1014 3517)" fill="#8f52f5"/>
    </clipPath>
  </defs>
  <g id="Enmascarar_grupo_24" data-name="Enmascarar grupo 24" transform="translate(-1014 -3517)" clip-path="url(#clip-path)">
    <g id="facilitador" transform="translate(1014 3517)">
      <path id="Trazado_777786" data-name="Trazado 777786" d="M39.516,47.419H37.258a2.258,2.258,0,0,1-4.516,0H30.484a4.516,4.516,0,1,0,9.032,0Z" fill="#8f52f5"/>
      <path id="Trazado_777787" data-name="Trazado 777787" d="M31.613,42.9h2.258a3.387,3.387,0,1,0-6.774,0h2.258a1.129,1.129,0,0,1,2.258,0Z" fill="#8f52f5"/>
      <path id="Trazado_777788" data-name="Trazado 777788" d="M39.516,41.774A1.13,1.13,0,0,1,40.645,42.9H42.9a3.387,3.387,0,0,0-6.774,0h2.258A1.13,1.13,0,0,1,39.516,41.774Z" fill="#8f52f5"/>
      <path id="Trazado_777789" data-name="Trazado 777789" d="M40.453,55.472a10.177,10.177,0,0,0,5.77-8.052h.067a4.5,4.5,0,0,0,3.362-7.5,10.925,10.925,0,0,0,1.07-6.236,16.28,16.28,0,0,0,2.342.19,16.99,16.99,0,1,0-15.5-10.161H32.437a16.923,16.923,0,1,0-15.5,10.161,16.279,16.279,0,0,0,2.342-.19,10.925,10.925,0,0,0,1.07,6.236,4.5,4.5,0,0,0,3.362,7.5h.067a10.115,10.115,0,0,0,5.765,8.056,12.423,12.423,0,0,0-6.959,11.138V70H47.419V66.613A12.424,12.424,0,0,0,40.453,55.472Zm-1.661,1.721-.2,2.385-3.1-3.1A10.131,10.131,0,0,1,38.792,57.192ZM27.1,31.613A3.391,3.391,0,0,0,23.71,35v3.387a4.479,4.479,0,0,0-1.476.268,9.014,9.014,0,0,1,8.25-12.687h9.032a9.014,9.014,0,0,1,8.25,12.687,4.479,4.479,0,0,0-1.476-.268V36.129H45.161A4.647,4.647,0,0,1,40.645,32.6l-.375-1.5-7.262,3.631a13.285,13.285,0,0,1-5.912,1.4,1.129,1.129,0,1,1,0-2.258h1.129V31.613Zm16.935-9.032V15.806a9.032,9.032,0,0,1,18.065,0v5.645a5.6,5.6,0,0,1-4.189,5.434,6.728,6.728,0,0,0-.745-.654,5.633,5.633,0,0,0,2.676-4.78V14.677H58.71a5.19,5.19,0,0,1-4.326-2.316l-1.319-1.978-1.319,1.978a5.19,5.19,0,0,1-4.326,2.316H46.29v6.774a5.63,5.63,0,0,0,2.685,4.785,6.762,6.762,0,0,0-1.169,1.126,11.35,11.35,0,0,0-3.054-2.355,4.475,4.475,0,0,1-.72-2.426Zm7.9,2.258a3.391,3.391,0,0,1-3.387-3.387v-4.6a7.442,7.442,0,0,0,4.516-2.5,7.442,7.442,0,0,0,4.516,2.5v4.6a3.391,3.391,0,0,1-3.387,3.387ZM46.29,45.161V40.645a2.258,2.258,0,0,1,0,4.516Zm3.875-13.876a11.2,11.2,0,0,0-.947-2.03,4.5,4.5,0,0,1,8.293,1.665,13.944,13.944,0,0,1-7.345.365Zm2.9-29.027a14.666,14.666,0,0,1,6.581,27.778,6.775,6.775,0,0,0-.4-1.19,7.855,7.855,0,0,0,5.113-7.394V15.806a11.29,11.29,0,0,0-22.581,0v6.774a6.765,6.765,0,0,0,.163,1.4,11.277,11.277,0,0,0-1.856-.239A14.644,14.644,0,0,1,53.065,2.258ZM2.258,16.935a14.677,14.677,0,1,1,27.662,6.8,11.239,11.239,0,0,0-7.726,3.624,6.762,6.762,0,0,0-1.169-1.126,5.643,5.643,0,0,0,2.57-3.656h.114a4.521,4.521,0,0,0,4.516-4.516,4.47,4.47,0,0,0-.475-1.978,8.729,8.729,0,0,0-8.279-11.57H14.4A8.73,8.73,0,0,0,6.12,16.088a4.462,4.462,0,0,0-.475,1.977,4.521,4.521,0,0,0,4.516,4.516h.114a5.652,5.652,0,0,0,2.565,3.654,6.824,6.824,0,0,0-2.477,3.807A14.682,14.682,0,0,1,2.258,16.935Zm13.548,7.9a3.391,3.391,0,0,1-3.387-3.387V15.758a8.749,8.749,0,0,0,4.516-1.831,8.749,8.749,0,0,0,4.516,1.831v5.694a3.391,3.391,0,0,1-3.387,3.387Zm-5.645-4.516a2.258,2.258,0,0,1,0-4.516Zm0-6.774a4.456,4.456,0,0,0-2.175.583,6.625,6.625,0,0,1-.084-.86,6.5,6.5,0,0,1,6.5-6.5h5.072a6.5,6.5,0,0,1,6.5,6.5,6.625,6.625,0,0,1-.084.86,4.456,4.456,0,0,0-2.175-.583H22.388a6.538,6.538,0,0,1-4.654-1.927l-.8-.8-.8.8a6.538,6.538,0,0,1-4.654,1.927H10.161ZM23.71,15.806a2.258,2.258,0,0,1,0,4.516ZM16.935,31.613a14.619,14.619,0,0,1-4.446-.692,4.5,4.5,0,0,1,8.293-1.665,11.2,11.2,0,0,0-.947,2.03,14.566,14.566,0,0,1-2.9.327ZM21.452,42.9a2.26,2.26,0,0,1,2.258-2.258v4.516A2.26,2.26,0,0,1,21.452,42.9Zm12.419,11.29a7.9,7.9,0,0,1-7.9-7.9v-8.1a3.374,3.374,0,0,0,1.129.194,15.564,15.564,0,0,0,6.922-1.634l4.846-2.423A6.9,6.9,0,0,0,44.032,38.3V46.29a7.913,7.913,0,0,1-7.9,7.9Zm.637,2.283-3.1,3.1-.2-2.385A10.118,10.118,0,0,1,34.508,56.476ZM45.161,67.742H24.84V66.613a10.145,10.145,0,0,1,4.2-8.214l.518,6.216L35,59.177l5.439,5.439.518-6.218a10.145,10.145,0,0,1,4.2,8.215Z" fill="#8f52f5"/>
      <path id="Trazado_777790" data-name="Trazado 777790" d="M63.226,59.839A1.13,1.13,0,0,1,62.1,60.968H53.532l2.589-2.589-1.6-1.6L49.21,62.1l5.314,5.314,1.6-1.6-2.589-2.589H62.1a3.391,3.391,0,0,0,3.387-3.387V48.548H63.226Z" fill="#8f52f5"/>
      <path id="Trazado_777791" data-name="Trazado 777791" d="M63.226,39.516h2.258v2.258H63.226Z" fill="#8f52f5"/>
      <path id="Trazado_777792" data-name="Trazado 777792" d="M63.226,44.032h2.258V46.29H63.226Z" fill="#8f52f5"/>
      <path id="Trazado_777793" data-name="Trazado 777793" d="M13.879,58.379l2.589,2.589H7.9a1.13,1.13,0,0,1-1.129-1.129V48.548H4.516v11.29A3.391,3.391,0,0,0,7.9,63.226h8.565l-2.589,2.589,1.6,1.6L20.79,62.1l-5.314-5.314Z" fill="#8f52f5"/>
      <path id="Trazado_777794" data-name="Trazado 777794" d="M4.516,39.516H6.774v2.258H4.516Z" fill="#8f52f5"/>
      <path id="Trazado_777795" data-name="Trazado 777795" d="M4.516,44.032H6.774V46.29H4.516Z" fill="#8f52f5"/>
    </g>
  </g>
</svg>
