<svg xmlns="http://www.w3.org/2000/svg" xmlns:xlink="http://www.w3.org/1999/xlink" width="70" height="70" viewBox="0 0 70 70">
  <defs>
    <clipPath id="clip-path">
      <rect id="Rectángulo_373529" data-name="Rectángulo 373529" width="70" height="70" transform="translate(1262 3517)" fill="#8f52f5"/>
    </clipPath>
  </defs>
  <g id="Enmascarar_grupo_25" data-name="Enmascarar grupo 25" transform="translate(-1262 -3517)" clip-path="url(#clip-path)">
    <path id="facilitar" d="M70.092,2.876H20.532A2.43,2.43,0,0,0,18.106,5.3V6.5a2.433,2.433,0,0,0,1.709,2.318v16.11a7.819,7.819,0,0,1-1.5.769A7.564,7.564,0,0,0,12.2,20.75a5.895,5.895,0,1,0-2.385-.018,7.341,7.341,0,0,0-6.577,7.047v41.9a.888.888,0,0,0,.888.888h17.19a.888.888,0,0,0,.888-.888V66.81a3.76,3.76,0,0,0-3.548-3.751V42.191q.553,0,1.16-.009V44.1a.888.888,0,0,0,.888.888H69.066a.888.888,0,0,0,.888-.888V8.925h.138A2.43,2.43,0,0,0,72.518,6.5V5.3a2.43,2.43,0,0,0-2.426-2.426Zm-46.8,21.6,2.068-2.068a2.038,2.038,0,0,1,2.882,2.882l-2.06,2.06c-3.582,3.356-5.578,5.131-7.532,5.094V27.779c0-.114,0-.228-.009-.34A13.906,13.906,0,0,0,23.293,24.474ZM19.329,34.535c-.247-.012-.471-.022-.675-.037v-.28h.064a5.074,5.074,0,0,0,1.1-.124v.436ZM6.929,14.967a4.119,4.119,0,1,1,4.119,4.119,4.124,4.124,0,0,1-4.119-4.119ZM5.011,27.777c0-2.95,2.662-5.349,5.933-5.349s5.933,2.4,5.933,5.349v6.136c-.562-.565-.916-1.694-1.644-4.021-.146-.471-.308-.982-.487-1.542a.888.888,0,0,0-1.691.54c.178.555.337,1.064.482,1.531,1.407,4.5,1.784,5.705,5.73,5.886h.044l5.078-.024h2.9a2.039,2.039,0,1,1,0,4.078H24.363c-1.25.006-2.385.019-3.385.031-4.451.052-6.685.078-7.951-.6-1.182-.633-1.775-2.138-2.958-5.136-.311-.789-.664-1.684-1.077-2.687a.887.887,0,1,0-1.641.676c.408.991.759,1.879,1.068,2.662,1.3,3.294,2.015,5.107,3.77,6.05a10.366,10.366,0,0,0,4.689.823V43.8H5.011ZM16.879,63.052H12.3V45.569h4.581ZM5.011,45.569h5.511V63.053H5.011Zm8.8,23.223h-8.8V64.829h6.819a1.985,1.985,0,0,1,1.983,1.983Zm6.612-1.983v1.983H15.589V66.81a3.749,3.749,0,0,0-.567-1.983h3.422A1.984,1.984,0,0,1,20.425,66.81Zm47.753-23.6H21.59V42.163c.848-.01,1.777-.019,2.78-.024H27.3a3.814,3.814,0,1,0,0-7.629H24.389l-2.8.013V33.4a32.5,32.5,0,0,0,5.821-4.77.273.273,0,0,0,.021-.021L29.5,26.544a3.813,3.813,0,0,0-5.393-5.393l-2.064,2.064c-.133.13-.286.269-.453.413V8.925H68.179ZM70.743,6.5a.652.652,0,0,1-.651.651H20.532a.651.651,0,0,1-.651-.651V5.3a.652.652,0,0,1,.651-.651h49.56a.652.652,0,0,1,.651.651ZM40.781,60.927a5.442,5.442,0,1,0-7.629,0A6.006,6.006,0,0,0,27.9,66.878v5.11a.888.888,0,0,0,.888.888H45.143a.888.888,0,0,0,.888-.888v-5.11A6,6,0,0,0,40.781,60.927Zm-3.814-7.541A3.666,3.666,0,1,1,33.3,57.052,3.67,3.67,0,0,1,36.967,53.386ZM44.258,71.1H29.679V66.88A4.228,4.228,0,0,1,33.9,62.657h6.133a4.228,4.228,0,0,1,4.223,4.223V71.1Zm16.87-10.175a5.442,5.442,0,1,0-7.629,0,6.006,6.006,0,0,0-5.252,5.951v5.11a.888.888,0,0,0,.888.888H65.49a.888.888,0,0,0,.888-.888v-5.11A6,6,0,0,0,61.128,60.927Zm-3.813-7.541a3.666,3.666,0,1,1-3.666,3.666A3.67,3.67,0,0,1,57.316,53.386ZM64.605,71.1H50.024V66.88a4.228,4.228,0,0,1,4.223-4.223H60.38A4.228,4.228,0,0,1,64.6,66.88V71.1ZM33.524,35.252h5.029a.888.888,0,0,0,.888-.888v-8.4a.888.888,0,0,0-.888-.888H33.524a.888.888,0,0,0-.888.888v8.4A.887.887,0,0,0,33.524,35.252Zm.888-8.4h3.254v6.621H34.412Zm7.377,8.4h5.029a.888.888,0,0,0,.888-.888V22.315a.888.888,0,0,0-.888-.888H41.789a.888.888,0,0,0-.888.888v12.05A.887.887,0,0,0,41.789,35.252Zm.888-12.05H45.93V33.477H42.677Zm7.377,12.05h5.029a.888.888,0,0,0,.888-.888V17.506a.888.888,0,0,0-.888-.888H50.054a.888.888,0,0,0-.888.888V34.365A.887.887,0,0,0,50.054,35.252Zm.888-16.858H54.2V33.477H50.942ZM32.636,38.577a.888.888,0,0,1,.888-.888H63.363a.888.888,0,1,1,0,1.775H33.524A.888.888,0,0,1,32.636,38.577Zm25.7-3.325h5.029a.888.888,0,0,0,.888-.888V13.98a.888.888,0,0,0-.888-.888H58.334a.888.888,0,0,0-.888.888V34.366A.886.886,0,0,0,58.334,35.252Zm.888-20.384h3.254v18.61H59.221Z" transform="translate(1259.124 3514.124)" fill="#8f52f5"/>
  </g>
</svg>
