<svg xmlns="http://www.w3.org/2000/svg" xmlns:xlink="http://www.w3.org/1999/xlink" width="245" height="192.398" viewBox="0 0 245 192.398">
  <defs>
    <clipPath id="clip-path">
      <rect id="Rectángulo_367225" data-name="Rectángulo 367225" width="210.5" height="192.398" transform="translate(0 -22.067)" fill="none"/>
    </clipPath>
  </defs>
  <g id="Grupo_1083995" data-name="Grupo 1083995" transform="translate(-1010 -1940.713)">
    <rect id="Rectángulo_380799" data-name="Rectángulo 380799" width="245" height="6" transform="translate(1010 2116.442)" fill="#373f51" opacity="0.56"/>
    <g id="Grupo_1034364" data-name="Grupo 1034364" transform="translate(1019.5 1962.78)" clip-path="url(#clip-path)">
      <path id="Trazado_781940" data-name="Trazado 781940" d="M210.315,52.765A88.663,88.663,0,0,0,196.89,32.271c-6.434-7.329-15.437-4.362-23.6-2.394-8.246,1.987-17.115-.43-24.475-4.231-9.155-4.729-17.026-11.632-26.053-16.6C106.159-.092,86.407-1.856,68,1.741,52.783,4.713,30.744,11.773,22.013,25.683c-4.054,6.458-5.087,14.38-4.928,22,.313,14.989,4.817,29.576,6.267,44.5,1.38,14.2.02,28.857,4.278,42.476,3.059,9.784,9.122,18.753,17.6,24.518,9.467,6.438,21.182,8.54,32.574,9.684,37.8,3.8,83.474,1.482,115.153-21.986,20.212-14.974,27.82-40.823,25.439-65.216a87.68,87.68,0,0,0-8.08-28.893" transform="translate(-16.569 -22.069)" fill="#e4e4e4"/>
      <path id="Trazado_781941" data-name="Trazado 781941" d="M363.509,25.287c.031-.493.051-.988.051-1.489a23.4,23.4,0,0,0-45.8-6.735,20.3,20.3,0,0,0-25.529,21.97,2.864,2.864,0,0,0,2.855,2.5H372a2.85,2.85,0,0,0,2.875-2.8v-.029a13.617,13.617,0,0,0-11.362-13.422" transform="translate(-205.668 -0.284)" fill="#b0c0d2"/>
      <path id="Trazado_781942" data-name="Trazado 781942" d="M467.772,101.249a2.347,2.347,0,0,0-3.316-.148l-3.438,3.144V82.324a2.348,2.348,0,0,0-4.7,0v21.922l-3.437-3.144a2.347,2.347,0,1,0-3.169,3.464l7.369,6.741.038.031.058.048a2.424,2.424,0,0,0,.214.157l.032.022a2.288,2.288,0,0,0,.269.143l.028.015.044.017c.045.019.091.036.138.052l.084.028c.047.014.094.026.142.038l.084.02c.05.01.1.017.152.024.025,0,.05.008.076.01q.109.011.219.011h.017q.11,0,.219-.011c.025,0,.051-.007.076-.011.051-.007.1-.014.151-.023l.084-.02c.048-.011.095-.023.141-.037l.084-.028c.046-.016.092-.033.137-.052l.044-.017.028-.015a2.324,2.324,0,0,0,.268-.143l.032-.022a2.416,2.416,0,0,0,.214-.157l.058-.048.038-.031,7.37-6.741a2.347,2.347,0,0,0,.148-3.316" transform="translate(-316.118 -56.314)" fill="#2b6792"/>
      <path id="Trazado_781943" data-name="Trazado 781943" d="M376.617,87.341l-7.37-6.741c-.009-.009-.02-.015-.029-.023-.046-.041-.1-.077-.145-.115s-.084-.065-.128-.094-.1-.056-.145-.083-.1-.059-.156-.083c-.012-.005-.022-.013-.034-.018-.037-.016-.075-.025-.112-.04-.058-.022-.115-.044-.174-.062s-.1-.025-.15-.036-.119-.027-.18-.036-.1-.01-.153-.014-.121-.009-.182-.009-.1,0-.154.008-.12.008-.18.017-.1.02-.157.031-.114.024-.17.041-.109.038-.163.058-.08.025-.118.042l-.035.019c-.053.024-.1.053-.154.082s-.1.054-.146.084-.085.062-.128.094-.1.074-.145.115c-.01.008-.02.014-.03.023l-7.369,6.741a2.347,2.347,0,1,0,3.169,3.464l3.438-3.144v21.922a2.348,2.348,0,0,0,4.7,0V87.661l3.438,3.144a2.347,2.347,0,1,0,3.169-3.464" transform="translate(-252.038 -56.321)" fill="#2b6792"/>
      <path id="Trazado_781944" data-name="Trazado 781944" d="M332.538,243.178a7.005,7.005,0,1,1-7.005-7.005,7.005,7.005,0,0,1,7.005,7.005" transform="translate(-224.283 -166.295)" fill="#2b6792"/>
      <path id="Trazado_781945" data-name="Trazado 781945" d="M330.96,255.433a.67.67,0,0,1-.5-.222l-3.351-3.714a.671.671,0,0,1,1-.9l2.795,3.1,3.884-5.373a.671.671,0,0,1,1.087.786l-4.37,6.045a.671.671,0,0,1-.507.277h-.036" transform="translate(-230.205 -174.655)" fill="#4adbd1"/>
      <path id="Trazado_781946" data-name="Trazado 781946" d="M431.985,258.923H389.191a.671.671,0,0,1,0-1.342h42.793a.671.671,0,0,1,0,1.342" transform="translate(-273.566 -181.369)" fill="#2b6792"/>
      <path id="Trazado_781947" data-name="Trazado 781947" d="M332.538,338.869a7.005,7.005,0,1,1-7.005-7.005,7.005,7.005,0,0,1,7.005,7.005" transform="translate(-224.283 -233.673)" fill="#2b6792"/>
      <path id="Trazado_781948" data-name="Trazado 781948" d="M330.96,351.124a.67.67,0,0,1-.5-.222l-3.351-3.715a.671.671,0,0,1,1-.9l2.795,3.1,3.884-5.373a.671.671,0,0,1,1.087.786l-4.37,6.045a.671.671,0,0,1-.507.277h-.036" transform="translate(-230.205 -242.033)" fill="#4adbd1"/>
      <path id="Trazado_781949" data-name="Trazado 781949" d="M431.985,355.293H389.191a.671.671,0,0,1,0-1.342h42.793a.671.671,0,0,1,0,1.342" transform="translate(-273.566 -249.225)" fill="#2b6792"/>
      <path id="Trazado_781950" data-name="Trazado 781950" d="M332.538,434.56a7.005,7.005,0,1,1-7.005-7.005,7.005,7.005,0,0,1,7.005,7.005" transform="translate(-224.283 -301.051)" fill="#2b6792"/>
      <path id="Trazado_781951" data-name="Trazado 781951" d="M330.96,446.815a.67.67,0,0,1-.5-.222l-3.351-3.715a.671.671,0,0,1,1-.9l2.795,3.1,3.884-5.373a.671.671,0,0,1,1.087.786l-4.37,6.045a.671.671,0,0,1-.507.277h-.036" transform="translate(-230.205 -309.411)" fill="#4adbd1"/>
      <path id="Trazado_781952" data-name="Trazado 781952" d="M431.985,453.395H389.191a.671.671,0,0,1,0-1.342h42.793a.671.671,0,0,1,0,1.342" transform="translate(-273.566 -318.301)" fill="#2b6792"/>
      <path id="Trazado_781953" data-name="Trazado 781953" d="M645.993,159.209l.424,9.578-5.163-.578.2-6.413Z" transform="translate(-451.521 -112.103)" fill="#efbc99"/>
      <path id="Trazado_781954" data-name="Trazado 781954" d="M641.741,168.4a11.526,11.526,0,0,0,3.153-1.132,5.545,5.545,0,0,0,1.384-1.764L641.8,166.79Z" transform="translate(-451.864 -116.533)" fill="#ddbbac"/>
      <path id="Trazado_781955" data-name="Trazado 781955" d="M633.443,136.064c-1.608-.362-1.9,1.992-1.944,3.053-.046,1.1.068,2.192.036,2.764-.047.825-.2,4.312,1.677,5.056a4.931,4.931,0,0,0,3.878-.438c1.506-.775,3.581-2.13,3.729-4.058s-.089-4.78-1.781-5.221Z" transform="translate(-444.645 -95.779)" fill="#efbc99"/>
      <path id="Trazado_781956" data-name="Trazado 781956" d="M636.265,135.5a3.914,3.914,0,0,0-.013,1.754s3.74-4.448,3.709-6.029c-.03-1.545-.1-3.607-.846-4.2s-.873-1.517-1.36-1.86A2.854,2.854,0,0,0,636.1,125a3.279,3.279,0,0,0-2.339-1.1c-1.308.037-1.885.732-2.566.789-.608.05-1.826-.534-2.983.385a3.045,3.045,0,0,0-.8,3.245c.3.732.661,1.453,1.189,1.332s2.79-.691,3.665.359,2.917-.067,3.366.388-.294,3.469.073,3.729a1.6,1.6,0,0,0,1.6.127c.409-.314-1.04,1.239-1.04,1.239" transform="translate(-441.655 -87.243)" fill="#12263f"/>
      <path id="Trazado_781957" data-name="Trazado 781957" d="M657.327,157.254c-.46.761-1.2,1.155-1.654.881s-.447-1.113.014-1.874.969-1.276,1.422-1a1.555,1.555,0,0,1,.218,1.994" transform="translate(-461.438 -109.269)" fill="#efbc99"/>
      <path id="Trazado_781958" data-name="Trazado 781958" d="M643.723,154.568c-.025.265-.164.47-.311.456s-.246-.24-.221-.506.164-.469.311-.456.246.24.221.506" transform="translate(-452.882 -108.478)" fill="#12263f"/>
      <path id="Trazado_781959" data-name="Trazado 781959" d="M633.587,153.066c-.025.265-.164.469-.311.456s-.246-.24-.221-.506.164-.469.311-.456c.176.017.246.242.221.506" transform="translate(-445.745 -107.421)" fill="#12263f"/>
      <path id="Trazado_781960" data-name="Trazado 781960" d="M645.845,149.594c.662.244.927.586.792.792s-.572.075-1.065-.118-.918-.49-.842-.71.453-.209,1.115.036" transform="translate(-453.963 -105.197)" fill="#12263f"/>
      <path id="Trazado_781961" data-name="Trazado 781961" d="M631.708,147.817c.7-.035,1.082.175,1.04.417s-.5.294-1.026.309-1.036-.091-1.054-.322.335-.37,1.039-.4" transform="translate(-444.067 -104.078)" fill="#12263f"/>
      <path id="Trazado_781962" data-name="Trazado 781962" d="M638.543,153.265h-.012c-.239-.035-.486-.072-.6-.246a.507.507,0,0,1-.021-.43c.1-.349.789-2.617.789-2.617l.16.049s-.684,2.267-.788,2.616a.364.364,0,0,0,0,.292c.07.11.27.139.481.171a.084.084,0,0,1-.012.167" transform="translate(-449.143 -105.598)" fill="#12263f"/>
      <path id="Trazado_781963" data-name="Trazado 781963" d="M637.363,164.155a1.512,1.512,0,0,1-1.058-.394.084.084,0,1,1,.119-.118,1.357,1.357,0,0,0,1.476.211.084.084,0,0,1,.105.131,1.078,1.078,0,0,1-.641.17" transform="translate(-448.019 -115.207)" fill="#12263f"/>
      <path id="Trazado_781964" data-name="Trazado 781964" d="M632.729,152.452a.977.977,0,0,1-.152-.012,1.021,1.021,0,1,1,.758-.19,1.012,1.012,0,0,1-.606.2m0-1.876a.854.854,0,1,0,.126.009.855.855,0,0,0-.126-.009" transform="translate(-444.797 -105.906)" fill="#fff"/>
      <path id="Trazado_781965" data-name="Trazado 781965" d="M642.863,153.955a.96.96,0,0,1-.15-.012,1.021,1.021,0,1,1,.3-2.021,1.022,1.022,0,0,1-.149,2.032m0-1.876a.854.854,0,1,0,.126.009.855.855,0,0,0-.126-.009" transform="translate(-451.934 -106.964)" fill="#fff"/>
      <rect id="Rectángulo_367143" data-name="Rectángulo 367143" width="0.167" height="1.145" transform="translate(188.845 45.745) rotate(-81.575)" fill="#fff"/>
      <rect id="Rectángulo_367144" data-name="Rectángulo 367144" width="3.712" height="0.168" transform="translate(191.84 46.022) rotate(-3.24)" fill="#fff"/>
      <path id="Trazado_781966" data-name="Trazado 781966" d="M663.18,493.263l3.969-.109.118-7.371-4.087.244Z" transform="translate(-466.96 -342.051)" fill="#efbc99"/>
      <path id="Trazado_781967" data-name="Trazado 781967" d="M646.838,507.73c-.877.872-2.657,1.122-3.922,1.69a9.068,9.068,0,0,0-2.1,1.244.712.712,0,0,0,.473,1.248l9.8-.052a.711.711,0,0,0,.706-.748l-.183-3.522a5.172,5.172,0,0,1-4.769.139" transform="translate(-451.037 -357.406)" fill="#2c3e50"/>
      <path id="Trazado_781968" data-name="Trazado 781968" d="M614.808,493.263l3.969-.109.118-7.371-4.087.244Z" transform="translate(-432.9 -342.051)" fill="#efbc99"/>
      <path id="Trazado_781969" data-name="Trazado 781969" d="M598.466,507.73c-.877.872-2.657,1.122-3.922,1.69a9.07,9.07,0,0,0-2.1,1.244.712.712,0,0,0,.473,1.248l9.8-.052a.711.711,0,0,0,.706-.748l-.183-3.522a5.172,5.172,0,0,1-4.769.139" transform="translate(-416.977 -357.406)" fill="#2c3e50"/>
      <path id="Trazado_781970" data-name="Trazado 781970" d="M629.91,303.325l-1.267,55.165c-1.475,1.038-4.589,1.147-6.045.055l-4.483-47.566L614,358.708a6.182,6.182,0,0,1-5.3-.109l-1.627-49.622V298.643h21.73Z" transform="translate(-427.456 -210.281)" fill="#2980b8"/>
      <rect id="Rectángulo_367145" data-name="Rectángulo 367145" width="0.166" height="57.846" transform="translate(199.688 90.808) rotate(-0.161)" fill="#4a99af"/>
      <rect id="Rectángulo_367146" data-name="Rectángulo 367146" width="48.42" height="0.166" transform="translate(185.048 148.79) rotate(-83.469)" fill="#4a99af"/>
      <path id="Trazado_781971" data-name="Trazado 781971" d="M629.3,223.3c.472-.591.107-22.035-.811-25.712-.423-1.694.539-5.632.694-9.369a8.059,8.059,0,0,0-4.192-7.469,21.163,21.163,0,0,0-4.852-1.091,14.2,14.2,0,0,1-3.806,2.825c-1.23-.538-1.147-1.891-1.25-2.932,0,0-4.012.753-6.056,1.211s-2.267,3.6-2.941,7.93a122.165,122.165,0,0,0-1.311,18.209c.324,7.531-1.266,14.863-.713,15.7.467.705,7.813-.348,12.62,1.181s12.148.109,12.62-.482" transform="translate(-425.246 -126.429)" fill="#809299"/>
      <rect id="Rectángulo_367147" data-name="Rectángulo 367147" width="6.131" height="1.036" transform="translate(192.911 72.72) rotate(-44.191)" fill="#2980b8"/>
      <path id="Trazado_781972" data-name="Trazado 781972" d="M655.786,219.087s-.723.831.875,1.021,6.053,1.11,8.03.677c-.355-3.209.787-11.991.783-14.328l-6.023-3.515,4,10.829-9.027,2.13c-.1.846,1.363,3.186,1.363,3.186" transform="translate(-460.79 -142.896)" fill="#727997"/>
      <path id="Trazado_781973" data-name="Trazado 781973" d="M611.968,213.032,614,208.675l-3.129,4.293Z" transform="translate(-430.125 -146.933)" fill="#e1bdc4"/>
      <path id="Trazado_781974" data-name="Trazado 781974" d="M640.943,229.555c-.243-5.666-.832-17.053-.5-21.058.111-1.339.246-3.446.4-5.886.3-4.6.662-10.335,1.032-13.183l.166.021c-.369,2.842-.736,8.57-1.031,13.172-.157,2.44-.292,4.548-.4,5.889-.333,4,.256,15.375.5,21.037Z" transform="translate(-450.881 -133.38)" fill="#12263f"/>
      <path id="Trazado_781975" data-name="Trazado 781975" d="M594.831,183c-7.452.589-13.789,16.513-12.381,19.437s12.071,1.934,12.071,1.934l-3.8-5.171,3.393-9.323Z" transform="translate(-409.977 -128.856)" fill="#809299"/>
      <path id="Trazado_781976" data-name="Trazado 781976" d="M659.3,189.453l5.281,10.477-10.146,1.336c.944,1.357,1.436,3.262.505,4.117,0,0,14.475.868,16.086-2.564,1.661-3.539-4.622-16.339-6.824-18.361a9.443,9.443,0,0,0-5.037-2.3Z" transform="translate(-460.801 -128.259)" fill="#809299"/>
      <path id="Trazado_781977" data-name="Trazado 781977" d="M616.011,223.19H601.9l-5.973-20.248h14.111Z" transform="translate(-419.606 -142.896)" fill="#2c3e50"/>
      <path id="Trazado_781978" data-name="Trazado 781978" d="M649.426,177.766l.982.771-1.086,3.144-.581-1.11-2.93.656a11.525,11.525,0,0,0,3.615-3.461" transform="translate(-454.73 -125.169)" fill="#ffdcd2"/>
      <path id="Trazado_781979" data-name="Trazado 781979" d="M638.395,178.217l-1.057.6L637,181.681l1.179-.681,1.429.545c-.881-.871-.965-1.855-1.21-3.328" transform="translate(-448.523 -125.487)" fill="#ffdcd2"/>
      <path id="Trazado_781980" data-name="Trazado 781980" d="M653.935,211.3l3.436.065-.133,3.086-1.57,1.293-1.825-1.325Z" transform="translate(-460.385 -148.783)" fill="#ffdcd2"/>
      <path id="Trazado_781981" data-name="Trazado 781981" d="M657.517,211.367l-3.436-.064-.031,1.044,3.419.113Z" transform="translate(-460.531 -148.783)" fill="#ffc9be"/>
      <path id="Trazado_781982" data-name="Trazado 781982" d="M606.93,246.812c.21.326,2.44.093,2.559-.329.107-.377-.49-.332-1.213-.391,0,0,1.668-.1,1.693-.535s-2.069-.432-2.069-.432,1.836-.016,1.894-.5-2.037-.357-2.037-.357,1.614-.135,1.5-.66c-.082-.388-2.961-.28-2.961-.28l-.147-.485s-.673.244-.656.833a13.415,13.415,0,0,0,1.434,3.136" transform="translate(-426.342 -170.991)" fill="#efbc99"/>
      <path id="Trazado_781983" data-name="Trazado 781983" d="M662.341,257.435a.212.212,0,1,1-.176-.242.212.212,0,0,1,.176.242" transform="translate(-466.073 -181.093)" fill="#fff"/>
      <path id="Trazado_781984" data-name="Trazado 781984" d="M665.523,257.249a.212.212,0,1,1-.176-.242.211.211,0,0,1,.176.242" transform="translate(-468.313 -180.962)" fill="#fff"/>
      <rect id="Rectángulo_367148" data-name="Rectángulo 367148" width="64.557" height="12.713" transform="translate(6.606 63.297)" fill="#355269"/>
      <rect id="Rectángulo_367149" data-name="Rectángulo 367149" width="2.021" height="2.021" transform="translate(64.799 66.602)" fill="#489dd9"/>
      <rect id="Rectángulo_367150" data-name="Rectángulo 367150" width="2.021" height="2.021" transform="translate(61.248 66.602)" fill="#489dd9"/>
      <rect id="Rectángulo_367151" data-name="Rectángulo 367151" width="2.021" height="2.021" transform="translate(57.698 66.602)" fill="#489dd9"/>
      <path id="Trazado_781985" data-name="Trazado 781985" d="M196.1,239.8h6.926a1.1,1.1,0,0,0,1.1-1.1V238.4a1.1,1.1,0,0,0-1.1-1.1H196.1a1.1,1.1,0,0,0-1.1,1.1v.295a1.1,1.1,0,0,0,1.1,1.1" transform="translate(-137.308 -167.092)" fill="#2c3e50"/>
      <rect id="Rectángulo_367152" data-name="Rectángulo 367152" width="2.021" height="2.021" transform="translate(49.216 66.602)" fill="#489dd9"/>
      <rect id="Rectángulo_367153" data-name="Rectángulo 367153" width="2.021" height="2.021" transform="translate(45.665 66.602)" fill="#489dd9"/>
      <rect id="Rectángulo_367154" data-name="Rectángulo 367154" width="2.021" height="2.021" transform="translate(42.115 66.602)" fill="#489dd9"/>
      <path id="Trazado_781986" data-name="Trazado 781986" d="M143.436,239.8h6.926a1.1,1.1,0,0,0,1.1-1.1V238.4a1.1,1.1,0,0,0-1.1-1.1h-6.926a1.1,1.1,0,0,0-1.1,1.1v.295a1.1,1.1,0,0,0,1.1,1.1" transform="translate(-100.223 -167.092)" fill="#2c3e50"/>
      <rect id="Rectángulo_367155" data-name="Rectángulo 367155" width="2.021" height="2.021" transform="translate(33.633 66.602)" fill="#489dd9"/>
      <rect id="Rectángulo_367156" data-name="Rectángulo 367156" width="2.021" height="2.021" transform="translate(30.082 66.602)" fill="#489dd9"/>
      <rect id="Rectángulo_367157" data-name="Rectángulo 367157" width="2.021" height="2.021" transform="translate(26.532 66.602)" fill="#489dd9"/>
      <path id="Trazado_781987" data-name="Trazado 781987" d="M90.769,239.8H97.7a1.1,1.1,0,0,0,1.1-1.1V238.4a1.1,1.1,0,0,0-1.1-1.1H90.769a1.1,1.1,0,0,0-1.1,1.1v.295a1.1,1.1,0,0,0,1.1,1.1" transform="translate(-63.139 -167.092)" fill="#2c3e50"/>
      <rect id="Rectángulo_367158" data-name="Rectángulo 367158" width="2.021" height="2.021" transform="translate(18.049 66.602)" fill="#489dd9"/>
      <rect id="Rectángulo_367159" data-name="Rectángulo 367159" width="2.021" height="2.021" transform="translate(14.499 66.602)" fill="#489dd9"/>
      <rect id="Rectángulo_367160" data-name="Rectángulo 367160" width="2.021" height="2.021" transform="translate(10.948 66.602)" fill="#489dd9"/>
      <path id="Trazado_781988" data-name="Trazado 781988" d="M38.1,239.8h6.926a1.1,1.1,0,0,0,1.1-1.1V238.4a1.1,1.1,0,0,0-1.1-1.1H38.1a1.1,1.1,0,0,0-1.1,1.1v.295a1.1,1.1,0,0,0,1.1,1.1" transform="translate(-26.055 -167.092)" fill="#2c3e50"/>
      <rect id="Rectángulo_367161" data-name="Rectángulo 367161" width="64.557" height="12.713" transform="translate(6.606 113.12)" fill="#355269"/>
      <rect id="Rectángulo_367162" data-name="Rectángulo 367162" width="22.402" height="4.123" transform="translate(36.957 117.415)" fill="#2c3e50"/>
      <path id="Trazado_781989" data-name="Trazado 781989" d="M211.589,398.9a2.062,2.062,0,1,1,2.062,2.062,2.062,2.062,0,0,1-2.062-2.062" transform="translate(-148.984 -279.422)" fill="#2c3e50"/>
      <path id="Trazado_781990" data-name="Trazado 781990" d="M79.912,401.84a.826.826,0,1,1,.826.826.826.826,0,0,1-.826-.826" transform="translate(-56.268 -282.363)" fill="#489dd9"/>
      <path id="Trazado_781991" data-name="Trazado 781991" d="M65.692,401.84a.826.826,0,1,1,.826.826.826.826,0,0,1-.826-.826" transform="translate(-46.255 -282.363)" fill="#fff"/>
      <path id="Trazado_781992" data-name="Trazado 781992" d="M51.473,401.84a.826.826,0,1,1,.826.826.826.826,0,0,1-.826-.826" transform="translate(-36.243 -282.363)" fill="#489dd9"/>
      <path id="Trazado_781993" data-name="Trazado 781993" d="M37.254,401.84a.826.826,0,1,1,.825.826.826.826,0,0,1-.825-.826" transform="translate(-26.231 -282.363)" fill="#fff"/>
      <rect id="Rectángulo_367163" data-name="Rectángulo 367163" width="64.557" height="12.713" transform="translate(6.606 13.491)" fill="#373f51"/>
      <rect id="Rectángulo_367164" data-name="Rectángulo 367164" width="3.322" height="3.322" transform="translate(63.438 18.187)" fill="#489dd9"/>
      <rect id="Rectángulo_367165" data-name="Rectángulo 367165" width="3.322" height="3.322" transform="translate(56.612 18.187)" fill="#489dd9"/>
      <rect id="Rectángulo_367166" data-name="Rectángulo 367166" width="3.322" height="3.322" transform="translate(49.786 18.187)" fill="#489dd9"/>
      <rect id="Rectángulo_367167" data-name="Rectángulo 367167" width="3.322" height="3.322" transform="translate(42.96 18.187)" fill="#489dd9"/>
      <rect id="Rectángulo_367168" data-name="Rectángulo 367168" width="3.322" height="3.322" transform="translate(17.849 18.187)" fill="#489dd9"/>
      <rect id="Rectángulo_367169" data-name="Rectángulo 367169" width="3.322" height="3.322" transform="translate(11.023 18.187)" fill="#489dd9"/>
      <path id="Trazado_781994" data-name="Trazado 781994" d="M93.43,64.789h6.194a1.464,1.464,0,0,0,1.464-1.464v-.393a1.464,1.464,0,0,0-1.464-1.464H93.43a1.464,1.464,0,0,0-1.464,1.464v.393a1.464,1.464,0,0,0,1.464,1.464" transform="translate(-64.755 -43.28)" fill="#dee4f0"/>
      <rect id="Rectángulo_367170" data-name="Rectángulo 367170" width="64.557" height="25.426" transform="translate(6.606 125.834)" fill="#373f51"/>
      <rect id="Rectángulo_367171" data-name="Rectángulo 367171" width="18.481" height="4.123" transform="translate(22.91 131.19)" fill="#b0c0d2"/>
      <path id="Trazado_781995" data-name="Trazado 781995" d="M134.309,463.769a.826.826,0,1,1,.826.826.826.826,0,0,1-.826-.826" transform="translate(-94.57 -325.968)" fill="#fff"/>
      <path id="Trazado_781996" data-name="Trazado 781996" d="M120.089,463.769a.826.826,0,1,1,.826.826.826.826,0,0,1-.826-.826" transform="translate(-84.557 -325.968)" fill="#489dd9"/>
      <path id="Trazado_781997" data-name="Trazado 781997" d="M105.87,463.769a.826.826,0,1,1,.826.826.826.826,0,0,1-.826-.826" transform="translate(-74.545 -325.968)" fill="#fff"/>
      <path id="Trazado_781998" data-name="Trazado 781998" d="M91.65,463.769a.826.826,0,1,1,.826.826.826.826,0,0,1-.826-.826" transform="translate(-64.533 -325.968)" fill="#489dd9"/>
      <path id="Trazado_781999" data-name="Trazado 781999" d="M77.431,463.769a.826.826,0,1,1,.826.826.826.826,0,0,1-.826-.826" transform="translate(-54.521 -325.968)" fill="#489dd9"/>
      <path id="Trazado_782000" data-name="Trazado 782000" d="M173.8,444.3H152.646a.527.527,0,0,1,0-1.055H173.8a.527.527,0,1,1,0,1.055" transform="translate(-107.11 -312.101)" fill="#638daa"/>
      <path id="Trazado_782001" data-name="Trazado 782001" d="M173.8,453.594H152.646a.527.527,0,0,1,0-1.055H173.8a.527.527,0,1,1,0,1.055" transform="translate(-107.11 -318.643)" fill="#638daa"/>
      <path id="Trazado_782002" data-name="Trazado 782002" d="M173.8,462.883H152.646a.527.527,0,0,1,0-1.055H173.8a.527.527,0,1,1,0,1.055" transform="translate(-107.11 -325.184)" fill="#638daa"/>
      <path id="Trazado_782003" data-name="Trazado 782003" d="M173.8,472.174H152.646a.527.527,0,0,1,0-1.055H173.8a.527.527,0,0,1,0,1.055" transform="translate(-107.11 -331.726)" fill="#638daa"/>
      <path id="Trazado_782004" data-name="Trazado 782004" d="M173.8,481.465H152.646a.527.527,0,0,1,0-1.055H173.8a.527.527,0,1,1,0,1.055" transform="translate(-107.11 -338.267)" fill="#638daa"/>
      <path id="Trazado_782005" data-name="Trazado 782005" d="M173.8,490.755H152.646a.527.527,0,0,1,0-1.055H173.8a.527.527,0,0,1,0,1.055" transform="translate(-107.11 -344.809)" fill="#638daa"/>
      <rect id="Rectángulo_367172" data-name="Rectángulo 367172" width="3.322" height="3.322" transform="translate(10.948 131.19)" fill="#489dd9"/>
      <rect id="Rectángulo_367173" data-name="Rectángulo 367173" width="3.322" height="3.322" transform="translate(10.948 136.94)" fill="#489dd9"/>
      <rect id="Rectángulo_367174" data-name="Rectángulo 367174" width="3.322" height="3.322" transform="translate(10.948 142.67)" fill="#489dd9"/>
      <rect id="Rectángulo_367175" data-name="Rectángulo 367175" width="3.322" height="3.322" transform="translate(28.045 142.67)" fill="#489dd9"/>
      <rect id="Rectángulo_367176" data-name="Rectángulo 367176" width="3.322" height="3.322" transform="translate(22.901 142.67)" fill="#489dd9"/>
      <rect id="Rectángulo_367177" data-name="Rectángulo 367177" width="3.322" height="3.322" transform="translate(33.19 142.67)" fill="#489dd9"/>
      <rect id="Rectángulo_367178" data-name="Rectángulo 367178" width="3.322" height="3.322" transform="translate(38.334 142.67)" fill="#489dd9"/>
      <path id="Trazado_782006" data-name="Trazado 782006" d="M118.944,234.331a23.383,23.383,0,0,1-4.826-.5c-5.489-1.158-9.416-4.1-10.342-5.717a.252.252,0,0,1,.437-.249c.881,1.542,4.671,4.348,10.009,5.474,4.878,1.03,12.479.94,20.979-5.333a.252.252,0,0,1,.3.4c-6.214,4.585-11.964,5.922-16.555,5.922" transform="translate(-73.047 -160.354)" fill="#fff"/>
      <path id="Trazado_782007" data-name="Trazado 782007" d="M124.31,231.907a9.867,9.867,0,0,1-8.021-3.837.252.252,0,1,1,.4-.3,9.493,9.493,0,0,0,8.441,3.609c3-.217,5.639-1.622,6.722-3.579a.252.252,0,0,1,.44.243c-1.163,2.1-3.96,3.608-7.126,3.837q-.432.031-.857.031" transform="translate(-81.845 -160.304)" fill="#fff"/>
      <rect id="Rectángulo_367179" data-name="Rectángulo 367179" width="64.557" height="12.713" transform="translate(6.606 76.01)" fill="#406e8e"/>
      <rect id="Rectángulo_367180" data-name="Rectángulo 367180" width="3.322" height="3.322" transform="translate(20.125 80.62)" fill="#489dd9"/>
      <rect id="Rectángulo_367181" data-name="Rectángulo 367181" width="3.322" height="3.322" transform="translate(15.564 80.62)" fill="#489dd9"/>
      <rect id="Rectángulo_367182" data-name="Rectángulo 367182" width="3.322" height="3.322" transform="translate(11.003 80.62)" fill="#489dd9"/>
      <path id="Trazado_782008" data-name="Trazado 782008" d="M88.795,274.3h36.426a2.423,2.423,0,0,0,2.423-2.423v-.65a2.423,2.423,0,0,0-2.423-2.423H88.795a2.423,2.423,0,0,0-2.423,2.423v.65a2.423,2.423,0,0,0,2.423,2.423" transform="translate(-60.816 -189.269)" fill="#489dd9"/>
      <rect id="Rectángulo_367183" data-name="Rectángulo 367183" width="11.094" height="2.077" transform="translate(30.628 81.242)" fill="#2c3e50"/>
      <path id="Trazado_782009" data-name="Trazado 782009" d="M206.284,274.137a1.661,1.661,0,1,0,1.661-1.661,1.661,1.661,0,0,0-1.661,1.661" transform="translate(-145.249 -191.856)" fill="#3884b0"/>
      <path id="Trazado_782010" data-name="Trazado 782010" d="M193.186,276.807a.539.539,0,1,0,.538-.538.539.539,0,0,0-.538.538" transform="translate(-136.027 -194.527)" fill="#fff"/>
      <path id="Trazado_782011" data-name="Trazado 782011" d="M179.926,275.618a1.039,1.039,0,1,0,1.039-1.039,1.039,1.039,0,0,0-1.039,1.039" transform="translate(-126.69 -193.337)" fill="#3884b0"/>
      <path id="Trazado_782012" data-name="Trazado 782012" d="M168.356,275.618a1.039,1.039,0,1,0,1.039-1.039,1.039,1.039,0,0,0-1.039,1.039" transform="translate(-118.543 -193.337)" fill="#3884b0"/>
      <path id="Trazado_782013" data-name="Trazado 782013" d="M156.786,275.618a1.039,1.039,0,1,0,1.039-1.039,1.039,1.039,0,0,0-1.039,1.039" transform="translate(-110.396 -193.337)" fill="#3884b0"/>
      <path id="Trazado_782014" data-name="Trazado 782014" d="M145.216,275.618a1.039,1.039,0,1,0,1.039-1.039,1.039,1.039,0,0,0-1.039,1.039" transform="translate(-102.25 -193.337)" fill="#3884b0"/>
      <path id="Trazado_782015" data-name="Trazado 782015" d="M68.01,232.484c-.105,0-.2-.005-.286-.013a5.059,5.059,0,0,1-4.153-4.521.251.251,0,0,1,.5-.068,4.551,4.551,0,0,0,3.7,4.088c1.819.162,3.389-1.343,4.295-4.132a.252.252,0,1,1,.478.155c-1.277,3.933-3.421,4.49-4.532,4.49" transform="translate(-44.76 -160.304)" fill="#fff"/>
      <path id="Trazado_782016" data-name="Trazado 782016" d="M153.474,231.083c-2.545,0-5.117-1.1-8.44-2.947a.252.252,0,0,1,.245-.44c5.921,3.3,9.362,4.377,15.312.017a.252.252,0,0,1,.3.406c-2.812,2.06-5.1,2.964-7.414,2.964" transform="translate(-102.03 -160.304)" fill="#fff"/>
      <rect id="Rectángulo_367184" data-name="Rectángulo 367184" width="64.557" height="12.713" transform="translate(6.606 26.204)" fill="#406e8e"/>
      <path id="Trazado_782017" data-name="Trazado 782017" d="M223.135,105.032a.251.251,0,0,1-.251-.251V97.423a.251.251,0,1,1,.5,0v7.357a.251.251,0,0,1-.252.251" transform="translate(-156.938 -68.421)" fill="#4adbd1"/>
      <path id="Trazado_782018" data-name="Trazado 782018" d="M213.535,105.032a.251.251,0,0,1-.251-.251V97.423a.251.251,0,1,1,.5,0v7.357a.251.251,0,0,1-.252.251" transform="translate(-150.178 -68.421)" fill="#4adbd1"/>
      <path id="Trazado_782019" data-name="Trazado 782019" d="M203.934,105.032a.251.251,0,0,1-.251-.251V97.423a.251.251,0,1,1,.5,0v7.357a.251.251,0,0,1-.251.251" transform="translate(-143.418 -68.421)" fill="#4adbd1"/>
      <path id="Trazado_782020" data-name="Trazado 782020" d="M194.333,105.032a.251.251,0,0,1-.251-.251V97.423a.251.251,0,1,1,.5,0v7.357a.251.251,0,0,1-.251.251" transform="translate(-136.657 -68.421)" fill="#4adbd1"/>
      <path id="Trazado_782021" data-name="Trazado 782021" d="M184.733,105.032a.251.251,0,0,1-.251-.251V97.423a.251.251,0,0,1,.5,0v7.357a.251.251,0,0,1-.251.251" transform="translate(-129.898 -68.421)" fill="#4adbd1"/>
      <path id="Trazado_782022" data-name="Trazado 782022" d="M175.132,105.032a.251.251,0,0,1-.252-.251V97.423a.251.251,0,1,1,.5,0v7.357a.251.251,0,0,1-.251.251" transform="translate(-123.138 -68.421)" fill="#4adbd1"/>
      <path id="Trazado_782023" data-name="Trazado 782023" d="M165.531,105.032a.251.251,0,0,1-.252-.251V97.423a.251.251,0,1,1,.5,0v7.357a.251.251,0,0,1-.251.251" transform="translate(-116.377 -68.421)" fill="#4adbd1"/>
      <path id="Trazado_782024" data-name="Trazado 782024" d="M133.766,108.489a.826.826,0,1,1,.826.826.826.826,0,0,1-.826-.826" transform="translate(-94.188 -75.808)" fill="#fff"/>
      <path id="Trazado_782025" data-name="Trazado 782025" d="M119.546,108.489a.826.826,0,1,1,.826.826.826.826,0,0,1-.826-.826" transform="translate(-84.175 -75.808)" fill="#fff"/>
      <path id="Trazado_782026" data-name="Trazado 782026" d="M105.327,108.489a.826.826,0,1,1,.826.826.826.826,0,0,1-.826-.826" transform="translate(-74.163 -75.808)" fill="#fff"/>
      <path id="Trazado_782027" data-name="Trazado 782027" d="M91.107,108.489a.826.826,0,1,1,.826.826.826.826,0,0,1-.826-.826" transform="translate(-64.15 -75.808)" fill="#fff"/>
      <path id="Trazado_782028" data-name="Trazado 782028" d="M62.035,105.032a.251.251,0,0,1-.251-.251V97.423a.251.251,0,0,1,.5,0v7.357a.251.251,0,0,1-.251.251" transform="translate(-43.503 -68.421)" fill="#4adbd1"/>
      <path id="Trazado_782029" data-name="Trazado 782029" d="M52.435,105.032a.251.251,0,0,1-.251-.251V97.423a.251.251,0,1,1,.5,0v7.357a.251.251,0,0,1-.251.251" transform="translate(-36.744 -68.421)" fill="#4adbd1"/>
      <path id="Trazado_782030" data-name="Trazado 782030" d="M42.834,105.032a.251.251,0,0,1-.251-.251V97.423a.251.251,0,1,1,.5,0v7.357a.251.251,0,0,1-.251.251" transform="translate(-29.984 -68.421)" fill="#4adbd1"/>
      <path id="Trazado_782031" data-name="Trazado 782031" d="M61.12,74.932A33.331,33.331,0,0,1,51.1,73.365c-4.857-1.569-8.162-4.05-9.068-6.805a.252.252,0,0,1,.478-.157c1.875,5.706,14.242,9.069,22.679,7.721,3.274-.524,8.767-2.214,8.767-7.643a.251.251,0,0,1,.5,0c0,4.3-3.264,7.191-9.19,8.139a26.391,26.391,0,0,1-4.147.312" transform="translate(-29.586 -46.634)" fill="#4adbd1"/>
      <path id="Trazado_782032" data-name="Trazado 782032" d="M80.461,73.1c-6.391,0-11.795-2.267-15.312-6.453a.251.251,0,1,1,.385-.323c3.636,4.327,9.36,6.547,16.125,6.247,6.5-.287,13.128-2.965,15.413-6.229a.251.251,0,1,1,.412.288c-2.366,3.38-9.159,6.15-15.8,6.444-.41.018-.818.027-1.22.027" transform="translate(-45.832 -46.634)" fill="#fff"/>
      <rect id="Rectángulo_367185" data-name="Rectángulo 367185" width="6.561" height="137.769" transform="translate(0.045 13.491)" fill="#2c3e50"/>
      <path id="Trazado_782033" data-name="Trazado 782033" d="M14.124,183.2h0a.273.273,0,0,1-.272-.275c0-.47.264-47.207.774-66.651.506-19.291-.015-55.081-.773-67.714a.273.273,0,0,1,.257-.289.27.27,0,0,1,.289.257c.759,12.643,1.28,48.458.774,67.761-.51,19.438-.771,66.169-.773,66.639a.273.273,0,0,1-.273.271" transform="translate(-9.752 -33.992)" fill="#4adbd1"/>
      <path id="Trazado_782034" data-name="Trazado 782034" d="M5.7,183.2h0a.273.273,0,0,1-.272-.275c0-.47.264-47.207.774-66.651C6.7,96.989,6.184,61.2,5.426,48.566a.273.273,0,0,1,.256-.289.269.269,0,0,1,.289.257c.759,12.643,1.28,48.458.774,67.761-.51,19.438-.771,66.169-.773,66.639a.273.273,0,0,1-.273.271" transform="translate(-3.82 -33.992)" fill="#4adbd1"/>
      <path id="Trazado_782035" data-name="Trazado 782035" d="M4.8,183.987a.273.273,0,0,1-.273-.273c0-.4,0-40.263.258-64.026.146-13.606-.017-25.587-.2-39.459-.128-9.409-.259-19.139-.311-30.568a.273.273,0,0,1,.272-.275h0a.274.274,0,0,1,.273.272c.052,11.427.184,21.155.311,30.563.188,13.876.35,25.86.2,39.473-.255,23.76-.258,63.62-.258,64.02a.273.273,0,0,1-.273.273" transform="translate(-3.002 -34.774)" fill="#4adbd1"/>
      <path id="Trazado_782036" data-name="Trazado 782036" d="M12.9,182.988a.273.273,0,0,1-.273-.266c-.938-37.015-.246-62.018.212-78.563.17-6.14.3-10.991.3-14.747,0-7.175-.279-14.788-.549-22.151-.248-6.77-.483-13.165-.483-18.71a.273.273,0,0,1,.546,0c0,5.536.234,11.925.482,18.69.27,7.367.549,14.986.549,22.171,0,3.764-.134,8.617-.3,14.762-.457,16.539-1.149,41.533-.212,78.534a.273.273,0,0,1-.266.28Z" transform="translate(-8.525 -33.994)" fill="#4adbd1"/>
      <path id="Trazado_782037" data-name="Trazado 782037" d="M9.12,182.988a.273.273,0,0,1-.273-.266c-.938-37.016-.246-62.018.212-78.564.17-6.14.3-10.991.3-14.746,0-7.175-.279-14.788-.549-22.151-.248-6.77-.483-13.165-.483-18.71a.273.273,0,0,1,.546,0c0,5.536.234,11.925.482,18.69.27,7.367.549,14.986.549,22.171,0,3.763-.134,8.617-.3,14.762-.457,16.539-1.149,41.533-.212,78.535a.273.273,0,0,1-.266.28Z" transform="translate(-5.866 -33.994)" fill="#4adbd1"/>
      <rect id="Rectángulo_367186" data-name="Rectángulo 367186" width="6.561" height="7.735" transform="translate(0.045 20.26)" fill="#2c3e50"/>
      <rect id="Rectángulo_367187" data-name="Rectángulo 367187" width="6.561" height="7.735" transform="translate(0.045 32.973)" fill="#2c3e50"/>
      <rect id="Rectángulo_367188" data-name="Rectángulo 367188" width="6.561" height="7.735" transform="translate(0.045 45.686)" fill="#2c3e50"/>
      <rect id="Rectángulo_367189" data-name="Rectángulo 367189" width="6.561" height="7.735" transform="translate(0.045 58.4)" fill="#2c3e50"/>
      <rect id="Rectángulo_367190" data-name="Rectángulo 367190" width="6.561" height="7.735" transform="translate(0.045 71.113)" fill="#2c3e50"/>
      <rect id="Rectángulo_367191" data-name="Rectángulo 367191" width="6.561" height="7.735" transform="translate(0.045 83.826)" fill="#2c3e50"/>
      <rect id="Rectángulo_367192" data-name="Rectángulo 367192" width="6.561" height="7.735" transform="translate(0.045 96.539)" fill="#2c3e50"/>
      <rect id="Rectángulo_367193" data-name="Rectángulo 367193" width="6.561" height="7.735" transform="translate(0.045 109.253)" fill="#2c3e50"/>
      <rect id="Rectángulo_367194" data-name="Rectángulo 367194" width="6.561" height="7.735" transform="translate(0.045 121.966)" fill="#2c3e50"/>
      <rect id="Rectángulo_367195" data-name="Rectángulo 367195" width="6.561" height="7.735" transform="translate(0.045 134.679)" fill="#2c3e50"/>
      <rect id="Rectángulo_367196" data-name="Rectángulo 367196" width="6.561" height="3.868" transform="translate(0.045 147.392)" fill="#2c3e50"/>
      <rect id="Rectángulo_367197" data-name="Rectángulo 367197" width="6.561" height="4.626" transform="translate(0.045 13.491)" fill="#2c3e50"/>
      <rect id="Rectángulo_367198" data-name="Rectángulo 367198" width="6.561" height="137.769" transform="translate(71.163 13.491)" fill="#2c3e50"/>
      <path id="Trazado_782038" data-name="Trazado 782038" d="M0,510.991v3.288H.994l.884-3.288Z" transform="translate(0 -359.8)" fill="#355269"/>
      <path id="Trazado_782039" data-name="Trazado 782039" d="M258.1,510.991v3.288h-1l-.881-3.288Z" transform="translate(-180.41 -359.8)" fill="#355269"/>
      <rect id="Rectángulo_367199" data-name="Rectángulo 367199" width="64.557" height="19.487" transform="translate(6.572 41.373)" fill="#355269"/>
      <path id="Trazado_782040" data-name="Trazado 782040" d="M87.191,181.8H31.564a2.412,2.412,0,0,1-2.412-2.412v-.647a2.412,2.412,0,0,1,2.412-2.412H87.191a2.412,2.412,0,0,1,2.412,2.412v.647a2.412,2.412,0,0,1-2.412,2.412" transform="translate(-20.527 -124.158)" fill="#489dd9"/>
      <rect id="Rectángulo_367200" data-name="Rectángulo 367200" width="20.437" height="2.744" transform="translate(11.208 53.535)" fill="#406e8e"/>
      <rect id="Rectángulo_367201" data-name="Rectángulo 367201" width="2.744" height="2.744" transform="translate(63.393 53.535)" fill="#406e8e"/>
      <rect id="Rectángulo_367202" data-name="Rectángulo 367202" width="2.744" height="2.744" transform="translate(58.915 53.535)" fill="#406e8e"/>
      <rect id="Rectángulo_367203" data-name="Rectángulo 367203" width="2.744" height="2.744" transform="translate(54.438 53.535)" fill="#406e8e"/>
      <path id="Trazado_782041" data-name="Trazado 782041" d="M111.487,184.025a.652.652,0,1,1-.652-.652.652.652,0,0,1,.652.652" transform="translate(-77.583 -129.117)" fill="#fff"/>
      <path id="Trazado_782042" data-name="Trazado 782042" d="M121.327,184.025a.652.652,0,1,1-.652-.652.652.652,0,0,1,.652.652" transform="translate(-84.512 -129.117)" fill="#fff"/>
      <path id="Trazado_782043" data-name="Trazado 782043" d="M131.166,184.025a.652.652,0,1,1-.652-.652.652.652,0,0,1,.652.652" transform="translate(-91.439 -129.117)" fill="#fff"/>
      <rect id="Rectángulo_367204" data-name="Rectángulo 367204" width="12.193" height="2.744" transform="translate(40.859 53.535)" fill="#2c3e50"/>
      <path id="Trazado_782044" data-name="Trazado 782044" d="M137.5,183.335a.252.252,0,0,1-.251-.252v-2.744a.251.251,0,1,1,.5,0v2.744a.252.252,0,0,1-.251.252" transform="translate(-96.637 -126.804)" fill="#4adbd1"/>
      <path id="Trazado_782045" data-name="Trazado 782045" d="M141.4,183.335a.252.252,0,0,1-.251-.252v-2.744a.251.251,0,1,1,.5,0v2.744a.252.252,0,0,1-.251.252" transform="translate(-99.388 -126.804)" fill="#4adbd1"/>
      <path id="Trazado_782046" data-name="Trazado 782046" d="M87.191,156.172H31.564a2.412,2.412,0,0,1-2.412-2.412v-.647a2.412,2.412,0,0,1,2.412-2.412H87.191a2.412,2.412,0,0,1,2.412,2.412v.647a2.412,2.412,0,0,1-2.412,2.412" transform="translate(-20.527 -106.113)" fill="#489dd9"/>
      <rect id="Rectángulo_367205" data-name="Rectángulo 367205" width="20.437" height="2.744" transform="translate(11.208 45.952)" fill="#406e8e"/>
      <rect id="Rectángulo_367206" data-name="Rectángulo 367206" width="2.744" height="2.744" transform="translate(63.393 45.952)" fill="#406e8e"/>
      <rect id="Rectángulo_367207" data-name="Rectángulo 367207" width="2.744" height="2.744" transform="translate(58.915 45.952)" fill="#406e8e"/>
      <rect id="Rectángulo_367208" data-name="Rectángulo 367208" width="2.744" height="2.744" transform="translate(54.438 45.952)" fill="#406e8e"/>
      <path id="Trazado_782047" data-name="Trazado 782047" d="M111.487,158.4a.652.652,0,1,1-.652-.652.652.652,0,0,1,.652.652" transform="translate(-77.583 -111.072)" fill="#fff"/>
      <path id="Trazado_782048" data-name="Trazado 782048" d="M121.327,158.4a.652.652,0,1,1-.652-.652.652.652,0,0,1,.652.652" transform="translate(-84.512 -111.072)" fill="#fff"/>
      <path id="Trazado_782049" data-name="Trazado 782049" d="M131.166,158.4a.652.652,0,1,1-.652-.652.652.652,0,0,1,.652.652" transform="translate(-91.439 -111.072)" fill="#fff"/>
      <rect id="Rectángulo_367209" data-name="Rectángulo 367209" width="12.193" height="2.744" transform="translate(40.859 45.952)" fill="#2c3e50"/>
      <path id="Trazado_782050" data-name="Trazado 782050" d="M137.5,157.706a.251.251,0,0,1-.251-.251V154.71a.251.251,0,1,1,.5,0v2.744a.251.251,0,0,1-.251.251" transform="translate(-96.637 -108.758)" fill="#4adbd1"/>
      <path id="Trazado_782051" data-name="Trazado 782051" d="M141.4,157.706a.251.251,0,0,1-.251-.251V154.71a.251.251,0,1,1,.5,0v2.744a.251.251,0,0,1-.251.251" transform="translate(-99.388 -108.758)" fill="#4adbd1"/>
      <path id="Trazado_782052" data-name="Trazado 782052" d="M145.307,157.706a.251.251,0,0,1-.251-.251V154.71a.251.251,0,0,1,.5,0v2.744a.251.251,0,0,1-.251.251" transform="translate(-102.137 -108.758)" fill="#4adbd1"/>
      <path id="Trazado_782053" data-name="Trazado 782053" d="M149.212,157.706a.251.251,0,0,1-.251-.251V154.71a.251.251,0,1,1,.5,0v2.744a.251.251,0,0,1-.251.251" transform="translate(-104.887 -108.758)" fill="#4adbd1"/>
      <path id="Trazado_782054" data-name="Trazado 782054" d="M152.781,157.706a.251.251,0,0,1-.251-.251V154.71a.251.251,0,0,1,.5,0v2.744a.251.251,0,0,1-.251.251" transform="translate(-107.4 -108.758)" fill="#4adbd1"/>
      <path id="Trazado_782055" data-name="Trazado 782055" d="M156.077,157.706a.251.251,0,0,1-.251-.251V154.71a.251.251,0,1,1,.5,0v2.744a.251.251,0,0,1-.251.251" transform="translate(-109.721 -108.758)" fill="#4adbd1"/>
      <rect id="Rectángulo_367210" data-name="Rectángulo 367210" width="64.557" height="19.487" transform="translate(6.572 91.178)" fill="#355269"/>
      <path id="Trazado_782056" data-name="Trazado 782056" d="M87.191,350.132H31.564a2.412,2.412,0,0,1-2.412-2.412v-.647a2.412,2.412,0,0,1,2.412-2.412H87.191a2.412,2.412,0,0,1,2.412,2.412v.647a2.412,2.412,0,0,1-2.412,2.412" transform="translate(-20.527 -242.684)" fill="#489dd9"/>
      <rect id="Rectángulo_367211" data-name="Rectángulo 367211" width="20.437" height="2.744" transform="translate(11.208 103.341)" fill="#406e8e"/>
      <rect id="Rectángulo_367212" data-name="Rectángulo 367212" width="2.744" height="2.744" transform="translate(63.393 103.341)" fill="#406e8e"/>
      <rect id="Rectángulo_367213" data-name="Rectángulo 367213" width="2.744" height="2.744" transform="translate(58.915 103.341)" fill="#406e8e"/>
      <rect id="Rectángulo_367214" data-name="Rectángulo 367214" width="2.744" height="2.744" transform="translate(54.438 103.341)" fill="#406e8e"/>
      <path id="Trazado_782057" data-name="Trazado 782057" d="M111.487,352.356a.652.652,0,1,1-.652-.652.652.652,0,0,1,.652.652" transform="translate(-77.583 -247.643)" fill="#fff"/>
      <path id="Trazado_782058" data-name="Trazado 782058" d="M121.327,352.356a.652.652,0,1,1-.652-.652.652.652,0,0,1,.652.652" transform="translate(-84.512 -247.643)" fill="#fff"/>
      <path id="Trazado_782059" data-name="Trazado 782059" d="M131.166,352.356a.652.652,0,1,1-.652-.652.652.652,0,0,1,.652.652" transform="translate(-91.439 -247.643)" fill="#fff"/>
      <rect id="Rectángulo_367215" data-name="Rectángulo 367215" width="12.193" height="2.744" transform="translate(40.859 103.341)" fill="#2c3e50"/>
      <path id="Trazado_782060" data-name="Trazado 782060" d="M137.5,351.665a.251.251,0,0,1-.251-.251v-2.745a.251.251,0,1,1,.5,0v2.745a.251.251,0,0,1-.251.251" transform="translate(-96.637 -245.328)" fill="#4adbd1"/>
      <path id="Trazado_782061" data-name="Trazado 782061" d="M141.4,351.665a.251.251,0,0,1-.251-.251v-2.745a.251.251,0,1,1,.5,0v2.745a.251.251,0,0,1-.251.251" transform="translate(-99.388 -245.328)" fill="#4adbd1"/>
      <path id="Trazado_782062" data-name="Trazado 782062" d="M87.191,324.5H31.564a2.412,2.412,0,0,1-2.412-2.412v-.647a2.412,2.412,0,0,1,2.412-2.412H87.191a2.412,2.412,0,0,1,2.412,2.412v.647a2.412,2.412,0,0,1-2.412,2.412" transform="translate(-20.527 -224.639)" fill="#489dd9"/>
      <rect id="Rectángulo_367216" data-name="Rectángulo 367216" width="20.437" height="2.744" transform="translate(11.208 95.758)" fill="#406e8e"/>
      <rect id="Rectángulo_367217" data-name="Rectángulo 367217" width="2.744" height="2.744" transform="translate(63.393 95.758)" fill="#406e8e"/>
      <rect id="Rectángulo_367218" data-name="Rectángulo 367218" width="2.744" height="2.744" transform="translate(58.915 95.758)" fill="#406e8e"/>
      <rect id="Rectángulo_367219" data-name="Rectángulo 367219" width="2.744" height="2.744" transform="translate(54.438 95.758)" fill="#406e8e"/>
      <path id="Trazado_782063" data-name="Trazado 782063" d="M111.487,326.728a.652.652,0,1,1-.652-.652.652.652,0,0,1,.652.652" transform="translate(-77.583 -229.597)" fill="#fff"/>
      <path id="Trazado_782064" data-name="Trazado 782064" d="M121.327,326.728a.652.652,0,1,1-.652-.652.652.652,0,0,1,.652.652" transform="translate(-84.512 -229.597)" fill="#fff"/>
      <path id="Trazado_782065" data-name="Trazado 782065" d="M131.166,326.728a.652.652,0,1,1-.652-.652.652.652,0,0,1,.652.652" transform="translate(-91.439 -229.597)" fill="#fff"/>
      <rect id="Rectángulo_367220" data-name="Rectángulo 367220" width="12.193" height="2.744" transform="translate(40.859 95.758)" fill="#2c3e50"/>
      <path id="Trazado_782066" data-name="Trazado 782066" d="M137.5,326.038a.251.251,0,0,1-.251-.251v-2.744a.251.251,0,1,1,.5,0v2.744a.251.251,0,0,1-.251.251" transform="translate(-96.637 -227.284)" fill="#4adbd1"/>
      <path id="Trazado_782067" data-name="Trazado 782067" d="M141.4,326.038a.251.251,0,0,1-.251-.251v-2.744a.251.251,0,1,1,.5,0v2.744a.251.251,0,0,1-.251.251" transform="translate(-99.388 -227.284)" fill="#4adbd1"/>
      <path id="Trazado_782068" data-name="Trazado 782068" d="M145.307,326.038a.251.251,0,0,1-.251-.251v-2.744a.251.251,0,0,1,.5,0v2.744a.251.251,0,0,1-.251.251" transform="translate(-102.137 -227.284)" fill="#4adbd1"/>
      <path id="Trazado_782069" data-name="Trazado 782069" d="M149.212,326.038a.251.251,0,0,1-.251-.251v-2.744a.251.251,0,1,1,.5,0v2.744a.251.251,0,0,1-.251.251" transform="translate(-104.887 -227.284)" fill="#4adbd1"/>
      <path id="Trazado_782070" data-name="Trazado 782070" d="M152.781,326.038a.251.251,0,0,1-.251-.251v-2.744a.251.251,0,0,1,.5,0v2.744a.251.251,0,0,1-.251.251" transform="translate(-107.4 -227.284)" fill="#4adbd1"/>
      <path id="Trazado_782071" data-name="Trazado 782071" d="M156.077,326.038a.251.251,0,0,1-.251-.251v-2.744a.251.251,0,1,1,.5,0v2.744a.251.251,0,0,1-.251.251" transform="translate(-109.721 -227.284)" fill="#4adbd1"/>
      <rect id="Rectángulo_367221" data-name="Rectángulo 367221" width="64.557" height="2.455" transform="translate(6.572 60.841)" fill="#2c3e50"/>
      <rect id="Rectángulo_367222" data-name="Rectángulo 367222" width="64.557" height="2.455" transform="translate(6.572 88.723)" fill="#2c3e50"/>
      <rect id="Rectángulo_367223" data-name="Rectángulo 367223" width="64.557" height="2.455" transform="translate(6.572 110.665)" fill="#2c3e50"/>
      <rect id="Rectángulo_367224" data-name="Rectángulo 367224" width="64.557" height="2.455" transform="translate(6.572 38.917)" fill="#2c3e50"/>
    </g>
  </g>
</svg>
