<svg xmlns="http://www.w3.org/2000/svg" xmlns:xlink="http://www.w3.org/1999/xlink" width="252.443" height="143.961" viewBox="0 0 252.443 143.961">
  <defs>
    <clipPath id="clip-path">
      <rect id="Rectángulo_364366" data-name="Rectángulo 364366" width="197.087" height="127.281" fill="none"/>
    </clipPath>
    <clipPath id="clip-path-4">
      <rect id="Rectángulo_364321" data-name="Rectángulo 364321" width="20.037" height="13.526" fill="none"/>
    </clipPath>
    <clipPath id="clip-path-5">
      <rect id="Rectángulo_364322" data-name="Rectángulo 364322" width="7.447" height="1.369" fill="none"/>
    </clipPath>
    <clipPath id="clip-path-7">
      <rect id="Rectángulo_364334" data-name="Rectángulo 364334" width="7.447" height="1.37" fill="none"/>
    </clipPath>
    <clipPath id="clip-path-9">
      <rect id="Rectángulo_364338" data-name="Rectángulo 364338" width="49.593" height="64.248" fill="none"/>
    </clipPath>
    <clipPath id="clip-path-10">
      <rect id="Rectángulo_364339" data-name="Rectángulo 364339" width="43.64" height="43.639" fill="none"/>
    </clipPath>
    <clipPath id="clip-path-11">
      <rect id="Rectángulo_364340" data-name="Rectángulo 364340" width="32.617" height="43.639" fill="none"/>
    </clipPath>
    <clipPath id="clip-path-12">
      <rect id="Rectángulo_364343" data-name="Rectángulo 364343" width="55.063" height="2.416" fill="#373f51"/>
    </clipPath>
    <clipPath id="clip-path-13">
      <rect id="Rectángulo_364344" data-name="Rectángulo 364344" width="3.866" height="3.866" fill="none"/>
    </clipPath>
    <clipPath id="clip-path-14">
      <rect id="Rectángulo_364345" data-name="Rectángulo 364345" width="0.648" height="0.648" fill="none"/>
    </clipPath>
    <clipPath id="clip-path-15">
      <rect id="Rectángulo_364349" data-name="Rectángulo 364349" width="24.131" height="3.959" fill="#e6b046"/>
    </clipPath>
    <clipPath id="clip-path-18">
      <rect id="Rectángulo_364360" data-name="Rectángulo 364360" width="20.14" height="15.106" fill="none"/>
    </clipPath>
    <clipPath id="clip-path-20">
      <rect id="Rectángulo_364362" data-name="Rectángulo 364362" width="6.96" height="2.189" fill="none"/>
    </clipPath>
    <clipPath id="clip-path-21">
      <rect id="Rectángulo_364363" data-name="Rectángulo 364363" width="5.711" height="10.601" fill="none"/>
    </clipPath>
    <clipPath id="clip-path-22">
      <rect id="Rectángulo_364364" data-name="Rectángulo 364364" width="2.126" height="5.143" fill="none"/>
    </clipPath>
  </defs>
  <g id="Grupo_1083822" data-name="Grupo 1083822" transform="translate(-345 -2252.481)">
    <rect id="Rectángulo_380800" data-name="Rectángulo 380800" width="245" height="6" transform="translate(349 2390.442)" fill="#373f51" opacity="0.56"/>
    <path id="Trazado_797101" data-name="Trazado 797101" d="M244.5,464.873c3.675-8.448,13.04-35,4.359-70.507-8.759-35.822-30.791-44.415-54.553-45.744-15.288-.855-35.412-.55-48.636-8.268C72.02,297.372-44.848,360.941,17.856,464.873Z" transform="translate(345 1925.732)" fill="#ededed"/>
    <g id="Grupo_1083821" data-name="Grupo 1083821" transform="translate(178 -15127.684)">
      <g id="Grupo_1031714" data-name="Grupo 1031714" transform="translate(180 17391)">
        <g id="Grupo_1031713" data-name="Grupo 1031713" clip-path="url(#clip-path)">
          <path id="Trazado_772715" data-name="Trazado 772715" d="M179.672,114.354l-31.45,6.615-3.415-21.983,31.45-6.616Z" transform="translate(3.148 2.008)" fill="#c7c7c7"/>
          <path id="Trazado_772716" data-name="Trazado 772716" d="M155.574,94.329l-11.112,2.338.354,2.276,11.751-2.472Z" transform="translate(3.141 2.051)" fill="#c7c7c7"/>
          <path id="Trazado_772717" data-name="Trazado 772717" d="M157.029,99.045l32.389,5.972,4.256-21.277-32.389-5.972Z" transform="translate(3.414 1.691)" fill="#ebebeb"/>
          <path id="Trazado_772718" data-name="Trazado 772718" d="M188.3,103.411l-29.7-5.476,3.728-18.626,29.7,5.476Z" transform="translate(3.448 1.724)" fill="#fff"/>
          <g id="Grupo_1031654" data-name="Grupo 1031654">
            <g id="Grupo_1031653" data-name="Grupo 1031653" clip-path="url(#clip-path)">
              <path id="Trazado_772719" data-name="Trazado 772719" d="M187.687,89.946a3.316,3.316,0,0,1-3.862,2.579,3.2,3.2,0,0,1-2.6-3.769,3.317,3.317,0,0,1,3.862-2.58,3.207,3.207,0,0,1,2.6,3.77" transform="translate(3.938 1.872)" fill="#dbdbdb"/>
              <path id="Trazado_772720" data-name="Trazado 772720" d="M179.076,101.592,158.617,97.82l12.937-11.735Z" transform="translate(3.448 1.871)" fill="#ebebeb"/>
              <path id="Trazado_772721" data-name="Trazado 772721" d="M186.847,102.937l-16.89-3.114,10.209-7.313Z" transform="translate(3.695 2.011)" fill="#dbdbdb"/>
              <path id="Trazado_772722" data-name="Trazado 772722" d="M179.719,114.316l-31.45,6.615-6.73-19.953,31.45-6.615Z" transform="translate(3.077 2.051)" fill="#dbdbdb"/>
              <path id="Trazado_772723" data-name="Trazado 772723" d="M151.97,96.527l-11.112,2.338.7,2.066,11.751-2.472Z" transform="translate(3.062 2.098)" fill="#dbdbdb"/>
              <path id="Trazado_772724" data-name="Trazado 772724" d="M29.3,31.588,4.773,35.307,0,3.815,18.215,1.054,25.442,6.1Z" transform="translate(0 0.023)" fill="#ebebeb"/>
              <path id="Trazado_772725" data-name="Trazado 772725" d="M17.827,1.054,25.054,6.1l-6.317.957Z" transform="translate(0.388 0.023)" fill="#dbdbdb"/>
              <rect id="Rectángulo_364299" data-name="Rectángulo 364299" width="13.795" height="0.818" transform="translate(3.194 8.759) rotate(-8.617)" fill="#dbdbdb"/>
              <rect id="Rectángulo_364300" data-name="Rectángulo 364300" width="13.795" height="0.818" transform="translate(3.503 10.8) rotate(-8.617)" fill="#dbdbdb"/>
              <rect id="Rectángulo_364301" data-name="Rectángulo 364301" width="13.795" height="0.818" transform="translate(3.813 12.841) rotate(-8.617)" fill="#dbdbdb"/>
              <rect id="Rectángulo_364302" data-name="Rectángulo 364302" width="20.212" height="0.817" transform="translate(4.122 14.882) rotate(-8.617)" fill="#dbdbdb"/>
              <rect id="Rectángulo_364303" data-name="Rectángulo 364303" width="20.212" height="0.818" transform="translate(4.431 16.923) rotate(-8.617)" fill="#dbdbdb"/>
              <rect id="Rectángulo_364304" data-name="Rectángulo 364304" width="20.212" height="0.817" transform="translate(4.741 18.964) rotate(-8.617)" fill="#dbdbdb"/>
              <rect id="Rectángulo_364305" data-name="Rectángulo 364305" width="20.212" height="0.818" transform="translate(5.05 21.005) rotate(-8.617)" fill="#dbdbdb"/>
              <rect id="Rectángulo_364306" data-name="Rectángulo 364306" width="20.212" height="0.817" transform="translate(5.359 23.046) rotate(-8.617)" fill="#dbdbdb"/>
              <rect id="Rectángulo_364307" data-name="Rectángulo 364307" width="20.212" height="0.818" transform="translate(5.669 25.087) rotate(-8.617)" fill="#dbdbdb"/>
              <rect id="Rectángulo_364308" data-name="Rectángulo 364308" width="20.212" height="0.817" transform="translate(5.978 27.129) rotate(-8.617)" fill="#dbdbdb"/>
              <rect id="Rectángulo_364309" data-name="Rectángulo 364309" width="20.212" height="0.818" transform="translate(6.287 29.17) rotate(-8.617)" fill="#dbdbdb"/>
              <rect id="Rectángulo_364310" data-name="Rectángulo 364310" width="20.212" height="0.817" transform="translate(6.597 31.211) rotate(-8.617)" fill="#dbdbdb"/>
            </g>
          </g>
          <path id="Trazado_772726" data-name="Trazado 772726" d="M51.125,124.116l-23.668.028-23.668.074,23.668.075,23.668.027,47.335.051,47.337-.051,23.668-.027,23.668-.075-23.668-.075-23.668-.027-47.337-.05Z" transform="translate(0.082 2.697)" fill="#373f51"/>
          <rect id="Rectángulo_364312" data-name="Rectángulo 364312" width="53.88" height="4.503" transform="translate(43.823 122.564)" fill="#c7c7c7"/>
          <path id="Trazado_772727" data-name="Trazado 772727" d="M90.219,120.32H49.17l1.043-7.814.052-.369.1-.733.048-.369.1-.734.014-.113.034-.254.1-.734.048-.368.73-5.46H87.954l.689,5.151.035.247.113.854.031.247.045.317.073.537.031.247.113.857.035.245Z" transform="translate(1.069 2.247)" fill="#dbdbdb"/>
          <path id="Trazado_772728" data-name="Trazado 772728" d="M88.834,110.189l-38.161-1.357.73-5.459H87.921Z" transform="translate(1.102 2.247)" fill="#c7c7c7"/>
          <rect id="Rectángulo_364313" data-name="Rectángulo 364313" width="135.21" height="94.008" transform="translate(4.681 14.444)" fill="#2e3747"/>
          <rect id="Rectángulo_364314" data-name="Rectángulo 364314" width="135.21" height="13.867" transform="translate(4.681 94.586)" fill="#dbdbdb"/>
          <g id="Grupo_1031668" data-name="Grupo 1031668">
            <g id="Grupo_1031667" data-name="Grupo 1031667" clip-path="url(#clip-path)">
              <path id="Trazado_772729" data-name="Trazado 772729" d="M71.557,98.5A2.29,2.29,0,1,1,69.267,96.2,2.291,2.291,0,0,1,71.557,98.5" transform="translate(1.456 2.091)" fill="#e01650"/>
              <rect id="Rectángulo_364315" data-name="Rectángulo 364315" width="122.45" height="67.507" transform="translate(11.06 20.557)" fill="#fff"/>
              <rect id="Rectángulo_364316" data-name="Rectángulo 364316" width="122.45" height="67.507" transform="translate(11.06 20.557)" fill="#fff"/>
              <rect id="Rectángulo_364317" data-name="Rectángulo 364317" width="122.45" height="3.055" transform="translate(11.06 20.556)" fill="#5573c6"/>
              <path id="Trazado_772730" data-name="Trazado 772730" d="M13.043,21.625a.516.516,0,1,1-.517-.517.517.517,0,0,1,.517.517" transform="translate(0.261 0.459)" fill="#c7c7c7"/>
              <path id="Trazado_772731" data-name="Trazado 772731" d="M15.107,21.625a.516.516,0,1,1-.517-.517.517.517,0,0,1,.517.517" transform="translate(0.306 0.459)" fill="#fff"/>
              <path id="Trazado_772732" data-name="Trazado 772732" d="M17.172,21.625a.516.516,0,1,1-.517-.517.517.517,0,0,1,.517.517" transform="translate(0.351 0.459)" fill="#e6b046"/>
              <rect id="Rectángulo_364318" data-name="Rectángulo 364318" width="2.226" height="64.452" transform="translate(131.284 23.612)" fill="#dbdbdb"/>
              <path id="Trazado_772733" data-name="Trazado 772733" d="M129.591,49.565h0a.575.575,0,0,1-.575-.575V24.121a.575.575,0,0,1,1.15,0V48.989a.575.575,0,0,1-.575.575" transform="translate(2.805 0.512)" fill="#a6a6a6"/>
              <rect id="Rectángulo_364319" data-name="Rectángulo 364319" width="19.892" height="14.42" transform="translate(18.643 31.669)" fill="#e6b046"/>
              <path id="Trazado_772734" data-name="Trazado 772734" d="M25.275,29.534H18.246v1.494h7.432Z" transform="translate(0.397 0.642)" fill="#e6b046"/>
              <rect id="Rectángulo_364320" data-name="Rectángulo 364320" width="5.748" height="0.868" transform="translate(19.332 30.759)" fill="#fff"/>
              <path id="Trazado_772735" data-name="Trazado 772735" d="M38.142,45.4H18.249L18.1,31.87H38Z" transform="translate(0.394 0.693)" fill="#e6b046"/>
              <g id="Grupo_1031657" data-name="Grupo 1031657" transform="translate(18.498 32.563)" opacity="0.4">
                <g id="Grupo_1031656" data-name="Grupo 1031656">
                  <g id="Grupo_1031655" data-name="Grupo 1031655" clip-path="url(#clip-path-4)">
                    <path id="Trazado_772736" data-name="Trazado 772736" d="M38.142,45.4H18.249L18.1,31.87H38Z" transform="translate(-18.105 -31.87)" fill="#fff"/>
                  </g>
                </g>
              </g>
              <path id="Trazado_772737" data-name="Trazado 772737" d="M25.118,30.53H18.09l.015,1.369h7.432Z" transform="translate(0.393 0.664)" fill="#e6b046"/>
              <g id="Grupo_1031660" data-name="Grupo 1031660" transform="translate(18.483 31.194)" opacity="0.4">
                <g id="Grupo_1031659" data-name="Grupo 1031659">
                  <g id="Grupo_1031658" data-name="Grupo 1031658" clip-path="url(#clip-path-5)">
                    <path id="Trazado_772738" data-name="Trazado 772738" d="M25.118,30.53H18.09l.015,1.369h7.432Z" transform="translate(-18.09 -30.53)" fill="#fff"/>
                  </g>
                </g>
              </g>
              <rect id="Rectángulo_364323" data-name="Rectángulo 364323" width="19.892" height="14.42" transform="translate(46.873 31.669)" fill="#4adbd1"/>
              <path id="Trazado_772739" data-name="Trazado 772739" d="M52.9,29.534H45.876v1.494h7.432Z" transform="translate(0.997 0.642)" fill="#4adbd1"/>
              <rect id="Rectángulo_364324" data-name="Rectángulo 364324" width="5.748" height="0.868" transform="translate(47.563 30.759)" fill="#fff"/>
              <path id="Trazado_772740" data-name="Trazado 772740" d="M65.771,45.4H45.879L45.734,31.87H65.627Z" transform="translate(0.994 0.693)" fill="#5573c6"/>
              <path id="Trazado_772741" data-name="Trazado 772741" d="M52.748,30.53H45.72l.015,1.369h7.432Z" transform="translate(0.994 0.664)" fill="#5573c6"/>
              <rect id="Rectángulo_364325" data-name="Rectángulo 364325" width="19.892" height="14.42" transform="translate(103.335 31.669)" fill="#4adbd1"/>
              <path id="Trazado_772742" data-name="Trazado 772742" d="M108.164,29.534h-7.029v1.494h7.432Z" transform="translate(2.199 0.642)" fill="#4adbd1"/>
              <rect id="Rectángulo_364326" data-name="Rectángulo 364326" width="5.748" height="0.868" transform="translate(104.024 30.759)" fill="#fff"/>
              <path id="Trazado_772743" data-name="Trazado 772743" d="M121.031,45.4H101.139l-.145-13.526h19.893Z" transform="translate(2.196 0.693)" fill="#5573c6"/>
              <path id="Trazado_772744" data-name="Trazado 772744" d="M108.008,30.53H100.98l.015,1.369h7.432Z" transform="translate(2.195 0.664)" fill="#5573c6"/>
              <rect id="Rectángulo_364327" data-name="Rectángulo 364327" width="19.892" height="14.42" transform="translate(18.643 52.581)" fill="#4adbd1"/>
              <path id="Trazado_772745" data-name="Trazado 772745" d="M25.275,50H18.246v1.494h7.432Z" transform="translate(0.397 1.087)" fill="#4adbd1"/>
              <rect id="Rectángulo_364328" data-name="Rectángulo 364328" width="5.748" height="0.868" transform="translate(19.332 51.671)" fill="#fff"/>
              <path id="Trazado_772746" data-name="Trazado 772746" d="M38.142,65.863H18.249L18.1,52.337H38Z" transform="translate(0.394 1.138)" fill="#5573c6"/>
              <path id="Trazado_772747" data-name="Trazado 772747" d="M25.118,51H18.09l.015,1.369h7.432Z" transform="translate(0.393 1.109)" fill="#5573c6"/>
              <rect id="Rectángulo_364329" data-name="Rectángulo 364329" width="19.892" height="14.42" transform="translate(75.104 52.581)" fill="#4adbd1"/>
              <path id="Trazado_772748" data-name="Trazado 772748" d="M80.534,50H73.506v1.494h7.432Z" transform="translate(1.598 1.087)" fill="#4adbd1"/>
              <rect id="Rectángulo_364330" data-name="Rectángulo 364330" width="5.748" height="0.868" transform="translate(75.794 51.671)" fill="#fff"/>
              <path id="Trazado_772749" data-name="Trazado 772749" d="M93.4,65.863H73.509l-.145-13.526H93.257Z" transform="translate(1.595 1.138)" fill="#5573c6"/>
              <path id="Trazado_772750" data-name="Trazado 772750" d="M80.378,51H73.35l.015,1.369H80.8Z" transform="translate(1.595 1.109)" fill="#5573c6"/>
              <rect id="Rectángulo_364331" data-name="Rectángulo 364331" width="19.892" height="14.42" transform="translate(46.873 52.581)" fill="#e6b046"/>
              <path id="Trazado_772751" data-name="Trazado 772751" d="M52.9,50H45.876v1.494h7.432Z" transform="translate(0.997 1.087)" fill="#e6b046"/>
              <rect id="Rectángulo_364332" data-name="Rectángulo 364332" width="5.748" height="0.868" transform="translate(47.563 51.671)" fill="#fff"/>
              <path id="Trazado_772752" data-name="Trazado 772752" d="M65.771,65.863H45.879l-.145-13.526H65.627Z" transform="translate(0.994 1.138)" fill="#e6b046"/>
              <g id="Grupo_1031663" data-name="Grupo 1031663" transform="translate(46.729 53.475)" opacity="0.4">
                <g id="Grupo_1031662" data-name="Grupo 1031662">
                  <g id="Grupo_1031661" data-name="Grupo 1031661" clip-path="url(#clip-path-4)">
                    <path id="Trazado_772753" data-name="Trazado 772753" d="M65.771,65.863H45.879l-.145-13.526H65.627Z" transform="translate(-45.734 -52.337)" fill="#fff"/>
                  </g>
                </g>
              </g>
              <path id="Trazado_772754" data-name="Trazado 772754" d="M52.748,51H45.72l.015,1.369h7.432Z" transform="translate(0.994 1.109)" fill="#e6b046"/>
              <g id="Grupo_1031666" data-name="Grupo 1031666" transform="translate(46.714 52.105)" opacity="0.4">
                <g id="Grupo_1031665" data-name="Grupo 1031665">
                  <g id="Grupo_1031664" data-name="Grupo 1031664" clip-path="url(#clip-path-7)">
                    <path id="Trazado_772755" data-name="Trazado 772755" d="M52.748,51H45.72l.015,1.369h7.432Z" transform="translate(-45.72 -50.997)" fill="#fff"/>
                  </g>
                </g>
              </g>
              <rect id="Rectángulo_364335" data-name="Rectángulo 364335" width="1.219" height="6.255" transform="translate(84.361 35.005)" fill="#c7c7c7"/>
              <rect id="Rectángulo_364336" data-name="Rectángulo 364336" width="6.255" height="1.219" transform="translate(81.843 37.522)" fill="#c7c7c7"/>
              <path id="Trazado_772756" data-name="Trazado 772756" d="M91.813,44.169v.61H91.2" transform="translate(1.983 0.96)" fill="none" stroke="#c7c7c7" stroke-miterlimit="10" stroke-width="0.149"/>
              <line id="Línea_3528" data-name="Línea 3528" x1="14.536" transform="translate(77.386 45.739)" fill="none" stroke="#c7c7c7" stroke-miterlimit="10" stroke-width="0.149" stroke-dasharray="1.237 1.237"/>
              <path id="Trazado_772757" data-name="Trazado 772757" d="M75.134,44.779h-.61v-.61" transform="translate(1.62 0.96)" fill="none" stroke="#c7c7c7" stroke-miterlimit="10" stroke-width="0.149"/>
              <line id="Línea_3529" data-name="Línea 3529" y1="12.085" transform="translate(76.144 31.772)" fill="none" stroke="#c7c7c7" stroke-miterlimit="10" stroke-width="0.149" stroke-dasharray="1.245 1.245"/>
              <path id="Trazado_772758" data-name="Trazado 772758" d="M74.524,30.486v-.61h.61" transform="translate(1.62 0.649)" fill="none" stroke="#c7c7c7" stroke-miterlimit="10" stroke-width="0.149"/>
              <line id="Línea_3530" data-name="Línea 3530" x2="14.536" transform="translate(78.018 30.526)" fill="none" stroke="#c7c7c7" stroke-miterlimit="10" stroke-width="0.149" stroke-dasharray="1.237 1.237"/>
              <path id="Trazado_772759" data-name="Trazado 772759" d="M91.2,29.876h.61v.61" transform="translate(1.983 0.65)" fill="none" stroke="#c7c7c7" stroke-miterlimit="10" stroke-width="0.149"/>
              <line id="Línea_3531" data-name="Línea 3531" y2="12.085" transform="translate(93.796 32.408)" fill="none" stroke="#c7c7c7" stroke-miterlimit="10" stroke-width="0.149" stroke-dasharray="1.245 1.245"/>
            </g>
          </g>
          <path id="Trazado_772760" data-name="Trazado 772760" d="M103.284,0l-2.625,2.625V73.543l2.625,2.626H153.1l2.625-2.626V2.625L153.1,0Z" transform="translate(2.188 0)" fill="#a6a6a6"/>
          <g id="Grupo_1031694" data-name="Grupo 1031694">
            <g id="Grupo_1031693" data-name="Grupo 1031693" clip-path="url(#clip-path)">
              <g id="Grupo_1031671" data-name="Grupo 1031671" transform="translate(105.583 5.753)" opacity="0.2">
                <g id="Grupo_1031670" data-name="Grupo 1031670">
                  <g id="Grupo_1031669" data-name="Grupo 1031669" clip-path="url(#clip-path-9)">
                    <path id="Trazado_772761" data-name="Trazado 772761" d="M147.49,45.952l1.989,1.989V61.923l-7.956,7.955H114.566l-7.8-7.8V47.8l1.936-1.935a24.82,24.82,0,0,1-2.376-27.228V13.53l7.9-7.9h13.906l-.047.029h.047A24.8,24.8,0,0,1,147.49,45.952" transform="translate(-103.336 -5.631)"/>
                  </g>
                </g>
              </g>
              <path id="Trazado_772762" data-name="Trazado 772762" d="M149.889,30.392A21.82,21.82,0,1,1,128.069,8.573a21.819,21.819,0,0,1,21.819,21.819" transform="translate(2.31 0.186)" fill="#e6b046"/>
              <g id="Grupo_1031674" data-name="Grupo 1031674" transform="translate(108.559 8.759)" opacity="0.6">
                <g id="Grupo_1031673" data-name="Grupo 1031673">
                  <g id="Grupo_1031672" data-name="Grupo 1031672" clip-path="url(#clip-path-10)">
                    <path id="Trazado_772763" data-name="Trazado 772763" d="M149.889,30.392A21.82,21.82,0,1,1,128.069,8.573a21.819,21.819,0,0,1,21.819,21.819" transform="translate(-106.249 -8.573)" fill="#fff"/>
                  </g>
                </g>
              </g>
              <g id="Grupo_1031677" data-name="Grupo 1031677" transform="translate(112.015 8.76)" opacity="0.5">
                <g id="Grupo_1031676" data-name="Grupo 1031676">
                  <g id="Grupo_1031675" data-name="Grupo 1031675" clip-path="url(#clip-path-11)">
                    <path id="Trazado_772764" data-name="Trazado 772764" d="M135.449,10.014l-7.805,20.379L125.706,8.663c.638-.06,1.285-.088,1.938-.088a21.743,21.743,0,0,1,7.805,1.439" transform="translate(-109.283 -8.574)" fill="#fff"/>
                    <path id="Trazado_772765" data-name="Trazado 772765" d="M127.994,29.928,117.722,49.182a21.876,21.876,0,0,1-8.09-7.462Z" transform="translate(-109.632 -8.11)" fill="#fff"/>
                    <path id="Trazado_772766" data-name="Trazado 772766" d="M141.858,13.8,127.6,30.324l11.421-18.591a21.556,21.556,0,0,1,2.834,2.07" transform="translate(-109.241 -8.505)" fill="#fff"/>
                    <path id="Trazado_772767" data-name="Trazado 772767" d="M128.338,51.736c-.226.009-.459.012-.688.012-.739,0-1.471-.038-2.191-.109l2.191-21.711Z" transform="translate(-109.288 -8.11)" fill="#fff"/>
                  </g>
                </g>
              </g>
              <path id="Trazado_772768" data-name="Trazado 772768" d="M145.99,52.595V59.7l-5.885,5.885h-6.667V57.54l4.82-4.945Z" transform="translate(2.901 1.143)" fill="#e6b046"/>
              <path id="Trazado_772769" data-name="Trazado 772769" d="M109.471,0V6.844L107.5,8.811H100.66V2.625L103.284,0Z" transform="translate(2.188 0)" fill="#dbdbdb"/>
              <path id="Trazado_772770" data-name="Trazado 772770" d="M106.7,4.348a1.694,1.694,0,1,1-1.693-1.693A1.694,1.694,0,0,1,106.7,4.348" transform="translate(2.246 0.058)" fill="#a6a6a6"/>
              <path id="Trazado_772771" data-name="Trazado 772771" d="M145.928,0V6.844l1.967,1.967h6.844V2.625L152.115,0Z" transform="translate(3.172 0)" fill="#dbdbdb"/>
              <path id="Trazado_772772" data-name="Trazado 772772" d="M148.582,4.348a1.694,1.694,0,1,0,1.694-1.693,1.694,1.694,0,0,0-1.694,1.693" transform="translate(3.23 0.058)" fill="#a6a6a6"/>
              <path id="Trazado_772773" data-name="Trazado 772773" d="M145.928,74.736V67.892l1.967-1.967h6.844v6.187l-2.624,2.624Z" transform="translate(3.172 1.433)" fill="#dbdbdb"/>
              <path id="Trazado_772774" data-name="Trazado 772774" d="M148.582,70.273a1.694,1.694,0,1,1,1.694,1.694,1.693,1.693,0,0,1-1.694-1.694" transform="translate(3.23 1.491)" fill="#a6a6a6"/>
              <path id="Trazado_772775" data-name="Trazado 772775" d="M109.471,74.736V67.892L107.5,65.925H100.66v6.187l2.624,2.624Z" transform="translate(2.188 1.433)" fill="#dbdbdb"/>
              <path id="Trazado_772776" data-name="Trazado 772776" d="M106.7,70.273a1.694,1.694,0,1,0-1.693,1.694,1.693,1.693,0,0,0,1.693-1.694" transform="translate(2.246 1.491)" fill="#a6a6a6"/>
              <path id="Trazado_772777" data-name="Trazado 772777" d="M138.243,30.15a10.417,10.417,0,1,1-10.417-10.417A10.417,10.417,0,0,1,138.243,30.15" transform="translate(2.552 0.429)" fill="#a6a6a6"/>
              <path id="Trazado_772778" data-name="Trazado 772778" d="M136.39,30.111a8.6,8.6,0,1,1-8.6-8.6,8.6,8.6,0,0,1,8.6,8.6" transform="translate(2.591 0.468)" fill="#c7c7c7"/>
              <path id="Trazado_772779" data-name="Trazado 772779" d="M130.522,29.989a2.856,2.856,0,1,1-2.856-2.856,2.855,2.855,0,0,1,2.856,2.856" transform="translate(2.713 0.59)" fill="#a6a6a6"/>
              <path id="Trazado_772780" data-name="Trazado 772780" d="M128.787,24.668c0,1.029-.518,1.864-1.158,1.864s-1.159-.835-1.159-1.864.519-1.864,1.159-1.864,1.158.835,1.158,1.864" transform="translate(2.749 0.496)" fill="#a6a6a6"/>
              <path id="Trazado_772781" data-name="Trazado 772781" d="M123.63,26.3c.891.515,1.355,1.38,1.035,1.934s-1.3.586-2.193.072-1.355-1.38-1.035-1.934,1.3-.586,2.193-.072" transform="translate(2.638 0.564)" fill="#a6a6a6"/>
              <path id="Trazado_772782" data-name="Trazado 772782" d="M122.472,31.6c.891-.515,1.873-.482,2.193.072s-.143,1.42-1.035,1.934-1.873.482-2.193-.072.144-1.419,1.035-1.934" transform="translate(2.638 0.679)" fill="#a6a6a6"/>
              <path id="Trazado_772783" data-name="Trazado 772783" d="M126.471,35.269c0-1.029.518-1.864,1.158-1.864s1.159.835,1.159,1.864-.519,1.864-1.159,1.864-1.158-.835-1.158-1.864" transform="translate(2.749 0.726)" fill="#a6a6a6"/>
              <path id="Trazado_772784" data-name="Trazado 772784" d="M131.653,33.61c-.891-.515-1.355-1.38-1.035-1.934s1.3-.586,2.193-.072,1.355,1.38,1.035,1.934-1.3.586-2.193.072" transform="translate(2.837 0.679)" fill="#a6a6a6"/>
              <path id="Trazado_772785" data-name="Trazado 772785" d="M132.811,28.31c-.891.515-1.873.482-2.193-.072s.143-1.42,1.035-1.934,1.873-.482,2.193.072-.144,1.419-1.035,1.934" transform="translate(2.837 0.564)" fill="#a6a6a6"/>
              <path id="Trazado_772786" data-name="Trazado 772786" d="M130.525,57.642v8.045H115.383L109.5,59.8V49.015l1.045-1.044,8.862,9.672Z" transform="translate(2.38 1.043)" fill="#dbdbdb"/>
              <path id="Trazado_772787" data-name="Trazado 772787" d="M138.265,38.528c-4.718,2.755-17.158,10.214-21.679,14.89a5.746,5.746,0,0,0,8.261,7.99c4.521-4.672,11.628-17.282,14.251-22.073a.6.6,0,0,0-.833-.807m-17.8,21.864a2.769,2.769,0,1,1,2.768-2.771,2.768,2.768,0,0,1-2.768,2.771m11.509-14.277c-.965,1.763-3.575,6.4-5.237,8.113A2.112,2.112,0,1,1,123.7,51.29c1.662-1.715,6.234-4.459,7.969-5.47a.22.22,0,0,1,.3.3" transform="translate(2.499 0.836)" fill="#c7c7c7"/>
              <path id="Trazado_772788" data-name="Trazado 772788" d="M123.173,57.272A2.768,2.768,0,1,1,120.4,54.5a2.769,2.769,0,0,1,2.768,2.768" transform="translate(2.557 1.185)" fill="#a6a6a6"/>
              <path id="Trazado_772789" data-name="Trazado 772789" d="M191.237,76.169H141.424L138.8,73.544V2.625L141.424,0h49.813l2.625,2.625V73.544Z" transform="translate(3.017 0)" fill="#e6b046"/>
              <g id="Grupo_1031683" data-name="Grupo 1031683" transform="translate(141.816 17.576)" opacity="0.2">
                <g id="Grupo_1031682" data-name="Grupo 1031682">
                  <g id="Grupo_1031681" data-name="Grupo 1031681" clip-path="url(#clip-path-12)">
                    <rect id="Rectángulo_364342" data-name="Rectángulo 364342" width="55.063" height="2.416" transform="translate(0 0)" fill="#373f51"/>
                  </g>
                </g>
              </g>
              <g id="Grupo_1031686" data-name="Grupo 1031686" transform="translate(189.817 4)" opacity="0.1">
                <g id="Grupo_1031685" data-name="Grupo 1031685">
                  <g id="Grupo_1031684" data-name="Grupo 1031684" clip-path="url(#clip-path-13)">
                    <path id="Trazado_772791" data-name="Trazado 772791" d="M189.644,5.848a1.933,1.933,0,1,1-1.933-1.933,1.933,1.933,0,0,1,1.933,1.933" transform="translate(-185.778 -3.915)"/>
                  </g>
                </g>
              </g>
              <path id="Trazado_772792" data-name="Trazado 772792" d="M188.721,5.829A1.029,1.029,0,1,1,187.692,4.8a1.029,1.029,0,0,1,1.029,1.029" transform="translate(4.058 0.104)" fill="#e6b046"/>
              <g id="Grupo_1031689" data-name="Grupo 1031689" transform="translate(191.426 5.609)" opacity="0.6">
                <g id="Grupo_1031688" data-name="Grupo 1031688">
                  <g id="Grupo_1031687" data-name="Grupo 1031687" clip-path="url(#clip-path-14)">
                    <path id="Trazado_772793" data-name="Trazado 772793" d="M188,5.814a.324.324,0,1,1-.324-.324.324.324,0,0,1,.324.324" transform="translate(-187.353 -5.49)" fill="#fff"/>
                  </g>
                </g>
              </g>
              <rect id="Rectángulo_364346" data-name="Rectángulo 364346" width="1.127" height="45.568" transform="translate(146.499 24.502)" fill="#373f51"/>
              <rect id="Rectángulo_364347" data-name="Rectángulo 364347" width="1.127" height="45.568" transform="translate(191.069 24.502)" fill="#373f51"/>
              <g id="Grupo_1031692" data-name="Grupo 1031692" transform="translate(157.282 66.111)">
                <g id="Grupo_1031691" data-name="Grupo 1031691">
                  <g id="Grupo_1031690" data-name="Grupo 1031690" clip-path="url(#clip-path-15)">
                    <rect id="Rectángulo_364348" data-name="Rectángulo 364348" width="24.131" height="3.959" transform="translate(0 0)" fill="#e6b046"/>
                  </g>
                </g>
              </g>
              <rect id="Rectángulo_364350" data-name="Rectángulo 364350" width="17.139" height="3.354" transform="translate(160.778 76.17)" fill="#5573c6"/>
              <rect id="Rectángulo_364351" data-name="Rectángulo 364351" width="14.203" height="1.631" transform="translate(162.246 79.524)" fill="#5573c6"/>
              <path id="Trazado_772794" data-name="Trazado 772794" d="M173,77.831h-14.2v.815l14.2-.408Z" transform="translate(3.452 1.692)" fill="#2e3747"/>
              <path id="Trazado_772795" data-name="Trazado 772795" d="M166.059,79.428V97.369a2.141,2.141,0,0,1-2.142,2.142H151.258" transform="translate(3.288 1.727)" fill="none" stroke="#2e3747" stroke-miterlimit="10" stroke-width="1.79"/>
              <path id="Trazado_772796" data-name="Trazado 772796" d="M148.718,102.4l-1.421.628H136.953V95.3H147.3l1.421.628Z" transform="translate(2.977 2.072)" fill="#2e3747"/>
              <path id="Trazado_772797" data-name="Trazado 772797" d="M147.077,95.3l1.421.628v6.48l-1.421.628Z" transform="translate(3.197 2.072)" fill="#5573c6"/>
              <rect id="Rectángulo_364352" data-name="Rectángulo 364352" width="2.853" height="5.233" transform="translate(151.695 98.62)" fill="#2e3747"/>
              <path id="Trazado_772798" data-name="Trazado 772798" d="M144.835,98.567a.511.511,0,1,1-.511.511.511.511,0,0,1,.511-.511" transform="translate(3.138 2.143)" fill="#fff"/>
              <path id="Trazado_772799" data-name="Trazado 772799" d="M141.84,99.886a.454.454,0,1,1-.455.455.454.454,0,0,1,.455-.455" transform="translate(3.074 2.172)" fill="#fff"/>
              <rect id="Rectángulo_364353" data-name="Rectángulo 364353" width="4.486" height="0.199" transform="translate(143.486 101.122)" fill="#fff"/>
              <path id="Trazado_772800" data-name="Trazado 772800" d="M144.548,99.147l-1.312,1.312H142.18v-.2h.974l1.253-1.253Z" transform="translate(3.091 2.152)" fill="#fff"/>
              <path id="Trazado_772801" data-name="Trazado 772801" d="M143.64,99.032l-.141.141-1.279-1.279h-.835v-.2h.917Z" transform="translate(3.074 2.124)" fill="#fff"/>
              <rect id="Rectángulo_364354" data-name="Rectángulo 364354" width="0.833" height="0.833" transform="translate(143.739 99.507)" fill="#fff"/>
              <path id="Trazado_772802" data-name="Trazado 772802" d="M140.478,98.485v1.19l-1.3-.6Z" transform="translate(3.026 2.141)" fill="#fff"/>
            </g>
          </g>
          <g id="Grupo_1031696" data-name="Grupo 1031696">
            <g id="Grupo_1031695" data-name="Grupo 1031695" clip-path="url(#clip-path)">
              <path id="Trazado_772803" data-name="Trazado 772803" d="M179.142,113.511s2.491-8.942,4.48-11.979a40.731,40.731,0,0,1,5.7-6.373s-.087,13.786-10.179,18.351" transform="translate(3.894 2.069)" fill="#4adbd1"/>
              <path id="Trazado_772804" data-name="Trazado 772804" d="M179.317,113.281a42.982,42.982,0,0,0,2.271-4.332,30.268,30.268,0,0,1,1.237-4.7c.01-.029.05-.013.044.015-.331,1.413-.715,2.813-1.065,4.222,1.005-2.176,1.962-4.38,3.159-6.438a13.746,13.746,0,0,1,1.155-2.861c.013-.027.057-.012.044.015a18.219,18.219,0,0,0-.777,2.147,21.4,21.4,0,0,1,1.892-2.615c.044-.051.131.005.088.06a31.534,31.534,0,0,0-3.76,6.723,35.656,35.656,0,0,0,3.127-3.907c.009-.014.031,0,.021.015a32.05,32.05,0,0,1-3.347,4.339c-.767,1.725-1.52,3.458-2.435,5.1a29.519,29.519,0,0,0,4.622-5.469.042.042,0,0,1,.068.048,22.7,22.7,0,0,1-4.833,5.673,22.132,22.132,0,0,1-1.337,2.089.107.107,0,0,1-.176-.121" transform="translate(3.898 2.146)" fill="#2e3747"/>
              <path id="Trazado_772805" data-name="Trazado 772805" d="M178.445,114.485s4.478-8.245,3.178-16.239-2.694-10.841-2.694-10.841a31.816,31.816,0,0,0-.483,27.079" transform="translate(3.819 1.9)" fill="#4adbd1"/>
              <path id="Trazado_772806" data-name="Trazado 772806" d="M176.588,101.44a39.028,39.028,0,0,0,1.729,6.658c.012-2.933.068-5.868.147-8.8a22.683,22.683,0,0,1-.846-5.464c0-.054.08-.051.084,0a31.135,31.135,0,0,0,.785,4.7q.1-3.629.236-7.258a.032.032,0,0,1,.063,0c0,3.779,0,7.561-.026,11.341a30.339,30.339,0,0,0,1.29-4.492c0-.014.028-.01.027,0a17.576,17.576,0,0,1-1.322,5.111c-.017,2.417-.043,4.834-.1,7.249a38.188,38.188,0,0,0,1.786-7.771.028.028,0,0,1,.056,0,28.931,28.931,0,0,1-1.819,8.847.155.155,0,0,1-.049.072q-.035,1.324-.078,2.649a.1.1,0,0,1-.2,0q-.054-2.71-.045-5.42a24.314,24.314,0,0,1-1.766-7.421c0-.022.037-.028.04-.005" transform="translate(3.838 1.984)" fill="#2e3747"/>
              <path id="Trazado_772807" data-name="Trazado 772807" d="M176.89,99.976a15.392,15.392,0,0,1,.313,2.178c0,.025-.037.028-.043.005a15.428,15.428,0,0,1-.368-2.172c-.007-.055.087-.066.1-.011" transform="translate(3.843 2.173)" fill="#2e3747"/>
              <path id="Trazado_772808" data-name="Trazado 772808" d="M179.455,94.076c0-.025.042-.017.043.006a5.594,5.594,0,0,1-.225,1.5c-.011.04-.068.021-.061-.018.1-.5.158-.994.243-1.491" transform="translate(3.896 2.045)" fill="#2e3747"/>
              <path id="Trazado_772809" data-name="Trazado 772809" d="M176.976,114.939s.183-8.606-2.287-12.884a18.554,18.554,0,0,0-6.564-6.458s1.651,15.172,8.85,19.343" transform="translate(3.655 2.078)" fill="#4adbd1"/>
              <path id="Trazado_772810" data-name="Trazado 772810" d="M172.426,107.512a31.97,31.97,0,0,0,3.341,4.235q-.739-2.639-1.709-5.19a14.53,14.53,0,0,1-3.606-4.132.024.024,0,0,1,.041-.024,17.29,17.29,0,0,0,3.419,3.779,66.755,66.755,0,0,0-3.437-7.484.055.055,0,0,1,.094-.055,40.785,40.785,0,0,1,2.155,3.928c-.231-.92-.416-1.861-.653-2.774-.007-.026.03-.035.039-.01a15.553,15.553,0,0,1,1.014,3.651,43.76,43.76,0,0,1,2.174,5.889c-.063-1.29-.145-2.575-.278-3.861,0-.025.039-.031.043-.006a20.924,20.924,0,0,1,.374,4.335q.533,1.923.9,3.888c.006.035-.046.051-.054.015-.134-.549-.28-1.092-.428-1.635-.01,0-.019,0-.029-.01a17.5,17.5,0,0,1-3.409-4.53.008.008,0,0,1,.013-.008" transform="translate(3.706 2.144)" fill="#2e3747"/>
              <path id="Trazado_772811" data-name="Trazado 772811" d="M169.586,100.469c.275.3.526.61.792.915a7.02,7.02,0,0,1,.711.831.014.014,0,0,1-.019.018,4.22,4.22,0,0,1-.82-.81,6.905,6.905,0,0,1-.7-.924.025.025,0,0,1,.04-.031" transform="translate(3.686 2.184)" fill="#2e3747"/>
              <path id="Trazado_772812" data-name="Trazado 772812" d="M184.194,113.5l-.312,2.76-.938,8.341h-8.178l-.938-8.341-.312-2.76h10.677Z" transform="translate(3.772 2.467)" fill="#5573c6"/>
              <path id="Trazado_772813" data-name="Trazado 772813" d="M184.194,113.5l-.312,2.76H173.829l-.312-2.76h10.677Z" transform="translate(3.772 2.467)" fill="#373f51"/>
              <rect id="Rectángulo_364356" data-name="Rectángulo 364356" width="12.13" height="3.126" transform="translate(176.563 113.965)" fill="#5573c6"/>
            </g>
          </g>
          <rect id="Rectángulo_364358" data-name="Rectángulo 364358" width="13.617" height="18.784" transform="translate(62.336 43.169) rotate(-82.59)" fill="#e6b046"/>
          <path id="Trazado_772814" data-name="Trazado 772814" d="M69.492,28.523l-6.582-.856-.182,1.4,6.96.905Z" transform="translate(1.364 0.601)" fill="#e6b046"/>
          <rect id="Rectángulo_364359" data-name="Rectángulo 364359" width="0.821" height="5.428" transform="translate(64.743 29.712) rotate(-82.591)" fill="#fff"/>
          <path id="Trazado_772815" data-name="Trazado 772815" d="M79.637,44.943,61.01,42.521l1.511-12.683L81.149,32.26Z" transform="translate(1.326 0.649)" fill="#e6b046"/>
          <g id="Grupo_1031701" data-name="Grupo 1031701">
            <g id="Grupo_1031700" data-name="Grupo 1031700" clip-path="url(#clip-path)">
              <g id="Grupo_1031699" data-name="Grupo 1031699" transform="translate(62.336 30.486)" opacity="0.4">
                <g id="Grupo_1031698" data-name="Grupo 1031698">
                  <g id="Grupo_1031697" data-name="Grupo 1031697" clip-path="url(#clip-path-18)">
                    <path id="Trazado_772816" data-name="Trazado 772816" d="M79.637,44.943,61.01,42.521l1.511-12.683L81.149,32.26Z" transform="translate(-61.009 -29.837)" fill="#fff"/>
                  </g>
                </g>
              </g>
            </g>
          </g>
          <path id="Trazado_772817" data-name="Trazado 772817" d="M69.224,29.437l-6.582-.856-.152,1.284,6.96.905Z" transform="translate(1.359 0.621)" fill="#e6b046"/>
          <g id="Grupo_1031712" data-name="Grupo 1031712">
            <g id="Grupo_1031711" data-name="Grupo 1031711" clip-path="url(#clip-path)">
              <g id="Grupo_1031704" data-name="Grupo 1031704" transform="translate(63.848 29.202)" opacity="0.4">
                <g id="Grupo_1031703" data-name="Grupo 1031703">
                  <g id="Grupo_1031702" data-name="Grupo 1031702" clip-path="url(#clip-path-20)">
                    <path id="Trazado_772818" data-name="Trazado 772818" d="M69.224,29.437l-6.582-.856-.152,1.284,6.96.905Z" transform="translate(-62.489 -28.581)" fill="#fff"/>
                  </g>
                </g>
              </g>
              <path id="Trazado_772819" data-name="Trazado 772819" d="M27.851,93.471s-8.4,12.414-8.408,12.423c-1.157,2.568-2.125,4.84-2.517,6.062a.033.033,0,0,0-.005.019,1.967,1.967,0,0,0-.169.879.08.08,0,0,0,.008.023c.531.861,20.782,10.7,21.6,10.808s1.187-2.228.706-3.237-6.552-8.246-6.552-8.246L39.588,99.42Z" transform="translate(0.364 2.032)" fill="#cc9c97"/>
              <path id="Trazado_772820" data-name="Trazado 772820" d="M38.041,123.412c-.82-.106-20.749-9.874-21.279-10.734a.074.074,0,0,1-.009-.023,1.977,1.977,0,0,1,.167-.878.034.034,0,0,1,.008-.019c.391-1.222,1.36-3.5,2.515-6.064,0,0,1.213-2.225,1.7-3l12.88,6.658L32.52,112s5.743,7.161,6.228,8.171.118,3.346-.706,3.239" transform="translate(0.364 2.233)" fill="#ebebeb"/>
              <path id="Trazado_772821" data-name="Trazado 772821" d="M38.408,123.1c-.828-.126-21-10.52-21.52-11.4-.2-.332,1.141-3.361,2.869-6.973l.055-.112,13.093,6.561-.12.219s5.943,7.432,6.409,8.464.039,3.375-.787,3.246" transform="translate(0.367 2.274)" fill="#e6b046"/>
              <path id="Trazado_772822" data-name="Trazado 772822" d="M38.558,122.044c-3.358-1.836-17.076-8.923-20.535-10.482-.029-.012-.038.006-.011.021,3.289,1.892,17.064,8.868,20.518,10.517.073.035.1-.017.029-.056" transform="translate(0.391 2.425)" fill="#fff"/>
              <path id="Trazado_772823" data-name="Trazado 772823" d="M33.594,111.857a5.331,5.331,0,0,0-4.466-1.15c-.059.016-.035.1.015.108a21.149,21.149,0,0,1,4.359,1.209.1.1,0,0,0,.092-.167" transform="translate(0.632 2.404)" fill="#2e3747"/>
              <path id="Trazado_772824" data-name="Trazado 772824" d="M34.246,112.914a5.331,5.331,0,0,0-4.466-1.15c-.059.016-.035.1.015.108a21.149,21.149,0,0,1,4.359,1.209.1.1,0,0,0,.092-.167" transform="translate(0.647 2.427)" fill="#2e3747"/>
              <path id="Trazado_772825" data-name="Trazado 772825" d="M34.9,113.971a5.332,5.332,0,0,0-4.467-1.15c-.058.016-.034.1.016.108a21.148,21.148,0,0,1,4.359,1.209.1.1,0,0,0,.092-.167" transform="translate(0.661 2.45)" fill="#2e3747"/>
              <path id="Trazado_772826" data-name="Trazado 772826" d="M21.927,108.509a1.431,1.431,0,0,0-2.308,1.688,1.431,1.431,0,0,0,2.308-1.688" transform="translate(0.42 2.346)" fill="#fff"/>
              <g id="Grupo_1031707" data-name="Grupo 1031707" transform="translate(34.041 114.773)" opacity="0.1">
                <g id="Grupo_1031706" data-name="Grupo 1031706">
                  <g id="Grupo_1031705" data-name="Grupo 1031705" clip-path="url(#clip-path-21)">
                    <path id="Trazado_772827" data-name="Trazado 772827" d="M33.317,112.331l1.45,9.06a35.625,35.625,0,0,0,3.283,1.536c.826.129,1.249-2.219.79-3.246-.355-.78-3.848-5.235-5.522-7.349" transform="translate(-33.316 -112.331)"/>
                  </g>
                </g>
              </g>
              <path id="Trazado_772828" data-name="Trazado 772828" d="M39.115,122.4c.288.325-.415,1.5-.725,1.461S16.131,112.391,15.8,112.115s.5-1.548.968-1.393S39.115,122.4,39.115,122.4" transform="translate(0.342 2.407)" fill="#2e3747"/>
              <path id="Trazado_772829" data-name="Trazado 772829" d="M21.016,102.876l14.512,7.749s18.318-24.5,18.685-31.356c.506-9.473-7.582-39.544-7.582-39.544l-12.9-.087s5.245,30.926,4.819,36.2c-.224,2.761-17.532,27.036-17.532,27.036" transform="translate(0.457 0.862)" fill="#b2bdc1"/>
              <path id="Trazado_772830" data-name="Trazado 772830" d="M36.734,106.328c-.747-.538-7.626-4.524-12.864-7.07a.03.03,0,0,0-.028.053c1.589,1.049,11.856,6.674,12.852,7.074.033.013.073-.032.039-.056" transform="translate(0.518 2.158)" fill="#2e3747"/>
              <path id="Trazado_772831" data-name="Trazado 772831" d="M40.246,69.213c-.6-4.524-1.26-9.043-2.012-13.547-.754-4.521-1.55-9.042-2.5-13.529-.114-.55-.235-1.1-.356-1.643a.067.067,0,0,0-.131.027c.795,4.452,1.612,8.9,2.344,13.363S39.007,62.817,39.62,67.3q.228,1.666.443,3.331a29.724,29.724,0,0,1,.328,3.456,8.83,8.83,0,0,1-.553,3.238,18.8,18.8,0,0,1-1.486,2.914c-2.334,3.947-12.786,19.595-13.058,20.1-.017.033.028.066.049.034C27.852,96.474,35.634,85.65,38,81.638c1.068-1.81,2.292-3.642,2.64-5.754a23.061,23.061,0,0,0-.393-6.67" transform="translate(0.55 0.879)" fill="#2e3747"/>
              <path id="Trazado_772832" data-name="Trazado 772832" d="M36.519,101.763s-.145,14.718-.145,14.728c.078,2.815.2,5.282.376,6.552a.048.048,0,0,0,0,.02,1.989,1.989,0,0,0,.232.864c.007.006.01.013.017.016.853.545,23.369.578,24.154.316s.1-2.523-.774-3.222-9.491-4.567-9.491-4.567l.006-14.707Z" transform="translate(0.791 2.212)" fill="#cc9c97"/>
              <path id="Trazado_772833" data-name="Trazado 772833" d="M36.4,113.222s-.03,3.011-.03,3.021c.078,2.816.2,5.282.376,6.552a.035.035,0,0,0,0,.02,3.915,3.915,0,0,0,.231.864c.007.007.01.013.017.017.853.544,23.369.578,24.155.315s.1-2.523-.776-3.222-9.491-4.567-9.491-4.567v-3.067Z" transform="translate(0.791 2.46)" fill="#ebebeb"/>
              <path id="Trazado_772834" data-name="Trazado 772834" d="M61.169,123.933c-.8.253-23.491-.146-24.344-.71-.329-.209-.463-3.519-.511-7.523v-.126l14.644.094-.01.248s8.618,4.038,9.492,4.757,1.528,3.01.73,3.259" transform="translate(0.789 2.513)" fill="#e6b046"/>
              <path id="Trazado_772835" data-name="Trazado 772835" d="M60.9,122.9c-3.823-.161-19.262-.451-23.054-.32-.031,0-.032.022,0,.025,3.787.242,19.226.407,23.052.358.081,0,.082-.059,0-.062" transform="translate(0.822 2.664)" fill="#fff"/>
              <path id="Trazado_772836" data-name="Trazado 772836" d="M51.935,115.976a5.336,5.336,0,0,0-4.515.943c-.045.041.013.105.062.091a21.172,21.172,0,0,1,4.444-.844.1.1,0,0,0,.009-.19" transform="translate(1.031 2.518)" fill="#2e3747"/>
              <path id="Trazado_772837" data-name="Trazado 772837" d="M52.987,116.636a5.336,5.336,0,0,0-4.515.943c-.045.041.013.105.062.091a21.173,21.173,0,0,1,4.444-.844.1.1,0,0,0,.009-.19" transform="translate(1.053 2.533)" fill="#2e3747"/>
              <path id="Trazado_772838" data-name="Trazado 772838" d="M54.04,117.295a5.332,5.332,0,0,0-4.515.944c-.045.04.013.1.062.09a21.161,21.161,0,0,1,4.444-.844.1.1,0,0,0,.009-.19" transform="translate(1.076 2.547)" fill="#2e3747"/>
              <path id="Trazado_772839" data-name="Trazado 772839" d="M61.54,122.977c.4.163.291,1.526,0,1.631s-25.037-.44-25.456-.543-.238-1.607.251-1.677,25.207.589,25.207.589" transform="translate(0.779 2.661)" fill="#2e3747"/>
              <path id="Trazado_772840" data-name="Trazado 772840" d="M39.981,118.13a1.43,1.43,0,0,0-1.323,2.534,1.43,1.43,0,0,0,1.323-2.534" transform="translate(0.824 2.564)" fill="#fff"/>
              <path id="Trazado_772841" data-name="Trazado 772841" d="M46.582,39.928l-.006.013c-.086.267-4.721,12.971-5.159,13.173-.493.228,10.242,18.263,10.877,26.641.407,5.359-.39,34.076-.39,34.076h-15.7s.754-25.656,1.114-34.295C37.46,76.188,26.545,59.51,26.41,49.125c-.042-3.274,2.31-9.255,2.31-9.255Z" transform="translate(0.574 0.867)" fill="#b2bdc1"/>
              <path id="Trazado_772842" data-name="Trazado 772842" d="M37.2,78.468c0-.139-.109-.183-.12-.041-.355,4.674-.437,7.716-.661,12.4s-.1,5.8-.3,10.465c-.118,2.642-.006,5.292-.066,7.937a.032.032,0,0,0,.064.005C36.6,104.571,37.2,81.115,37.2,78.468" transform="translate(0.784 1.703)" fill="#2e3747"/>
              <path id="Trazado_772843" data-name="Trazado 772843" d="M51.978,79.658a23.107,23.107,0,0,0-.317-3.441,17.154,17.154,0,0,0-.97-3.232c-.867-2.187-1.893-4.319-2.872-6.457q-1.49-3.249-3.052-6.463-.883-1.805-1.777-3.6c-.6-1.213-1.253-2.4-1.884-3.6a.042.042,0,0,0-.076.036c1.006,2.16,2,4.326,3,6.487s1.993,4.328,2.982,6.5c.972,2.132,1.946,4.267,2.862,6.424A21.223,21.223,0,0,1,51,75.477a18.438,18.438,0,0,1,.46,3.419c.152,2.681.227,5.37.489,8.044a.03.03,0,0,0,.059,0c.081-2.422.043-4.858-.031-7.279" transform="translate(0.892 1.149)" fill="#2e3747"/>
              <path id="Trazado_772844" data-name="Trazado 772844" d="M50.542,109.226c-.913-.119-7.867-.359-13.685-.11a.03.03,0,0,0,0,.059c1.9.169,12.61.241,13.677.119.035,0,.048-.062.007-.067" transform="translate(0.801 2.37)" fill="#2e3747"/>
              <path id="Trazado_772845" data-name="Trazado 772845" d="M43.327,52.143a29.929,29.929,0,0,0-4.908,1.7.053.053,0,0,0,.034.1c1.648-.516,3.324-1,4.94-1.605a.1.1,0,0,0-.065-.2" transform="translate(0.834 1.134)" fill="#2e3747"/>
              <path id="Trazado_772846" data-name="Trazado 772846" d="M44.861,41.616c0-.055-.093-.077-.1-.018a52.487,52.487,0,0,1-.805,5.246c-.156.806-1.27,5.231-2.646,4.759-.231-.08-.327-.324-.328-.684a5.708,5.708,0,0,1,.329-1.359c.252-.924.475-1.854.653-2.8a25.973,25.973,0,0,0,.487-5.319.046.046,0,0,0-.092-.005,48.959,48.959,0,0,1-1.18,7.292c-.3,1.15-1.066,2.85.138,3.154,1.226.311,2.334-2.553,2.568-3.343a27.019,27.019,0,0,0,.976-6.926" transform="translate(0.884 0.9)" fill="#2e3747"/>
              <path id="Trazado_772847" data-name="Trazado 772847" d="M41.334,51.509a7.588,7.588,0,0,0-.413.9,2.139,2.139,0,0,0-.209.752c0,.05.065.062.1.031a2.681,2.681,0,0,0,.4-.711c.137-.277.28-.551.409-.832a.158.158,0,0,0-.285-.138" transform="translate(0.885 1.118)" fill="#2e3747"/>
              <path id="Trazado_772848" data-name="Trazado 772848" d="M39,83.858c.081-2.231.328-4.571-.4-6.725a22.458,22.458,0,0,0-1.431-3.055q-.817-1.574-1.6-3.163c-2.1-4.235-4.074-8.539-5.839-12.924a27.493,27.493,0,0,1-1.914-6.545,20.156,20.156,0,0,1,.438-7.12c.133-.58.274-1.159.432-1.733.012-.042-.051-.065-.064-.023a23.4,23.4,0,0,0-1.224,6.81,19.221,19.221,0,0,0,1.181,6.507c.752,2.191,1.7,4.321,2.623,6.442q1.435,3.278,2.981,6.507c1.028,2.141,2.122,4.245,3.206,6.357a11.464,11.464,0,0,1,1.2,3.207,16.479,16.479,0,0,1,.13,3.513c-.185,4.936-.611,19.758-.673,24.682q-.012.938-.022,1.875c0,.055.083.063.087.007.313-4.913.713-19.7.891-24.619" transform="translate(0.595 0.925)" fill="#2e3747"/>
              <path id="Trazado_772849" data-name="Trazado 772849" d="M35.43,43.056c0-.035-.055-.028-.059,0a11.643,11.643,0,0,1-.946,4,5.591,5.591,0,0,1-2.8,2.37,20.619,20.619,0,0,1-2.037.752c-.05.016-.039.093.015.082a10.806,10.806,0,0,0,3.747-1.3,4.694,4.694,0,0,0,2.028-3.429,11.955,11.955,0,0,0,.049-2.478" transform="translate(0.643 0.936)" fill="#2e3747"/>
              <path id="Trazado_772850" data-name="Trazado 772850" d="M27.381,42.594c.038.057,20.947,3.9,21.153,3.726a13.654,13.654,0,0,0,.25-1.608,6.462,6.462,0,0,0,.495-3.931c-.7-5.418-1.765-18.89-2.655-20.118a4.65,4.65,0,0,0-4.816-1.2c-3.451,1.414-11.818,15.061-13.524,18.079a4.753,4.753,0,0,0-.381,3.424,14.287,14.287,0,0,0-.521,1.628" transform="translate(0.595 0.418)" fill="#e6b046"/>
              <path id="Trazado_772851" data-name="Trazado 772851" d="M47.65,44.039c-.617-.132-1.249-.205-1.87-.317-.594-.106-1.181-.238-1.776-.34-1.218-.209-2.438-.408-3.656-.616-2.437-.419-4.871-.857-7.3-1.288-.678-.121-1.359-.242-2.037-.366-.709-.129-1.423-.215-2.131-.34a.026.026,0,1,0-.011.051c.617.134,1.227.307,1.847.432q.886.181,1.775.356c1.212.241,2.428.468,3.643.69,2.433.443,4.87.863,7.312,1.246.684.106,1.368.191,2.055.275.713.086,1.422.228,2.137.293.049,0,.067-.063.017-.075" transform="translate(0.627 0.886)" fill="#2e3747"/>
              <path id="Trazado_772852" data-name="Trazado 772852" d="M44.573,24.331c-1.164-.121-2.626-2.627-2.891-4.214-.017-.109.459-1.023.984-2.16.317-.692.652-1.469.907-2.2l4.2,2.716a12.329,12.329,0,0,0-1.422,2.654,1.662,1.662,0,0,0-.074.311.491.491,0,0,1-.011.052c-.105.6-.568,2.958-1.693,2.841" transform="translate(0.906 0.343)" fill="#cc9c97"/>
              <path id="Trazado_772853" data-name="Trazado 772853" d="M46.233,21.434c0,.013-.005.032-.01.051a2.939,2.939,0,0,1-.48-.138c-2.635-.985-2.126-4.453-1.929-5.41l1.049.678,2.867,1.852a12.288,12.288,0,0,0-1.421,2.657,1.626,1.626,0,0,0-.076.31" transform="translate(0.949 0.346)" fill="#2e3747"/>
              <path id="Trazado_772854" data-name="Trazado 772854" d="M44.091,10.821c-.822,1.6-.806,6.664.2,7.973,1.464,1.9,4.3,2.564,6.024.7,1.67-1.8,1.533-8.4.364-9.633a4.3,4.3,0,0,0-6.591.957" transform="translate(0.946 0.19)" fill="#cc9c97"/>
              <path id="Trazado_772855" data-name="Trazado 772855" d="M48.25,14.738c0-.013-.027.016-.027.03.01.341-.036.734-.343.846-.01,0-.009.02,0,.019.377-.052.432-.574.368-.9" transform="translate(1.041 0.32)" fill="#2e3747"/>
              <path id="Trazado_772856" data-name="Trazado 772856" d="M47.954,14.389c-.549-.043-.593,1.056-.085,1.1s.545-1.061.085-1.1" transform="translate(1.033 0.313)" fill="#2e3747"/>
              <path id="Trazado_772857" data-name="Trazado 772857" d="M50.137,14.753c0-.013.026.017.025.031-.025.34.005.735.308.86.01,0,.008.02,0,.018-.374-.068-.407-.592-.329-.909" transform="translate(1.089 0.321)" fill="#2e3747"/>
              <path id="Trazado_772858" data-name="Trazado 772858" d="M50.454,14.417c.55-.019.548,1.081.039,1.1s-.5-1.082-.039-1.1" transform="translate(1.089 0.313)" fill="#2e3747"/>
              <path id="Trazado_772859" data-name="Trazado 772859" d="M47.575,13.759a4.3,4.3,0,0,0,.444-.08.728.728,0,0,0,.438-.169.235.235,0,0,0,.008-.284.576.576,0,0,0-.565-.151.843.843,0,0,0-.541.284.248.248,0,0,0,.215.4" transform="translate(1.028 0.284)" fill="#2e3747"/>
              <path id="Trazado_772860" data-name="Trazado 772860" d="M50.946,13.713a4.211,4.211,0,0,1-.432-.131.728.728,0,0,1-.416-.219.233.233,0,0,1,.026-.283A.578.578,0,0,1,50.7,13a.847.847,0,0,1,.5.345.248.248,0,0,1-.26.372" transform="translate(1.088 0.282)" fill="#2e3747"/>
              <path id="Trazado_772861" data-name="Trazado 772861" d="M47.685,17.688c.079.083.155.2.278.212a.89.89,0,0,0,.37-.071.012.012,0,0,1,.014.018.459.459,0,0,1-.44.167.363.363,0,0,1-.255-.312c0-.02.022-.027.034-.014" transform="translate(1.036 0.384)" fill="#2e3747"/>
              <path id="Trazado_772862" data-name="Trazado 772862" d="M48.075,16.781a1.163,1.163,0,0,0,.753.548,1.455,1.455,0,0,0,.417.036.413.413,0,0,0,.08-.005c.025,0,.047,0,.075-.009a.084.084,0,0,0,.072-.074v0a.132.132,0,0,0,0-.035v-.033c.018-.262.009-.662.009-.662.094.052.573.292.571.154a17.462,17.462,0,0,0-.307-3.528.032.032,0,0,0-.062.006c-.023,1.094.147,2.183.141,3.283a2.038,2.038,0,0,0-.54-.189c-.038.009.032.772.014.89l0,.012a1.607,1.607,0,0,1-1.185-.422c-.025-.02-.052,0-.033.03" transform="translate(1.045 0.286)" fill="#2e3747"/>
              <g id="Grupo_1031710" data-name="Grupo 1031710" transform="translate(44.408 9.442)" opacity="0.2">
                <g id="Grupo_1031709" data-name="Grupo 1031709">
                  <g id="Grupo_1031708" data-name="Grupo 1031708" clip-path="url(#clip-path-22)">
                    <path id="Trazado_772863" data-name="Trazado 772863" d="M43.463,14.384c.343-.052,1.17-1.2,1.521-1.662a12.219,12.219,0,0,0,.6-3.481A3.711,3.711,0,0,0,44.14,10.7a9.649,9.649,0,0,0-.677,3.681" transform="translate(-43.463 -9.241)" fill="#2e3747"/>
                  </g>
                </g>
              </g>
              <path id="Trazado_772864" data-name="Trazado 772864" d="M49.748,11.274a1.767,1.767,0,0,1-1.635.536,1.8,1.8,0,0,1-1.346-1.128.014.014,0,0,0-.027.008,1.785,1.785,0,0,0,1.342,1.26,1.82,1.82,0,0,0,1.7-.647.022.022,0,0,0-.033-.03" transform="translate(1.016 0.232)" fill="#2e3747"/>
              <path id="Trazado_772865" data-name="Trazado 772865" d="M48.117,6.927a2.783,2.783,0,0,0-2.386,1.2A1.98,1.98,0,0,0,45.489,9.4c0,.018.039.015.038,0a2.175,2.175,0,0,1,1.1-1.925,2.8,2.8,0,0,1,2.49-.2,1.783,1.783,0,0,1,.923.8c.018.038.1.016.081-.021a2.148,2.148,0,0,0-2-1.128" transform="translate(0.989 0.151)" fill="#2e3747"/>
              <path id="Trazado_772866" data-name="Trazado 772866" d="M53.854,9.356a2.255,2.255,0,0,0-.914-1.25,3.12,3.12,0,0,0-2.031-.339c-.018,0-.017.032,0,.03a3.128,3.128,0,0,1,1.754.267,2.22,2.22,0,0,1,.984,1.119,2.161,2.161,0,0,1-1,2.649,2.2,2.2,0,0,1-1.738.109c-.022-.007-.04.025-.017.034a2.209,2.209,0,0,0,2.96-2.619" transform="translate(1.106 0.168)" fill="#2e3747"/>
              <path id="Trazado_772867" data-name="Trazado 772867" d="M43.766,11.749s-.893-1.871-.035-2.895c.485-.58,2.009-.436,2.009-.436a2.751,2.751,0,0,1,1.806-1.09,4.975,4.975,0,0,1,2.777.574,2.556,2.556,0,0,1,2.352.056,2.361,2.361,0,0,1-.386,4.087c-1.143.5-2.622-.561-2.622-.561a2.249,2.249,0,0,1-2.758-.534s-.955.779-1.756.17a1.336,1.336,0,0,1-1.388.629" transform="translate(0.943 0.158)" fill="#2e3747"/>
              <path id="Trazado_772868" data-name="Trazado 772868" d="M44.446,14.9s-.859-1.766-1.643-1.484-.315,2.718.481,3.168a.872.872,0,0,0,1.228-.28Z" transform="translate(0.922 0.291)" fill="#cc9c97"/>
              <path id="Trazado_772869" data-name="Trazado 772869" d="M42.943,14.1a.012.012,0,0,0-.009.021,2.209,2.209,0,0,1,.91,1.542.483.483,0,0,0-.692-.243c-.016.008-.007.035.011.034a.538.538,0,0,1,.554.278,2.619,2.619,0,0,1,.2.516c.019.057.12.045.109-.019V16.21A1.941,1.941,0,0,0,42.943,14.1" transform="translate(0.933 0.306)" fill="#2e3747"/>
              <path id="Trazado_772870" data-name="Trazado 772870" d="M39.448,24.728c-.049,5.926,1.3,15.25,2.862,16.3,3.91,2.626,10.582,4,13.405,4.109,1.647.065,2.423-8.611.962-8.743-2.3-.206-8.846-1.663-9.663-1.893-.435-.124-2.5-6.126-4.2-9.92-1.852-4.125-3.345-2.739-3.369.149" transform="translate(0.858 0.478)" fill="#cc9c97"/>
              <path id="Trazado_772871" data-name="Trazado 772871" d="M54.3,36.659a23.73,23.73,0,0,1,4.439-2.854,12.162,12.162,0,0,1,5.781-.64c2.106.271,7.011,2.383,6.649,3.9-.327,1.375-5.232-1.036-5.232-1.036s5.407,1.633,4.708,3.216-6.233-1.541-6.233-1.541,5.517,1.8,4.539,3.322c-.739,1.147-5.911-1.4-5.911-1.4s4.731,1.583,4.022,2.8c-.785,1.339-5.705-.711-5.705-.711a7.939,7.939,0,0,1-6.25,3.176c-.394.018-.807-8.23-.807-8.23" transform="translate(1.181 0.719)" fill="#cc9c97"/>
              <path id="Trazado_772872" data-name="Trazado 772872" d="M63.9,35.3c.642.169,1.294.335,1.918.561s1.242.473,1.843.755a11.367,11.367,0,0,1,2.235,1.322,24.456,24.456,0,0,0-4.145-1.908c-.624-.226-1.236-.481-1.86-.707-.016-.006-.006-.028.009-.024" transform="translate(1.389 0.767)" fill="#2e3747"/>
              <path id="Trazado_772873" data-name="Trazado 772873" d="M63.061,37.491c.81.251,1.625.471,2.424.758s1.526.626,2.3.966c.059.027.026.05-.035.026-.787-.309-1.539-.532-2.329-.832s-1.57-.629-2.367-.9c-.013,0-.005-.022.007-.018" transform="translate(1.371 0.815)" fill="#2e3747"/>
              <path id="Trazado_772874" data-name="Trazado 772874" d="M62.006,39.245a19.008,19.008,0,0,1,3.617,1.442c.057.029.011.054-.05.029-1.193-.5-2.125-.9-3.579-1.426-.021-.008-.014-.051.012-.044" transform="translate(1.347 0.853)" fill="#2e3747"/>
              <path id="Trazado_772875" data-name="Trazado 772875" d="M54.266,46.378,55.71,35.724l-8.38-1.507c-1.226-3.194-3.679-9.579-4.858-11.66-1.383-2.441-3.169-1.64-3.378,1.211-.476,6.522,1.248,16.974,2.234,18.277,1.413,1.868,12.938,4.333,12.938,4.333" transform="translate(0.848 0.459)" fill="#e6b046"/>
              <path id="Trazado_772876" data-name="Trazado 772876" d="M52.416,44.5c-.033-.672.291-3.437.38-4.125s.536-3.434.629-4.14c.005-.039.061-.043.057,0-.081.7-.314,3.485-.4,4.173s-.439,3.443-.636,4.1a.018.018,0,0,1-.036,0" transform="translate(1.139 0.787)" fill="#2e3747"/>
              <path id="Trazado_772877" data-name="Trazado 772877" d="M47.843,44.778c-2.2-.735-4.635-1.236-6.482-2.712-1.553-2.911-1.553-6.421-1.974-9.635-.175-1.871-.309-3.746-.368-5.624.337,3.74.671,7.483,1.274,11.184a11.375,11.375,0,0,0,1.166,3.988c1.817,1.447,4.217,2.024,6.384,2.8" transform="translate(0.848 0.583)" fill="#2e3747"/>
              <path id="Trazado_772878" data-name="Trazado 772878" d="M39.113,28.4a2.436,2.436,0,0,1-.259-1.029,10.517,10.517,0,0,1,.259,1.029" transform="translate(0.845 0.595)" fill="#2e3747"/>
              <path id="Trazado_772879" data-name="Trazado 772879" d="M44.167,26.535c.834,1.814,1.559,3.915,2.315,5.774l.4.954c.189.385.092.521.6.6,2.691.624,5.421,1.11,8.124,1.713,0,.007-.043.286-.043.294l.022-.289.007.01c-2.816-.471-5.622-.978-8.414-1.588-.323-.047-.378-.419-.507-.656l-.381-.969c-.708-1.879-1.436-3.976-2.122-5.849" transform="translate(0.96 0.577)" fill="#2e3747"/>
              <path id="Trazado_772880" data-name="Trazado 772880" d="M44.519,26.769a2.79,2.79,0,0,1,.154,1.13c-.053-.376-.136-.746-.154-1.13" transform="translate(0.968 0.582)" fill="#2e3747"/>
            </g>
          </g>
        </g>
      </g>
      <g id="Rectángulo_364367" data-name="Rectángulo 364367" transform="translate(184.539 17518.1)" fill="#636363" stroke="#707070" stroke-width="1" opacity="0.54">
        <rect width="197.184" height="3.026" stroke="none"/>
        <rect x="0.5" y="0.5" width="196.184" height="2.026" fill="none"/>
      </g>
    </g>
  </g>
</svg>
