<svg xmlns="http://www.w3.org/2000/svg" xmlns:xlink="http://www.w3.org/1999/xlink" width="260.806" height="178.748" viewBox="0 0 260.806 178.748">
  <defs>
    <clipPath id="clip-path">
      <rect id="Rectángulo_366748" data-name="Rectángulo 366748" width="260.806" height="145.625" fill="none"/>
    </clipPath>
    <linearGradient id="linear-gradient" x1="0.5" x2="0.5" y2="1" gradientUnits="objectBoundingBox">
      <stop offset="0" stop-color="#dedede"/>
      <stop offset="0.517" stop-color="#fff"/>
      <stop offset="1" stop-color="#dedede"/>
    </linearGradient>
  </defs>
  <g id="Grupo_1083830" data-name="Grupo 1083830" transform="translate(-1027 -3476.373)">
    <path id="Trazado_797102" data-name="Trazado 797102" d="M20.81,171.473s-22.047-33.179.315-74.416C41.861,58.818,73.959,77.164,94.2,42.063c51.272-88.934,160.718-20.567,144.3,55.018-7.947,36.577,24.185,37.907,7.813,74.47Z" transform="translate(1035.594 3476.373)" fill="#f6f6f6"/>
    <g id="Grupo_1083829" data-name="Grupo 1083829" transform="translate(1027 3509.496)">
      <path id="Trazado_781127" data-name="Trazado 781127" d="M13.043,49.077,0,100.822H260.8L247.762,49.077Z" transform="translate(0 42.627)" fill="#fff"/>
      <g id="Grupo_1033212" data-name="Grupo 1033212" transform="translate(0 0)">
        <g id="Grupo_1033211" data-name="Grupo 1033211" clip-path="url(#clip-path)">
          <path id="Trazado_781128" data-name="Trazado 781128" d="M19.725,56a4.948,4.948,0,0,0-4.944,4.941V83.662a4.951,4.951,0,0,0,4.944,4.944H56.871V56Z" transform="translate(12.838 48.64)" fill="#2a3444"/>
          <path id="Trazado_781129" data-name="Trazado 781129" d="M74.46,56H37.305V88.607H74.46a4.949,4.949,0,0,0,4.94-4.944V60.941A4.946,4.946,0,0,0,74.46,56" transform="translate(32.402 48.64)" fill="#373f51"/>
          <path id="Trazado_781130" data-name="Trazado 781130" d="M74.46,56.843H37.305V86.3H74.46a3.367,3.367,0,0,0,3.365-3.367V60.208a3.366,3.366,0,0,0-3.365-3.365" transform="translate(32.402 49.372)" fill="#2a3444"/>
          <path id="Trazado_781131" data-name="Trazado 781131" d="M18.99,56.843a3.363,3.363,0,0,0-3.363,3.365V82.93A3.364,3.364,0,0,0,18.99,86.3H56.136V56.843Z" transform="translate(13.573 49.372)" fill="#373f51"/>
          <path id="Rectángulo_366682" data-name="Rectángulo 366682" d="M.2,0H5.783a.2.2,0,0,1,.2.2V5.78a.2.2,0,0,1-.2.2H.2a.2.2,0,0,1-.2-.2V.2A.2.2,0,0,1,.2,0Z" transform="translate(32.56 109.227)" fill="#f5f5f5"/>
          <path id="Rectángulo_366683" data-name="Rectángulo 366683" d="M.2,0H5.783a.2.2,0,0,1,.2.2V5.778a.2.2,0,0,1-.2.2H.2a.2.2,0,0,1-.2-.2V.2A.2.2,0,0,1,.2,0Z" transform="translate(32.56 117.954)" fill="#f5f5f5"/>
          <path id="Rectángulo_366684" data-name="Rectángulo 366684" d="M.2,0H5.783a.2.2,0,0,1,.2.2V5.78a.2.2,0,0,1-.2.2H.2a.2.2,0,0,1-.2-.2V.2A.2.2,0,0,1,.2,0Z" transform="translate(32.56 126.676)" fill="#f5f5f5"/>
          <path id="Rectángulo_366685" data-name="Rectángulo 366685" d="M.2,0H5.782a.2.2,0,0,1,.2.2V5.78a.2.2,0,0,1-.2.2H.2a.2.2,0,0,1-.2-.2V.2A.2.2,0,0,1,.2,0Z" transform="translate(41.193 109.227)" fill="#f5f5f5"/>
          <path id="Rectángulo_366686" data-name="Rectángulo 366686" d="M.2,0H5.781a.2.2,0,0,1,.2.2V5.779a.2.2,0,0,1-.2.2H.2a.2.2,0,0,1-.2-.2V.2A.2.2,0,0,1,.2,0Z" transform="translate(41.193 117.954)" fill="#f5f5f5"/>
          <path id="Rectángulo_366687" data-name="Rectángulo 366687" d="M.2,0H5.779a.2.2,0,0,1,.2.2V5.78a.2.2,0,0,1-.2.2H.2a.2.2,0,0,1-.2-.2V.2A.2.2,0,0,1,.2,0Z" transform="translate(49.618 109.227)" fill="#f5f5f5"/>
          <path id="Rectángulo_366688" data-name="Rectángulo 366688" d="M.2,0H5.778a.2.2,0,0,1,.2.2V5.779a.2.2,0,0,1-.2.2H.2a.2.2,0,0,1-.2-.2V.2A.2.2,0,0,1,.2,0Z" transform="translate(49.618 117.954)" fill="#f5f5f5"/>
          <path id="Rectángulo_366689" data-name="Rectángulo 366689" d="M.2,0H5.782a.2.2,0,0,1,.2.2V5.78a.2.2,0,0,1-.2.2H.2a.2.2,0,0,1-.2-.2V.2A.2.2,0,0,1,.2,0Z" transform="translate(58.244 109.227)" fill="#f5f5f5"/>
          <path id="Rectángulo_366690" data-name="Rectángulo 366690" d="M.2,0H5.782a.2.2,0,0,1,.2.2V5.777a.2.2,0,0,1-.2.2H.2a.2.2,0,0,1-.2-.2V.2A.2.2,0,0,1,.2,0Z" transform="translate(58.244 117.954)" fill="#f5f5f5"/>
          <path id="Rectángulo_366691" data-name="Rectángulo 366691" d="M.2,0H5.779a.2.2,0,0,1,.2.2V5.78a.2.2,0,0,1-.2.2H.2a.2.2,0,0,1-.2-.2V.2A.2.2,0,0,1,.2,0Z" transform="translate(66.67 109.227)" fill="#f5f5f5"/>
          <path id="Rectángulo_366692" data-name="Rectángulo 366692" d="M.2,0h5.58a.2.2,0,0,1,.2.2V5.78a.2.2,0,0,1-.2.2H.2a.2.2,0,0,1-.2-.2V.2A.2.2,0,0,1,.2,0Z" transform="translate(75.3 109.227)" fill="#f5f5f5"/>
          <path id="Rectángulo_366693" data-name="Rectángulo 366693" d="M.2,0H5.779a.2.2,0,0,1,.2.2V5.778a.2.2,0,0,1-.2.2H.2a.2.2,0,0,1-.2-.2V.2A.2.2,0,0,1,.2,0Z" transform="translate(66.67 117.954)" fill="#f5f5f5"/>
          <path id="Trazado_781132" data-name="Trazado 781132" d="M53.132,67.793H22.419a.375.375,0,0,0-.374.376V73.4a.372.372,0,0,0,.374.374H53.132a.372.372,0,0,0,.37-.374V68.169a.374.374,0,0,0-.37-.376" transform="translate(19.148 58.883)" fill="#f5f5f5"/>
          <path id="Trazado_781133" data-name="Trazado 781133" d="M54.48,58.454H49.251a.378.378,0,0,0-.377.377v8.351H40.617a.374.374,0,0,0-.374.372v5.232a.376.376,0,0,0,.374.376H54.48a.374.374,0,0,0,.374-.376V58.831a.376.376,0,0,0-.374-.377" transform="translate(34.954 50.771)" fill="#f5f5f5"/>
          <path id="Rectángulo_366694" data-name="Rectángulo 366694" d="M.2,0h5.58a.2.2,0,0,1,.2.2V5.781a.2.2,0,0,1-.2.2H.2a.2.2,0,0,1-.2-.2V.2A.2.2,0,0,1,.2,0Z" transform="translate(75.3 126.676)" fill="#f5f5f5"/>
          <path id="Rectángulo_366695" data-name="Rectángulo 366695" d="M.2,0H5.777a.2.2,0,0,1,.2.2V5.78a.2.2,0,0,1-.2.2H.2a.2.2,0,0,1-.2-.2V.2A.2.2,0,0,1,.2,0Z" transform="translate(83.829 126.676)" fill="#f5f5f5"/>
          <path id="Rectángulo_366696" data-name="Rectángulo 366696" d="M.2,0H5.783a.2.2,0,0,1,.2.2V5.779a.2.2,0,0,1-.2.2H.2a.2.2,0,0,1-.2-.2V.2A.2.2,0,0,1,.2,0Z" transform="translate(92.252 117.954)" fill="#f5f5f5"/>
          <path id="Rectángulo_366697" data-name="Rectángulo 366697" d="M.2,0H5.783a.2.2,0,0,1,.2.2V5.778a.2.2,0,0,1-.2.2H.2a.2.2,0,0,1-.2-.2V.2A.2.2,0,0,1,.2,0Z" transform="translate(100.881 117.954)" fill="#f5f5f5"/>
          <rect id="Rectángulo_366698" data-name="Rectángulo 366698" width="5.983" height="5.981" rx="0.201" transform="translate(92.252 109.227)" fill="#f5f5f5"/>
          <path id="Rectángulo_366699" data-name="Rectángulo 366699" d="M.2,0H5.783a.2.2,0,0,1,.2.2V5.78a.2.2,0,0,1-.2.2H.2a.2.2,0,0,1-.2-.2V.2A.2.2,0,0,1,.2,0Z" transform="translate(100.881 109.227)" fill="#f5f5f5"/>
          <path id="Rectángulo_366700" data-name="Rectángulo 366700" d="M.2,0H5.784a.2.2,0,0,1,.2.2V5.78a.2.2,0,0,1-.2.2H.2a.2.2,0,0,1-.2-.2V.2A.2.2,0,0,1,.2,0Z" transform="translate(92.252 126.676)" fill="#f5f5f5"/>
          <path id="Rectángulo_366701" data-name="Rectángulo 366701" d="M.2,0H5.783a.2.2,0,0,1,.2.2V5.78a.2.2,0,0,1-.2.2H.2a.2.2,0,0,1-.2-.2V.2A.2.2,0,0,1,.2,0Z" transform="translate(100.881 126.676)" fill="#f5f5f5"/>
          <path id="Trazado_781134" data-name="Trazado 781134" d="M82.352,56.444a4.948,4.948,0,0,0-4.944,4.94V84.106a4.951,4.951,0,0,0,4.944,4.944H119.5V56.444Z" transform="translate(67.234 49.026)" fill="#2a3444"/>
          <path id="Trazado_781135" data-name="Trazado 781135" d="M137.088,56.444H99.933V89.051h37.155a4.951,4.951,0,0,0,4.942-4.944V61.385a4.947,4.947,0,0,0-4.942-4.94" transform="translate(86.799 49.026)" fill="#373f51"/>
          <path id="Trazado_781136" data-name="Trazado 781136" d="M137.088,57.287H99.933V86.741h37.155a3.367,3.367,0,0,0,3.365-3.367V60.652a3.366,3.366,0,0,0-3.365-3.365" transform="translate(86.799 49.758)" fill="#2a3444"/>
          <path id="Trazado_781137" data-name="Trazado 781137" d="M81.617,57.287a3.363,3.363,0,0,0-3.363,3.365V83.374a3.365,3.365,0,0,0,3.363,3.367h37.145V57.287Z" transform="translate(67.969 49.758)" fill="#373f51"/>
          <path id="Rectángulo_366702" data-name="Rectángulo 366702" d="M.2,0H5.783a.2.2,0,0,1,.2.2V5.78a.2.2,0,0,1-.2.2H.2a.2.2,0,0,1-.2-.2V.2A.2.2,0,0,1,.2,0Z" transform="translate(149.583 110.055)" fill="#f5f5f5"/>
          <path id="Rectángulo_366703" data-name="Rectángulo 366703" d="M.2,0H5.783a.2.2,0,0,1,.2.2V5.779a.2.2,0,0,1-.2.2H.2a.2.2,0,0,1-.2-.2V.2A.2.2,0,0,1,.2,0Z" transform="translate(149.583 118.783)" fill="#f5f5f5"/>
          <path id="Rectángulo_366704" data-name="Rectángulo 366704" d="M.2,0H5.783a.2.2,0,0,1,.2.2V5.78a.2.2,0,0,1-.2.2H.2a.2.2,0,0,1-.2-.2V.2A.2.2,0,0,1,.2,0Z" transform="translate(149.583 127.505)" fill="#f5f5f5"/>
          <path id="Rectángulo_366705" data-name="Rectángulo 366705" d="M.2,0H5.782a.2.2,0,0,1,.2.2V5.78a.2.2,0,0,1-.2.2H.2a.2.2,0,0,1-.2-.2V.2A.2.2,0,0,1,.2,0Z" transform="translate(158.216 110.055)" fill="#f5f5f5"/>
          <path id="Rectángulo_366706" data-name="Rectángulo 366706" d="M.2,0H5.782a.2.2,0,0,1,.2.2v5.58a.2.2,0,0,1-.2.2H.2a.2.2,0,0,1-.2-.2V.2A.2.2,0,0,1,.2,0Z" transform="translate(158.216 118.783)" fill="#f5f5f5"/>
          <path id="Rectángulo_366707" data-name="Rectángulo 366707" d="M.2,0H5.779a.2.2,0,0,1,.2.2V5.78a.2.2,0,0,1-.2.2H.2a.2.2,0,0,1-.2-.2V.2A.2.2,0,0,1,.2,0Z" transform="translate(166.641 110.055)" fill="#f5f5f5"/>
          <path id="Rectángulo_366708" data-name="Rectángulo 366708" d="M.2,0H5.779a.2.2,0,0,1,.2.2v5.58a.2.2,0,0,1-.2.2H.2a.2.2,0,0,1-.2-.2V.2A.2.2,0,0,1,.2,0Z" transform="translate(166.641 118.783)" fill="#f5f5f5"/>
          <path id="Rectángulo_366709" data-name="Rectángulo 366709" d="M.2,0H5.782a.2.2,0,0,1,.2.2V5.78a.2.2,0,0,1-.2.2H.2a.2.2,0,0,1-.2-.2V.2A.2.2,0,0,1,.2,0Z" transform="translate(175.267 110.055)" fill="#f5f5f5"/>
          <path id="Rectángulo_366710" data-name="Rectángulo 366710" d="M.2,0H5.782a.2.2,0,0,1,.2.2V5.779a.2.2,0,0,1-.2.2H.2a.2.2,0,0,1-.2-.2V.2A.2.2,0,0,1,.2,0Z" transform="translate(175.267 118.783)" fill="#f5f5f5"/>
          <path id="Rectángulo_366711" data-name="Rectángulo 366711" d="M.2,0H5.779a.2.2,0,0,1,.2.2V5.78a.2.2,0,0,1-.2.2H.2a.2.2,0,0,1-.2-.2V.2A.2.2,0,0,1,.2,0Z" transform="translate(183.694 110.055)" fill="#f5f5f5"/>
          <path id="Rectángulo_366712" data-name="Rectángulo 366712" d="M.2,0h5.58a.2.2,0,0,1,.2.2V5.78a.2.2,0,0,1-.2.2H.2a.2.2,0,0,1-.2-.2V.2A.2.2,0,0,1,.2,0Z" transform="translate(192.323 110.055)" fill="#f5f5f5"/>
          <path id="Rectángulo_366713" data-name="Rectángulo 366713" d="M.2,0H5.779a.2.2,0,0,1,.2.2V5.779a.2.2,0,0,1-.2.2H.2a.2.2,0,0,1-.2-.2V.2A.2.2,0,0,1,.2,0Z" transform="translate(183.694 118.783)" fill="#f5f5f5"/>
          <path id="Trazado_781138" data-name="Trazado 781138" d="M115.759,68.236H85.046a.375.375,0,0,0-.374.376v5.232a.372.372,0,0,0,.374.374h30.714a.372.372,0,0,0,.37-.374V68.612a.374.374,0,0,0-.37-.376" transform="translate(73.544 59.268)" fill="#f5f5f5"/>
          <path id="Trazado_781139" data-name="Trazado 781139" d="M117.108,58.9h-5.23a.376.376,0,0,0-.376.377v8.351h-8.259a.376.376,0,0,0-.374.372V73.23a.378.378,0,0,0,.374.376h13.865a.374.374,0,0,0,.372-.376V59.275a.375.375,0,0,0-.372-.377" transform="translate(89.35 51.157)" fill="#f5f5f5"/>
          <path id="Rectángulo_366714" data-name="Rectángulo 366714" d="M.2,0H5.781a.2.2,0,0,1,.2.2V5.78a.2.2,0,0,1-.2.2H.2a.2.2,0,0,1-.2-.2V.2A.2.2,0,0,1,.2,0Z" transform="translate(192.323 127.505)" fill="#f5f5f5"/>
          <path id="Rectángulo_366715" data-name="Rectángulo 366715" d="M.2,0H5.777a.2.2,0,0,1,.2.2V5.78a.2.2,0,0,1-.2.2H.2a.2.2,0,0,1-.2-.2V.2A.2.2,0,0,1,.2,0Z" transform="translate(200.852 127.505)" fill="#f5f5f5"/>
          <path id="Rectángulo_366716" data-name="Rectángulo 366716" d="M.2,0H5.784a.2.2,0,0,1,.2.2v5.58a.2.2,0,0,1-.2.2H.2a.2.2,0,0,1-.2-.2V.2A.2.2,0,0,1,.2,0Z" transform="translate(209.275 118.783)" fill="#f5f5f5"/>
          <path id="Rectángulo_366717" data-name="Rectángulo 366717" d="M.2,0h5.58a.2.2,0,0,1,.2.2V5.778a.2.2,0,0,1-.2.2H.2a.2.2,0,0,1-.2-.2V.2A.2.2,0,0,1,.2,0Z" transform="translate(217.905 118.783)" fill="#f5f5f5"/>
          <path id="Rectángulo_366718" data-name="Rectángulo 366718" d="M.2,0H5.784a.2.2,0,0,1,.2.2V5.78a.2.2,0,0,1-.2.2H.2a.2.2,0,0,1-.2-.2V.2A.2.2,0,0,1,.2,0Z" transform="translate(209.275 110.055)" fill="#f5f5f5"/>
          <path id="Rectángulo_366719" data-name="Rectángulo 366719" d="M.2,0H5.783a.2.2,0,0,1,.2.2V5.78a.2.2,0,0,1-.2.2H.2a.2.2,0,0,1-.2-.2V.2A.2.2,0,0,1,.2,0Z" transform="translate(217.905 110.055)" fill="#f5f5f5"/>
          <path id="Rectángulo_366720" data-name="Rectángulo 366720" d="M.2,0H5.784a.2.2,0,0,1,.2.2V5.78a.2.2,0,0,1-.2.2H.2a.2.2,0,0,1-.2-.2V.2A.2.2,0,0,1,.2,0Z" transform="translate(209.275 127.505)" fill="#f5f5f5"/>
          <path id="Rectángulo_366721" data-name="Rectángulo 366721" d="M.2,0H5.783a.2.2,0,0,1,.2.2V5.78a.2.2,0,0,1-.2.2H.2a.2.2,0,0,1-.2-.2V.2A.2.2,0,0,1,.2,0Z" transform="translate(217.905 127.505)" fill="#f5f5f5"/>
          <path id="Trazado_781140" data-name="Trazado 781140" d="M28.59,30.9,24.647,70.554H48.3V30.9Z" transform="translate(21.408 26.838)" fill="#2a3444"/>
          <path id="Trazado_781141" data-name="Trazado 781141" d="M57.03,30.9H37.305V70.554H60.973Z" transform="translate(32.402 26.838)" fill="#373f51"/>
          <rect id="Rectángulo_366722" data-name="Rectángulo 366722" width="29.417" height="3.451" transform="translate(40.29 97.392)" fill="#373f51"/>
          <rect id="Rectángulo_366723" data-name="Rectángulo 366723" width="29.424" height="3.451" transform="translate(69.709 97.392)" fill="#2a3444"/>
          <path id="Trazado_781142" data-name="Trazado 781142" d="M95.49,0H37.305V85.179H95.49a5.765,5.765,0,0,0,5.75-5.748V5.748A5.761,5.761,0,0,0,95.49,0" transform="translate(32.402 0)" fill="#2a3444"/>
          <path id="Trazado_781143" data-name="Trazado 781143" d="M8.844,0a5.762,5.762,0,0,0-5.75,5.748V79.431a5.766,5.766,0,0,0,5.75,5.748H67.022V0Z" transform="translate(2.687 0)" fill="#373f51"/>
          <path id="Trazado_781144" data-name="Trazado 781144" d="M9.013,3.275A3.448,3.448,0,0,0,5.564,6.724V68.4A3.46,3.46,0,0,0,9.013,71.85H64.874V3.275Z" transform="translate(4.833 2.845)" fill="url(#linear-gradient)"/>
          <path id="Trazado_781145" data-name="Trazado 781145" d="M93.168,3.275H37.305V71.85H93.168A3.47,3.47,0,0,0,96.625,68.4V6.724a3.458,3.458,0,0,0-3.457-3.449" transform="translate(32.402 2.845)" fill="url(#linear-gradient)"/>
          <rect id="Rectángulo_366724" data-name="Rectángulo 366724" width="53.721" height="59.14" transform="translate(16.707 11.589)" fill="#fff"/>
          <path id="Trazado_781146" data-name="Trazado 781146" d="M10.079,15.195l1.77-.506-1.77-.413V12.648l3.593,1.244V15.52l-3.593,1.3Z" transform="translate(8.754 10.985)" fill="#ffb206"/>
          <path id="Trazado_781147" data-name="Trazado 781147" d="M10.079,29.728l1.77-.508-1.77-.413V27.179l3.593,1.246v1.624l-3.593,1.306Z" transform="translate(8.754 23.607)" fill="#ffb206"/>
          <path id="Trazado_781148" data-name="Trazado 781148" d="M10.079,34.571l1.77-.506-1.77-.413V32.022l3.593,1.246V34.9l-3.593,1.3Z" transform="translate(8.754 27.814)" fill="#ffb206"/>
          <path id="Trazado_781149" data-name="Trazado 781149" d="M13.342,20.039l1.771-.506-1.771-.413V17.493l3.593,1.244v1.629l-3.593,1.3Z" transform="translate(11.588 15.193)" fill="#ffb206"/>
          <path id="Trazado_781150" data-name="Trazado 781150" d="M13.342,24.881l1.771-.506-1.771-.409V22.336l3.593,1.244V25.21l-3.593,1.3Z" transform="translate(11.588 19.4)" fill="#ffb206"/>
          <rect id="Rectángulo_366725" data-name="Rectángulo 366725" width="52.284" height="59.14" transform="translate(70.43 11.589)" fill="#e0e0e0"/>
          <rect id="Rectángulo_366726" data-name="Rectángulo 366726" width="72.846" height="4.311" transform="translate(24.93 23.568)" fill="#373f51"/>
          <rect id="Rectángulo_366727" data-name="Rectángulo 366727" width="30.445" height="4.313" transform="translate(31.362 32.616)" fill="#373f51"/>
          <rect id="Rectángulo_366728" data-name="Rectángulo 366728" width="63.066" height="4.315" transform="translate(31.362 41.665)" fill="#373f51"/>
          <rect id="Rectángulo_366729" data-name="Rectángulo 366729" width="71" height="4.316" transform="translate(24.93 59.766)" fill="#373f51"/>
          <rect id="Rectángulo_366730" data-name="Rectángulo 366730" width="89.557" height="4.311" transform="translate(24.884 50.719)" fill="#373f51"/>
          <rect id="Rectángulo_366731" data-name="Rectángulo 366731" width="53.721" height="6.486" transform="translate(16.707 11.589)" fill="#373f51"/>
          <rect id="Rectángulo_366732" data-name="Rectángulo 366732" width="52.284" height="6.486" transform="translate(70.43 11.589)" fill="#2a3444"/>
          <rect id="Rectángulo_366733" data-name="Rectángulo 366733" width="3.277" height="3.055" transform="translate(116.937 13.306)" fill="#fff"/>
          <rect id="Rectángulo_366734" data-name="Rectángulo 366734" width="3.276" height="3.055" transform="translate(110.077 13.306)" fill="#fff"/>
          <path id="Trazado_781151" data-name="Trazado 781151" d="M97.013,35.981,93.805,68.225H113.04V35.981Z" transform="translate(81.476 31.252)" fill="#2a3444"/>
          <path id="Trazado_781152" data-name="Trazado 781152" d="M120.137,35.981H104.1V68.225h19.246Z" transform="translate(90.417 31.252)" fill="#373f51"/>
          <rect id="Rectángulo_366735" data-name="Rectángulo 366735" width="23.92" height="2.805" transform="translate(170.597 99.477)" fill="#373f51"/>
          <rect id="Rectángulo_366736" data-name="Rectángulo 366736" width="23.925" height="2.805" transform="translate(194.516 99.477)" fill="#2a3444"/>
          <path id="Trazado_781153" data-name="Trazado 781153" d="M151.409,10.855H104.1V80.117h47.31a4.685,4.685,0,0,0,4.675-4.673V15.53a4.686,4.686,0,0,0-4.675-4.675" transform="translate(90.417 9.428)" fill="#2a3444"/>
          <path id="Trazado_781154" data-name="Trazado 781154" d="M80.953,10.855A4.685,4.685,0,0,0,76.28,15.53V75.444a4.685,4.685,0,0,0,4.673,4.673h47.308V10.855Z" transform="translate(66.255 9.428)" fill="#373f51"/>
          <path id="Trazado_781155" data-name="Trazado 781155" d="M81.092,13.518a2.806,2.806,0,0,0-2.8,2.807V66.47a2.813,2.813,0,0,0,2.8,2.81h45.425V13.518Z" transform="translate(67.999 11.741)" fill="url(#linear-gradient)"/>
          <path id="Trazado_781156" data-name="Trazado 781156" d="M149.524,13.518H104.1V69.28h45.425a2.821,2.821,0,0,0,2.808-2.81V16.325a2.814,2.814,0,0,0-2.808-2.807" transform="translate(90.417 11.741)" fill="url(#linear-gradient)"/>
          <rect id="Rectángulo_366737" data-name="Rectángulo 366737" width="42.131" height="46.376" transform="translate(152.389 30.241)" fill="#fff"/>
          <path id="Trazado_781157" data-name="Trazado 781157" d="M82.444,23.238l1.392-.4-1.392-.323V21.239l2.818.979v1.274l-2.818,1.022Z" transform="translate(71.608 18.447)" fill="#ffb206"/>
          <path id="Trazado_781158" data-name="Trazado 781158" d="M82.444,34.633l1.392-.4-1.392-.321V32.634l2.818.977v1.276L82.444,35.91Z" transform="translate(71.608 28.345)" fill="#ffb206"/>
          <path id="Trazado_781159" data-name="Trazado 781159" d="M82.444,38.432l1.392-.4-1.392-.32v-1.28l2.818.979v1.274L82.444,39.71Z" transform="translate(71.608 31.644)" fill="#ffb206"/>
          <rect id="Rectángulo_366738" data-name="Rectángulo 366738" width="41.004" height="46.376" transform="translate(194.52 30.241)" fill="#e0e0e0"/>
          <rect id="Rectángulo_366739" data-name="Rectángulo 366739" width="57.132" height="3.382" transform="translate(158.838 39.634)" fill="#373f51"/>
          <rect id="Rectángulo_366740" data-name="Rectángulo 366740" width="55.682" height="3.384" transform="translate(158.836 68.023)" fill="#373f51"/>
          <rect id="Rectángulo_366741" data-name="Rectángulo 366741" width="70.238" height="3.384" transform="translate(158.8 60.927)" fill="#373f51"/>
          <rect id="Rectángulo_366742" data-name="Rectángulo 366742" width="42.131" height="5.086" transform="translate(152.389 30.241)" fill="#373f51"/>
          <rect id="Rectángulo_366743" data-name="Rectángulo 366743" width="41.004" height="5.086" transform="translate(194.52 30.241)" fill="#2a3444"/>
          <rect id="Rectángulo_366744" data-name="Rectángulo 366744" width="2.567" height="2.397" transform="translate(230.996 31.584)" fill="#fff"/>
          <rect id="Rectángulo_366745" data-name="Rectángulo 366745" width="2.567" height="2.397" transform="translate(225.615 31.584)" fill="#fff"/>
          <path id="Trazado_781160" data-name="Trazado 781160" d="M88.911,28.061l5.725-1.988v2.6l-2.823.658,2.823.807v2.6l-5.725-2.076Z" transform="translate(77.225 22.646)" fill="#8f52f5"/>
          <path id="Trazado_781161" data-name="Trazado 781161" d="M96.583,24.407h3.038L95.333,37.261H92.294Z" transform="translate(80.164 21.199)" fill="#8f52f5"/>
          <path id="Trazado_781162" data-name="Trazado 781162" d="M99.206,26.32a10.075,10.075,0,0,1,3.937.549v1.742s-.914-.092-2.272-.092c-1.039,0-1.375-.032-1.375,1.955,0,1.863.277,1.908,1.375,1.908a21.053,21.053,0,0,0,2.382-.123V34c-1.145.811-2.779.568-4.047.581-1.512,0-2.672-.96-2.672-4.137s1.114-4.122,2.672-4.122" transform="translate(83.847 22.859)" fill="#8f52f5"/>
          <path id="Trazado_781163" data-name="Trazado 781163" d="M104.178,26.319c2.84,0,3.8,1.024,3.8,4.244,0,3.008-.884,4.016-3.8,4.016-2.855,0-3.8-1.114-3.8-4.016,0-3.313.994-4.244,3.8-4.244m0,6.062c.839,0,.839-.123.839-1.818,0-1.756.015-2.044-.839-2.044-.9,0-.841.3-.841,2.044,0,1.605.064,1.818.841,1.818" transform="translate(87.183 22.86)" fill="#8f52f5"/>
          <path id="Trazado_781164" data-name="Trazado 781164" d="M107.525,28.041a4.6,4.6,0,0,1,2.016.458V24.285H112.5V36.27H109.97l-.443-.749a2.794,2.794,0,0,1-2,.841c-1.814,0-2.623-1.037-2.623-4.107,0-3.008.426-4.214,2.623-4.214m1.009,5.923c.475,0,.839-.075.992-.334V30.391a1.615,1.615,0,0,0-.992-.23c-.428,0-.671.217-.671,1.94,0,1.665.228,1.863.671,1.863" transform="translate(91.115 21.093)" fill="#8f52f5"/>
          <path id="Trazado_781165" data-name="Trazado 781165" d="M113.012,26.328c2.7,0,3.711.336,3.711,3.021,0,1.665-.932,2.169-2.4,2.169h-1.891c0,1.1.718.869,1.848.869a10.7,10.7,0,0,0,2.287-.168v1.926a13.193,13.193,0,0,1-4.427.426c-2.061,0-2.672-1.358-2.672-4.167,0-3.375.917-4.077,3.543-4.077m.3,3.313a.445.445,0,0,0,.443-.49c0-.547-.013-.777-.534-.777-.641,0-.824.107-.792,1.267Z" transform="translate(95.081 22.868)" fill="#8f52f5"/>
          <path id="Trazado_781166" data-name="Trazado 781166" d="M113.759,30.135l2.823-.809-2.823-.656v-2.6l5.723,1.988v2.594l-5.723,2.078Z" transform="translate(98.808 22.646)" fill="#8f52f5"/>
          <path id="Trazado_781167" data-name="Trazado 781167" d="M60.38,40.188c0,3.717-1.577,6.731-3.522,6.731S53.33,43.9,53.33,40.188s1.581-6.727,3.528-6.727,3.522,3.012,3.522,6.727" transform="translate(46.321 29.063)" fill="#eac3a4"/>
          <path id="Trazado_781168" data-name="Trazado 781168" d="M82.168,40.188c0,3.717-1.573,6.731-3.522,6.731s-3.522-3.014-3.522-6.731,1.579-6.727,3.522-6.727,3.522,3.012,3.522,6.727" transform="translate(65.25 29.063)" fill="#eac3a4"/>
          <rect id="Rectángulo_366746" data-name="Rectángulo 366746" width="12.191" height="25.129" transform="translate(111.35 88.396)" fill="#d49a6c"/>
          <rect id="Rectángulo_366747" data-name="Rectángulo 366747" width="12.191" height="25.129" transform="translate(123.541 88.398)" fill="#eac3a4"/>
          <path id="Trazado_781169" data-name="Trazado 781169" d="M54.243,42.646V55.587A22.009,22.009,0,0,0,76.427,77.414v-56.6A22.009,22.009,0,0,0,54.243,42.646" transform="translate(47.114 18.083)" fill="#212e44"/>
          <path id="Trazado_781170" data-name="Trazado 781170" d="M66.115,20.819v56.6A22.009,22.009,0,0,0,88.3,55.587V42.646A22.009,22.009,0,0,0,66.115,20.819" transform="translate(57.426 18.083)" fill="#222a38"/>
          <path id="Trazado_781171" data-name="Trazado 781171" d="M140.405,98.233l-3.49-9.8-5.583-15.778-.022-.045-2.562-7.19a9.671,9.671,0,0,0-10.266-6.3l-3.216-.9-3.4-.936-1.865-.506-8.121-2.22V66.128H77.493V54.563l-8.1,2.22-1.884.506-.392.112L60.894,59.12a9.712,9.712,0,0,0-9.847,5.312c-.138.321-.3.643-.417.987l-2.562,7.19L42.457,88.433l-3.485,9.8Z" transform="translate(33.85 47.392)" fill="#5d1484"/>
          <path id="Trazado_781172" data-name="Trazado 781172" d="M119.156,98.233V74.878a1.5,1.5,0,0,0-1.512-1.489h-2.767a9.682,9.682,0,0,1-9.752-9.575V57.289l-1.865-.506-8.123-2.22H70.745l-8.1,2.22-1.885.506v6.525a9.662,9.662,0,0,1-9.73,9.575h-2.8a1.481,1.481,0,0,0-1.489,1.489V98.233Z" transform="translate(40.598 47.392)" fill="#500c75"/>
          <path id="Trazado_781173" data-name="Trazado 781173" d="M59.59,49.184l1.928,3.16,5.335,1.011,4.924,1.854V49.184Z" transform="translate(51.759 42.72)" fill="#212e44"/>
          <path id="Trazado_781174" data-name="Trazado 781174" d="M66.113,49.184v6.024h0l4.541-2.431,4.9-.434,2.749-3.16Z" transform="translate(57.424 42.72)" fill="#222a38"/>
        </g>
      </g>
    </g>
  </g>
</svg>
