<svg xmlns="http://www.w3.org/2000/svg" xmlns:xlink="http://www.w3.org/1999/xlink" width="70" height="70" viewBox="0 0 70 70">
  <defs>
    <clipPath id="clip-path">
      <rect id="Rect치ngulo_373526" data-name="Rect치ngulo 373526" width="70" height="70" transform="translate(518 3517)" fill="#8f52f5"/>
    </clipPath>
  </defs>
  <g id="Grupo_1026366" data-name="Grupo 1026366" transform="translate(-615 -7590.543)">
    <g id="Grupo_1022340" data-name="Grupo 1022340" transform="translate(204 5316.271)">
      <rect id="Rect치ngulo_33680" data-name="Rect치ngulo 33680" width="43" height="46" transform="translate(421 2286)" fill="none"/>
    </g>
    <g id="Enmascarar_grupo_22" data-name="Enmascarar grupo 22" transform="translate(97 4073.543)" clip-path="url(#clip-path)">
      <g id="operando" transform="translate(516.871 3515.871)">
        <path id="Trazado_777768" data-name="Trazado 777768" d="M42.9,32.742H11.29A2.26,2.26,0,0,0,9.032,35V55.323a2.26,2.26,0,0,0,2.258,2.258H42.9a2.26,2.26,0,0,0,2.258-2.258V35A2.26,2.26,0,0,0,42.9,32.742ZM11.29,55.323V35H42.9V55.323Z" fill="#8f52f5"/>
        <path id="Trazado_777769" data-name="Trazado 777769" d="M34.266,41.828a7.908,7.908,0,0,0-14.339,0,5.642,5.642,0,1,0-.734,11.236H35a5.642,5.642,0,1,0-.734-11.236ZM35,50.806H19.194a3.387,3.387,0,1,1,0-6.774,3.345,3.345,0,0,1,1.071.194l1.1.37.342-1.105a5.647,5.647,0,0,1,10.787,0l.342,1.106,1.1-.369a3.317,3.317,0,0,1,1.071-.2,3.387,3.387,0,0,1,0,6.774Z" fill="#8f52f5"/>
        <path id="Trazado_777770" data-name="Trazado 777770" d="M71.129,1.129H55.323v9.032H44.032V1.129H28.226v9.032H16.935V1.129H1.129V21.452H16.935V12.419h11.29v9.032H39.042a3.461,3.461,0,0,0,.345,1.943,1.161,1.161,0,0,1,.043.987c-.063.146-.124.294-.182.44a1.156,1.156,0,0,1-.732.673,3.465,3.465,0,0,0-2.34,2.731H10.161a5.652,5.652,0,0,0-5.645,5.645V59.839a3.391,3.391,0,0,0-3.387,3.387,7.912,7.912,0,0,0,7.9,7.9H45.161a7.912,7.912,0,0,0,7.9-7.9,3.391,3.391,0,0,0-3.387-3.387V43.974a3.4,3.4,0,0,0,.567.059h1.125a3.465,3.465,0,0,0,3.3-2.389,1.157,1.157,0,0,1,.671-.729c.149-.058.3-.117.444-.182a1.159,1.159,0,0,1,.986.043,3.463,3.463,0,0,0,4.02-.644l.8-.795a3.463,3.463,0,0,0,.644-4.02,1.161,1.161,0,0,1-.043-.987c.063-.146.124-.294.182-.44a1.156,1.156,0,0,1,.732-.673,3.468,3.468,0,0,0,2.387-3.3V28.793a3.465,3.465,0,0,0-2.389-3.3,1.157,1.157,0,0,1-.729-.671c-.058-.149-.117-.3-.182-.444a1.163,1.163,0,0,1,.043-.986,3.46,3.46,0,0,0,.345-1.943h8.557ZM14.677,19.194H3.387V3.387h11.29Zm40.645-6.774v5.365a1.157,1.157,0,0,1-.656-.72,3.466,3.466,0,0,0-3.3-2.387H50.244a3.465,3.465,0,0,0-3.3,2.389,1.155,1.155,0,0,1-.673.729c-.148.058-.295.117-.441.182a1.159,1.159,0,0,1-.986-.043,3.479,3.479,0,0,0-.814-.281V12.419ZM30.484,3.387h11.29V17.909a3.441,3.441,0,0,0-.948.67l-.615.615H30.484ZM50.806,63.226a5.652,5.652,0,0,1-5.645,5.645H9.032a5.652,5.652,0,0,1-5.645-5.645A1.131,1.131,0,0,1,4.516,62.1H19.194v1.129a3.391,3.391,0,0,0,3.387,3.387h9.032A3.391,3.391,0,0,0,35,63.226V62.1H49.677A1.131,1.131,0,0,1,50.806,63.226ZM21.452,62.1h11.29v1.129a1.131,1.131,0,0,1-1.129,1.129H22.581a1.131,1.131,0,0,1-1.129-1.129ZM6.774,59.839V33.871a3.391,3.391,0,0,1,3.387-3.387H44.032a3.391,3.391,0,0,1,3.387,3.387V59.839ZM49.48,32.471a3.387,3.387,0,1,0-2.06-3.116c0,.011,0,.02,0,.032a5.607,5.607,0,0,0-2.162-1.017,5.685,5.685,0,1,1,4.417,6.505v-1a5.566,5.566,0,0,0-.2-1.4Zm.2-3.116a1.129,1.129,0,1,1,1.129,1.129A1.131,1.131,0,0,1,49.677,29.355ZM62.391,27.64a1.211,1.211,0,0,1,.834,1.153v1.125a1.212,1.212,0,0,1-.835,1.153,3.406,3.406,0,0,0-2.129,2c-.047.121-.1.242-.148.359a3.409,3.409,0,0,0,.1,2.9,1.21,1.21,0,0,1-.225,1.4l-.8.8a1.208,1.208,0,0,1-1.4.225,3.411,3.411,0,0,0-2.9-.1q-.178.076-.362.149a3.409,3.409,0,0,0-2,2.13,1.211,1.211,0,0,1-1.153.834H50.244a1.2,1.2,0,0,1-.567-.16V37.163a8,8,0,0,0,1.129.095,7.9,7.9,0,1,0-7.813-9.032h-4.45a1.2,1.2,0,0,1,.679-.586,3.4,3.4,0,0,0,2.13-2c.047-.121.1-.242.148-.359a3.409,3.409,0,0,0-.1-2.9,1.212,1.212,0,0,1,.225-1.406l.795-.795a1.208,1.208,0,0,1,1.406-.225,3.407,3.407,0,0,0,2.9.1c.12-.052.24-.1.361-.148a3.416,3.416,0,0,0,2-2.13,1.208,1.208,0,0,1,1.152-.835h1.125a1.212,1.212,0,0,1,1.153.835,3.41,3.41,0,0,0,2,2.129c.121.047.242.1.36.148a3.413,3.413,0,0,0,2.9-.1,1.21,1.21,0,0,1,1.406.225l.795.795a1.212,1.212,0,0,1,.225,1.406,3.407,3.407,0,0,0-.1,2.9q.076.178.149.362a3.406,3.406,0,0,0,2.13,2Zm6.48-8.446H61.4l-.614-.614a3.454,3.454,0,0,0-3.206-.925V3.387h11.29V19.194Z" fill="#8f52f5"/>
        <path id="Trazado_777771" data-name="Trazado 777771" d="M5.645,5.645h6.774V7.9H5.645Z" fill="#8f52f5"/>
        <path id="Trazado_777772" data-name="Trazado 777772" d="M5.645,10.161h6.774v2.258H5.645Z" fill="#8f52f5"/>
        <path id="Trazado_777773" data-name="Trazado 777773" d="M5.645,14.677h6.774v2.258H5.645Z" fill="#8f52f5"/>
        <path id="Trazado_777774" data-name="Trazado 777774" d="M32.742,5.645h6.774V7.9H32.742Z" fill="#8f52f5"/>
        <path id="Trazado_777775" data-name="Trazado 777775" d="M32.742,10.161h6.774v2.258H32.742Z" fill="#8f52f5"/>
        <path id="Trazado_777776" data-name="Trazado 777776" d="M32.742,14.677h6.774v2.258H32.742Z" fill="#8f52f5"/>
        <path id="Trazado_777777" data-name="Trazado 777777" d="M59.839,5.645h6.774V7.9H59.839Z" fill="#8f52f5"/>
        <path id="Trazado_777778" data-name="Trazado 777778" d="M59.839,10.161h6.774v2.258H59.839Z" fill="#8f52f5"/>
        <path id="Trazado_777779" data-name="Trazado 777779" d="M59.839,14.677h6.774v2.258H59.839Z" fill="#8f52f5"/>
      </g>
    </g>
  </g>
</svg>
