<svg xmlns="http://www.w3.org/2000/svg" xmlns:xlink="http://www.w3.org/1999/xlink" width="85" height="97" viewBox="0 0 85 97">
  <defs>
    <clipPath id="clip-path">
      <rect id="Rectángulo_373438" data-name="Rectángulo 373438" width="85" height="85" transform="translate(180 452)" fill="#e01650"/>
    </clipPath>
    <linearGradient id="linear-gradient" x1="1" y1="0.5" x2="0" y2="0.5" gradientUnits="objectBoundingBox">
      <stop offset="0" stop-color="#ffb206"/>
      <stop offset="1" stop-color="#ffb206" stop-opacity="0"/>
    </linearGradient>
    <linearGradient id="linear-gradient-2" y1="0.5" x2="1" y2="0.5" gradientUnits="objectBoundingBox">
      <stop offset="0" stop-color="#e01650"/>
      <stop offset="1" stop-color="#e01650" stop-opacity="0"/>
    </linearGradient>
  </defs>
  <g id="Grupo_1064348" data-name="Grupo 1064348" transform="translate(-180 -447)">
    <g id="Enmascarar_grupo_2" data-name="Enmascarar grupo 2" clip-path="url(#clip-path)">
      <g id="hacker" transform="translate(180 452)">
        <path id="Trazado_777249" data-name="Trazado 777249" d="M74.8,39.217l-4.635-14.49a36.376,36.376,0,0,0-18.955-21.8,17.346,17.346,0,0,0-2.805-1.1,31.087,31.087,0,0,0-11.958.021,17.356,17.356,0,0,0-2.8,1.115A36.375,36.375,0,0,0,14.77,24.822L10.184,39.328A10.826,10.826,0,0,0,13.345,50.71l13.37,11.8a12.487,12.487,0,0,0-5.494,10.353v10.9H63.779v-10.9a12.487,12.487,0,0,0-5.489-10.35l13.394-11.9A10.827,10.827,0,0,0,74.8,39.217Z" fill="#484655"/>
        <g id="Grupo_1064159" data-name="Grupo 1064159">
          <path id="Trazado_777250" data-name="Trazado 777250" d="M74.8,39.217l-4.635-14.49a36.376,36.376,0,0,0-18.955-21.8,17.346,17.346,0,0,0-2.805-1.1,29.623,29.623,0,0,0-7.9-.519,20.435,20.435,0,0,1,3.922.519,17.34,17.34,0,0,1,2.805,1.1,36.376,36.376,0,0,1,18.955,21.8l4.635,14.49A10.827,10.827,0,0,1,67.706,50.61l-13.394,11.9A12.487,12.487,0,0,1,59.8,72.858v10.9h3.977v-10.9a12.487,12.487,0,0,0-5.489-10.35l13.394-11.9A10.827,10.827,0,0,0,74.8,39.217Z" fill="#35343f"/>
          <path id="Trazado_777251" data-name="Trazado 777251" d="M67.9,49.076,42.5,72.046,17.1,49.076s.2-.481.566-1.282c.79-1.748,2.324-5.02,4.1-8.116.682-1.2,1.4-2.366,2.126-3.411a12.488,12.488,0,0,1,3.5-3.725c6.6-3.667,23.609-3.667,30.213,0a12.486,12.486,0,0,1,3.5,3.725c.725,1.046,1.444,2.216,2.126,3.411,1.771,3.1,3.305,6.368,4.1,8.116C67.695,48.595,67.9,49.076,67.9,49.076Z" fill="#35343f"/>
        </g>
        <g id="Grupo_1064160" data-name="Grupo 1064160">
          <path id="Trazado_777252" data-name="Trazado 777252" d="M49.489,60.409V44.449H35.511V60.433l-1.767,0a12.508,12.508,0,0,0-3.517.511L42.5,72.046,54.823,60.9a12.5,12.5,0,0,0-3.506-.5Z" fill="#fa9e3e"/>
          <path id="Trazado_777253" data-name="Trazado 777253" d="M66.477,45.945c-.838-1.769-1.977-4.061-3.239-6.267-.488-.855-1-1.7-1.51-2.49H55.912v9.4h8.2A4.676,4.676,0,0,0,66.477,45.945Z" fill="#fa9e3e"/>
          <path id="Trazado_777254" data-name="Trazado 777254" d="M21.762,39.678c-1.262,2.205-2.4,4.5-3.239,6.267a4.676,4.676,0,0,0,2.369.641h8.2v-9.4H23.272C22.758,37.982,22.251,38.823,21.762,39.678Z" fill="#fa9e3e"/>
        </g>
        <path id="Trazado_777255" data-name="Trazado 777255" d="M57.606,32.542c-6.6-3.667-23.609-3.667-30.213,0a12.486,12.486,0,0,0-3.5,3.725V38.3a18.611,18.611,0,1,0,37.222,0V36.267A12.485,12.485,0,0,0,57.606,32.542Z" fill="#f0eeee"/>
        <g id="Grupo_1064161" data-name="Grupo 1064161">
          <path id="Trazado_777256" data-name="Trazado 777256" d="M57.606,32.542c-6.6-3.667-23.609-3.667-30.213,0a8.806,8.806,0,0,0-2.3,2.113c9.153-1.6,22.7-3.482,34.786,10.3A18.56,18.56,0,0,0,61.111,38.3V36.267A12.49,12.49,0,0,0,57.606,32.542Z" fill="#d9d4d4"/>
          <path id="Trazado_777257" data-name="Trazado 777257" d="M57.606,32.542c-.119-.066-.243-.131-.369-.195v7.888A16.675,16.675,0,0,1,41.522,56.882l.164.009.215.009c.2.006.4.011.6.011h0c.2,0,.4,0,.606-.011l.166-.006q.25-.01.5-.027l.115-.007q.3-.022.592-.053l.142-.016.1-.013c.125-.015.249-.03.373-.047l.146-.021c.077-.011.153-.025.23-.037.118-.019.236-.036.353-.058L45.9,56.6c.093-.017.186-.037.279-.056.077-.015.154-.03.23-.046l.15-.033c.18-.04.359-.082.537-.127l.036-.009c.191-.049.38-.1.568-.156l.134-.04q.235-.07.467-.146l.1-.034.1-.034c.152-.052.3-.1.455-.16l.1-.036q.233-.088.463-.182l.12-.049c.182-.076.362-.153.541-.234l0,0c.077-.035.152-.072.227-.108.1-.046.2-.091.293-.139l.116-.058q.241-.121.478-.248l.04-.021q.259-.14.513-.288l.095-.056q.216-.127.429-.261l.085-.053q.249-.158.492-.323L53,53.668l.05-.035q.192-.132.381-.269l.1-.069h0q.47-.346.917-.72l.087-.074q.2-.17.4-.345l.045-.04c.034-.03.066-.062.1-.093.111-.1.223-.2.332-.309l.063-.062c.081-.079.16-.159.24-.24.04-.041.082-.081.122-.122l.072-.074c.092-.095.181-.192.271-.289.044-.048.09-.095.134-.143l.012-.014c.111-.123.22-.249.328-.375l.042-.048.074-.087,0,0q.375-.446.722-.917l0,0,.061-.084c.057-.078.112-.158.168-.237.044-.063.09-.125.133-.188l.043-.061q.168-.246.328-.5l.034-.054q.142-.225.278-.455l.052-.087q.3-.51.564-1.04l0,0,.051-.1c.05-.1.1-.2.146-.3l.018-.037.055-.117q.082-.179.161-.36l.043-.1q.195-.455.366-.923L60,44.662l.013-.038q.078-.216.151-.434c.013-.039.025-.079.038-.118q.059-.18.114-.362l.042-.14c.027-.093.053-.186.08-.28.007-.025.014-.049.021-.074l.038-.139q.05-.187.1-.376c.009-.038.019-.077.028-.115q.055-.232.1-.467l.006-.026c0-.023.009-.046.013-.069q.1-.475.169-.959l0-.013.01-.068c.009-.065.017-.131.026-.2.011-.083.023-.167.033-.25,0-.036.008-.071.012-.107q.024-.209.043-.42,0-.055.01-.111c0-.049.007-.1.011-.148.007-.1.015-.193.021-.289,0-.029,0-.058.005-.087.007-.125.012-.252.017-.378,0-.046,0-.092.006-.139,0,0,0,0,0-.007q.008-.276.008-.555V36.265A12.513,12.513,0,0,0,57.606,32.542Z" fill="#d9d4d4"/>
        </g>
        <path id="Trazado_777258" data-name="Trazado 777258" d="M40.075,67.446,40.1,83.755l28.775-.049L68.849,67.4a2.865,2.865,0,0,0-2.87-2.86l-23.044.04A2.865,2.865,0,0,0,40.075,67.446Z" fill="#f0eeee"/>
        <path id="Trazado_777259" data-name="Trazado 777259" d="M65.979,64.537l-3.765.006a2.865,2.865,0,0,1,2.87,2.86l.028,16.309,3.765-.006L68.849,67.4A2.865,2.865,0,0,0,65.979,64.537Z" fill="#d9d4d4"/>
        <path id="Trazado_777260" data-name="Trazado 777260" d="M75.99,38.838,71.356,24.349A37.746,37.746,0,0,0,51.749,1.8,18.534,18.534,0,0,0,48.728.616a31.967,31.967,0,0,0-12.6.023,18.2,18.2,0,0,0-3.015,1.193,37.022,37.022,0,0,0-12.1,9.285,1.245,1.245,0,1,0,1.887,1.625,34.548,34.548,0,0,1,11.3-8.664,16.127,16.127,0,0,1,2.586-1.034,29.812,29.812,0,0,1,11.312-.021,16.174,16.174,0,0,1,2.592,1.027A35.249,35.249,0,0,1,68.984,25.108L73.619,39.6a9.59,9.59,0,0,1-2.762,10.083l-13.395,11.9a1.241,1.241,0,0,0-.126,1.73l-3.322.006L60.9,57.082a1.245,1.245,0,1,0-1.67-1.847l-4.748,4.294a13.74,13.74,0,0,0-3.152-.368h-.6V56.371a19.856,19.856,0,0,0,9.186-8.539h4.188a5.947,5.947,0,0,0,1.751-.267c.126.272.24.522.34.744.074.163.141.312.2.447L62.926,51.9a1.245,1.245,0,0,0,1.67,1.847L68.734,50a1.245,1.245,0,0,0,.311-1.41c-.009-.02-.214-.5-.578-1.308-.811-1.794-2.015-4.336-3.407-6.891l-.011-.021-.2-.361-.106-.191-.15-.269q-.137-.244-.276-.487c-.121-.212-.241-.419-.361-.624l-.063-.107c-.607-1.031-1.2-1.962-1.76-2.773a13.2,13.2,0,0,0-3.924-4.1c-3.278-1.82-9.151-2.907-15.711-2.907s-12.433,1.087-15.71,2.907q-.221.123-.448.278a14.927,14.927,0,0,0-3.476,3.827h0c-.561.809-1.15,1.738-1.755,2.765l-.07.119c-.114.194-.228.391-.343.593l-.015.026q-.141.247-.28.495l-.134.24-.125.226-.184.335-.031.057c-1.387,2.548-2.587,5.08-3.4,6.868-.364.8-.569,1.288-.578,1.309A1.245,1.245,0,0,0,16.265,50l18.6,16.817a1.245,1.245,0,1,0,1.67-1.847l-3.6-3.257q.407-.03.816-.032l1.766,0a1.245,1.245,0,0,0,1.244-1.245V57.311a19.955,19.955,0,0,0,11.488,0v3.1a1.245,1.245,0,0,0,1.245,1.245h0l1.827,0q.4,0,.79.028l-1.813,1.64-7.363.013a4.115,4.115,0,0,0-4.1,4.118l.026,15.061H22.466V72.858a11.253,11.253,0,0,1,4.947-9.322,1.245,1.245,0,0,0,.125-1.964l-13.37-11.8a9.59,9.59,0,0,1-2.8-10.073L15.957,25.2a35.558,35.558,0,0,1,4-8.53,1.245,1.245,0,1,0-2.094-1.348,38.056,38.056,0,0,0-4.284,9.127L9,38.953a12.082,12.082,0,0,0,3.524,12.69l12.236,10.8a13.736,13.736,0,0,0-4.78,10.419v10.9A1.245,1.245,0,0,0,21.221,85H63.779a1.239,1.239,0,0,0,.314-.042l4.786-.008A1.245,1.245,0,0,0,70.122,83.7L70.094,67.4a4.109,4.109,0,0,0-4.111-4.1h0l-4.825.008q-.436-.451-.911-.862l12.269-10.9A12.082,12.082,0,0,0,75.99,38.838Zm-11.883,6.5H61.073c.017-.046.033-.092.05-.138q.061-.164.119-.328.042-.12.083-.241c.038-.112.075-.225.11-.338.025-.079.05-.157.074-.236.036-.118.07-.236.1-.354.021-.075.043-.149.063-.224.035-.128.067-.257.1-.386.016-.066.034-.131.049-.2.038-.16.073-.32.107-.481.007-.036.016-.071.023-.106q.061-.3.112-.6c.008-.045.014-.091.022-.136.025-.153.05-.306.071-.459.01-.071.018-.142.028-.213.017-.129.033-.258.047-.387,0-.023.006-.046.008-.069l.089.157q.114.2.225.4l.115.208.224.408.116.213.209.389.124.233.182.347.142.273.141.273.171.333.086.17.211.418.014.027q.251.5.483.977A3.42,3.42,0,0,1,64.107,45.341Zm-40.18,0H20.892a3.46,3.46,0,0,1-.666-.065c.229-.47.474-.963.732-1.47l.054-.107.2-.384.114-.221.165-.316.159-.3.144-.27.189-.352.133-.245.205-.374.132-.239c.068-.122.137-.244.206-.366l.1-.18c0,.024.006.048.009.072.014.126.03.251.046.376.01.075.018.15.029.224.021.148.045.3.069.444.008.05.015.1.024.151q.051.3.112.593c.008.04.018.079.026.119.033.157.067.313.1.468.016.068.034.135.051.2.032.127.063.254.1.381.02.076.042.151.064.227.033.118.067.235.1.352.024.079.049.158.074.237q.054.17.11.338.041.12.083.24.058.166.12.331C23.894,45.249,23.91,45.3,23.927,45.341Zm9.814,13.85a13.812,13.812,0,0,0-3.179.381L18.6,48.754c.06-.135.127-.284.2-.447.1-.221.214-.471.34-.744a5.943,5.943,0,0,0,1.751.267H25.08a19.853,19.853,0,0,0,9.186,8.539v2.82ZM36,54.4h0l-.017-.006a17.373,17.373,0,0,1-9.033-8.367A17.18,17.18,0,0,1,25.134,38.3V36.662l.029-.041.12-.166.141-.193.117-.156.133-.175.113-.145.126-.159.109-.134.119-.145.1-.123.113-.131.1-.112.107-.118.094-.1.1-.107.089-.091.1-.1.083-.081.091-.086.078-.072.087-.077.072-.062.083-.068.066-.053.078-.06.06-.046.076-.054.052-.037.078-.05.041-.026c.038-.023.074-.044.109-.064,6.235-3.462,22.77-3.462,29,0,.035.019.071.041.109.064l.036.023.083.054.049.034.08.057.055.042.083.064.062.05.087.072.068.059.091.081.073.067.1.091.077.075.1.1.082.084.109.115.086.094.115.127.091.1.122.141.1.113.128.155.1.124.134.17.105.135.142.187.109.145.15.206.112.154.031.044V38.3q0,.765-.064,1.516c-.032.373-.077.743-.132,1.11a17.055,17.055,0,0,1-.663,2.791,17.317,17.317,0,0,1-.953,2.314h0A17.383,17.383,0,0,1,36,54.4ZM65.981,65.781h0A1.619,1.619,0,0,1,67.6,67.4l.026,15.063-3.844.007h-.013l-22.427.039-.026-15.064a1.622,1.622,0,0,1,1.617-1.622l7.834-.013h.009l9.821-.017h.027Z"/>
        <path id="Trazado_777261" data-name="Trazado 777261" d="M42.5,49.89a1.245,1.245,0,0,0-1.245,1.245v1.66a1.245,1.245,0,0,0,2.49,0v-1.66A1.245,1.245,0,0,0,42.5,49.89Z"/>
        <path id="Trazado_777262" data-name="Trazado 777262" d="M52.217,46.058a1.245,1.245,0,0,0-1.6-.737l-3.827,1.413-3.619-2.324a1.245,1.245,0,0,0-1.345,0l-3.619,2.323-3.827-1.413a1.245,1.245,0,1,0-.863,2.336l4.409,1.628a1.244,1.244,0,0,0,1.1-.12L42.5,46.938l3.468,2.227a1.245,1.245,0,0,0,1.1.12l4.409-1.628A1.245,1.245,0,0,0,52.217,46.058Z"/>
        <path id="Trazado_777263" data-name="Trazado 777263" d="M48.61,36.465a4.629,4.629,0,0,1,6.54,0A1.245,1.245,0,0,0,56.91,34.7a7.123,7.123,0,0,0-10.061,0,1.245,1.245,0,0,0,1.761,1.761Z"/>
        <path id="Trazado_777264" data-name="Trazado 777264" d="M36.39,36.465A1.245,1.245,0,0,0,38.151,34.7a7.122,7.122,0,0,0-10.061,0,1.245,1.245,0,0,0,1.761,1.761A4.63,4.63,0,0,1,36.39,36.465Z"/>
        <path id="Trazado_777265" data-name="Trazado 777265" d="M56.792,72.9H55.165l1.179-1.179a1.245,1.245,0,1,0-1.761-1.761l-3.3,3.3a1.245,1.245,0,0,0,.881,2.126h1.626L52.608,76.57a1.245,1.245,0,0,0,1.761,1.761l3.3-3.3a1.245,1.245,0,0,0-.881-2.126Z"/>
      </g>
    </g>
    <rect id="Rectángulo_373439" data-name="Rectángulo 373439" width="46" height="14" transform="translate(219 447)" fill="url(#linear-gradient)"/>
    <rect id="Rectángulo_373440" data-name="Rectángulo 373440" width="52" height="14" transform="translate(180 530)" fill="url(#linear-gradient-2)"/>
  </g>
</svg>
