<svg xmlns="http://www.w3.org/2000/svg" xmlns:xlink="http://www.w3.org/1999/xlink" width="168.153" height="168.333" viewBox="0 0 168.153 168.333">
  <defs>
    <clipPath id="clip-path">
      <rect id="Rectángulo_373490" data-name="Rectángulo 373490" width="153.462" height="135.864" fill="none"/>
    </clipPath>
    <clipPath id="clip-path-3">
      <rect id="Rectángulo_373479" data-name="Rectángulo 373479" width="61.237" height="4.298" fill="none"/>
    </clipPath>
    <clipPath id="clip-path-4">
      <path id="Trazado_777445" data-name="Trazado 777445" d="M158.758,252.88v7.654a10.944,10.944,0,0,1-2.449,6.87l-1.009,1.248h29.943l-1-1.248a10.927,10.927,0,0,1-2.446-6.87V252.88Z" transform="translate(-155.3 -252.88)" fill="none"/>
    </clipPath>
    <clipPath id="clip-path-5">
      <rect id="Rectángulo_373484" data-name="Rectángulo 373484" width="25.861" height="13.017" fill="none"/>
    </clipPath>
  </defs>
  <g id="Grupo_1083994" data-name="Grupo 1083994" transform="translate(-293.174 -2444.752)">
    <rect id="Rectángulo_364977" data-name="Rectángulo 364977" width="7.807" height="168.333" transform="translate(453.52 2444.752)" fill="#de9f11"/>
    <g id="Grupo_1064186" data-name="Grupo 1064186" transform="translate(293.174 2459.127)" clip-path="url(#clip-path)">
      <path id="Trazado_777401" data-name="Trazado 777401" d="M174.865,294.076H99.19l5.975-5.767H168.89Z" transform="translate(-60.253 -175.135)" fill="#fff"/>
      <g id="Grupo_1064178" data-name="Grupo 1064178">
        <g id="Grupo_1064177" data-name="Grupo 1064177" clip-path="url(#clip-path)">
          <path id="Trazado_777402" data-name="Trazado 777402" d="M174.561,293.969H98.886a.2.2,0,0,1-.136-.337l5.975-5.767a.2.2,0,0,1,.136-.055h63.726a.2.2,0,0,1,.137.055l5.975,5.767a.2.2,0,0,1-.137.337m-75.189-.393h74.7l-5.568-5.374H104.94Z" transform="translate(-59.95 -174.832)" fill="#263238"/>
          <path id="Trazado_777403" data-name="Trazado 777403" d="M175.787,290.65c0,1.178-13.7,2.147-30.619,2.147s-30.619-.962-30.619-2.147,13.7-2.151,30.619-2.151,30.619.962,30.619,2.151" transform="translate(-69.584 -175.25)" fill="#ffb206"/>
          <g id="Grupo_1064176" data-name="Grupo 1064176" transform="translate(44.966 113.249)" opacity="0.5" style="isolation: isolate">
            <g id="Grupo_1064175" data-name="Grupo 1064175">
              <g id="Grupo_1064174" data-name="Grupo 1064174" clip-path="url(#clip-path-3)">
                <path id="Trazado_777404" data-name="Trazado 777404" d="M175.787,290.65c0,1.178-13.7,2.147-30.619,2.147s-30.619-.962-30.619-2.147,13.7-2.151,30.619-2.151,30.619.962,30.619,2.151" transform="translate(-114.55 -288.499)" fill="#fff"/>
              </g>
            </g>
          </g>
          <rect id="Rectángulo_373480" data-name="Rectángulo 373480" width="75.675" height="5.343" transform="translate(38.937 118.941)" fill="#263238"/>
          <path id="Trazado_777405" data-name="Trazado 777405" d="M174.561,308.235H98.886a.2.2,0,0,1-.2-.2V302.7a.2.2,0,0,1,.2-.2h75.675a.2.2,0,0,1,.2.2v5.343a.2.2,0,0,1-.2.2m-75.479-.393h75.282v-4.95H99.083Z" transform="translate(-59.95 -183.755)" fill="#263238"/>
          <path id="Trazado_777406" data-name="Trazado 777406" d="M171.934,322.372H85.55l5.354-5.763h75.675Z" transform="translate(-51.968 -192.326)" fill="#fff"/>
          <path id="Trazado_777407" data-name="Trazado 777407" d="M171.63,322.265H85.246a.2.2,0,0,1-.144-.33l5.354-5.763a.2.2,0,0,1,.144-.062h75.674a.2.2,0,0,1,.144.062l5.354,5.763a.2.2,0,0,1-.144.33M85.7,321.873H171.18l-4.99-5.37h-75.5Z" transform="translate(-51.664 -192.022)" fill="#263238"/>
          <rect id="Rectángulo_373481" data-name="Rectángulo 373481" width="86.352" height="5.621" transform="translate(33.598 130.046)" fill="#263238"/>
          <path id="Trazado_777408" data-name="Trazado 777408" d="M171.638,336.8H85.286a.2.2,0,0,1-.2-.2v-5.621a.2.2,0,0,1,.2-.2h86.352a.2.2,0,0,1,.2.2v5.621a.2.2,0,0,1-.2.2m-86.156-.393h85.96v-5.229H85.483Z" transform="translate(-51.688 -200.94)" fill="#263238"/>
          <path id="Trazado_777409" data-name="Trazado 777409" d="M193.343,78.816h-.393V42.69h13.672V27.77h.393V43.083H193.343Z" transform="translate(-117.208 -16.869)" fill="#263238"/>
          <rect id="Rectángulo_373482" data-name="Rectángulo 373482" width="0.393" height="14.948" transform="translate(81.085 10.901)" fill="#263238"/>
          <path id="Trazado_777410" data-name="Trazado 777410" d="M259.2,158.442H196.05v-.393H258.8V149.1H271.03v.393H259.2Z" transform="translate(-119.092 -90.571)" fill="#263238"/>
          <path id="Trazado_777411" data-name="Trazado 777411" d="M75.507,156.7H15.452v-9.562H2.69v-.393H15.844v9.562H75.507Z" transform="translate(-1.634 -89.144)" fill="#263238"/>
          <path id="Trazado_777412" data-name="Trazado 777412" d="M152.059,54.619h-.393V25.81H142.1V16.781h7.714V3.4h.393V17.174h-7.714v8.243h9.566Z" transform="translate(-86.319 -2.065)" fill="#263238"/>
          <path id="Trazado_777413" data-name="Trazado 777413" d="M269.833,62.3h-.393V42.67h5.244V34.34H279.2v.393h-4.126v8.33h-5.244Z" transform="translate(-163.673 -20.86)" fill="#263238"/>
          <path id="Trazado_777414" data-name="Trazado 777414" d="M101.224,54.551h-.393V39.822L96.51,35.5V24.62H96.9V35.337l4.322,4.322Z" transform="translate(-58.625 -14.955)" fill="#263238"/>
          <path id="Trazado_777415" data-name="Trazado 777415" d="M310.805,105.581h-11v-.393h10.6v-7.1h7.1V94.079h6.367v.393H317.9v4.012h-7.1Z" transform="translate(-182.121 -57.149)" fill="#263238"/>
          <path id="Trazado_777416" data-name="Trazado 777416" d="M38.009,115.212H26.4v-8.95H10.55v-.393H26.79v8.95H38.009Z" transform="translate(-6.409 -64.311)" fill="#263238"/>
          <path id="Trazado_777417" data-name="Trazado 777417" d="M70.667,269.74H55.35v-.393H70.275V260.4h5.244V252.57h.393v8.219H70.667Z" transform="translate(-33.623 -153.425)" fill="#263238"/>
          <path id="Trazado_777418" data-name="Trazado 777418" d="M279.836,267.948H269.147v-7.093h-3v3.391H253.72V255.72h.393v8.133h11.639v-3.391h3.788v7.093h10.3Z" transform="translate(-154.123 -155.338)" fill="#263238"/>
          <path id="Trazado_777419" data-name="Trazado 777419" d="M227.8,26.4a.879.879,0,1,1-.879-.883.879.879,0,0,1,.879.883v0" transform="translate(-137.309 -15.502)" fill="#263238"/>
          <path id="Trazado_777420" data-name="Trazado 777420" d="M226.616,27.171h0a1.076,1.076,0,1,1,1.08-1.076v0a1.077,1.077,0,0,1-1.076,1.071m0-1.759a.683.683,0,0,0,0,1.366h0a.684.684,0,0,0,.683-.679v0a.684.684,0,0,0-.683-.683m.879.687h0Z" transform="translate(-137.005 -15.199)" fill="#263238"/>
          <path id="Trazado_777421" data-name="Trazado 777421" d="M206.659,26.4a.879.879,0,1,1-.879-.883.879.879,0,0,1,.879.883v0" transform="translate(-124.467 -15.502)" fill="#263238"/>
          <path id="Trazado_777422" data-name="Trazado 777422" d="M205.476,27.171h0a1.076,1.076,0,1,1,1.08-1.076v0a1.076,1.076,0,0,1-1.076,1.071m0-1.759a.683.683,0,0,0,0,1.366h0a.683.683,0,0,0,.683-.68v0a.684.684,0,0,0-.683-.683m.879.687h0Z" transform="translate(-124.164 -15.199)" fill="#263238"/>
          <path id="Trazado_777423" data-name="Trazado 777423" d="M161.776,1.382A.883.883,0,1,1,160.893.5h0a.88.88,0,0,1,.879.88v0" transform="translate(-97.199 -0.303)" fill="#263238"/>
          <path id="Trazado_777424" data-name="Trazado 777424" d="M160.589,2.159a1.079,1.079,0,1,1,1.079-1.083v0a1.08,1.08,0,0,1-1.079,1.079m0-1.766a.687.687,0,1,0,.683.687v0a.684.684,0,0,0-.683-.683" transform="translate(-96.895)" fill="#263238"/>
          <path id="Trazado_777425" data-name="Trazado 777425" d="M96.549,22.122a.879.879,0,1,1-.879-.883.879.879,0,0,1,.879.883v0" transform="translate(-57.581 -12.902)" fill="#263238"/>
          <path id="Trazado_777426" data-name="Trazado 777426" d="M95.366,22.89h-.005a1.076,1.076,0,1,1,1.08-1.076v0a1.075,1.075,0,0,1-1.075,1.071m0-1.759a.683.683,0,0,0,0,1.366.649.649,0,0,0,.484-.2.678.678,0,0,0,.2-.482v0a.684.684,0,0,0-.683-.683m.879.687h0Z" transform="translate(-57.277 -12.598)" fill="#263238"/>
          <path id="Trazado_777427" data-name="Trazado 777427" d="M10.056,105.009a.883.883,0,1,1-.887-.879h.008a.879.879,0,0,1,.879.879" transform="translate(-5.036 -63.254)" fill="#263238"/>
          <path id="Trazado_777428" data-name="Trazado 777428" d="M8.869,105.789a1.08,1.08,0,1,1,.767-.32,1.081,1.081,0,0,1-.767.32Zm0-1.766a.687.687,0,1,0,0,1.374h0a.687.687,0,0,0,.684-.69h0a.684.684,0,0,0-.683-.683m1.076.683h0Z" transform="translate(-4.732 -62.951)" fill="#263238"/>
          <path id="Trazado_777429" data-name="Trazado 777429" d="M2.266,145.812a.883.883,0,1,1-.883-.883.883.883,0,0,1,.883.883" transform="translate(-0.304 -88.038)" fill="#263238"/>
          <path id="Trazado_777430" data-name="Trazado 777430" d="M1.079,146.588a1.08,1.08,0,1,1,1.079-1.08,1.08,1.08,0,0,1-1.079,1.08m0-1.766a.687.687,0,1,0,.687.687.688.688,0,0,0-.687-.687" transform="translate(0 -87.734)" fill="#263238"/>
          <path id="Trazado_777431" data-name="Trazado 777431" d="M55.056,294.012a.883.883,0,1,1-.883-.883h0a.879.879,0,0,1,.879.879v0" transform="translate(-32.371 -178.063)" fill="#263238"/>
          <path id="Trazado_777432" data-name="Trazado 777432" d="M53.869,294.788a1.079,1.079,0,1,1,1.079-1.083v0a1.081,1.081,0,0,1-1.079,1.079m0-1.766a.687.687,0,1,0,.683.687v0a.684.684,0,0,0-.683-.683" transform="translate(-32.068 -177.759)" fill="#263238"/>
          <path id="Trazado_777433" data-name="Trazado 777433" d="M320.9,284.568a.883.883,0,1,1-.887-.879h0a.879.879,0,0,1,.883.875v0" transform="translate(-193.857 -172.328)" fill="#263238"/>
          <path id="Trazado_777434" data-name="Trazado 777434" d="M319.709,285.348a1.079,1.079,0,0,1,0-2.159h0a1.075,1.075,0,0,1,1.08,1.071l-.2,0h.2a1.079,1.079,0,0,1-1.074,1.084Zm0-1.766h0a.687.687,0,1,0,0,1.374h0a.687.687,0,0,0,.683-.69h0v0a.683.683,0,0,0-.683-.679" transform="translate(-193.553 -172.024)" fill="#263238"/>
          <path id="Trazado_777435" data-name="Trazado 777435" d="M387.719,147.8a.879.879,0,1,1-.879-.879.879.879,0,0,1,.879.879" transform="translate(-234.453 -89.247)" fill="#263238"/>
          <path id="Trazado_777436" data-name="Trazado 777436" d="M386.536,148.571a1.076,1.076,0,1,1,1.076-1.076,1.077,1.077,0,0,1-1.076,1.076m0-1.759a.683.683,0,1,0,.683.683.684.684,0,0,0-.683-.683" transform="translate(-234.149 -88.943)" fill="#263238"/>
          <path id="Trazado_777437" data-name="Trazado 777437" d="M361.7,92.738a.879.879,0,1,1-.879-.879.879.879,0,0,1,.879.879" transform="translate(-218.647 -55.8)" fill="#263238"/>
          <path id="Trazado_777438" data-name="Trazado 777438" d="M360.516,93.51a1.076,1.076,0,1,1,1.076-1.076,1.076,1.076,0,0,1-1.076,1.076m0-1.759a.683.683,0,1,0,.683.683.684.684,0,0,0-.683-.683" transform="translate(-218.344 -55.496)" fill="#263238"/>
          <path id="Trazado_777439" data-name="Trazado 777439" d="M295.279,33.418a.879.879,0,1,1-.879-.879.879.879,0,0,1,.879.879" transform="translate(-178.3 -19.766)" fill="#263238"/>
          <path id="Trazado_777440" data-name="Trazado 777440" d="M294.1,34.191a1.076,1.076,0,1,1,1.076-1.076,1.077,1.077,0,0,1-1.076,1.076m0-1.759a.683.683,0,1,0,.683.683.683.683,0,0,0-.683-.683" transform="translate(-177.997 -19.463)" fill="#263238"/>
          <path id="Trazado_777441" data-name="Trazado 777441" d="M181.793,260.534v-7.655H158.758v7.655a10.943,10.943,0,0,1-2.449,6.87l-1.009,1.248h29.943l-1-1.248a10.923,10.923,0,0,1-2.446-6.87" transform="translate(-94.338 -153.612)" fill="#fff"/>
        </g>
      </g>
      <g id="Grupo_1064183" data-name="Grupo 1064183" transform="translate(60.962 99.267)">
        <g id="Grupo_1064182" data-name="Grupo 1064182" clip-path="url(#clip-path-4)">
          <path id="Trazado_777442" data-name="Trazado 777442" d="M160.51,265.9h25.861a10.9,10.9,0,0,1-1.413-5.362v-7.655H161.923v7.655a10.9,10.9,0,0,1-1.413,5.362" transform="translate(-158.465 -252.879)" fill="#ffb206"/>
          <g id="Grupo_1064181" data-name="Grupo 1064181" transform="translate(2.045 0)" opacity="0.3" style="isolation: isolate">
            <g id="Grupo_1064180" data-name="Grupo 1064180">
              <g id="Grupo_1064179" data-name="Grupo 1064179" clip-path="url(#clip-path-5)">
                <path id="Trazado_777443" data-name="Trazado 777443" d="M160.51,265.9h25.861a10.9,10.9,0,0,1-1.413-5.362v-7.655H161.923v7.655a10.9,10.9,0,0,1-1.413,5.362" transform="translate(-160.51 -252.879)" fill="#fff"/>
              </g>
            </g>
          </g>
          <path id="Trazado_777444" data-name="Trazado 777444" d="M160.51,245.336h25.861a10.9,10.9,0,0,1-1.413-5.362v-7.655H161.923v7.655a10.9,10.9,0,0,1-1.413,5.362" transform="translate(-158.465 -240.39)" fill="#263238"/>
        </g>
      </g>
      <g id="Grupo_1064185" data-name="Grupo 1064185">
        <g id="Grupo_1064184" data-name="Grupo 1064184" clip-path="url(#clip-path)">
          <path id="Trazado_777446" data-name="Trazado 777446" d="M184.94,268.544H155a.2.2,0,0,1-.153-.32l1.009-1.248a10.781,10.781,0,0,0,2.406-6.747v-7.654a.2.2,0,0,1,.2-.2h23.035a.2.2,0,0,1,.2.2v7.654a10.761,10.761,0,0,0,2.4,6.746l1.006,1.249a.2.2,0,0,1-.153.319m-29.532-.393H184.53l-.748-.929a11.156,11.156,0,0,1-2.489-6.992h0v-7.458H158.651v7.458a11.177,11.177,0,0,1-2.493,6.994Z" transform="translate(-94.034 -153.309)" fill="#263238"/>
          <path id="Trazado_777447" data-name="Trazado 777447" d="M78.869,85.869h85.912A3.329,3.329,0,0,1,168.11,89.2v61.312a3.329,3.329,0,0,1-3.329,3.329H78.869a3.329,3.329,0,0,1-3.329-3.329V89.2a3.329,3.329,0,0,1,3.329-3.329" transform="translate(-45.887 -52.162)" fill="#263238"/>
          <path id="Trazado_777448" data-name="Trazado 777448" d="M164.478,153.731H78.565a3.529,3.529,0,0,1-3.525-3.525V88.9a3.529,3.529,0,0,1,3.525-3.525h85.912A3.529,3.529,0,0,1,168,88.9v61.312a3.529,3.529,0,0,1-3.525,3.525M78.565,85.763A3.136,3.136,0,0,0,75.433,88.9v61.312a3.136,3.136,0,0,0,3.133,3.132h85.912a3.136,3.136,0,0,0,3.132-3.132V88.9a3.136,3.136,0,0,0-3.132-3.133Z" transform="translate(-45.583 -51.858)" fill="#263238"/>
          <path id="Trazado_777449" data-name="Trazado 777449" d="M75.54,232.109h92.57v7.235a3.329,3.329,0,0,1-3.329,3.329H78.869a3.329,3.329,0,0,1-3.329-3.329Z" transform="translate(-45.887 -140.996)" fill="#fff"/>
          <path id="Trazado_777450" data-name="Trazado 777450" d="M164.478,242.566H78.565a3.529,3.529,0,0,1-3.525-3.525v-7.235a.2.2,0,0,1,.2-.2h92.57a.2.2,0,0,1,.2.2v7.235a3.529,3.529,0,0,1-3.525,3.525M75.433,232v7.038a3.136,3.136,0,0,0,3.133,3.132h85.912a3.136,3.136,0,0,0,3.132-3.132V232Z" transform="translate(-45.583 -140.693)" fill="#263238"/>
          <rect id="Rectángulo_373485" data-name="Rectángulo 373485" width="83.255" height="48.02" transform="translate(34.308 37.939)" fill="#fff"/>
          <path id="Trazado_777451" data-name="Trazado 777451" d="M170.351,144.562H87.1a.2.2,0,0,1-.2-.2V96.346a.2.2,0,0,1,.2-.2h83.255a.2.2,0,0,1,.2.2v48.02a.2.2,0,0,1-.2.2m-83.059-.393h82.862V96.542H87.293Z" transform="translate(-52.788 -58.407)" fill="#263238"/>
          <path id="Trazado_777452" data-name="Trazado 777452" d="M192.516,247.182a1.708,1.708,0,1,0-1.743,1.672h.035a1.692,1.692,0,0,0,1.708-1.672" transform="translate(-114.87 -149.093)" fill="#263238"/>
          <path id="Trazado_777453" data-name="Trazado 777453" d="M190.521,248.746h-.058a1.9,1.9,0,1,1,.058,0m-.016-3.415a1.511,1.511,0,0,0-.031,3.022h.015a1.5,1.5,0,0,0,1.527-1.478v0a1.513,1.513,0,0,0-1.48-1.542H190.5" transform="translate(-114.566 -148.789)" fill="#263238"/>
          <rect id="Rectángulo_373486" data-name="Rectángulo 373486" width="29.947" height="1.366" transform="translate(60.966 115.051)" fill="#fff"/>
          <path id="Trazado_777454" data-name="Trazado 777454" d="M184.954,294.348H155.006a.2.2,0,0,1-.2-.2v-1.366a.2.2,0,0,1,.2-.2h29.948a.2.2,0,0,1,.2.2v1.366a.2.2,0,0,1-.2.2m-29.751-.393h29.555v-.974H155.2Z" transform="translate(-94.04 -177.735)" fill="#263238"/>
          <path id="Trazado_777455" data-name="Trazado 777455" d="M151.364,90.3c-4.185,3.925-14.917,7.851-27.4,16.208,0,0,.785,28.263,27.4,43.694Z" transform="translate(-75.3 -54.853)" fill="#ffb206"/>
          <path id="Trazado_777456" data-name="Trazado 777456" d="M151.06,150.094a.2.2,0,0,1-.1-.027,54.909,54.909,0,0,1-23.768-27.732,53.475,53.475,0,0,1-3.734-16.127.2.2,0,0,1,.087-.168,181.739,181.739,0,0,1,16.933-9.829c4.686-2.474,8.388-4.428,10.446-6.359a.2.2,0,0,1,.331.143v59.9a.2.2,0,0,1-.2.2m-27.2-43.788a53.752,53.752,0,0,0,3.708,15.9,54.518,54.518,0,0,0,23.3,27.349V90.437c-2.146,1.869-5.727,3.759-10.2,6.121a181.914,181.914,0,0,0-16.806,9.747" transform="translate(-74.996 -54.549)" fill="#263238"/>
          <path id="Trazado_777457" data-name="Trazado 777457" d="M193.77,90.3c4.188,3.925,14.917,7.851,27.408,16.208,0,0-.785,28.263-27.408,43.694Z" transform="translate(-117.706 -54.853)" fill="#263238"/>
          <path id="Trazado_777458" data-name="Trazado 777458" d="M193.466,150.095a.2.2,0,0,1-.2-.2V90a.2.2,0,0,1,.331-.143c2.06,1.931,5.761,3.885,10.448,6.358a182.005,182.005,0,0,1,16.935,9.83.2.2,0,0,1,.087.168,53.484,53.484,0,0,1-3.734,16.127,54.913,54.913,0,0,1-23.772,27.732.2.2,0,0,1-.1.026m.2-59.657v59.119a54.517,54.517,0,0,0,23.308-27.363,53.722,53.722,0,0,0,3.7-15.887,182.169,182.169,0,0,0-16.808-9.747c-4.474-2.362-8.055-4.253-10.2-6.121" transform="translate(-117.403 -54.55)" fill="#263238"/>
          <path id="Trazado_777459" data-name="Trazado 777459" d="M154.474,96.429c-5.064,3.509-13.814,6.85-25.394,14.6,0,0,.726,26.183,25.394,40.495,24.671-14.312,25.4-40.495,25.4-40.495-11.58-7.748-20.3-11.089-25.4-14.6" transform="translate(-78.41 -58.576)" fill="#263238"/>
          <path id="Trazado_777460" data-name="Trazado 777460" d="M154.17,151.415a.2.2,0,0,1-.1-.026,50.933,50.933,0,0,1-22.032-25.713,49.565,49.565,0,0,1-3.46-14.947.2.2,0,0,1,.087-.168,172.089,172.089,0,0,1,17.237-9.987,81.219,81.219,0,0,0,8.154-4.61.2.2,0,0,1,.223,0,82.717,82.717,0,0,0,8.114,4.583,172.573,172.573,0,0,1,17.281,10.015.2.2,0,0,1,.087.168,49.544,49.544,0,0,1-3.46,14.947,50.934,50.934,0,0,1-22.035,25.713.2.2,0,0,1-.1.026m-25.193-40.589a49.821,49.821,0,0,0,3.434,14.721,50.541,50.541,0,0,0,21.759,25.445,50.543,50.543,0,0,0,21.762-25.445,49.821,49.821,0,0,0,3.434-14.721,172.6,172.6,0,0,0-17.153-9.932,84.96,84.96,0,0,1-8.043-4.531,83.485,83.485,0,0,1-8.085,4.559,172.076,172.076,0,0,0-17.109,9.9" transform="translate(-78.106 -58.272)" fill="#263238"/>
          <path id="Trazado_777461" data-name="Trazado 777461" d="M219.168,111.028c-11.58-7.745-20.3-11.089-25.4-14.6v55.093c24.671-14.312,25.4-40.495,25.4-40.495" transform="translate(-117.706 -58.577)" fill="#ffb206"/>
          <path id="Trazado_777462" data-name="Trazado 777462" d="M193.466,151.416a.2.2,0,0,1-.2-.2V96.126a.2.2,0,0,1,.308-.162,82.567,82.567,0,0,0,8.121,4.587,173.181,173.181,0,0,1,17.274,10.011.2.2,0,0,1,.087.168,49.569,49.569,0,0,1-3.461,14.947,50.934,50.934,0,0,1-22.035,25.713.2.2,0,0,1-.1.026m.2-54.92v54.382a50.539,50.539,0,0,0,21.566-25.33,49.808,49.808,0,0,0,3.434-14.721,173.036,173.036,0,0,0-17.146-9.927,89.2,89.2,0,0,1-7.854-4.4" transform="translate(-117.403 -58.273)" fill="#263238"/>
          <rect id="Rectángulo_373487" data-name="Rectángulo 373487" width="93.143" height="6.029" transform="translate(29.366 66.313)" fill="#263238"/>
          <path id="Trazado_777463" data-name="Trazado 777463" d="M167.649,174.851H74.506a.2.2,0,0,1-.2-.2v-6.03a.2.2,0,0,1,.2-.2h93.143a.2.2,0,0,1,.2.2v6.03a.2.2,0,0,1-.2.2M74.7,174.459h92.751v-5.637H74.7Z" transform="translate(-45.14 -102.313)" fill="#263238"/>
          <path id="Trazado_777464" data-name="Trazado 777464" d="M77.549,170.421a.624.624,0,1,1-.636-.612h.012a.616.616,0,0,1,.624.608v0" transform="translate(-46.349 -103.151)" fill="#fff"/>
          <path id="Trazado_777465" data-name="Trazado 777465" d="M76.98,171.215a.5.5,0,0,0,.86-.337.479.479,0,0,0-.126-.318,7.173,7.173,0,0,0-.734.656" transform="translate(-46.762 -103.607)" fill="#263238"/>
          <path id="Trazado_777466" data-name="Trazado 777466" d="M83.776,170.421a.628.628,0,1,1-.643-.612h.015A.62.62,0,0,1,83.776,170.421Z" transform="translate(-50.127 -103.151)" fill="#fff"/>
          <path id="Trazado_777467" data-name="Trazado 777467" d="M83.21,171.215a.5.5,0,0,0,.86-.337.479.479,0,0,0-.126-.318,7.749,7.749,0,0,0-.734.656" transform="translate(-50.546 -103.607)" fill="#263238"/>
          <path id="Trazado_777468" data-name="Trazado 777468" d="M90.012,170.474a.628.628,0,1,1-.577-.577.628.628,0,0,1,.577.577" transform="translate(-53.918 -103.204)" fill="#fff"/>
          <path id="Trazado_777469" data-name="Trazado 777469" d="M89.44,171.215a.5.5,0,0,0,.361.153.5.5,0,0,0,.5-.491.463.463,0,0,0-.126-.318,7.748,7.748,0,0,0-.734.656" transform="translate(-54.331 -103.607)" fill="#263238"/>
          <path id="Trazado_777470" data-name="Trazado 777470" d="M96.249,170.421a.624.624,0,1,1-.636-.612h.012a.616.616,0,0,1,.624.608v0" transform="translate(-57.709 -103.151)" fill="#fff"/>
          <path id="Trazado_777471" data-name="Trazado 777471" d="M95.67,171.215a.5.5,0,0,0,.864-.337.479.479,0,0,0-.126-.318,7.217,7.217,0,0,0-.738.656" transform="translate(-58.115 -103.607)" fill="#263238"/>
          <path id="Trazado_777472" data-name="Trazado 777472" d="M102.479,170.421a.624.624,0,1,1-.636-.612h.012a.616.616,0,0,1,.624.608v0" transform="translate(-61.493 -103.151)" fill="#fff"/>
          <path id="Trazado_777473" data-name="Trazado 777473" d="M101.87,171.215a.509.509,0,0,0,.361.153.5.5,0,0,0,.5-.487v0a.479.479,0,0,0-.126-.318,7.745,7.745,0,0,0-.738.656" transform="translate(-61.881 -103.607)" fill="#263238"/>
          <path id="Trazado_777474" data-name="Trazado 777474" d="M108.709,170.421a.624.624,0,1,1-.636-.612h.012a.616.616,0,0,1,.624.608v0" transform="translate(-65.277 -103.151)" fill="#fff"/>
          <path id="Trazado_777475" data-name="Trazado 777475" d="M108.14,171.215a.5.5,0,0,0,.86-.337.479.479,0,0,0-.126-.318,7.174,7.174,0,0,0-.734.656" transform="translate(-65.69 -103.607)" fill="#263238"/>
          <path id="Trazado_777476" data-name="Trazado 777476" d="M114.926,170.421a.628.628,0,1,1-.643-.612h.015A.62.62,0,0,1,114.926,170.421Z" transform="translate(-69.05 -103.151)" fill="#fff"/>
          <path id="Trazado_777477" data-name="Trazado 777477" d="M114.37,171.215a.5.5,0,0,0,.86-.337.479.479,0,0,0-.126-.318,7.747,7.747,0,0,0-.734.656" transform="translate(-69.475 -103.607)" fill="#263238"/>
          <path id="Trazado_777478" data-name="Trazado 777478" d="M121.179,170.421a.624.624,0,1,1-.636-.612h.012a.616.616,0,0,1,.624.608v0" transform="translate(-72.852 -103.151)" fill="#fff"/>
          <path id="Trazado_777479" data-name="Trazado 777479" d="M120.6,171.215a.5.5,0,0,0,.361.153.5.5,0,0,0,.5-.491.463.463,0,0,0-.126-.318,7.745,7.745,0,0,0-.734.656" transform="translate(-73.259 -103.607)" fill="#263238"/>
          <path id="Trazado_777480" data-name="Trazado 777480" d="M127.409,170.421a.624.624,0,1,1-.636-.612h.012a.616.616,0,0,1,.624.608v0" transform="translate(-76.637 -103.151)" fill="#fff"/>
          <path id="Trazado_777481" data-name="Trazado 777481" d="M126.87,171.215a.5.5,0,0,0,.864-.337.479.479,0,0,0-.126-.318,7.747,7.747,0,0,0-.738.656" transform="translate(-77.068 -103.607)" fill="#263238"/>
          <path id="Trazado_777482" data-name="Trazado 777482" d="M133.639,170.421a.624.624,0,1,1-.636-.612h.012a.616.616,0,0,1,.624.608v0" transform="translate(-80.421 -103.151)" fill="#fff"/>
          <path id="Trazado_777483" data-name="Trazado 777483" d="M133.06,171.215a.509.509,0,0,0,.361.153.5.5,0,0,0,.5-.487v0a.479.479,0,0,0-.126-.318,7.746,7.746,0,0,0-.738.656" transform="translate(-80.828 -103.607)" fill="#263238"/>
          <path id="Trazado_777484" data-name="Trazado 777484" d="M139.869,170.421a.624.624,0,1,1-.636-.612h.012a.616.616,0,0,1,.624.608v0" transform="translate(-84.206 -103.151)" fill="#fff"/>
          <path id="Trazado_777485" data-name="Trazado 777485" d="M139.3,171.215a.5.5,0,0,0,.86-.337.479.479,0,0,0-.126-.318,7.747,7.747,0,0,0-.734.656" transform="translate(-84.618 -103.607)" fill="#263238"/>
          <path id="Trazado_777486" data-name="Trazado 777486" d="M146.1,170.421a.628.628,0,1,1-.643-.612h.019a.616.616,0,0,1,.624.608v0" transform="translate(-87.984 -103.151)" fill="#fff"/>
          <path id="Trazado_777487" data-name="Trazado 777487" d="M145.53,171.215a.5.5,0,0,0,.86-.337.463.463,0,0,0-.126-.318,7.747,7.747,0,0,0-.734.656" transform="translate(-88.403 -103.607)" fill="#263238"/>
          <path id="Trazado_777488" data-name="Trazado 777488" d="M152.339,170.421a.624.624,0,1,1-.636-.612h.012a.616.616,0,0,1,.624.608v0" transform="translate(-91.781 -103.151)" fill="#fff"/>
          <path id="Trazado_777489" data-name="Trazado 777489" d="M151.76,171.215a.5.5,0,0,0,.864-.337.479.479,0,0,0-.126-.318,7.215,7.215,0,0,0-.738.656" transform="translate(-92.187 -103.607)" fill="#263238"/>
          <path id="Trazado_777490" data-name="Trazado 777490" d="M158.569,170.421a.624.624,0,1,1-.636-.612h.012a.616.616,0,0,1,.624.608v0" transform="translate(-95.565 -103.151)" fill="#fff"/>
          <path id="Trazado_777491" data-name="Trazado 777491" d="M157.99,171.215a.509.509,0,0,0,.361.153.5.5,0,0,0,.5-.487v0a.479.479,0,0,0-.126-.318,7.743,7.743,0,0,0-.738.656" transform="translate(-95.972 -103.607)" fill="#263238"/>
          <path id="Trazado_777492" data-name="Trazado 777492" d="M77.549,180.337a.624.624,0,1,1-.64-.608h.016A.616.616,0,0,1,77.549,180.337Z" transform="translate(-46.349 -109.177)" fill="#fff"/>
          <path id="Trazado_777493" data-name="Trazado 777493" d="M76.98,181.135a.492.492,0,0,0,.357.153.5.5,0,0,0,.5-.495.481.481,0,0,0-.126-.314,7.173,7.173,0,0,0-.734.656" transform="translate(-46.762 -109.633)" fill="#263238"/>
          <path id="Trazado_777494" data-name="Trazado 777494" d="M83.777,180.337a.628.628,0,1,1-.647-.608h.019a.62.62,0,0,1,.628.608" transform="translate(-50.128 -109.177)" fill="#fff"/>
          <path id="Trazado_777495" data-name="Trazado 777495" d="M83.21,181.135a.492.492,0,0,0,.357.153.5.5,0,0,0,.5-.495.481.481,0,0,0-.126-.314,7.7,7.7,0,0,0-.734.656" transform="translate(-50.546 -109.633)" fill="#263238"/>
          <path id="Trazado_777496" data-name="Trazado 777496" d="M90.007,180.337a.628.628,0,1,1-.647-.608h.023A.616.616,0,0,1,90.007,180.337Z" transform="translate(-53.912 -109.177)" fill="#fff"/>
          <path id="Trazado_777497" data-name="Trazado 777497" d="M89.44,181.135a.5.5,0,0,0,.86-.342.458.458,0,0,0-.126-.314,7.7,7.7,0,0,0-.734.656" transform="translate(-54.331 -109.633)" fill="#263238"/>
          <path id="Trazado_777498" data-name="Trazado 777498" d="M96.249,180.337a.624.624,0,1,1-.64-.608h.016A.616.616,0,0,1,96.249,180.337Z" transform="translate(-57.708 -109.177)" fill="#fff"/>
          <path id="Trazado_777499" data-name="Trazado 777499" d="M95.67,181.135a.5.5,0,0,0,.864-.342.481.481,0,0,0-.126-.314,7.217,7.217,0,0,0-.738.656" transform="translate(-58.115 -109.633)" fill="#263238"/>
          <path id="Trazado_777500" data-name="Trazado 777500" d="M102.479,180.337a.624.624,0,1,1-.64-.608h.016A.616.616,0,0,1,102.479,180.337Z" transform="translate(-61.493 -109.177)" fill="#fff"/>
          <path id="Trazado_777501" data-name="Trazado 777501" d="M101.87,181.135a.508.508,0,0,0,.361.153.5.5,0,0,0,.5-.495.481.481,0,0,0-.126-.314,7.693,7.693,0,0,0-.738.656" transform="translate(-61.881 -109.633)" fill="#263238"/>
          <path id="Trazado_777502" data-name="Trazado 777502" d="M108.709,180.337a.624.624,0,1,1-.64-.608h.016A.616.616,0,0,1,108.709,180.337Z" transform="translate(-65.277 -109.177)" fill="#fff"/>
          <path id="Trazado_777503" data-name="Trazado 777503" d="M108.14,181.135a.492.492,0,0,0,.357.153.5.5,0,0,0,.5-.495.481.481,0,0,0-.126-.314,7.174,7.174,0,0,0-.734.656" transform="translate(-65.69 -109.633)" fill="#263238"/>
          <path id="Trazado_777504" data-name="Trazado 777504" d="M114.927,180.337a.628.628,0,1,1-.647-.608h.019a.62.62,0,0,1,.628.608" transform="translate(-69.05 -109.177)" fill="#fff"/>
          <path id="Trazado_777505" data-name="Trazado 777505" d="M114.37,181.135a.492.492,0,0,0,.357.153.5.5,0,0,0,.5-.495.481.481,0,0,0-.126-.314,7.7,7.7,0,0,0-.734.656" transform="translate(-69.475 -109.633)" fill="#263238"/>
          <path id="Trazado_777506" data-name="Trazado 777506" d="M121.179,180.337a.624.624,0,1,1-.64-.608h.016A.616.616,0,0,1,121.179,180.337Z" transform="translate(-72.852 -109.177)" fill="#fff"/>
          <path id="Trazado_777507" data-name="Trazado 777507" d="M120.6,181.135a.5.5,0,0,0,.86-.342.458.458,0,0,0-.126-.314,7.693,7.693,0,0,0-.734.656" transform="translate(-73.259 -109.633)" fill="#263238"/>
          <path id="Trazado_777508" data-name="Trazado 777508" d="M127.409,180.337a.624.624,0,1,1-.64-.608h.016A.616.616,0,0,1,127.409,180.337Z" transform="translate(-76.637 -109.177)" fill="#fff"/>
          <path id="Trazado_777509" data-name="Trazado 777509" d="M126.87,181.135a.5.5,0,0,0,.864-.342.481.481,0,0,0-.126-.314,7.7,7.7,0,0,0-.738.656" transform="translate(-77.068 -109.633)" fill="#263238"/>
          <path id="Trazado_777510" data-name="Trazado 777510" d="M133.639,180.337a.624.624,0,1,1-.64-.608h.016A.616.616,0,0,1,133.639,180.337Z" transform="translate(-80.421 -109.177)" fill="#fff"/>
          <path id="Trazado_777511" data-name="Trazado 777511" d="M133.06,181.135a.508.508,0,0,0,.361.153.5.5,0,0,0,.5-.495.481.481,0,0,0-.126-.314,7.694,7.694,0,0,0-.738.656" transform="translate(-80.828 -109.633)" fill="#263238"/>
          <path id="Trazado_777512" data-name="Trazado 777512" d="M139.869,180.337a.624.624,0,1,1-.64-.608h.016A.616.616,0,0,1,139.869,180.337Z" transform="translate(-84.206 -109.177)" fill="#fff"/>
          <path id="Trazado_777513" data-name="Trazado 777513" d="M139.3,181.135a.492.492,0,0,0,.357.153.5.5,0,0,0,.5-.495.481.481,0,0,0-.126-.314,7.7,7.7,0,0,0-.734.656" transform="translate(-84.618 -109.633)" fill="#263238"/>
          <path id="Trazado_777514" data-name="Trazado 777514" d="M146.1,180.337a.628.628,0,1,1-.647-.608h.023A.616.616,0,0,1,146.1,180.337Z" transform="translate(-87.984 -109.177)" fill="#fff"/>
          <path id="Trazado_777515" data-name="Trazado 777515" d="M145.53,181.135a.5.5,0,0,0,.86-.342.458.458,0,0,0-.126-.314,7.7,7.7,0,0,0-.734.656" transform="translate(-88.403 -109.633)" fill="#263238"/>
          <path id="Trazado_777516" data-name="Trazado 777516" d="M152.339,180.337a.624.624,0,1,1-.64-.608h.016A.616.616,0,0,1,152.339,180.337Z" transform="translate(-91.781 -109.177)" fill="#fff"/>
          <path id="Trazado_777517" data-name="Trazado 777517" d="M151.76,181.135a.5.5,0,0,0,.864-.342.481.481,0,0,0-.126-.314,7.215,7.215,0,0,0-.738.656" transform="translate(-92.187 -109.633)" fill="#263238"/>
          <path id="Trazado_777518" data-name="Trazado 777518" d="M158.569,180.337a.624.624,0,1,1-.64-.608h.016A.616.616,0,0,1,158.569,180.337Z" transform="translate(-95.565 -109.177)" fill="#fff"/>
          <path id="Trazado_777519" data-name="Trazado 777519" d="M157.99,181.135a.508.508,0,0,0,.361.153.5.5,0,0,0,.5-.495.481.481,0,0,0-.126-.314,7.69,7.69,0,0,0-.738.656" transform="translate(-95.972 -109.633)" fill="#263238"/>
          <path id="Trazado_777520" data-name="Trazado 777520" d="M227.619,170.421a.624.624,0,1,1-.636-.612h.012a.616.616,0,0,1,.624.608v0" transform="translate(-137.51 -103.151)" fill="#fff"/>
          <path id="Trazado_777521" data-name="Trazado 777521" d="M227.05,171.215a.5.5,0,0,0,.86-.337.479.479,0,0,0-.126-.318,7.747,7.747,0,0,0-.734.656" transform="translate(-137.923 -103.607)" fill="#263238"/>
          <path id="Trazado_777522" data-name="Trazado 777522" d="M233.846,170.421a.628.628,0,1,1-.643-.612h.019a.616.616,0,0,1,.624.608v0" transform="translate(-141.288 -103.151)" fill="#fff"/>
          <path id="Trazado_777523" data-name="Trazado 777523" d="M233.28,171.215a.5.5,0,0,0,.86-.337.463.463,0,0,0-.126-.318,7.749,7.749,0,0,0-.734.656" transform="translate(-141.707 -103.607)" fill="#263238"/>
          <path id="Trazado_777524" data-name="Trazado 777524" d="M240.089,170.421a.624.624,0,1,1-.636-.612h.012a.616.616,0,0,1,.624.608v0" transform="translate(-145.085 -103.151)" fill="#fff"/>
          <path id="Trazado_777525" data-name="Trazado 777525" d="M239.51,171.215a.5.5,0,0,0,.864-.337.479.479,0,0,0-.126-.318,7.218,7.218,0,0,0-.738.656" transform="translate(-145.491 -103.607)" fill="#263238"/>
          <path id="Trazado_777526" data-name="Trazado 777526" d="M246.319,170.421a.624.624,0,1,1-.636-.612h.012a.616.616,0,0,1,.624.608v0" transform="translate(-148.869 -103.151)" fill="#fff"/>
          <path id="Trazado_777527" data-name="Trazado 777527" d="M245.74,171.215a.509.509,0,0,0,.361.153.5.5,0,0,0,.5-.487v0a.479.479,0,0,0-.126-.318,7.744,7.744,0,0,0-.738.656" transform="translate(-149.276 -103.607)" fill="#263238"/>
          <path id="Trazado_777528" data-name="Trazado 777528" d="M252.549,170.421a.624.624,0,1,1-.636-.612h.012a.616.616,0,0,1,.624.608v0" transform="translate(-152.654 -103.151)" fill="#fff"/>
          <path id="Trazado_777529" data-name="Trazado 777529" d="M251.98,171.215a.5.5,0,0,0,.86-.337.479.479,0,0,0-.126-.318,7.181,7.181,0,0,0-.734.656" transform="translate(-153.066 -103.607)" fill="#263238"/>
          <path id="Trazado_777530" data-name="Trazado 777530" d="M258.776,170.421a.628.628,0,1,1-.643-.612h.015A.62.62,0,0,1,258.776,170.421Z" transform="translate(-156.432 -103.151)" fill="#fff"/>
          <path id="Trazado_777531" data-name="Trazado 777531" d="M258.21,171.215a.5.5,0,0,0,.86-.337.479.479,0,0,0-.126-.318,7.741,7.741,0,0,0-.734.656" transform="translate(-156.851 -103.607)" fill="#263238"/>
          <path id="Trazado_777532" data-name="Trazado 777532" d="M265.006,170.421a.628.628,0,1,1-.643-.612h.019a.616.616,0,0,1,.624.608v0" transform="translate(-160.216 -103.151)" fill="#fff"/>
          <path id="Trazado_777533" data-name="Trazado 777533" d="M264.44,171.215a.5.5,0,0,0,.86-.337.463.463,0,0,0-.126-.318,7.745,7.745,0,0,0-.734.656" transform="translate(-160.635 -103.607)" fill="#263238"/>
          <path id="Trazado_777534" data-name="Trazado 777534" d="M271.249,170.421a.624.624,0,1,1-.636-.612h.012a.616.616,0,0,1,.624.608v0" transform="translate(-164.013 -103.151)" fill="#fff"/>
          <path id="Trazado_777535" data-name="Trazado 777535" d="M270.67,171.215a.5.5,0,0,0,.864-.337.479.479,0,0,0-.126-.318,7.212,7.212,0,0,0-.738.656" transform="translate(-164.42 -103.607)" fill="#263238"/>
          <path id="Trazado_777536" data-name="Trazado 777536" d="M277.479,170.421a.624.624,0,1,1-.636-.612h.012a.616.616,0,0,1,.624.608v0" transform="translate(-167.798 -103.151)" fill="#fff"/>
          <path id="Trazado_777537" data-name="Trazado 777537" d="M276.87,171.215a.508.508,0,0,0,.361.153.5.5,0,0,0,.5-.487v0a.479.479,0,0,0-.126-.318,7.742,7.742,0,0,0-.738.656" transform="translate(-168.186 -103.607)" fill="#263238"/>
          <path id="Trazado_777538" data-name="Trazado 777538" d="M283.709,170.421a.624.624,0,1,1-.636-.612h.012a.616.616,0,0,1,.624.608v0" transform="translate(-171.582 -103.151)" fill="#fff"/>
          <path id="Trazado_777539" data-name="Trazado 777539" d="M283.14,171.215a.5.5,0,0,0,.86-.337.479.479,0,0,0-.126-.318,7.172,7.172,0,0,0-.734.656" transform="translate(-171.995 -103.607)" fill="#263238"/>
          <path id="Trazado_777540" data-name="Trazado 777540" d="M289.926,170.421a.628.628,0,1,1-.643-.612h.015A.62.62,0,0,1,289.926,170.421Z" transform="translate(-175.354 -103.151)" fill="#fff"/>
          <path id="Trazado_777541" data-name="Trazado 777541" d="M289.37,171.215a.5.5,0,0,0,.86-.337.479.479,0,0,0-.126-.318,7.745,7.745,0,0,0-.734.656" transform="translate(-175.779 -103.607)" fill="#263238"/>
          <path id="Trazado_777542" data-name="Trazado 777542" d="M296.179,170.421a.624.624,0,1,1-.636-.612h.012a.616.616,0,0,1,.624.608v0" transform="translate(-179.157 -103.151)" fill="#fff"/>
          <path id="Trazado_777543" data-name="Trazado 777543" d="M295.6,171.215a.5.5,0,0,0,.361.153.5.5,0,0,0,.5-.491.463.463,0,0,0-.126-.318,7.741,7.741,0,0,0-.734.656" transform="translate(-179.564 -103.607)" fill="#263238"/>
          <path id="Trazado_777544" data-name="Trazado 777544" d="M302.409,170.421a.624.624,0,1,1-.636-.612h.012a.616.616,0,0,1,.624.608v0" transform="translate(-182.941 -103.151)" fill="#fff"/>
          <path id="Trazado_777545" data-name="Trazado 777545" d="M301.87,171.215a.5.5,0,0,0,.864-.337.479.479,0,0,0-.126-.318,7.742,7.742,0,0,0-.738.656" transform="translate(-183.372 -103.607)" fill="#263238"/>
          <path id="Trazado_777546" data-name="Trazado 777546" d="M308.639,170.421a.624.624,0,1,1-.636-.612h.012a.616.616,0,0,1,.624.608v0" transform="translate(-186.726 -103.151)" fill="#fff"/>
          <path id="Trazado_777547" data-name="Trazado 777547" d="M308.06,171.215a.508.508,0,0,0,.361.153.5.5,0,0,0,.5-.487v0a.479.479,0,0,0-.126-.318,7.746,7.746,0,0,0-.738.656" transform="translate(-187.132 -103.607)" fill="#263238"/>
          <path id="Trazado_777548" data-name="Trazado 777548" d="M227.619,180.337a.624.624,0,1,1-.639-.608h.015A.616.616,0,0,1,227.619,180.337Z" transform="translate(-137.51 -109.177)" fill="#fff"/>
          <path id="Trazado_777549" data-name="Trazado 777549" d="M227.05,181.135a.492.492,0,0,0,.357.153.5.5,0,0,0,.5-.495.481.481,0,0,0-.126-.314,7.7,7.7,0,0,0-.734.656" transform="translate(-137.923 -109.633)" fill="#263238"/>
          <path id="Trazado_777550" data-name="Trazado 777550" d="M233.847,180.337a.628.628,0,1,1-.647-.608h.023A.616.616,0,0,1,233.847,180.337Z" transform="translate(-141.289 -109.177)" fill="#fff"/>
          <path id="Trazado_777551" data-name="Trazado 777551" d="M233.28,181.135a.5.5,0,0,0,.86-.342.458.458,0,0,0-.126-.314,7.7,7.7,0,0,0-.734.656" transform="translate(-141.707 -109.633)" fill="#263238"/>
          <path id="Trazado_777552" data-name="Trazado 777552" d="M240.089,180.337a.624.624,0,1,1-.639-.608h.015A.616.616,0,0,1,240.089,180.337Z" transform="translate(-145.085 -109.177)" fill="#fff"/>
          <path id="Trazado_777553" data-name="Trazado 777553" d="M239.51,181.135a.5.5,0,0,0,.864-.342.48.48,0,0,0-.126-.314,7.218,7.218,0,0,0-.738.656" transform="translate(-145.491 -109.633)" fill="#263238"/>
          <path id="Trazado_777554" data-name="Trazado 777554" d="M246.319,180.337a.624.624,0,1,1-.639-.608h.015A.616.616,0,0,1,246.319,180.337Z" transform="translate(-148.869 -109.177)" fill="#fff"/>
          <path id="Trazado_777555" data-name="Trazado 777555" d="M245.74,181.135a.508.508,0,0,0,.361.153.5.5,0,0,0,.5-.495.481.481,0,0,0-.126-.314,7.692,7.692,0,0,0-.738.656" transform="translate(-149.276 -109.633)" fill="#263238"/>
          <path id="Trazado_777556" data-name="Trazado 777556" d="M252.549,180.337a.624.624,0,1,1-.639-.608h.015A.616.616,0,0,1,252.549,180.337Z" transform="translate(-152.654 -109.177)" fill="#fff"/>
          <path id="Trazado_777557" data-name="Trazado 777557" d="M251.98,181.135a.492.492,0,0,0,.357.153.5.5,0,0,0,.5-.495.481.481,0,0,0-.126-.314,7.181,7.181,0,0,0-.734.656" transform="translate(-153.066 -109.633)" fill="#263238"/>
          <path id="Trazado_777558" data-name="Trazado 777558" d="M258.777,180.337a.628.628,0,1,1-.647-.608h.019a.62.62,0,0,1,.628.608" transform="translate(-156.432 -109.177)" fill="#fff"/>
          <path id="Trazado_777559" data-name="Trazado 777559" d="M258.21,181.135a.492.492,0,0,0,.357.153.5.5,0,0,0,.5-.495.481.481,0,0,0-.126-.314,7.689,7.689,0,0,0-.734.656" transform="translate(-156.851 -109.633)" fill="#263238"/>
          <path id="Trazado_777560" data-name="Trazado 777560" d="M265.007,180.337a.628.628,0,1,1-.647-.608h.023A.616.616,0,0,1,265.007,180.337Z" transform="translate(-160.217 -109.177)" fill="#fff"/>
          <path id="Trazado_777561" data-name="Trazado 777561" d="M264.44,181.135a.5.5,0,0,0,.86-.342.458.458,0,0,0-.126-.314,7.692,7.692,0,0,0-.734.656" transform="translate(-160.635 -109.633)" fill="#263238"/>
          <path id="Trazado_777562" data-name="Trazado 777562" d="M271.249,180.337a.624.624,0,1,1-.639-.608h.015A.616.616,0,0,1,271.249,180.337Z" transform="translate(-164.013 -109.177)" fill="#fff"/>
          <path id="Trazado_777563" data-name="Trazado 777563" d="M270.67,181.135a.5.5,0,0,0,.864-.342.481.481,0,0,0-.126-.314,7.212,7.212,0,0,0-.738.656" transform="translate(-164.42 -109.633)" fill="#263238"/>
          <path id="Trazado_777564" data-name="Trazado 777564" d="M277.479,180.337a.624.624,0,1,1-.639-.608h.015A.616.616,0,0,1,277.479,180.337Z" transform="translate(-167.797 -109.177)" fill="#fff"/>
          <path id="Trazado_777565" data-name="Trazado 777565" d="M276.87,181.135a.508.508,0,0,0,.361.153.5.5,0,0,0,.5-.495.481.481,0,0,0-.126-.314,7.69,7.69,0,0,0-.738.656" transform="translate(-168.186 -109.633)" fill="#263238"/>
          <path id="Trazado_777566" data-name="Trazado 777566" d="M283.709,180.337a.624.624,0,1,1-.639-.608h.015A.616.616,0,0,1,283.709,180.337Z" transform="translate(-171.582 -109.177)" fill="#fff"/>
          <path id="Trazado_777567" data-name="Trazado 777567" d="M283.14,181.135a.492.492,0,0,0,.357.153.5.5,0,0,0,.5-.495.48.48,0,0,0-.126-.314,7.172,7.172,0,0,0-.734.656" transform="translate(-171.995 -109.633)" fill="#263238"/>
          <path id="Trazado_777568" data-name="Trazado 777568" d="M289.927,180.337a.628.628,0,1,1-.647-.608h.019a.62.62,0,0,1,.628.608" transform="translate(-175.355 -109.177)" fill="#fff"/>
          <path id="Trazado_777569" data-name="Trazado 777569" d="M289.37,181.135a.492.492,0,0,0,.357.153.5.5,0,0,0,.5-.495.481.481,0,0,0-.126-.314,7.692,7.692,0,0,0-.734.656" transform="translate(-175.779 -109.633)" fill="#263238"/>
          <path id="Trazado_777570" data-name="Trazado 777570" d="M296.179,180.337a.624.624,0,1,1-.639-.608h.015A.616.616,0,0,1,296.179,180.337Z" transform="translate(-179.157 -109.177)" fill="#fff"/>
          <path id="Trazado_777571" data-name="Trazado 777571" d="M295.6,181.135a.5.5,0,0,0,.86-.342.458.458,0,0,0-.126-.314,7.689,7.689,0,0,0-.734.656" transform="translate(-179.564 -109.633)" fill="#263238"/>
          <path id="Trazado_777572" data-name="Trazado 777572" d="M302.409,180.337a.624.624,0,1,1-.639-.608h.015A.616.616,0,0,1,302.409,180.337Z" transform="translate(-182.941 -109.177)" fill="#fff"/>
          <path id="Trazado_777573" data-name="Trazado 777573" d="M301.87,181.135a.5.5,0,0,0,.864-.342.481.481,0,0,0-.126-.314,7.69,7.69,0,0,0-.738.656" transform="translate(-183.372 -109.633)" fill="#263238"/>
          <path id="Trazado_777574" data-name="Trazado 777574" d="M308.639,180.337a.624.624,0,1,1-.639-.608h.015A.616.616,0,0,1,308.639,180.337Z" transform="translate(-186.726 -109.177)" fill="#fff"/>
          <path id="Trazado_777575" data-name="Trazado 777575" d="M308.06,181.135a.508.508,0,0,0,.361.153.5.5,0,0,0,.5-.495.481.481,0,0,0-.126-.314,7.694,7.694,0,0,0-.738.656" transform="translate(-187.132 -109.633)" fill="#263238"/>
          <path id="Trazado_777576" data-name="Trazado 777576" d="M186.565,131.071H167.64a1.57,1.57,0,0,1-1.57-1.539V120.8a11.039,11.039,0,0,1,22.073,0v8.73a1.57,1.57,0,0,1-1.578,1.539m-17.354-3.062h15.78V120.8a7.89,7.89,0,0,0-15.78,0Z" transform="translate(-100.88 -66.819)" fill="#fff"/>
          <path id="Trazado_777577" data-name="Trazado 777577" d="M186.269,130.963H167.336a1.776,1.776,0,0,1-1.766-1.731V120.5a11.235,11.235,0,0,1,22.465,0v8.73a1.774,1.774,0,0,1-1.766,1.735m-18.933-.393h18.933a1.379,1.379,0,0,0,1.373-1.346V120.5a10.843,10.843,0,0,0-21.68,0v8.73a1.38,1.38,0,0,0,1.374,1.342Zm17.35-2.669h-15.78a.2.2,0,0,1-.2-.2V120.5a8.1,8.1,0,0,1,8.083-8.083h0a8.1,8.1,0,0,1,8.086,8.083v7.207a.2.2,0,0,1-.2.2m-15.584-.393h15.388V120.5a7.7,7.7,0,0,0-7.694-7.691h0a7.7,7.7,0,0,0-7.69,7.691Z" transform="translate(-100.576 -66.516)" fill="#263238"/>
          <rect id="Rectángulo_373488" data-name="Rectángulo 373488" width="24.094" height="19.933" transform="translate(64.016 60.044)" fill="#ffb206"/>
          <path id="Trazado_777578" data-name="Trazado 777578" d="M186.871,172.786H162.776a.2.2,0,0,1-.2-.2V152.656a.2.2,0,0,1,.2-.2h24.094a.2.2,0,0,1,.2.2V172.59a.2.2,0,0,1-.2.2m-23.9-.393h23.7V152.853h-23.7Z" transform="translate(-98.76 -92.613)" fill="#263238"/>
          <path id="Trazado_777579" data-name="Trazado 777579" d="M192.038,170.142a2.626,2.626,0,0,0-5.248,0,2.563,2.563,0,0,0,1.378,2.261l-.44,4.526H191.1l-.44-4.526a2.563,2.563,0,0,0,1.378-2.261" transform="translate(-113.466 -101.82)" fill="#263238"/>
          <path id="Trazado_777580" data-name="Trazado 777580" d="M190.8,176.822h-3.372a.2.2,0,0,1-.145-.064.2.2,0,0,1-.05-.151l.427-4.4a2.755,2.755,0,0,1-1.366-2.37,2.823,2.823,0,0,1,4.738-1.971,2.8,2.8,0,0,1,.9,1.962v.009a2.753,2.753,0,0,1-1.366,2.37l.427,4.4a.2.2,0,0,1-.2.215m-3.156-.393h2.939l-.419-4.31a.2.2,0,0,1,.1-.193,2.361,2.361,0,0,0,1.273-2.084,2.431,2.431,0,0,0-2.522-2.33,2.442,2.442,0,0,0-2.334,2.334,2.359,2.359,0,0,0,1.273,2.08.2.2,0,0,1,.1.193Z" transform="translate(-113.163 -101.517)" fill="#263238"/>
        </g>
      </g>
    </g>
  </g>
</svg>
